G04 #@! TF.GenerationSoftware,KiCad,Pcbnew,5.1.5+dfsg1-2build2*
G04 #@! TF.CreationDate,2021-05-18T17:36:41-03:00*
G04 #@! TF.ProjectId,jbox_kicad,6a626f78-5f6b-4696-9361-642e6b696361,0*
G04 #@! TF.SameCoordinates,Original*
G04 #@! TF.FileFunction,Soldermask,Bot*
G04 #@! TF.FilePolarity,Negative*
%FSLAX46Y46*%
G04 Gerber Fmt 4.6, Leading zero omitted, Abs format (unit mm)*
G04 Created by KiCad (PCBNEW 5.1.5+dfsg1-2build2) date 2021-05-18 17:36:41*
%MOMM*%
%LPD*%
G04 APERTURE LIST*
%ADD10C,0.500000*%
G04 APERTURE END LIST*
D10*
G36*
X252086463Y-150249333D02*
G01*
X252596176Y-150460463D01*
X253054906Y-150766976D01*
X253445024Y-151157094D01*
X253751537Y-151615824D01*
X253962667Y-152125537D01*
X254070300Y-152666645D01*
X254070300Y-153218355D01*
X253962667Y-153759463D01*
X253751537Y-154269176D01*
X253445024Y-154727906D01*
X253054906Y-155118024D01*
X252596176Y-155424537D01*
X252086463Y-155635667D01*
X251545355Y-155743300D01*
X250993645Y-155743300D01*
X250452537Y-155635667D01*
X249942824Y-155424537D01*
X249484094Y-155118024D01*
X249093976Y-154727906D01*
X248787463Y-154269176D01*
X248576333Y-153759463D01*
X248468700Y-153218355D01*
X248468700Y-152666645D01*
X248576333Y-152125537D01*
X248787463Y-151615824D01*
X249093976Y-151157094D01*
X249484094Y-150766976D01*
X249942824Y-150460463D01*
X250452537Y-150249333D01*
X250993645Y-150141700D01*
X251545355Y-150141700D01*
X252086463Y-150249333D01*
G37*
G36*
X214809423Y-150249333D02*
G01*
X215319136Y-150460463D01*
X215777866Y-150766976D01*
X216167984Y-151157094D01*
X216474497Y-151615824D01*
X216685627Y-152125537D01*
X216793260Y-152666645D01*
X216793260Y-153218355D01*
X216685627Y-153759463D01*
X216474497Y-154269176D01*
X216167984Y-154727906D01*
X215777866Y-155118024D01*
X215319136Y-155424537D01*
X214809423Y-155635667D01*
X214268315Y-155743300D01*
X213716605Y-155743300D01*
X213175497Y-155635667D01*
X212665784Y-155424537D01*
X212207054Y-155118024D01*
X211816936Y-154727906D01*
X211510423Y-154269176D01*
X211299293Y-153759463D01*
X211191660Y-153218355D01*
X211191660Y-152666645D01*
X211299293Y-152125537D01*
X211510423Y-151615824D01*
X211816936Y-151157094D01*
X212207054Y-150766976D01*
X212665784Y-150460463D01*
X213175497Y-150249333D01*
X213716605Y-150141700D01*
X214268315Y-150141700D01*
X214809423Y-150249333D01*
G37*
G36*
X213526396Y-143834171D02*
G01*
X213899618Y-143988765D01*
X214235509Y-144213200D01*
X214521160Y-144498851D01*
X214745595Y-144834742D01*
X214900189Y-145207964D01*
X214979000Y-145604174D01*
X214979000Y-146008146D01*
X214900189Y-146404356D01*
X214745595Y-146777578D01*
X214521160Y-147113469D01*
X214235509Y-147399120D01*
X213899618Y-147623555D01*
X213526396Y-147778149D01*
X213130186Y-147856960D01*
X212726214Y-147856960D01*
X212330004Y-147778149D01*
X211956782Y-147623555D01*
X211620891Y-147399120D01*
X211335240Y-147113469D01*
X211110805Y-146777578D01*
X210956211Y-146404356D01*
X210877400Y-146008146D01*
X210877400Y-145604174D01*
X210956211Y-145207964D01*
X211110805Y-144834742D01*
X211335240Y-144498851D01*
X211620891Y-144213200D01*
X211956782Y-143988765D01*
X212330004Y-143834171D01*
X212726214Y-143755360D01*
X213130186Y-143755360D01*
X213526396Y-143834171D01*
G37*
G36*
X252769396Y-143824011D02*
G01*
X253142618Y-143978605D01*
X253478509Y-144203040D01*
X253764160Y-144488691D01*
X253988595Y-144824582D01*
X254143189Y-145197804D01*
X254222000Y-145594014D01*
X254222000Y-145997986D01*
X254143189Y-146394196D01*
X253988595Y-146767418D01*
X253764160Y-147103309D01*
X253478509Y-147388960D01*
X253142618Y-147613395D01*
X252769396Y-147767989D01*
X252373186Y-147846800D01*
X251969214Y-147846800D01*
X251573004Y-147767989D01*
X251199782Y-147613395D01*
X250863891Y-147388960D01*
X250578240Y-147103309D01*
X250353805Y-146767418D01*
X250199211Y-146394196D01*
X250120400Y-145997986D01*
X250120400Y-145594014D01*
X250199211Y-145197804D01*
X250353805Y-144824582D01*
X250578240Y-144488691D01*
X250863891Y-144203040D01*
X251199782Y-143978605D01*
X251573004Y-143824011D01*
X251969214Y-143745200D01*
X252373186Y-143745200D01*
X252769396Y-143824011D01*
G37*
G36*
X244389200Y-144921653D02*
G01*
X244525837Y-144978249D01*
X244648807Y-145060415D01*
X244753385Y-145164993D01*
X244835551Y-145287963D01*
X244892147Y-145424600D01*
X244921000Y-145569653D01*
X244921000Y-145717547D01*
X244892147Y-145862600D01*
X244835551Y-145999237D01*
X244753385Y-146122207D01*
X244648807Y-146226785D01*
X244525837Y-146308951D01*
X244389200Y-146365547D01*
X244244147Y-146394400D01*
X244096253Y-146394400D01*
X243951200Y-146365547D01*
X243814563Y-146308951D01*
X243691593Y-146226785D01*
X243587015Y-146122207D01*
X243504849Y-145999237D01*
X243448253Y-145862600D01*
X243419400Y-145717547D01*
X243419400Y-145569653D01*
X243448253Y-145424600D01*
X243504849Y-145287963D01*
X243587015Y-145164993D01*
X243691593Y-145060415D01*
X243814563Y-144978249D01*
X243951200Y-144921653D01*
X244096253Y-144892800D01*
X244244147Y-144892800D01*
X244389200Y-144921653D01*
G37*
G36*
X246929200Y-144921653D02*
G01*
X247065837Y-144978249D01*
X247188807Y-145060415D01*
X247293385Y-145164993D01*
X247375551Y-145287963D01*
X247432147Y-145424600D01*
X247461000Y-145569653D01*
X247461000Y-145717547D01*
X247432147Y-145862600D01*
X247375551Y-145999237D01*
X247293385Y-146122207D01*
X247188807Y-146226785D01*
X247065837Y-146308951D01*
X246929200Y-146365547D01*
X246784147Y-146394400D01*
X246636253Y-146394400D01*
X246491200Y-146365547D01*
X246354563Y-146308951D01*
X246231593Y-146226785D01*
X246127015Y-146122207D01*
X246044849Y-145999237D01*
X245988253Y-145862600D01*
X245959400Y-145717547D01*
X245959400Y-145569653D01*
X245988253Y-145424600D01*
X246044849Y-145287963D01*
X246127015Y-145164993D01*
X246231593Y-145060415D01*
X246354563Y-144978249D01*
X246491200Y-144921653D01*
X246636253Y-144892800D01*
X246784147Y-144892800D01*
X246929200Y-144921653D01*
G37*
G36*
X218989200Y-144921653D02*
G01*
X219125837Y-144978249D01*
X219248807Y-145060415D01*
X219353385Y-145164993D01*
X219435551Y-145287963D01*
X219492147Y-145424600D01*
X219521000Y-145569653D01*
X219521000Y-145717547D01*
X219492147Y-145862600D01*
X219435551Y-145999237D01*
X219353385Y-146122207D01*
X219248807Y-146226785D01*
X219125837Y-146308951D01*
X218989200Y-146365547D01*
X218844147Y-146394400D01*
X218696253Y-146394400D01*
X218551200Y-146365547D01*
X218414563Y-146308951D01*
X218291593Y-146226785D01*
X218187015Y-146122207D01*
X218104849Y-145999237D01*
X218048253Y-145862600D01*
X218019400Y-145717547D01*
X218019400Y-145569653D01*
X218048253Y-145424600D01*
X218104849Y-145287963D01*
X218187015Y-145164993D01*
X218291593Y-145060415D01*
X218414563Y-144978249D01*
X218551200Y-144921653D01*
X218696253Y-144892800D01*
X218844147Y-144892800D01*
X218989200Y-144921653D01*
G37*
G36*
X221529200Y-144921653D02*
G01*
X221665837Y-144978249D01*
X221788807Y-145060415D01*
X221893385Y-145164993D01*
X221975551Y-145287963D01*
X222032147Y-145424600D01*
X222061000Y-145569653D01*
X222061000Y-145717547D01*
X222032147Y-145862600D01*
X221975551Y-145999237D01*
X221893385Y-146122207D01*
X221788807Y-146226785D01*
X221665837Y-146308951D01*
X221529200Y-146365547D01*
X221384147Y-146394400D01*
X221236253Y-146394400D01*
X221091200Y-146365547D01*
X220954563Y-146308951D01*
X220831593Y-146226785D01*
X220727015Y-146122207D01*
X220644849Y-145999237D01*
X220588253Y-145862600D01*
X220559400Y-145717547D01*
X220559400Y-145569653D01*
X220588253Y-145424600D01*
X220644849Y-145287963D01*
X220727015Y-145164993D01*
X220831593Y-145060415D01*
X220954563Y-144978249D01*
X221091200Y-144921653D01*
X221236253Y-144892800D01*
X221384147Y-144892800D01*
X221529200Y-144921653D01*
G37*
G36*
X246929200Y-142381653D02*
G01*
X247065837Y-142438249D01*
X247188807Y-142520415D01*
X247293385Y-142624993D01*
X247375551Y-142747963D01*
X247432147Y-142884600D01*
X247461000Y-143029653D01*
X247461000Y-143177547D01*
X247432147Y-143322600D01*
X247375551Y-143459237D01*
X247293385Y-143582207D01*
X247188807Y-143686785D01*
X247065837Y-143768951D01*
X246929200Y-143825547D01*
X246784147Y-143854400D01*
X246636253Y-143854400D01*
X246491200Y-143825547D01*
X246354563Y-143768951D01*
X246231593Y-143686785D01*
X246127015Y-143582207D01*
X246044849Y-143459237D01*
X245988253Y-143322600D01*
X245959400Y-143177547D01*
X245959400Y-143029653D01*
X245988253Y-142884600D01*
X246044849Y-142747963D01*
X246127015Y-142624993D01*
X246231593Y-142520415D01*
X246354563Y-142438249D01*
X246491200Y-142381653D01*
X246636253Y-142352800D01*
X246784147Y-142352800D01*
X246929200Y-142381653D01*
G37*
G36*
X244389200Y-142381653D02*
G01*
X244525837Y-142438249D01*
X244648807Y-142520415D01*
X244753385Y-142624993D01*
X244835551Y-142747963D01*
X244892147Y-142884600D01*
X244921000Y-143029653D01*
X244921000Y-143177547D01*
X244892147Y-143322600D01*
X244835551Y-143459237D01*
X244753385Y-143582207D01*
X244648807Y-143686785D01*
X244525837Y-143768951D01*
X244389200Y-143825547D01*
X244244147Y-143854400D01*
X244096253Y-143854400D01*
X243951200Y-143825547D01*
X243814563Y-143768951D01*
X243691593Y-143686785D01*
X243587015Y-143582207D01*
X243504849Y-143459237D01*
X243448253Y-143322600D01*
X243419400Y-143177547D01*
X243419400Y-143029653D01*
X243448253Y-142884600D01*
X243504849Y-142747963D01*
X243587015Y-142624993D01*
X243691593Y-142520415D01*
X243814563Y-142438249D01*
X243951200Y-142381653D01*
X244096253Y-142352800D01*
X244244147Y-142352800D01*
X244389200Y-142381653D01*
G37*
G36*
X221529200Y-142381653D02*
G01*
X221665837Y-142438249D01*
X221788807Y-142520415D01*
X221893385Y-142624993D01*
X221975551Y-142747963D01*
X222032147Y-142884600D01*
X222061000Y-143029653D01*
X222061000Y-143177547D01*
X222032147Y-143322600D01*
X221975551Y-143459237D01*
X221893385Y-143582207D01*
X221788807Y-143686785D01*
X221665837Y-143768951D01*
X221529200Y-143825547D01*
X221384147Y-143854400D01*
X221236253Y-143854400D01*
X221091200Y-143825547D01*
X220954563Y-143768951D01*
X220831593Y-143686785D01*
X220727015Y-143582207D01*
X220644849Y-143459237D01*
X220588253Y-143322600D01*
X220559400Y-143177547D01*
X220559400Y-143029653D01*
X220588253Y-142884600D01*
X220644849Y-142747963D01*
X220727015Y-142624993D01*
X220831593Y-142520415D01*
X220954563Y-142438249D01*
X221091200Y-142381653D01*
X221236253Y-142352800D01*
X221384147Y-142352800D01*
X221529200Y-142381653D01*
G37*
G36*
X218989200Y-142381653D02*
G01*
X219125837Y-142438249D01*
X219248807Y-142520415D01*
X219353385Y-142624993D01*
X219435551Y-142747963D01*
X219492147Y-142884600D01*
X219521000Y-143029653D01*
X219521000Y-143177547D01*
X219492147Y-143322600D01*
X219435551Y-143459237D01*
X219353385Y-143582207D01*
X219248807Y-143686785D01*
X219125837Y-143768951D01*
X218989200Y-143825547D01*
X218844147Y-143854400D01*
X218696253Y-143854400D01*
X218551200Y-143825547D01*
X218414563Y-143768951D01*
X218291593Y-143686785D01*
X218187015Y-143582207D01*
X218104849Y-143459237D01*
X218048253Y-143322600D01*
X218019400Y-143177547D01*
X218019400Y-143029653D01*
X218048253Y-142884600D01*
X218104849Y-142747963D01*
X218187015Y-142624993D01*
X218291593Y-142520415D01*
X218414563Y-142438249D01*
X218551200Y-142381653D01*
X218696253Y-142352800D01*
X218844147Y-142352800D01*
X218989200Y-142381653D01*
G37*
G36*
X221529200Y-139841653D02*
G01*
X221665837Y-139898249D01*
X221788807Y-139980415D01*
X221893385Y-140084993D01*
X221975551Y-140207963D01*
X222032147Y-140344600D01*
X222061000Y-140489653D01*
X222061000Y-140637547D01*
X222032147Y-140782600D01*
X221975551Y-140919237D01*
X221893385Y-141042207D01*
X221788807Y-141146785D01*
X221665837Y-141228951D01*
X221529200Y-141285547D01*
X221384147Y-141314400D01*
X221236253Y-141314400D01*
X221091200Y-141285547D01*
X220954563Y-141228951D01*
X220831593Y-141146785D01*
X220727015Y-141042207D01*
X220644849Y-140919237D01*
X220588253Y-140782600D01*
X220559400Y-140637547D01*
X220559400Y-140489653D01*
X220588253Y-140344600D01*
X220644849Y-140207963D01*
X220727015Y-140084993D01*
X220831593Y-139980415D01*
X220954563Y-139898249D01*
X221091200Y-139841653D01*
X221236253Y-139812800D01*
X221384147Y-139812800D01*
X221529200Y-139841653D01*
G37*
G36*
X246929200Y-139841653D02*
G01*
X247065837Y-139898249D01*
X247188807Y-139980415D01*
X247293385Y-140084993D01*
X247375551Y-140207963D01*
X247432147Y-140344600D01*
X247461000Y-140489653D01*
X247461000Y-140637547D01*
X247432147Y-140782600D01*
X247375551Y-140919237D01*
X247293385Y-141042207D01*
X247188807Y-141146785D01*
X247065837Y-141228951D01*
X246929200Y-141285547D01*
X246784147Y-141314400D01*
X246636253Y-141314400D01*
X246491200Y-141285547D01*
X246354563Y-141228951D01*
X246231593Y-141146785D01*
X246127015Y-141042207D01*
X246044849Y-140919237D01*
X245988253Y-140782600D01*
X245959400Y-140637547D01*
X245959400Y-140489653D01*
X245988253Y-140344600D01*
X246044849Y-140207963D01*
X246127015Y-140084993D01*
X246231593Y-139980415D01*
X246354563Y-139898249D01*
X246491200Y-139841653D01*
X246636253Y-139812800D01*
X246784147Y-139812800D01*
X246929200Y-139841653D01*
G37*
G36*
X218989200Y-139841653D02*
G01*
X219125837Y-139898249D01*
X219248807Y-139980415D01*
X219353385Y-140084993D01*
X219435551Y-140207963D01*
X219492147Y-140344600D01*
X219521000Y-140489653D01*
X219521000Y-140637547D01*
X219492147Y-140782600D01*
X219435551Y-140919237D01*
X219353385Y-141042207D01*
X219248807Y-141146785D01*
X219125837Y-141228951D01*
X218989200Y-141285547D01*
X218844147Y-141314400D01*
X218696253Y-141314400D01*
X218551200Y-141285547D01*
X218414563Y-141228951D01*
X218291593Y-141146785D01*
X218187015Y-141042207D01*
X218104849Y-140919237D01*
X218048253Y-140782600D01*
X218019400Y-140637547D01*
X218019400Y-140489653D01*
X218048253Y-140344600D01*
X218104849Y-140207963D01*
X218187015Y-140084993D01*
X218291593Y-139980415D01*
X218414563Y-139898249D01*
X218551200Y-139841653D01*
X218696253Y-139812800D01*
X218844147Y-139812800D01*
X218989200Y-139841653D01*
G37*
G36*
X244389200Y-139841653D02*
G01*
X244525837Y-139898249D01*
X244648807Y-139980415D01*
X244753385Y-140084993D01*
X244835551Y-140207963D01*
X244892147Y-140344600D01*
X244921000Y-140489653D01*
X244921000Y-140637547D01*
X244892147Y-140782600D01*
X244835551Y-140919237D01*
X244753385Y-141042207D01*
X244648807Y-141146785D01*
X244525837Y-141228951D01*
X244389200Y-141285547D01*
X244244147Y-141314400D01*
X244096253Y-141314400D01*
X243951200Y-141285547D01*
X243814563Y-141228951D01*
X243691593Y-141146785D01*
X243587015Y-141042207D01*
X243504849Y-140919237D01*
X243448253Y-140782600D01*
X243419400Y-140637547D01*
X243419400Y-140489653D01*
X243448253Y-140344600D01*
X243504849Y-140207963D01*
X243587015Y-140084993D01*
X243691593Y-139980415D01*
X243814563Y-139898249D01*
X243951200Y-139841653D01*
X244096253Y-139812800D01*
X244244147Y-139812800D01*
X244389200Y-139841653D01*
G37*
G36*
X218989200Y-137301653D02*
G01*
X219125837Y-137358249D01*
X219248807Y-137440415D01*
X219353385Y-137544993D01*
X219435551Y-137667963D01*
X219492147Y-137804600D01*
X219521000Y-137949653D01*
X219521000Y-138097547D01*
X219492147Y-138242600D01*
X219435551Y-138379237D01*
X219353385Y-138502207D01*
X219248807Y-138606785D01*
X219125837Y-138688951D01*
X218989200Y-138745547D01*
X218844147Y-138774400D01*
X218696253Y-138774400D01*
X218551200Y-138745547D01*
X218414563Y-138688951D01*
X218291593Y-138606785D01*
X218187015Y-138502207D01*
X218104849Y-138379237D01*
X218048253Y-138242600D01*
X218019400Y-138097547D01*
X218019400Y-137949653D01*
X218048253Y-137804600D01*
X218104849Y-137667963D01*
X218187015Y-137544993D01*
X218291593Y-137440415D01*
X218414563Y-137358249D01*
X218551200Y-137301653D01*
X218696253Y-137272800D01*
X218844147Y-137272800D01*
X218989200Y-137301653D01*
G37*
G36*
X221529200Y-137301653D02*
G01*
X221665837Y-137358249D01*
X221788807Y-137440415D01*
X221893385Y-137544993D01*
X221975551Y-137667963D01*
X222032147Y-137804600D01*
X222061000Y-137949653D01*
X222061000Y-138097547D01*
X222032147Y-138242600D01*
X221975551Y-138379237D01*
X221893385Y-138502207D01*
X221788807Y-138606785D01*
X221665837Y-138688951D01*
X221529200Y-138745547D01*
X221384147Y-138774400D01*
X221236253Y-138774400D01*
X221091200Y-138745547D01*
X220954563Y-138688951D01*
X220831593Y-138606785D01*
X220727015Y-138502207D01*
X220644849Y-138379237D01*
X220588253Y-138242600D01*
X220559400Y-138097547D01*
X220559400Y-137949653D01*
X220588253Y-137804600D01*
X220644849Y-137667963D01*
X220727015Y-137544993D01*
X220831593Y-137440415D01*
X220954563Y-137358249D01*
X221091200Y-137301653D01*
X221236253Y-137272800D01*
X221384147Y-137272800D01*
X221529200Y-137301653D01*
G37*
G36*
X246929200Y-137301653D02*
G01*
X247065837Y-137358249D01*
X247188807Y-137440415D01*
X247293385Y-137544993D01*
X247375551Y-137667963D01*
X247432147Y-137804600D01*
X247461000Y-137949653D01*
X247461000Y-138097547D01*
X247432147Y-138242600D01*
X247375551Y-138379237D01*
X247293385Y-138502207D01*
X247188807Y-138606785D01*
X247065837Y-138688951D01*
X246929200Y-138745547D01*
X246784147Y-138774400D01*
X246636253Y-138774400D01*
X246491200Y-138745547D01*
X246354563Y-138688951D01*
X246231593Y-138606785D01*
X246127015Y-138502207D01*
X246044849Y-138379237D01*
X245988253Y-138242600D01*
X245959400Y-138097547D01*
X245959400Y-137949653D01*
X245988253Y-137804600D01*
X246044849Y-137667963D01*
X246127015Y-137544993D01*
X246231593Y-137440415D01*
X246354563Y-137358249D01*
X246491200Y-137301653D01*
X246636253Y-137272800D01*
X246784147Y-137272800D01*
X246929200Y-137301653D01*
G37*
G36*
X244389200Y-137301653D02*
G01*
X244525837Y-137358249D01*
X244648807Y-137440415D01*
X244753385Y-137544993D01*
X244835551Y-137667963D01*
X244892147Y-137804600D01*
X244921000Y-137949653D01*
X244921000Y-138097547D01*
X244892147Y-138242600D01*
X244835551Y-138379237D01*
X244753385Y-138502207D01*
X244648807Y-138606785D01*
X244525837Y-138688951D01*
X244389200Y-138745547D01*
X244244147Y-138774400D01*
X244096253Y-138774400D01*
X243951200Y-138745547D01*
X243814563Y-138688951D01*
X243691593Y-138606785D01*
X243587015Y-138502207D01*
X243504849Y-138379237D01*
X243448253Y-138242600D01*
X243419400Y-138097547D01*
X243419400Y-137949653D01*
X243448253Y-137804600D01*
X243504849Y-137667963D01*
X243587015Y-137544993D01*
X243691593Y-137440415D01*
X243814563Y-137358249D01*
X243951200Y-137301653D01*
X244096253Y-137272800D01*
X244244147Y-137272800D01*
X244389200Y-137301653D01*
G37*
G36*
X218989200Y-134761653D02*
G01*
X219125837Y-134818249D01*
X219248807Y-134900415D01*
X219353385Y-135004993D01*
X219435551Y-135127963D01*
X219492147Y-135264600D01*
X219521000Y-135409653D01*
X219521000Y-135557547D01*
X219492147Y-135702600D01*
X219435551Y-135839237D01*
X219353385Y-135962207D01*
X219248807Y-136066785D01*
X219125837Y-136148951D01*
X218989200Y-136205547D01*
X218844147Y-136234400D01*
X218696253Y-136234400D01*
X218551200Y-136205547D01*
X218414563Y-136148951D01*
X218291593Y-136066785D01*
X218187015Y-135962207D01*
X218104849Y-135839237D01*
X218048253Y-135702600D01*
X218019400Y-135557547D01*
X218019400Y-135409653D01*
X218048253Y-135264600D01*
X218104849Y-135127963D01*
X218187015Y-135004993D01*
X218291593Y-134900415D01*
X218414563Y-134818249D01*
X218551200Y-134761653D01*
X218696253Y-134732800D01*
X218844147Y-134732800D01*
X218989200Y-134761653D01*
G37*
G36*
X246929200Y-134761653D02*
G01*
X247065837Y-134818249D01*
X247188807Y-134900415D01*
X247293385Y-135004993D01*
X247375551Y-135127963D01*
X247432147Y-135264600D01*
X247461000Y-135409653D01*
X247461000Y-135557547D01*
X247432147Y-135702600D01*
X247375551Y-135839237D01*
X247293385Y-135962207D01*
X247188807Y-136066785D01*
X247065837Y-136148951D01*
X246929200Y-136205547D01*
X246784147Y-136234400D01*
X246636253Y-136234400D01*
X246491200Y-136205547D01*
X246354563Y-136148951D01*
X246231593Y-136066785D01*
X246127015Y-135962207D01*
X246044849Y-135839237D01*
X245988253Y-135702600D01*
X245959400Y-135557547D01*
X245959400Y-135409653D01*
X245988253Y-135264600D01*
X246044849Y-135127963D01*
X246127015Y-135004993D01*
X246231593Y-134900415D01*
X246354563Y-134818249D01*
X246491200Y-134761653D01*
X246636253Y-134732800D01*
X246784147Y-134732800D01*
X246929200Y-134761653D01*
G37*
G36*
X221529200Y-134761653D02*
G01*
X221665837Y-134818249D01*
X221788807Y-134900415D01*
X221893385Y-135004993D01*
X221975551Y-135127963D01*
X222032147Y-135264600D01*
X222061000Y-135409653D01*
X222061000Y-135557547D01*
X222032147Y-135702600D01*
X221975551Y-135839237D01*
X221893385Y-135962207D01*
X221788807Y-136066785D01*
X221665837Y-136148951D01*
X221529200Y-136205547D01*
X221384147Y-136234400D01*
X221236253Y-136234400D01*
X221091200Y-136205547D01*
X220954563Y-136148951D01*
X220831593Y-136066785D01*
X220727015Y-135962207D01*
X220644849Y-135839237D01*
X220588253Y-135702600D01*
X220559400Y-135557547D01*
X220559400Y-135409653D01*
X220588253Y-135264600D01*
X220644849Y-135127963D01*
X220727015Y-135004993D01*
X220831593Y-134900415D01*
X220954563Y-134818249D01*
X221091200Y-134761653D01*
X221236253Y-134732800D01*
X221384147Y-134732800D01*
X221529200Y-134761653D01*
G37*
G36*
X244389200Y-134761653D02*
G01*
X244525837Y-134818249D01*
X244648807Y-134900415D01*
X244753385Y-135004993D01*
X244835551Y-135127963D01*
X244892147Y-135264600D01*
X244921000Y-135409653D01*
X244921000Y-135557547D01*
X244892147Y-135702600D01*
X244835551Y-135839237D01*
X244753385Y-135962207D01*
X244648807Y-136066785D01*
X244525837Y-136148951D01*
X244389200Y-136205547D01*
X244244147Y-136234400D01*
X244096253Y-136234400D01*
X243951200Y-136205547D01*
X243814563Y-136148951D01*
X243691593Y-136066785D01*
X243587015Y-135962207D01*
X243504849Y-135839237D01*
X243448253Y-135702600D01*
X243419400Y-135557547D01*
X243419400Y-135409653D01*
X243448253Y-135264600D01*
X243504849Y-135127963D01*
X243587015Y-135004993D01*
X243691593Y-134900415D01*
X243814563Y-134818249D01*
X243951200Y-134761653D01*
X244096253Y-134732800D01*
X244244147Y-134732800D01*
X244389200Y-134761653D01*
G37*
G36*
X244389200Y-132221653D02*
G01*
X244525837Y-132278249D01*
X244648807Y-132360415D01*
X244753385Y-132464993D01*
X244835551Y-132587963D01*
X244892147Y-132724600D01*
X244921000Y-132869653D01*
X244921000Y-133017547D01*
X244892147Y-133162600D01*
X244835551Y-133299237D01*
X244753385Y-133422207D01*
X244648807Y-133526785D01*
X244525837Y-133608951D01*
X244389200Y-133665547D01*
X244244147Y-133694400D01*
X244096253Y-133694400D01*
X243951200Y-133665547D01*
X243814563Y-133608951D01*
X243691593Y-133526785D01*
X243587015Y-133422207D01*
X243504849Y-133299237D01*
X243448253Y-133162600D01*
X243419400Y-133017547D01*
X243419400Y-132869653D01*
X243448253Y-132724600D01*
X243504849Y-132587963D01*
X243587015Y-132464993D01*
X243691593Y-132360415D01*
X243814563Y-132278249D01*
X243951200Y-132221653D01*
X244096253Y-132192800D01*
X244244147Y-132192800D01*
X244389200Y-132221653D01*
G37*
G36*
X246929200Y-132221653D02*
G01*
X247065837Y-132278249D01*
X247188807Y-132360415D01*
X247293385Y-132464993D01*
X247375551Y-132587963D01*
X247432147Y-132724600D01*
X247461000Y-132869653D01*
X247461000Y-133017547D01*
X247432147Y-133162600D01*
X247375551Y-133299237D01*
X247293385Y-133422207D01*
X247188807Y-133526785D01*
X247065837Y-133608951D01*
X246929200Y-133665547D01*
X246784147Y-133694400D01*
X246636253Y-133694400D01*
X246491200Y-133665547D01*
X246354563Y-133608951D01*
X246231593Y-133526785D01*
X246127015Y-133422207D01*
X246044849Y-133299237D01*
X245988253Y-133162600D01*
X245959400Y-133017547D01*
X245959400Y-132869653D01*
X245988253Y-132724600D01*
X246044849Y-132587963D01*
X246127015Y-132464993D01*
X246231593Y-132360415D01*
X246354563Y-132278249D01*
X246491200Y-132221653D01*
X246636253Y-132192800D01*
X246784147Y-132192800D01*
X246929200Y-132221653D01*
G37*
G36*
X218989200Y-132221653D02*
G01*
X219125837Y-132278249D01*
X219248807Y-132360415D01*
X219353385Y-132464993D01*
X219435551Y-132587963D01*
X219492147Y-132724600D01*
X219521000Y-132869653D01*
X219521000Y-133017547D01*
X219492147Y-133162600D01*
X219435551Y-133299237D01*
X219353385Y-133422207D01*
X219248807Y-133526785D01*
X219125837Y-133608951D01*
X218989200Y-133665547D01*
X218844147Y-133694400D01*
X218696253Y-133694400D01*
X218551200Y-133665547D01*
X218414563Y-133608951D01*
X218291593Y-133526785D01*
X218187015Y-133422207D01*
X218104849Y-133299237D01*
X218048253Y-133162600D01*
X218019400Y-133017547D01*
X218019400Y-132869653D01*
X218048253Y-132724600D01*
X218104849Y-132587963D01*
X218187015Y-132464993D01*
X218291593Y-132360415D01*
X218414563Y-132278249D01*
X218551200Y-132221653D01*
X218696253Y-132192800D01*
X218844147Y-132192800D01*
X218989200Y-132221653D01*
G37*
G36*
X221529200Y-132221653D02*
G01*
X221665837Y-132278249D01*
X221788807Y-132360415D01*
X221893385Y-132464993D01*
X221975551Y-132587963D01*
X222032147Y-132724600D01*
X222061000Y-132869653D01*
X222061000Y-133017547D01*
X222032147Y-133162600D01*
X221975551Y-133299237D01*
X221893385Y-133422207D01*
X221788807Y-133526785D01*
X221665837Y-133608951D01*
X221529200Y-133665547D01*
X221384147Y-133694400D01*
X221236253Y-133694400D01*
X221091200Y-133665547D01*
X220954563Y-133608951D01*
X220831593Y-133526785D01*
X220727015Y-133422207D01*
X220644849Y-133299237D01*
X220588253Y-133162600D01*
X220559400Y-133017547D01*
X220559400Y-132869653D01*
X220588253Y-132724600D01*
X220644849Y-132587963D01*
X220727015Y-132464993D01*
X220831593Y-132360415D01*
X220954563Y-132278249D01*
X221091200Y-132221653D01*
X221236253Y-132192800D01*
X221384147Y-132192800D01*
X221529200Y-132221653D01*
G37*
G36*
X252769396Y-127314011D02*
G01*
X253142618Y-127468605D01*
X253478509Y-127693040D01*
X253764160Y-127978691D01*
X253988595Y-128314582D01*
X254143189Y-128687804D01*
X254222000Y-129084014D01*
X254222000Y-129487986D01*
X254143189Y-129884196D01*
X253988595Y-130257418D01*
X253764160Y-130593309D01*
X253478509Y-130878960D01*
X253142618Y-131103395D01*
X252769396Y-131257989D01*
X252373186Y-131336800D01*
X251969214Y-131336800D01*
X251573004Y-131257989D01*
X251199782Y-131103395D01*
X250863891Y-130878960D01*
X250578240Y-130593309D01*
X250353805Y-130257418D01*
X250199211Y-129884196D01*
X250120400Y-129487986D01*
X250120400Y-129084014D01*
X250199211Y-128687804D01*
X250353805Y-128314582D01*
X250578240Y-127978691D01*
X250863891Y-127693040D01*
X251199782Y-127468605D01*
X251573004Y-127314011D01*
X251969214Y-127235200D01*
X252373186Y-127235200D01*
X252769396Y-127314011D01*
G37*
G36*
X213513696Y-127260671D02*
G01*
X213886918Y-127415265D01*
X214222809Y-127639700D01*
X214508460Y-127925351D01*
X214732895Y-128261242D01*
X214887489Y-128634464D01*
X214966300Y-129030674D01*
X214966300Y-129434646D01*
X214887489Y-129830856D01*
X214732895Y-130204078D01*
X214508460Y-130539969D01*
X214222809Y-130825620D01*
X213886918Y-131050055D01*
X213513696Y-131204649D01*
X213117486Y-131283460D01*
X212713514Y-131283460D01*
X212317304Y-131204649D01*
X211944082Y-131050055D01*
X211608191Y-130825620D01*
X211322540Y-130539969D01*
X211098105Y-130204078D01*
X210943511Y-129830856D01*
X210864700Y-129434646D01*
X210864700Y-129030674D01*
X210943511Y-128634464D01*
X211098105Y-128261242D01*
X211322540Y-127925351D01*
X211608191Y-127639700D01*
X211944082Y-127415265D01*
X212317304Y-127260671D01*
X212713514Y-127181860D01*
X213117486Y-127181860D01*
X213513696Y-127260671D01*
G37*
G36*
X246929200Y-129681653D02*
G01*
X247065837Y-129738249D01*
X247188807Y-129820415D01*
X247293385Y-129924993D01*
X247375551Y-130047963D01*
X247432147Y-130184600D01*
X247461000Y-130329653D01*
X247461000Y-130477547D01*
X247432147Y-130622600D01*
X247375551Y-130759237D01*
X247293385Y-130882207D01*
X247188807Y-130986785D01*
X247065837Y-131068951D01*
X246929200Y-131125547D01*
X246784147Y-131154400D01*
X246636253Y-131154400D01*
X246491200Y-131125547D01*
X246354563Y-131068951D01*
X246231593Y-130986785D01*
X246127015Y-130882207D01*
X246044849Y-130759237D01*
X245988253Y-130622600D01*
X245959400Y-130477547D01*
X245959400Y-130329653D01*
X245988253Y-130184600D01*
X246044849Y-130047963D01*
X246127015Y-129924993D01*
X246231593Y-129820415D01*
X246354563Y-129738249D01*
X246491200Y-129681653D01*
X246636253Y-129652800D01*
X246784147Y-129652800D01*
X246929200Y-129681653D01*
G37*
G36*
X221529200Y-129681653D02*
G01*
X221665837Y-129738249D01*
X221788807Y-129820415D01*
X221893385Y-129924993D01*
X221975551Y-130047963D01*
X222032147Y-130184600D01*
X222061000Y-130329653D01*
X222061000Y-130477547D01*
X222032147Y-130622600D01*
X221975551Y-130759237D01*
X221893385Y-130882207D01*
X221788807Y-130986785D01*
X221665837Y-131068951D01*
X221529200Y-131125547D01*
X221384147Y-131154400D01*
X221236253Y-131154400D01*
X221091200Y-131125547D01*
X220954563Y-131068951D01*
X220831593Y-130986785D01*
X220727015Y-130882207D01*
X220644849Y-130759237D01*
X220588253Y-130622600D01*
X220559400Y-130477547D01*
X220559400Y-130329653D01*
X220588253Y-130184600D01*
X220644849Y-130047963D01*
X220727015Y-129924993D01*
X220831593Y-129820415D01*
X220954563Y-129738249D01*
X221091200Y-129681653D01*
X221236253Y-129652800D01*
X221384147Y-129652800D01*
X221529200Y-129681653D01*
G37*
G36*
X244389200Y-129681653D02*
G01*
X244525837Y-129738249D01*
X244648807Y-129820415D01*
X244753385Y-129924993D01*
X244835551Y-130047963D01*
X244892147Y-130184600D01*
X244921000Y-130329653D01*
X244921000Y-130477547D01*
X244892147Y-130622600D01*
X244835551Y-130759237D01*
X244753385Y-130882207D01*
X244648807Y-130986785D01*
X244525837Y-131068951D01*
X244389200Y-131125547D01*
X244244147Y-131154400D01*
X244096253Y-131154400D01*
X243951200Y-131125547D01*
X243814563Y-131068951D01*
X243691593Y-130986785D01*
X243587015Y-130882207D01*
X243504849Y-130759237D01*
X243448253Y-130622600D01*
X243419400Y-130477547D01*
X243419400Y-130329653D01*
X243448253Y-130184600D01*
X243504849Y-130047963D01*
X243587015Y-129924993D01*
X243691593Y-129820415D01*
X243814563Y-129738249D01*
X243951200Y-129681653D01*
X244096253Y-129652800D01*
X244244147Y-129652800D01*
X244389200Y-129681653D01*
G37*
G36*
X218989200Y-129681653D02*
G01*
X219125837Y-129738249D01*
X219248807Y-129820415D01*
X219353385Y-129924993D01*
X219435551Y-130047963D01*
X219492147Y-130184600D01*
X219521000Y-130329653D01*
X219521000Y-130477547D01*
X219492147Y-130622600D01*
X219435551Y-130759237D01*
X219353385Y-130882207D01*
X219248807Y-130986785D01*
X219125837Y-131068951D01*
X218989200Y-131125547D01*
X218844147Y-131154400D01*
X218696253Y-131154400D01*
X218551200Y-131125547D01*
X218414563Y-131068951D01*
X218291593Y-130986785D01*
X218187015Y-130882207D01*
X218104849Y-130759237D01*
X218048253Y-130622600D01*
X218019400Y-130477547D01*
X218019400Y-130329653D01*
X218048253Y-130184600D01*
X218104849Y-130047963D01*
X218187015Y-129924993D01*
X218291593Y-129820415D01*
X218414563Y-129738249D01*
X218551200Y-129681653D01*
X218696253Y-129652800D01*
X218844147Y-129652800D01*
X218989200Y-129681653D01*
G37*
G36*
X246929200Y-127141653D02*
G01*
X247065837Y-127198249D01*
X247188807Y-127280415D01*
X247293385Y-127384993D01*
X247375551Y-127507963D01*
X247432147Y-127644600D01*
X247461000Y-127789653D01*
X247461000Y-127937547D01*
X247432147Y-128082600D01*
X247375551Y-128219237D01*
X247293385Y-128342207D01*
X247188807Y-128446785D01*
X247065837Y-128528951D01*
X246929200Y-128585547D01*
X246784147Y-128614400D01*
X246636253Y-128614400D01*
X246491200Y-128585547D01*
X246354563Y-128528951D01*
X246231593Y-128446785D01*
X246127015Y-128342207D01*
X246044849Y-128219237D01*
X245988253Y-128082600D01*
X245959400Y-127937547D01*
X245959400Y-127789653D01*
X245988253Y-127644600D01*
X246044849Y-127507963D01*
X246127015Y-127384993D01*
X246231593Y-127280415D01*
X246354563Y-127198249D01*
X246491200Y-127141653D01*
X246636253Y-127112800D01*
X246784147Y-127112800D01*
X246929200Y-127141653D01*
G37*
G36*
X221529200Y-127141653D02*
G01*
X221665837Y-127198249D01*
X221788807Y-127280415D01*
X221893385Y-127384993D01*
X221975551Y-127507963D01*
X222032147Y-127644600D01*
X222061000Y-127789653D01*
X222061000Y-127937547D01*
X222032147Y-128082600D01*
X221975551Y-128219237D01*
X221893385Y-128342207D01*
X221788807Y-128446785D01*
X221665837Y-128528951D01*
X221529200Y-128585547D01*
X221384147Y-128614400D01*
X221236253Y-128614400D01*
X221091200Y-128585547D01*
X220954563Y-128528951D01*
X220831593Y-128446785D01*
X220727015Y-128342207D01*
X220644849Y-128219237D01*
X220588253Y-128082600D01*
X220559400Y-127937547D01*
X220559400Y-127789653D01*
X220588253Y-127644600D01*
X220644849Y-127507963D01*
X220727015Y-127384993D01*
X220831593Y-127280415D01*
X220954563Y-127198249D01*
X221091200Y-127141653D01*
X221236253Y-127112800D01*
X221384147Y-127112800D01*
X221529200Y-127141653D01*
G37*
G36*
X218989200Y-127141653D02*
G01*
X219125837Y-127198249D01*
X219248807Y-127280415D01*
X219353385Y-127384993D01*
X219435551Y-127507963D01*
X219492147Y-127644600D01*
X219521000Y-127789653D01*
X219521000Y-127937547D01*
X219492147Y-128082600D01*
X219435551Y-128219237D01*
X219353385Y-128342207D01*
X219248807Y-128446785D01*
X219125837Y-128528951D01*
X218989200Y-128585547D01*
X218844147Y-128614400D01*
X218696253Y-128614400D01*
X218551200Y-128585547D01*
X218414563Y-128528951D01*
X218291593Y-128446785D01*
X218187015Y-128342207D01*
X218104849Y-128219237D01*
X218048253Y-128082600D01*
X218019400Y-127937547D01*
X218019400Y-127789653D01*
X218048253Y-127644600D01*
X218104849Y-127507963D01*
X218187015Y-127384993D01*
X218291593Y-127280415D01*
X218414563Y-127198249D01*
X218551200Y-127141653D01*
X218696253Y-127112800D01*
X218844147Y-127112800D01*
X218989200Y-127141653D01*
G37*
G36*
X244389200Y-127141653D02*
G01*
X244525837Y-127198249D01*
X244648807Y-127280415D01*
X244753385Y-127384993D01*
X244835551Y-127507963D01*
X244892147Y-127644600D01*
X244921000Y-127789653D01*
X244921000Y-127937547D01*
X244892147Y-128082600D01*
X244835551Y-128219237D01*
X244753385Y-128342207D01*
X244648807Y-128446785D01*
X244525837Y-128528951D01*
X244389200Y-128585547D01*
X244244147Y-128614400D01*
X244096253Y-128614400D01*
X243951200Y-128585547D01*
X243814563Y-128528951D01*
X243691593Y-128446785D01*
X243587015Y-128342207D01*
X243504849Y-128219237D01*
X243448253Y-128082600D01*
X243419400Y-127937547D01*
X243419400Y-127789653D01*
X243448253Y-127644600D01*
X243504849Y-127507963D01*
X243587015Y-127384993D01*
X243691593Y-127280415D01*
X243814563Y-127198249D01*
X243951200Y-127141653D01*
X244096253Y-127112800D01*
X244244147Y-127112800D01*
X244389200Y-127141653D01*
G37*
G36*
X246929200Y-124601653D02*
G01*
X247065837Y-124658249D01*
X247188807Y-124740415D01*
X247293385Y-124844993D01*
X247375551Y-124967963D01*
X247432147Y-125104600D01*
X247461000Y-125249653D01*
X247461000Y-125397547D01*
X247432147Y-125542600D01*
X247375551Y-125679237D01*
X247293385Y-125802207D01*
X247188807Y-125906785D01*
X247065837Y-125988951D01*
X246929200Y-126045547D01*
X246784147Y-126074400D01*
X246636253Y-126074400D01*
X246491200Y-126045547D01*
X246354563Y-125988951D01*
X246231593Y-125906785D01*
X246127015Y-125802207D01*
X246044849Y-125679237D01*
X245988253Y-125542600D01*
X245959400Y-125397547D01*
X245959400Y-125249653D01*
X245988253Y-125104600D01*
X246044849Y-124967963D01*
X246127015Y-124844993D01*
X246231593Y-124740415D01*
X246354563Y-124658249D01*
X246491200Y-124601653D01*
X246636253Y-124572800D01*
X246784147Y-124572800D01*
X246929200Y-124601653D01*
G37*
G36*
X218989200Y-124601653D02*
G01*
X219125837Y-124658249D01*
X219248807Y-124740415D01*
X219353385Y-124844993D01*
X219435551Y-124967963D01*
X219492147Y-125104600D01*
X219521000Y-125249653D01*
X219521000Y-125397547D01*
X219492147Y-125542600D01*
X219435551Y-125679237D01*
X219353385Y-125802207D01*
X219248807Y-125906785D01*
X219125837Y-125988951D01*
X218989200Y-126045547D01*
X218844147Y-126074400D01*
X218696253Y-126074400D01*
X218551200Y-126045547D01*
X218414563Y-125988951D01*
X218291593Y-125906785D01*
X218187015Y-125802207D01*
X218104849Y-125679237D01*
X218048253Y-125542600D01*
X218019400Y-125397547D01*
X218019400Y-125249653D01*
X218048253Y-125104600D01*
X218104849Y-124967963D01*
X218187015Y-124844993D01*
X218291593Y-124740415D01*
X218414563Y-124658249D01*
X218551200Y-124601653D01*
X218696253Y-124572800D01*
X218844147Y-124572800D01*
X218989200Y-124601653D01*
G37*
G36*
X244389200Y-124601653D02*
G01*
X244525837Y-124658249D01*
X244648807Y-124740415D01*
X244753385Y-124844993D01*
X244835551Y-124967963D01*
X244892147Y-125104600D01*
X244921000Y-125249653D01*
X244921000Y-125397547D01*
X244892147Y-125542600D01*
X244835551Y-125679237D01*
X244753385Y-125802207D01*
X244648807Y-125906785D01*
X244525837Y-125988951D01*
X244389200Y-126045547D01*
X244244147Y-126074400D01*
X244096253Y-126074400D01*
X243951200Y-126045547D01*
X243814563Y-125988951D01*
X243691593Y-125906785D01*
X243587015Y-125802207D01*
X243504849Y-125679237D01*
X243448253Y-125542600D01*
X243419400Y-125397547D01*
X243419400Y-125249653D01*
X243448253Y-125104600D01*
X243504849Y-124967963D01*
X243587015Y-124844993D01*
X243691593Y-124740415D01*
X243814563Y-124658249D01*
X243951200Y-124601653D01*
X244096253Y-124572800D01*
X244244147Y-124572800D01*
X244389200Y-124601653D01*
G37*
G36*
X221529200Y-124601653D02*
G01*
X221665837Y-124658249D01*
X221788807Y-124740415D01*
X221893385Y-124844993D01*
X221975551Y-124967963D01*
X222032147Y-125104600D01*
X222061000Y-125249653D01*
X222061000Y-125397547D01*
X222032147Y-125542600D01*
X221975551Y-125679237D01*
X221893385Y-125802207D01*
X221788807Y-125906785D01*
X221665837Y-125988951D01*
X221529200Y-126045547D01*
X221384147Y-126074400D01*
X221236253Y-126074400D01*
X221091200Y-126045547D01*
X220954563Y-125988951D01*
X220831593Y-125906785D01*
X220727015Y-125802207D01*
X220644849Y-125679237D01*
X220588253Y-125542600D01*
X220559400Y-125397547D01*
X220559400Y-125249653D01*
X220588253Y-125104600D01*
X220644849Y-124967963D01*
X220727015Y-124844993D01*
X220831593Y-124740415D01*
X220954563Y-124658249D01*
X221091200Y-124601653D01*
X221236253Y-124572800D01*
X221384147Y-124572800D01*
X221529200Y-124601653D01*
G37*
G36*
X250674226Y-123993520D02*
G01*
X250719862Y-124007364D01*
X250761927Y-124029848D01*
X250798795Y-124060105D01*
X250829052Y-124096973D01*
X250851536Y-124139038D01*
X250865380Y-124184674D01*
X250870300Y-124234626D01*
X250870300Y-125244174D01*
X250865380Y-125294126D01*
X250851536Y-125339762D01*
X250829052Y-125381827D01*
X250798795Y-125418695D01*
X250761927Y-125448952D01*
X250719862Y-125471436D01*
X250674226Y-125485280D01*
X250624274Y-125490200D01*
X249864726Y-125490200D01*
X249814774Y-125485280D01*
X249769138Y-125471436D01*
X249727073Y-125448952D01*
X249690205Y-125418695D01*
X249659948Y-125381827D01*
X249637464Y-125339762D01*
X249623620Y-125294126D01*
X249618700Y-125244174D01*
X249618700Y-124234626D01*
X249623620Y-124184674D01*
X249637464Y-124139038D01*
X249659948Y-124096973D01*
X249690205Y-124060105D01*
X249727073Y-124029848D01*
X249769138Y-124007364D01*
X249814774Y-123993520D01*
X249864726Y-123988600D01*
X250624274Y-123988600D01*
X250674226Y-123993520D01*
G37*
G36*
X252724226Y-123993520D02*
G01*
X252769862Y-124007364D01*
X252811927Y-124029848D01*
X252848795Y-124060105D01*
X252879052Y-124096973D01*
X252901536Y-124139038D01*
X252915380Y-124184674D01*
X252920300Y-124234626D01*
X252920300Y-125244174D01*
X252915380Y-125294126D01*
X252901536Y-125339762D01*
X252879052Y-125381827D01*
X252848795Y-125418695D01*
X252811927Y-125448952D01*
X252769862Y-125471436D01*
X252724226Y-125485280D01*
X252674274Y-125490200D01*
X251914726Y-125490200D01*
X251864774Y-125485280D01*
X251819138Y-125471436D01*
X251777073Y-125448952D01*
X251740205Y-125418695D01*
X251709948Y-125381827D01*
X251687464Y-125339762D01*
X251673620Y-125294126D01*
X251668700Y-125244174D01*
X251668700Y-124234626D01*
X251673620Y-124184674D01*
X251687464Y-124139038D01*
X251709948Y-124096973D01*
X251740205Y-124060105D01*
X251777073Y-124029848D01*
X251819138Y-124007364D01*
X251864774Y-123993520D01*
X251914726Y-123988600D01*
X252674274Y-123988600D01*
X252724226Y-123993520D01*
G37*
G36*
X216645226Y-124229120D02*
G01*
X216690862Y-124242964D01*
X216732927Y-124265448D01*
X216769795Y-124295705D01*
X216800052Y-124332573D01*
X216822536Y-124374638D01*
X216836380Y-124420274D01*
X216841300Y-124470226D01*
X216841300Y-125229774D01*
X216836380Y-125279726D01*
X216822536Y-125325362D01*
X216800052Y-125367427D01*
X216769795Y-125404295D01*
X216732927Y-125434552D01*
X216690862Y-125457036D01*
X216645226Y-125470880D01*
X216595274Y-125475800D01*
X215585726Y-125475800D01*
X215535774Y-125470880D01*
X215490138Y-125457036D01*
X215448073Y-125434552D01*
X215411205Y-125404295D01*
X215380948Y-125367427D01*
X215358464Y-125325362D01*
X215344620Y-125279726D01*
X215339700Y-125229774D01*
X215339700Y-124470226D01*
X215344620Y-124420274D01*
X215358464Y-124374638D01*
X215380948Y-124332573D01*
X215411205Y-124295705D01*
X215448073Y-124265448D01*
X215490138Y-124242964D01*
X215535774Y-124229120D01*
X215585726Y-124224200D01*
X216595274Y-124224200D01*
X216645226Y-124229120D01*
G37*
G36*
X213089226Y-124229120D02*
G01*
X213134862Y-124242964D01*
X213176927Y-124265448D01*
X213213795Y-124295705D01*
X213244052Y-124332573D01*
X213266536Y-124374638D01*
X213280380Y-124420274D01*
X213285300Y-124470226D01*
X213285300Y-125229774D01*
X213280380Y-125279726D01*
X213266536Y-125325362D01*
X213244052Y-125367427D01*
X213213795Y-125404295D01*
X213176927Y-125434552D01*
X213134862Y-125457036D01*
X213089226Y-125470880D01*
X213039274Y-125475800D01*
X212029726Y-125475800D01*
X211979774Y-125470880D01*
X211934138Y-125457036D01*
X211892073Y-125434552D01*
X211855205Y-125404295D01*
X211824948Y-125367427D01*
X211802464Y-125325362D01*
X211788620Y-125279726D01*
X211783700Y-125229774D01*
X211783700Y-124470226D01*
X211788620Y-124420274D01*
X211802464Y-124374638D01*
X211824948Y-124332573D01*
X211855205Y-124295705D01*
X211892073Y-124265448D01*
X211934138Y-124242964D01*
X211979774Y-124229120D01*
X212029726Y-124224200D01*
X213039274Y-124224200D01*
X213089226Y-124229120D01*
G37*
G36*
X221529200Y-122061653D02*
G01*
X221665837Y-122118249D01*
X221788807Y-122200415D01*
X221893385Y-122304993D01*
X221975551Y-122427963D01*
X222032147Y-122564600D01*
X222061000Y-122709653D01*
X222061000Y-122857547D01*
X222032147Y-123002600D01*
X221975551Y-123139237D01*
X221893385Y-123262207D01*
X221788807Y-123366785D01*
X221665837Y-123448951D01*
X221529200Y-123505547D01*
X221384147Y-123534400D01*
X221236253Y-123534400D01*
X221091200Y-123505547D01*
X220954563Y-123448951D01*
X220831593Y-123366785D01*
X220727015Y-123262207D01*
X220644849Y-123139237D01*
X220588253Y-123002600D01*
X220559400Y-122857547D01*
X220559400Y-122709653D01*
X220588253Y-122564600D01*
X220644849Y-122427963D01*
X220727015Y-122304993D01*
X220831593Y-122200415D01*
X220954563Y-122118249D01*
X221091200Y-122061653D01*
X221236253Y-122032800D01*
X221384147Y-122032800D01*
X221529200Y-122061653D01*
G37*
G36*
X244389200Y-122061653D02*
G01*
X244525837Y-122118249D01*
X244648807Y-122200415D01*
X244753385Y-122304993D01*
X244835551Y-122427963D01*
X244892147Y-122564600D01*
X244921000Y-122709653D01*
X244921000Y-122857547D01*
X244892147Y-123002600D01*
X244835551Y-123139237D01*
X244753385Y-123262207D01*
X244648807Y-123366785D01*
X244525837Y-123448951D01*
X244389200Y-123505547D01*
X244244147Y-123534400D01*
X244096253Y-123534400D01*
X243951200Y-123505547D01*
X243814563Y-123448951D01*
X243691593Y-123366785D01*
X243587015Y-123262207D01*
X243504849Y-123139237D01*
X243448253Y-123002600D01*
X243419400Y-122857547D01*
X243419400Y-122709653D01*
X243448253Y-122564600D01*
X243504849Y-122427963D01*
X243587015Y-122304993D01*
X243691593Y-122200415D01*
X243814563Y-122118249D01*
X243951200Y-122061653D01*
X244096253Y-122032800D01*
X244244147Y-122032800D01*
X244389200Y-122061653D01*
G37*
G36*
X246929200Y-122061653D02*
G01*
X247065837Y-122118249D01*
X247188807Y-122200415D01*
X247293385Y-122304993D01*
X247375551Y-122427963D01*
X247432147Y-122564600D01*
X247461000Y-122709653D01*
X247461000Y-122857547D01*
X247432147Y-123002600D01*
X247375551Y-123139237D01*
X247293385Y-123262207D01*
X247188807Y-123366785D01*
X247065837Y-123448951D01*
X246929200Y-123505547D01*
X246784147Y-123534400D01*
X246636253Y-123534400D01*
X246491200Y-123505547D01*
X246354563Y-123448951D01*
X246231593Y-123366785D01*
X246127015Y-123262207D01*
X246044849Y-123139237D01*
X245988253Y-123002600D01*
X245959400Y-122857547D01*
X245959400Y-122709653D01*
X245988253Y-122564600D01*
X246044849Y-122427963D01*
X246127015Y-122304993D01*
X246231593Y-122200415D01*
X246354563Y-122118249D01*
X246491200Y-122061653D01*
X246636253Y-122032800D01*
X246784147Y-122032800D01*
X246929200Y-122061653D01*
G37*
G36*
X218989200Y-122061653D02*
G01*
X219125837Y-122118249D01*
X219248807Y-122200415D01*
X219353385Y-122304993D01*
X219435551Y-122427963D01*
X219492147Y-122564600D01*
X219521000Y-122709653D01*
X219521000Y-122857547D01*
X219492147Y-123002600D01*
X219435551Y-123139237D01*
X219353385Y-123262207D01*
X219248807Y-123366785D01*
X219125837Y-123448951D01*
X218989200Y-123505547D01*
X218844147Y-123534400D01*
X218696253Y-123534400D01*
X218551200Y-123505547D01*
X218414563Y-123448951D01*
X218291593Y-123366785D01*
X218187015Y-123262207D01*
X218104849Y-123139237D01*
X218048253Y-123002600D01*
X218019400Y-122857547D01*
X218019400Y-122709653D01*
X218048253Y-122564600D01*
X218104849Y-122427963D01*
X218187015Y-122304993D01*
X218291593Y-122200415D01*
X218414563Y-122118249D01*
X218551200Y-122061653D01*
X218696253Y-122032800D01*
X218844147Y-122032800D01*
X218989200Y-122061653D01*
G37*
G36*
X216645226Y-122179120D02*
G01*
X216690862Y-122192964D01*
X216732927Y-122215448D01*
X216769795Y-122245705D01*
X216800052Y-122282573D01*
X216822536Y-122324638D01*
X216836380Y-122370274D01*
X216841300Y-122420226D01*
X216841300Y-123179774D01*
X216836380Y-123229726D01*
X216822536Y-123275362D01*
X216800052Y-123317427D01*
X216769795Y-123354295D01*
X216732927Y-123384552D01*
X216690862Y-123407036D01*
X216645226Y-123420880D01*
X216595274Y-123425800D01*
X215585726Y-123425800D01*
X215535774Y-123420880D01*
X215490138Y-123407036D01*
X215448073Y-123384552D01*
X215411205Y-123354295D01*
X215380948Y-123317427D01*
X215358464Y-123275362D01*
X215344620Y-123229726D01*
X215339700Y-123179774D01*
X215339700Y-122420226D01*
X215344620Y-122370274D01*
X215358464Y-122324638D01*
X215380948Y-122282573D01*
X215411205Y-122245705D01*
X215448073Y-122215448D01*
X215490138Y-122192964D01*
X215535774Y-122179120D01*
X215585726Y-122174200D01*
X216595274Y-122174200D01*
X216645226Y-122179120D01*
G37*
G36*
X213089226Y-122179120D02*
G01*
X213134862Y-122192964D01*
X213176927Y-122215448D01*
X213213795Y-122245705D01*
X213244052Y-122282573D01*
X213266536Y-122324638D01*
X213280380Y-122370274D01*
X213285300Y-122420226D01*
X213285300Y-123179774D01*
X213280380Y-123229726D01*
X213266536Y-123275362D01*
X213244052Y-123317427D01*
X213213795Y-123354295D01*
X213176927Y-123384552D01*
X213134862Y-123407036D01*
X213089226Y-123420880D01*
X213039274Y-123425800D01*
X212029726Y-123425800D01*
X211979774Y-123420880D01*
X211934138Y-123407036D01*
X211892073Y-123384552D01*
X211855205Y-123354295D01*
X211824948Y-123317427D01*
X211802464Y-123275362D01*
X211788620Y-123229726D01*
X211783700Y-123179774D01*
X211783700Y-122420226D01*
X211788620Y-122370274D01*
X211802464Y-122324638D01*
X211824948Y-122282573D01*
X211855205Y-122245705D01*
X211892073Y-122215448D01*
X211934138Y-122192964D01*
X211979774Y-122179120D01*
X212029726Y-122174200D01*
X213039274Y-122174200D01*
X213089226Y-122179120D01*
G37*
G36*
X250674647Y-121872609D02*
G01*
X250720191Y-121886424D01*
X250762164Y-121908860D01*
X250798950Y-121939050D01*
X250829140Y-121975836D01*
X250851576Y-122017809D01*
X250865391Y-122063353D01*
X250870300Y-122113197D01*
X250870300Y-123123803D01*
X250865391Y-123173647D01*
X250851576Y-123219191D01*
X250829140Y-123261164D01*
X250798950Y-123297950D01*
X250762164Y-123328140D01*
X250720191Y-123350576D01*
X250674647Y-123364391D01*
X250624803Y-123369300D01*
X249864197Y-123369300D01*
X249814353Y-123364391D01*
X249768809Y-123350576D01*
X249726836Y-123328140D01*
X249690050Y-123297950D01*
X249659860Y-123261164D01*
X249637424Y-123219191D01*
X249623609Y-123173647D01*
X249618700Y-123123803D01*
X249618700Y-122113197D01*
X249623609Y-122063353D01*
X249637424Y-122017809D01*
X249659860Y-121975836D01*
X249690050Y-121939050D01*
X249726836Y-121908860D01*
X249768809Y-121886424D01*
X249814353Y-121872609D01*
X249864197Y-121867700D01*
X250624803Y-121867700D01*
X250674647Y-121872609D01*
G37*
G36*
X252724226Y-121872620D02*
G01*
X252769862Y-121886464D01*
X252811927Y-121908948D01*
X252848795Y-121939205D01*
X252879052Y-121976073D01*
X252901536Y-122018138D01*
X252915380Y-122063774D01*
X252920300Y-122113726D01*
X252920300Y-123123274D01*
X252915380Y-123173226D01*
X252901536Y-123218862D01*
X252879052Y-123260927D01*
X252848795Y-123297795D01*
X252811927Y-123328052D01*
X252769862Y-123350536D01*
X252724226Y-123364380D01*
X252674274Y-123369300D01*
X251914726Y-123369300D01*
X251864774Y-123364380D01*
X251819138Y-123350536D01*
X251777073Y-123328052D01*
X251740205Y-123297795D01*
X251709948Y-123260927D01*
X251687464Y-123218862D01*
X251673620Y-123173226D01*
X251668700Y-123123274D01*
X251668700Y-122113726D01*
X251673620Y-122063774D01*
X251687464Y-122018138D01*
X251709948Y-121976073D01*
X251740205Y-121939205D01*
X251777073Y-121908948D01*
X251819138Y-121886464D01*
X251864774Y-121872620D01*
X251914726Y-121867700D01*
X252674274Y-121867700D01*
X252724226Y-121872620D01*
G37*
G36*
X211434300Y-121137300D02*
G01*
X210332700Y-121137300D01*
X210332700Y-120035700D01*
X211434300Y-120035700D01*
X211434300Y-121137300D01*
G37*
G36*
X216465726Y-119269120D02*
G01*
X216511362Y-119282964D01*
X216553427Y-119305448D01*
X216590295Y-119335705D01*
X216620552Y-119372573D01*
X216643036Y-119414638D01*
X216656880Y-119460274D01*
X216661800Y-119510226D01*
X216661800Y-120519774D01*
X216656880Y-120569726D01*
X216643036Y-120615362D01*
X216620552Y-120657427D01*
X216590295Y-120694295D01*
X216553427Y-120724552D01*
X216511362Y-120747036D01*
X216465726Y-120760880D01*
X216415774Y-120765800D01*
X215656226Y-120765800D01*
X215606274Y-120760880D01*
X215560638Y-120747036D01*
X215518573Y-120724552D01*
X215481705Y-120694295D01*
X215451448Y-120657427D01*
X215428964Y-120615362D01*
X215415120Y-120569726D01*
X215410200Y-120519774D01*
X215410200Y-119510226D01*
X215415120Y-119460274D01*
X215428964Y-119414638D01*
X215451448Y-119372573D01*
X215481705Y-119335705D01*
X215518573Y-119305448D01*
X215560638Y-119282964D01*
X215606274Y-119269120D01*
X215656226Y-119264200D01*
X216415774Y-119264200D01*
X216465726Y-119269120D01*
G37*
G36*
X214415726Y-119269120D02*
G01*
X214461362Y-119282964D01*
X214503427Y-119305448D01*
X214540295Y-119335705D01*
X214570552Y-119372573D01*
X214593036Y-119414638D01*
X214606880Y-119460274D01*
X214611800Y-119510226D01*
X214611800Y-120519774D01*
X214606880Y-120569726D01*
X214593036Y-120615362D01*
X214570552Y-120657427D01*
X214540295Y-120694295D01*
X214503427Y-120724552D01*
X214461362Y-120747036D01*
X214415726Y-120760880D01*
X214365774Y-120765800D01*
X213606226Y-120765800D01*
X213556274Y-120760880D01*
X213510638Y-120747036D01*
X213468573Y-120724552D01*
X213431705Y-120694295D01*
X213401448Y-120657427D01*
X213378964Y-120615362D01*
X213365120Y-120569726D01*
X213360200Y-120519774D01*
X213360200Y-119510226D01*
X213365120Y-119460274D01*
X213378964Y-119414638D01*
X213401448Y-119372573D01*
X213431705Y-119335705D01*
X213468573Y-119305448D01*
X213510638Y-119282964D01*
X213556274Y-119269120D01*
X213606226Y-119264200D01*
X214365774Y-119264200D01*
X214415726Y-119269120D01*
G37*
G36*
X216366300Y-118558300D02*
G01*
X215814700Y-118558300D01*
X215814700Y-117756700D01*
X216366300Y-117756700D01*
X216366300Y-118558300D01*
G37*
G36*
X215716300Y-116558300D02*
G01*
X215164700Y-116558300D01*
X215164700Y-115756700D01*
X215716300Y-115756700D01*
X215716300Y-116558300D01*
G37*
G36*
X217016300Y-116558300D02*
G01*
X216464700Y-116558300D01*
X216464700Y-115756700D01*
X217016300Y-115756700D01*
X217016300Y-116558300D01*
G37*
G36*
X226426226Y-114506620D02*
G01*
X226471862Y-114520464D01*
X226513927Y-114542948D01*
X226550795Y-114573205D01*
X226581052Y-114610073D01*
X226603536Y-114652138D01*
X226617380Y-114697774D01*
X226622300Y-114747726D01*
X226622300Y-115757274D01*
X226617380Y-115807226D01*
X226603536Y-115852862D01*
X226581052Y-115894927D01*
X226550795Y-115931795D01*
X226513927Y-115962052D01*
X226471862Y-115984536D01*
X226426226Y-115998380D01*
X226376274Y-116003300D01*
X225616726Y-116003300D01*
X225566774Y-115998380D01*
X225521138Y-115984536D01*
X225479073Y-115962052D01*
X225442205Y-115931795D01*
X225411948Y-115894927D01*
X225389464Y-115852862D01*
X225375620Y-115807226D01*
X225370700Y-115757274D01*
X225370700Y-114747726D01*
X225375620Y-114697774D01*
X225389464Y-114652138D01*
X225411948Y-114610073D01*
X225442205Y-114573205D01*
X225479073Y-114542948D01*
X225521138Y-114520464D01*
X225566774Y-114506620D01*
X225616726Y-114501700D01*
X226376274Y-114501700D01*
X226426226Y-114506620D01*
G37*
G36*
X224376226Y-114506620D02*
G01*
X224421862Y-114520464D01*
X224463927Y-114542948D01*
X224500795Y-114573205D01*
X224531052Y-114610073D01*
X224553536Y-114652138D01*
X224567380Y-114697774D01*
X224572300Y-114747726D01*
X224572300Y-115757274D01*
X224567380Y-115807226D01*
X224553536Y-115852862D01*
X224531052Y-115894927D01*
X224500795Y-115931795D01*
X224463927Y-115962052D01*
X224421862Y-115984536D01*
X224376226Y-115998380D01*
X224326274Y-116003300D01*
X223566726Y-116003300D01*
X223516774Y-115998380D01*
X223471138Y-115984536D01*
X223429073Y-115962052D01*
X223392205Y-115931795D01*
X223361948Y-115894927D01*
X223339464Y-115852862D01*
X223325620Y-115807226D01*
X223320700Y-115757274D01*
X223320700Y-114747726D01*
X223325620Y-114697774D01*
X223339464Y-114652138D01*
X223361948Y-114610073D01*
X223392205Y-114573205D01*
X223429073Y-114542948D01*
X223471138Y-114520464D01*
X223516774Y-114506620D01*
X223566726Y-114501700D01*
X224326274Y-114501700D01*
X224376226Y-114506620D01*
G37*
G36*
X219686226Y-114379620D02*
G01*
X219731862Y-114393464D01*
X219773927Y-114415948D01*
X219810795Y-114446205D01*
X219841052Y-114483073D01*
X219863536Y-114525138D01*
X219877380Y-114570774D01*
X219882300Y-114620726D01*
X219882300Y-115630274D01*
X219877380Y-115680226D01*
X219863536Y-115725862D01*
X219841052Y-115767927D01*
X219810795Y-115804795D01*
X219773927Y-115835052D01*
X219731862Y-115857536D01*
X219686226Y-115871380D01*
X219636274Y-115876300D01*
X218876726Y-115876300D01*
X218826774Y-115871380D01*
X218781138Y-115857536D01*
X218739073Y-115835052D01*
X218702205Y-115804795D01*
X218671948Y-115767927D01*
X218649464Y-115725862D01*
X218635620Y-115680226D01*
X218630700Y-115630274D01*
X218630700Y-114620726D01*
X218635620Y-114570774D01*
X218649464Y-114525138D01*
X218671948Y-114483073D01*
X218702205Y-114446205D01*
X218739073Y-114415948D01*
X218781138Y-114393464D01*
X218826774Y-114379620D01*
X218876726Y-114374700D01*
X219636274Y-114374700D01*
X219686226Y-114379620D01*
G37*
G36*
X221736226Y-114379620D02*
G01*
X221781862Y-114393464D01*
X221823927Y-114415948D01*
X221860795Y-114446205D01*
X221891052Y-114483073D01*
X221913536Y-114525138D01*
X221927380Y-114570774D01*
X221932300Y-114620726D01*
X221932300Y-115630274D01*
X221927380Y-115680226D01*
X221913536Y-115725862D01*
X221891052Y-115767927D01*
X221860795Y-115804795D01*
X221823927Y-115835052D01*
X221781862Y-115857536D01*
X221736226Y-115871380D01*
X221686274Y-115876300D01*
X220926726Y-115876300D01*
X220876774Y-115871380D01*
X220831138Y-115857536D01*
X220789073Y-115835052D01*
X220752205Y-115804795D01*
X220721948Y-115767927D01*
X220699464Y-115725862D01*
X220685620Y-115680226D01*
X220680700Y-115630274D01*
X220680700Y-114620726D01*
X220685620Y-114570774D01*
X220699464Y-114525138D01*
X220721948Y-114483073D01*
X220752205Y-114446205D01*
X220789073Y-114415948D01*
X220831138Y-114393464D01*
X220876774Y-114379620D01*
X220926726Y-114374700D01*
X221686274Y-114374700D01*
X221736226Y-114379620D01*
G37*
G36*
X215812726Y-113617620D02*
G01*
X215858362Y-113631464D01*
X215900427Y-113653948D01*
X215937295Y-113684205D01*
X215967552Y-113721073D01*
X215990036Y-113763138D01*
X216003880Y-113808774D01*
X216008800Y-113858726D01*
X216008800Y-114868274D01*
X216003880Y-114918226D01*
X215990036Y-114963862D01*
X215967552Y-115005927D01*
X215937295Y-115042795D01*
X215900427Y-115073052D01*
X215858362Y-115095536D01*
X215812726Y-115109380D01*
X215762774Y-115114300D01*
X215003226Y-115114300D01*
X214953274Y-115109380D01*
X214907638Y-115095536D01*
X214865573Y-115073052D01*
X214828705Y-115042795D01*
X214798448Y-115005927D01*
X214775964Y-114963862D01*
X214762120Y-114918226D01*
X214757200Y-114868274D01*
X214757200Y-113858726D01*
X214762120Y-113808774D01*
X214775964Y-113763138D01*
X214798448Y-113721073D01*
X214828705Y-113684205D01*
X214865573Y-113653948D01*
X214907638Y-113631464D01*
X214953274Y-113617620D01*
X215003226Y-113612700D01*
X215762774Y-113612700D01*
X215812726Y-113617620D01*
G37*
G36*
X217863147Y-113617609D02*
G01*
X217908691Y-113631424D01*
X217950664Y-113653860D01*
X217987450Y-113684050D01*
X218017640Y-113720836D01*
X218040076Y-113762809D01*
X218053891Y-113808353D01*
X218058800Y-113858197D01*
X218058800Y-114868803D01*
X218053891Y-114918647D01*
X218040076Y-114964191D01*
X218017640Y-115006164D01*
X217987450Y-115042950D01*
X217950664Y-115073140D01*
X217908691Y-115095576D01*
X217863147Y-115109391D01*
X217813303Y-115114300D01*
X217052697Y-115114300D01*
X217002853Y-115109391D01*
X216957309Y-115095576D01*
X216915336Y-115073140D01*
X216878550Y-115042950D01*
X216848360Y-115006164D01*
X216825924Y-114964191D01*
X216812109Y-114918647D01*
X216807200Y-114868803D01*
X216807200Y-113858197D01*
X216812109Y-113808353D01*
X216825924Y-113762809D01*
X216848360Y-113720836D01*
X216878550Y-113684050D01*
X216915336Y-113653860D01*
X216957309Y-113631424D01*
X217002853Y-113617609D01*
X217052697Y-113612700D01*
X217813303Y-113612700D01*
X217863147Y-113617609D01*
G37*
G36*
X226487726Y-112735620D02*
G01*
X226533362Y-112749464D01*
X226575427Y-112771948D01*
X226612295Y-112802205D01*
X226642552Y-112839073D01*
X226665036Y-112881138D01*
X226678880Y-112926774D01*
X226683800Y-112976726D01*
X226683800Y-113736274D01*
X226678880Y-113786226D01*
X226665036Y-113831862D01*
X226642552Y-113873927D01*
X226612295Y-113910795D01*
X226575427Y-113941052D01*
X226533362Y-113963536D01*
X226487726Y-113977380D01*
X226437774Y-113982300D01*
X225428226Y-113982300D01*
X225378274Y-113977380D01*
X225332638Y-113963536D01*
X225290573Y-113941052D01*
X225253705Y-113910795D01*
X225223448Y-113873927D01*
X225200964Y-113831862D01*
X225187120Y-113786226D01*
X225182200Y-113736274D01*
X225182200Y-112976726D01*
X225187120Y-112926774D01*
X225200964Y-112881138D01*
X225223448Y-112839073D01*
X225253705Y-112802205D01*
X225290573Y-112771948D01*
X225332638Y-112749464D01*
X225378274Y-112735620D01*
X225428226Y-112730700D01*
X226437774Y-112730700D01*
X226487726Y-112735620D01*
G37*
G36*
X214809423Y-107704333D02*
G01*
X215319136Y-107915463D01*
X215777866Y-108221976D01*
X216167984Y-108612094D01*
X216474497Y-109070824D01*
X216685627Y-109580537D01*
X216793260Y-110121645D01*
X216793260Y-110673355D01*
X216685627Y-111214463D01*
X216474497Y-111724176D01*
X216167984Y-112182906D01*
X215777866Y-112573024D01*
X215319136Y-112879537D01*
X214809423Y-113090667D01*
X214268315Y-113198300D01*
X213716605Y-113198300D01*
X213175497Y-113090667D01*
X212665784Y-112879537D01*
X212207054Y-112573024D01*
X211816936Y-112182906D01*
X211510423Y-111724176D01*
X211299293Y-111214463D01*
X211191660Y-110673355D01*
X211191660Y-110121645D01*
X211299293Y-109580537D01*
X211510423Y-109070824D01*
X211816936Y-108612094D01*
X212207054Y-108221976D01*
X212665784Y-107915463D01*
X213175497Y-107704333D01*
X213716605Y-107596700D01*
X214268315Y-107596700D01*
X214809423Y-107704333D01*
G37*
G36*
X252086463Y-107704333D02*
G01*
X252596176Y-107915463D01*
X253054906Y-108221976D01*
X253445024Y-108612094D01*
X253751537Y-109070824D01*
X253962667Y-109580537D01*
X254070300Y-110121645D01*
X254070300Y-110673355D01*
X253962667Y-111214463D01*
X253751537Y-111724176D01*
X253445024Y-112182906D01*
X253054906Y-112573024D01*
X252596176Y-112879537D01*
X252086463Y-113090667D01*
X251545355Y-113198300D01*
X250993645Y-113198300D01*
X250452537Y-113090667D01*
X249942824Y-112879537D01*
X249484094Y-112573024D01*
X249093976Y-112182906D01*
X248787463Y-111724176D01*
X248576333Y-111214463D01*
X248468700Y-110673355D01*
X248468700Y-110121645D01*
X248576333Y-109580537D01*
X248787463Y-109070824D01*
X249093976Y-108612094D01*
X249484094Y-108221976D01*
X249942824Y-107915463D01*
X250452537Y-107704333D01*
X250993645Y-107596700D01*
X251545355Y-107596700D01*
X252086463Y-107704333D01*
G37*
G36*
X221127377Y-111129031D02*
G01*
X221235915Y-111161956D01*
X221335945Y-111215423D01*
X221423622Y-111287378D01*
X221495577Y-111375055D01*
X221549044Y-111475085D01*
X221581969Y-111583623D01*
X221593086Y-111696500D01*
X221581969Y-111809377D01*
X221549044Y-111917915D01*
X221495577Y-112017945D01*
X221423622Y-112105622D01*
X221335945Y-112177577D01*
X221235915Y-112231044D01*
X221127377Y-112263969D01*
X221042788Y-112272300D01*
X220536212Y-112272300D01*
X220451623Y-112263969D01*
X220343085Y-112231044D01*
X220243055Y-112177577D01*
X220155378Y-112105622D01*
X220083423Y-112017945D01*
X220029956Y-111917915D01*
X219997031Y-111809377D01*
X219985914Y-111696500D01*
X219997031Y-111583623D01*
X220029956Y-111475085D01*
X220083423Y-111375055D01*
X220155378Y-111287378D01*
X220243055Y-111215423D01*
X220343085Y-111161956D01*
X220451623Y-111129031D01*
X220536212Y-111120700D01*
X221042788Y-111120700D01*
X221127377Y-111129031D01*
G37*
G36*
X224455726Y-110767120D02*
G01*
X224501362Y-110780964D01*
X224543427Y-110803448D01*
X224580295Y-110833705D01*
X224610552Y-110870573D01*
X224633036Y-110912638D01*
X224646880Y-110958274D01*
X224651800Y-111008226D01*
X224651800Y-111767774D01*
X224646880Y-111817726D01*
X224633036Y-111863362D01*
X224610552Y-111905427D01*
X224580295Y-111942295D01*
X224543427Y-111972552D01*
X224501362Y-111995036D01*
X224455726Y-112008880D01*
X224405774Y-112013800D01*
X223396226Y-112013800D01*
X223346274Y-112008880D01*
X223300638Y-111995036D01*
X223258573Y-111972552D01*
X223221705Y-111942295D01*
X223191448Y-111905427D01*
X223168964Y-111863362D01*
X223155120Y-111817726D01*
X223150200Y-111767774D01*
X223150200Y-111008226D01*
X223155120Y-110958274D01*
X223168964Y-110912638D01*
X223191448Y-110870573D01*
X223221705Y-110833705D01*
X223258573Y-110803448D01*
X223300638Y-110780964D01*
X223346274Y-110767120D01*
X223396226Y-110762200D01*
X224405774Y-110762200D01*
X224455726Y-110767120D01*
G37*
G36*
X226487726Y-110685620D02*
G01*
X226533362Y-110699464D01*
X226575427Y-110721948D01*
X226612295Y-110752205D01*
X226642552Y-110789073D01*
X226665036Y-110831138D01*
X226678880Y-110876774D01*
X226683800Y-110926726D01*
X226683800Y-111686274D01*
X226678880Y-111736226D01*
X226665036Y-111781862D01*
X226642552Y-111823927D01*
X226612295Y-111860795D01*
X226575427Y-111891052D01*
X226533362Y-111913536D01*
X226487726Y-111927380D01*
X226437774Y-111932300D01*
X225428226Y-111932300D01*
X225378274Y-111927380D01*
X225332638Y-111913536D01*
X225290573Y-111891052D01*
X225253705Y-111860795D01*
X225223448Y-111823927D01*
X225200964Y-111781862D01*
X225187120Y-111736226D01*
X225182200Y-111686274D01*
X225182200Y-110926726D01*
X225187120Y-110876774D01*
X225200964Y-110831138D01*
X225223448Y-110789073D01*
X225253705Y-110752205D01*
X225290573Y-110721948D01*
X225332638Y-110699464D01*
X225378274Y-110685620D01*
X225428226Y-110680700D01*
X226437774Y-110680700D01*
X226487726Y-110685620D01*
G37*
G36*
X221127377Y-109859031D02*
G01*
X221235915Y-109891956D01*
X221335945Y-109945423D01*
X221423622Y-110017378D01*
X221495577Y-110105055D01*
X221549044Y-110205085D01*
X221581969Y-110313623D01*
X221593086Y-110426500D01*
X221581969Y-110539377D01*
X221549044Y-110647915D01*
X221495577Y-110747945D01*
X221423622Y-110835622D01*
X221335945Y-110907577D01*
X221235915Y-110961044D01*
X221127377Y-110993969D01*
X221042788Y-111002300D01*
X220536212Y-111002300D01*
X220451623Y-110993969D01*
X220343085Y-110961044D01*
X220243055Y-110907577D01*
X220155378Y-110835622D01*
X220083423Y-110747945D01*
X220029956Y-110647915D01*
X219997031Y-110539377D01*
X219985914Y-110426500D01*
X219997031Y-110313623D01*
X220029956Y-110205085D01*
X220083423Y-110105055D01*
X220155378Y-110017378D01*
X220243055Y-109945423D01*
X220343085Y-109891956D01*
X220451623Y-109859031D01*
X220536212Y-109850700D01*
X221042788Y-109850700D01*
X221127377Y-109859031D01*
G37*
G36*
X224455726Y-108717120D02*
G01*
X224501362Y-108730964D01*
X224543427Y-108753448D01*
X224580295Y-108783705D01*
X224610552Y-108820573D01*
X224633036Y-108862638D01*
X224646880Y-108908274D01*
X224651800Y-108958226D01*
X224651800Y-109717774D01*
X224646880Y-109767726D01*
X224633036Y-109813362D01*
X224610552Y-109855427D01*
X224580295Y-109892295D01*
X224543427Y-109922552D01*
X224501362Y-109945036D01*
X224455726Y-109958880D01*
X224405774Y-109963800D01*
X223396226Y-109963800D01*
X223346274Y-109958880D01*
X223300638Y-109945036D01*
X223258573Y-109922552D01*
X223221705Y-109892295D01*
X223191448Y-109855427D01*
X223168964Y-109813362D01*
X223155120Y-109767726D01*
X223150200Y-109717774D01*
X223150200Y-108958226D01*
X223155120Y-108908274D01*
X223168964Y-108862638D01*
X223191448Y-108820573D01*
X223221705Y-108783705D01*
X223258573Y-108753448D01*
X223300638Y-108730964D01*
X223346274Y-108717120D01*
X223396226Y-108712200D01*
X224405774Y-108712200D01*
X224455726Y-108717120D01*
G37*
G36*
X221590300Y-109732300D02*
G01*
X219988700Y-109732300D01*
X219988700Y-108580700D01*
X221590300Y-108580700D01*
X221590300Y-109732300D01*
G37*
G36*
X229292726Y-108156620D02*
G01*
X229338362Y-108170464D01*
X229380427Y-108192948D01*
X229417295Y-108223205D01*
X229447552Y-108260073D01*
X229470036Y-108302138D01*
X229483880Y-108347774D01*
X229488800Y-108397726D01*
X229488800Y-109407274D01*
X229483880Y-109457226D01*
X229470036Y-109502862D01*
X229447552Y-109544927D01*
X229417295Y-109581795D01*
X229380427Y-109612052D01*
X229338362Y-109634536D01*
X229292726Y-109648380D01*
X229242774Y-109653300D01*
X228483226Y-109653300D01*
X228433274Y-109648380D01*
X228387638Y-109634536D01*
X228345573Y-109612052D01*
X228308705Y-109581795D01*
X228278448Y-109544927D01*
X228255964Y-109502862D01*
X228242120Y-109457226D01*
X228237200Y-109407274D01*
X228237200Y-108397726D01*
X228242120Y-108347774D01*
X228255964Y-108302138D01*
X228278448Y-108260073D01*
X228308705Y-108223205D01*
X228345573Y-108192948D01*
X228387638Y-108170464D01*
X228433274Y-108156620D01*
X228483226Y-108151700D01*
X229242774Y-108151700D01*
X229292726Y-108156620D01*
G37*
G36*
X227242726Y-108156620D02*
G01*
X227288362Y-108170464D01*
X227330427Y-108192948D01*
X227367295Y-108223205D01*
X227397552Y-108260073D01*
X227420036Y-108302138D01*
X227433880Y-108347774D01*
X227438800Y-108397726D01*
X227438800Y-109407274D01*
X227433880Y-109457226D01*
X227420036Y-109502862D01*
X227397552Y-109544927D01*
X227367295Y-109581795D01*
X227330427Y-109612052D01*
X227288362Y-109634536D01*
X227242726Y-109648380D01*
X227192774Y-109653300D01*
X226433226Y-109653300D01*
X226383274Y-109648380D01*
X226337638Y-109634536D01*
X226295573Y-109612052D01*
X226258705Y-109581795D01*
X226228448Y-109544927D01*
X226205964Y-109502862D01*
X226192120Y-109457226D01*
X226187200Y-109407274D01*
X226187200Y-108397726D01*
X226192120Y-108347774D01*
X226205964Y-108302138D01*
X226228448Y-108260073D01*
X226258705Y-108223205D01*
X226295573Y-108192948D01*
X226337638Y-108170464D01*
X226383274Y-108156620D01*
X226433226Y-108151700D01*
X227192774Y-108151700D01*
X227242726Y-108156620D01*
G37*
M02*
