G04 #@! TF.GenerationSoftware,KiCad,Pcbnew,5.1.5+dfsg1-2build2*
G04 #@! TF.CreationDate,2021-05-18T17:36:40-03:00*
G04 #@! TF.ProjectId,jbox_kicad,6a626f78-5f6b-4696-9361-642e6b696361,0*
G04 #@! TF.SameCoordinates,Original*
G04 #@! TF.FileFunction,Legend,Bot*
G04 #@! TF.FilePolarity,Positive*
%FSLAX46Y46*%
G04 Gerber Fmt 4.6, Leading zero omitted, Abs format (unit mm)*
G04 Created by KiCad (PCBNEW 5.1.5+dfsg1-2build2) date 2021-05-18 17:36:40*
%MOMM*%
%LPD*%
G04 APERTURE LIST*
%ADD10C,0.150000*%
%ADD11C,0.120000*%
%ADD12C,0.100000*%
%ADD13C,0.500000*%
%ADD14C,5.601600*%
%ADD15R,1.101600X1.101600*%
%ADD16C,1.501600*%
%ADD17R,1.601600X1.151600*%
%ADD18O,1.601600X1.151600*%
%ADD19C,4.101600*%
%ADD20R,0.551600X0.801600*%
G04 APERTURE END LIST*
D10*
X259445650Y-128129496D02*
X258778984Y-128130343D01*
X259826300Y-127890916D02*
X259111712Y-127653729D01*
X259112498Y-128272776D01*
X258779710Y-128701771D02*
X258779952Y-128892247D01*
X258827692Y-128987424D01*
X258875372Y-129034983D01*
X259018350Y-129130039D01*
X259208886Y-129177416D01*
X259589838Y-129176932D01*
X259685016Y-129129192D01*
X259732574Y-129081513D01*
X259780072Y-128986214D01*
X259779830Y-128795738D01*
X259732090Y-128700561D01*
X259684411Y-128653002D01*
X259589112Y-128605504D01*
X259351017Y-128605807D01*
X259255840Y-128653547D01*
X259208281Y-128701226D01*
X259160783Y-128796525D01*
X259161025Y-128987001D01*
X259208765Y-129082178D01*
X259256445Y-129129737D01*
X259351743Y-129177235D01*
X258876098Y-129606411D02*
X258828539Y-129654090D01*
X258780860Y-129606532D01*
X258828418Y-129558852D01*
X258876098Y-129606411D01*
X258780860Y-129606532D01*
X258781525Y-130130341D02*
X258781767Y-130320817D01*
X258829507Y-130415995D01*
X258877187Y-130463553D01*
X259020165Y-130558610D01*
X259210701Y-130605987D01*
X259591653Y-130605502D01*
X259686831Y-130557762D01*
X259734389Y-130510083D01*
X259781887Y-130414784D01*
X259781645Y-130224308D01*
X259733905Y-130129131D01*
X259686226Y-130081572D01*
X259590927Y-130034074D01*
X259352832Y-130034377D01*
X259257655Y-130082117D01*
X259210096Y-130129796D01*
X259162598Y-130225095D01*
X259162840Y-130415571D01*
X259210580Y-130510749D01*
X259258260Y-130558307D01*
X259353558Y-130605805D01*
X259782553Y-130938594D02*
X259783400Y-131605260D01*
X258782856Y-131177959D01*
X259784489Y-132462402D02*
X259783884Y-131986212D01*
X259307634Y-131939198D01*
X259355313Y-131986756D01*
X259403053Y-132081934D01*
X259403356Y-132320029D01*
X259355858Y-132415327D01*
X259308299Y-132463007D01*
X259213122Y-132510747D01*
X258975027Y-132511049D01*
X258879728Y-132463551D01*
X258832049Y-132415993D01*
X258784308Y-132320815D01*
X258784006Y-132082720D01*
X258831504Y-131987422D01*
X258879062Y-131939742D01*
X258786063Y-133701767D02*
X259452729Y-133700920D01*
X259357491Y-133701041D02*
X259405171Y-133748599D01*
X259452911Y-133843777D01*
X259453092Y-133986634D01*
X259405594Y-134081932D01*
X259310417Y-134129672D01*
X258786608Y-134130338D01*
X259310417Y-134129672D02*
X259405715Y-134177170D01*
X259453455Y-134272348D01*
X259453637Y-134415205D01*
X259406139Y-134510503D01*
X259310961Y-134558243D01*
X258787152Y-134558909D01*
X258787757Y-135035099D02*
X259454424Y-135034252D01*
X259359185Y-135034373D02*
X259406865Y-135081931D01*
X259454605Y-135177109D01*
X259454787Y-135319966D01*
X259407289Y-135415264D01*
X259312111Y-135463004D01*
X258788302Y-135463670D01*
X259312111Y-135463004D02*
X259407410Y-135510502D01*
X259455150Y-135605680D01*
X259455331Y-135748537D01*
X259407833Y-135843836D01*
X259312656Y-135891576D01*
X258788847Y-135892241D01*
X260567773Y-156782030D02*
X260504273Y-106807530D01*
X260985000Y-156781500D02*
X259981353Y-156782775D01*
X260921500Y-106807000D02*
X259917853Y-106808275D01*
X260504273Y-106807530D02*
X261092125Y-107933288D01*
X260504273Y-106807530D02*
X259919284Y-107934778D01*
X260567773Y-156782030D02*
X261152762Y-155654782D01*
X260567773Y-156782030D02*
X259979921Y-155656272D01*
X228743333Y-159327714D02*
X228743333Y-159994380D01*
X228505238Y-158946761D02*
X228267142Y-159661047D01*
X228886190Y-159661047D01*
X229743333Y-158994380D02*
X229267142Y-158994380D01*
X229219523Y-159470571D01*
X229267142Y-159422952D01*
X229362380Y-159375333D01*
X229600476Y-159375333D01*
X229695714Y-159422952D01*
X229743333Y-159470571D01*
X229790952Y-159565809D01*
X229790952Y-159803904D01*
X229743333Y-159899142D01*
X229695714Y-159946761D01*
X229600476Y-159994380D01*
X229362380Y-159994380D01*
X229267142Y-159946761D01*
X229219523Y-159899142D01*
X230219523Y-159899142D02*
X230267142Y-159946761D01*
X230219523Y-159994380D01*
X230171904Y-159946761D01*
X230219523Y-159899142D01*
X230219523Y-159994380D01*
X230886190Y-158994380D02*
X230981428Y-158994380D01*
X231076666Y-159042000D01*
X231124285Y-159089619D01*
X231171904Y-159184857D01*
X231219523Y-159375333D01*
X231219523Y-159613428D01*
X231171904Y-159803904D01*
X231124285Y-159899142D01*
X231076666Y-159946761D01*
X230981428Y-159994380D01*
X230886190Y-159994380D01*
X230790952Y-159946761D01*
X230743333Y-159899142D01*
X230695714Y-159803904D01*
X230648095Y-159613428D01*
X230648095Y-159375333D01*
X230695714Y-159184857D01*
X230743333Y-159089619D01*
X230790952Y-159042000D01*
X230886190Y-158994380D01*
X231790952Y-159422952D02*
X231695714Y-159375333D01*
X231648095Y-159327714D01*
X231600476Y-159232476D01*
X231600476Y-159184857D01*
X231648095Y-159089619D01*
X231695714Y-159042000D01*
X231790952Y-158994380D01*
X231981428Y-158994380D01*
X232076666Y-159042000D01*
X232124285Y-159089619D01*
X232171904Y-159184857D01*
X232171904Y-159232476D01*
X232124285Y-159327714D01*
X232076666Y-159375333D01*
X231981428Y-159422952D01*
X231790952Y-159422952D01*
X231695714Y-159470571D01*
X231648095Y-159518190D01*
X231600476Y-159613428D01*
X231600476Y-159803904D01*
X231648095Y-159899142D01*
X231695714Y-159946761D01*
X231790952Y-159994380D01*
X231981428Y-159994380D01*
X232076666Y-159946761D01*
X232124285Y-159899142D01*
X232171904Y-159803904D01*
X232171904Y-159613428D01*
X232124285Y-159518190D01*
X232076666Y-159470571D01*
X231981428Y-159422952D01*
X233076666Y-158994380D02*
X232600476Y-158994380D01*
X232552857Y-159470571D01*
X232600476Y-159422952D01*
X232695714Y-159375333D01*
X232933809Y-159375333D01*
X233029047Y-159422952D01*
X233076666Y-159470571D01*
X233124285Y-159565809D01*
X233124285Y-159803904D01*
X233076666Y-159899142D01*
X233029047Y-159946761D01*
X232933809Y-159994380D01*
X232695714Y-159994380D01*
X232600476Y-159946761D01*
X232552857Y-159899142D01*
X234314761Y-159994380D02*
X234314761Y-159327714D01*
X234314761Y-159422952D02*
X234362380Y-159375333D01*
X234457619Y-159327714D01*
X234600476Y-159327714D01*
X234695714Y-159375333D01*
X234743333Y-159470571D01*
X234743333Y-159994380D01*
X234743333Y-159470571D02*
X234790952Y-159375333D01*
X234886190Y-159327714D01*
X235029047Y-159327714D01*
X235124285Y-159375333D01*
X235171904Y-159470571D01*
X235171904Y-159994380D01*
X235648095Y-159994380D02*
X235648095Y-159327714D01*
X235648095Y-159422952D02*
X235695714Y-159375333D01*
X235790952Y-159327714D01*
X235933809Y-159327714D01*
X236029047Y-159375333D01*
X236076666Y-159470571D01*
X236076666Y-159994380D01*
X236076666Y-159470571D02*
X236124285Y-159375333D01*
X236219523Y-159327714D01*
X236362380Y-159327714D01*
X236457619Y-159375333D01*
X236505238Y-159470571D01*
X236505238Y-159994380D01*
X209867500Y-158242000D02*
X254952500Y-158242000D01*
X209867500Y-157861001D02*
X209867500Y-158828421D01*
X254952500Y-157861001D02*
X254952500Y-158828421D01*
X254952500Y-158242000D02*
X253825996Y-158828421D01*
X254952500Y-158242000D02*
X253825996Y-157655579D01*
X209867500Y-158242000D02*
X210994004Y-158828421D01*
X209867500Y-158242000D02*
X210994004Y-157655579D01*
X247219627Y-113450619D02*
X247308913Y-112736333D01*
X247374389Y-112593476D01*
X247481532Y-112498238D01*
X247630342Y-112450619D01*
X247725580Y-112450619D01*
X246356532Y-113117285D02*
X246439866Y-112450619D01*
X246785104Y-113117285D02*
X246850580Y-112593476D01*
X246814866Y-112498238D01*
X246725580Y-112450619D01*
X246582723Y-112450619D01*
X246481532Y-112498238D01*
X246427961Y-112545857D01*
X245880342Y-113117285D02*
X245963675Y-112450619D01*
X245892247Y-113022047D02*
X245838675Y-113069666D01*
X245737485Y-113117285D01*
X245594627Y-113117285D01*
X245505342Y-113069666D01*
X245469627Y-112974428D01*
X245535104Y-112450619D01*
X244624389Y-112498238D02*
X244725580Y-112450619D01*
X244916056Y-112450619D01*
X245005342Y-112498238D01*
X245047008Y-112545857D01*
X245082723Y-112641095D01*
X245047008Y-112926809D01*
X244987485Y-113022047D01*
X244933913Y-113069666D01*
X244832723Y-113117285D01*
X244642247Y-113117285D01*
X244552961Y-113069666D01*
X244261294Y-113117285D02*
X243880342Y-113117285D01*
X244076770Y-113450619D02*
X244183913Y-112593476D01*
X244148199Y-112498238D01*
X244058913Y-112450619D01*
X243963675Y-112450619D01*
X243630342Y-112450619D02*
X243547008Y-113117285D01*
X243505342Y-113450619D02*
X243558913Y-113403000D01*
X243517247Y-113355380D01*
X243463675Y-113403000D01*
X243505342Y-113450619D01*
X243517247Y-113355380D01*
X243011294Y-112450619D02*
X243100580Y-112498238D01*
X243142247Y-112545857D01*
X243177961Y-112641095D01*
X243142247Y-112926809D01*
X243082723Y-113022047D01*
X243029151Y-113069666D01*
X242927961Y-113117285D01*
X242785104Y-113117285D01*
X242695818Y-113069666D01*
X242654151Y-113022047D01*
X242618437Y-112926809D01*
X242654151Y-112641095D01*
X242713675Y-112545857D01*
X242767247Y-112498238D01*
X242868437Y-112450619D01*
X243011294Y-112450619D01*
X242166056Y-113117285D02*
X242249389Y-112450619D01*
X242177961Y-113022047D02*
X242124389Y-113069666D01*
X242023199Y-113117285D01*
X241880342Y-113117285D01*
X241791056Y-113069666D01*
X241755342Y-112974428D01*
X241820818Y-112450619D01*
X240183913Y-112974428D02*
X240047008Y-112926809D01*
X240005342Y-112879190D01*
X239969627Y-112783952D01*
X239987485Y-112641095D01*
X240047008Y-112545857D01*
X240100580Y-112498238D01*
X240201770Y-112450619D01*
X240582723Y-112450619D01*
X240457723Y-113450619D01*
X240124389Y-113450619D01*
X240035104Y-113403000D01*
X239993437Y-113355380D01*
X239957723Y-113260142D01*
X239969627Y-113164904D01*
X240029151Y-113069666D01*
X240082723Y-113022047D01*
X240183913Y-112974428D01*
X240517247Y-112974428D01*
X239439866Y-112450619D02*
X239529151Y-112498238D01*
X239570818Y-112545857D01*
X239606532Y-112641095D01*
X239570818Y-112926809D01*
X239511294Y-113022047D01*
X239457723Y-113069666D01*
X239356532Y-113117285D01*
X239213675Y-113117285D01*
X239124389Y-113069666D01*
X239082723Y-113022047D01*
X239047008Y-112926809D01*
X239082723Y-112641095D01*
X239142247Y-112545857D01*
X239195818Y-112498238D01*
X239297008Y-112450619D01*
X239439866Y-112450619D01*
X238773199Y-112450619D02*
X238166056Y-113117285D01*
X238689866Y-113117285D02*
X238249389Y-112450619D01*
D11*
X223191000Y-110624252D02*
X223191000Y-110101748D01*
X224611000Y-110624252D02*
X224611000Y-110101748D01*
X229698000Y-109862500D02*
X226838000Y-109862500D01*
X229698000Y-107942500D02*
X229698000Y-109862500D01*
X226838000Y-107942500D02*
X229698000Y-107942500D01*
X216800500Y-123563748D02*
X216800500Y-124086252D01*
X215380500Y-123563748D02*
X215380500Y-124086252D01*
X210183500Y-119886500D02*
X210183500Y-121286500D01*
X211583500Y-119886500D02*
X210183500Y-119886500D01*
X211583500Y-121286500D02*
X211583500Y-119886500D01*
X210183500Y-121286500D02*
X211583500Y-121286500D01*
X220040200Y-121513600D02*
X220040200Y-116433600D01*
X245440200Y-153263600D02*
X221310200Y-153263600D01*
X245440200Y-153263600D02*
X247980200Y-150723600D01*
X220040200Y-153263600D02*
X217500200Y-150723600D01*
X220040200Y-153263600D02*
X221310200Y-153263600D01*
X247980200Y-150723600D02*
X247980200Y-116433600D01*
X217500200Y-150723600D02*
X217500200Y-121513600D01*
X217500200Y-121513600D02*
X220040200Y-121513600D01*
D12*
G36*
X218770200Y-117703600D02*
G01*
X218770200Y-120243600D01*
X220040200Y-120243600D01*
X220040200Y-117703600D01*
X218770200Y-117703600D01*
G37*
X218770200Y-117703600D02*
X218770200Y-120243600D01*
X220040200Y-120243600D01*
X220040200Y-117703600D01*
X218770200Y-117703600D01*
D11*
X220040200Y-116433600D02*
X247980200Y-116433600D01*
X227660200Y-116433600D02*
X227660200Y-110083600D01*
X227660200Y-110083600D02*
X237820200Y-110083600D01*
X237820200Y-110083600D02*
X237820200Y-116433600D01*
X227660200Y-116433600D02*
X227660200Y-118973600D01*
X227660200Y-118973600D02*
X237820200Y-118973600D01*
X237820200Y-118973600D02*
X237820200Y-116433600D01*
X215272252Y-119305000D02*
X214749748Y-119305000D01*
X215272252Y-120725000D02*
X214749748Y-120725000D01*
X222627978Y-112264978D02*
G75*
G02X218189500Y-110426500I-1838478J1838478D01*
G01*
X222627978Y-108588022D02*
G75*
G03X218189500Y-110426500I-1838478J-1838478D01*
G01*
X222639500Y-108626500D02*
X222639500Y-112226500D01*
X211824500Y-124086252D02*
X211824500Y-123563748D01*
X213244500Y-124086252D02*
X213244500Y-123563748D01*
X226643000Y-112070248D02*
X226643000Y-112592752D01*
X225223000Y-112070248D02*
X225223000Y-112592752D01*
X225232752Y-115962500D02*
X224710248Y-115962500D01*
X225232752Y-114542500D02*
X224710248Y-114542500D01*
X251008248Y-124029400D02*
X251530752Y-124029400D01*
X251008248Y-125449400D02*
X251530752Y-125449400D01*
X251008248Y-123328500D02*
X251530752Y-123328500D01*
X251008248Y-121908500D02*
X251530752Y-121908500D01*
X220020248Y-114415500D02*
X220542752Y-114415500D01*
X220020248Y-115835500D02*
X220542752Y-115835500D01*
X216669252Y-113653500D02*
X216146748Y-113653500D01*
X216669252Y-115073500D02*
X216146748Y-115073500D01*
X216590500Y-117887500D02*
X217250500Y-117887500D01*
X214930500Y-117887500D02*
X215590500Y-117887500D01*
X214930500Y-117887500D02*
X214930500Y-115857500D01*
X217250500Y-116477500D02*
X217250500Y-117887500D01*
D10*
X223940666Y-108338880D02*
X224274000Y-107862690D01*
X224512095Y-108338880D02*
X224512095Y-107338880D01*
X224131142Y-107338880D01*
X224035904Y-107386500D01*
X223988285Y-107434119D01*
X223940666Y-107529357D01*
X223940666Y-107672214D01*
X223988285Y-107767452D01*
X224035904Y-107815071D01*
X224131142Y-107862690D01*
X224512095Y-107862690D01*
X223083523Y-107672214D02*
X223083523Y-108338880D01*
X223321619Y-107291261D02*
X223559714Y-108005547D01*
X222940666Y-108005547D01*
X231433595Y-109354880D02*
X231433595Y-108354880D01*
X231195500Y-108354880D01*
X231052642Y-108402500D01*
X230957404Y-108497738D01*
X230909785Y-108592976D01*
X230862166Y-108783452D01*
X230862166Y-108926309D01*
X230909785Y-109116785D01*
X230957404Y-109212023D01*
X231052642Y-109307261D01*
X231195500Y-109354880D01*
X231433595Y-109354880D01*
X230481214Y-108450119D02*
X230433595Y-108402500D01*
X230338357Y-108354880D01*
X230100261Y-108354880D01*
X230005023Y-108402500D01*
X229957404Y-108450119D01*
X229909785Y-108545357D01*
X229909785Y-108640595D01*
X229957404Y-108783452D01*
X230528833Y-109354880D01*
X229909785Y-109354880D01*
X217050880Y-127849333D02*
X216574690Y-127516000D01*
X217050880Y-127277904D02*
X216050880Y-127277904D01*
X216050880Y-127658857D01*
X216098500Y-127754095D01*
X216146119Y-127801714D01*
X216241357Y-127849333D01*
X216384214Y-127849333D01*
X216479452Y-127801714D01*
X216527071Y-127754095D01*
X216574690Y-127658857D01*
X216574690Y-127277904D01*
X216050880Y-128182666D02*
X216050880Y-128801714D01*
X216431833Y-128468380D01*
X216431833Y-128611238D01*
X216479452Y-128706476D01*
X216527071Y-128754095D01*
X216622309Y-128801714D01*
X216860404Y-128801714D01*
X216955642Y-128754095D01*
X217003261Y-128706476D01*
X217050880Y-128611238D01*
X217050880Y-128325523D01*
X217003261Y-128230285D01*
X216955642Y-128182666D01*
X211621619Y-119435404D02*
X211621619Y-118863976D01*
X210621619Y-119149690D02*
X211621619Y-119149690D01*
X210621619Y-118530642D02*
X211621619Y-118530642D01*
X211621619Y-118149690D01*
X211574000Y-118054452D01*
X211526380Y-118006833D01*
X211431142Y-117959214D01*
X211288285Y-117959214D01*
X211193047Y-118006833D01*
X211145428Y-118054452D01*
X211097809Y-118149690D01*
X211097809Y-118530642D01*
X210621619Y-117006833D02*
X210621619Y-117578261D01*
X210621619Y-117292547D02*
X211621619Y-117292547D01*
X211478761Y-117387785D01*
X211383523Y-117483023D01*
X211335904Y-117578261D01*
X229692104Y-132395980D02*
X229692104Y-133205504D01*
X229644485Y-133300742D01*
X229596866Y-133348361D01*
X229501628Y-133395980D01*
X229311152Y-133395980D01*
X229215914Y-133348361D01*
X229168295Y-133300742D01*
X229120676Y-133205504D01*
X229120676Y-132395980D01*
X228739723Y-132395980D02*
X228120676Y-132395980D01*
X228454009Y-132776933D01*
X228311152Y-132776933D01*
X228215914Y-132824552D01*
X228168295Y-132872171D01*
X228120676Y-132967409D01*
X228120676Y-133205504D01*
X228168295Y-133300742D01*
X228215914Y-133348361D01*
X228311152Y-133395980D01*
X228596866Y-133395980D01*
X228692104Y-133348361D01*
X228739723Y-133300742D01*
X223242119Y-121292880D02*
X223575452Y-120816690D01*
X223813547Y-121292880D02*
X223813547Y-120292880D01*
X223432595Y-120292880D01*
X223337357Y-120340500D01*
X223289738Y-120388119D01*
X223242119Y-120483357D01*
X223242119Y-120626214D01*
X223289738Y-120721452D01*
X223337357Y-120769071D01*
X223432595Y-120816690D01*
X223813547Y-120816690D01*
X222861166Y-121245261D02*
X222718309Y-121292880D01*
X222480214Y-121292880D01*
X222384976Y-121245261D01*
X222337357Y-121197642D01*
X222289738Y-121102404D01*
X222289738Y-121007166D01*
X222337357Y-120911928D01*
X222384976Y-120864309D01*
X222480214Y-120816690D01*
X222670690Y-120769071D01*
X222765928Y-120721452D01*
X222813547Y-120673833D01*
X222861166Y-120578595D01*
X222861166Y-120483357D01*
X222813547Y-120388119D01*
X222765928Y-120340500D01*
X222670690Y-120292880D01*
X222432595Y-120292880D01*
X222289738Y-120340500D01*
X222004023Y-120292880D02*
X221432595Y-120292880D01*
X221718309Y-121292880D02*
X221718309Y-120292880D01*
X234002104Y-113345980D02*
X234002104Y-114155504D01*
X233954485Y-114250742D01*
X233906866Y-114298361D01*
X233811628Y-114345980D01*
X233621152Y-114345980D01*
X233525914Y-114298361D01*
X233478295Y-114250742D01*
X233430676Y-114155504D01*
X233430676Y-113345980D01*
X233002104Y-114298361D02*
X232859247Y-114345980D01*
X232621152Y-114345980D01*
X232525914Y-114298361D01*
X232478295Y-114250742D01*
X232430676Y-114155504D01*
X232430676Y-114060266D01*
X232478295Y-113965028D01*
X232525914Y-113917409D01*
X232621152Y-113869790D01*
X232811628Y-113822171D01*
X232906866Y-113774552D01*
X232954485Y-113726933D01*
X233002104Y-113631695D01*
X233002104Y-113536457D01*
X232954485Y-113441219D01*
X232906866Y-113393600D01*
X232811628Y-113345980D01*
X232573533Y-113345980D01*
X232430676Y-113393600D01*
X231668771Y-113822171D02*
X231525914Y-113869790D01*
X231478295Y-113917409D01*
X231430676Y-114012647D01*
X231430676Y-114155504D01*
X231478295Y-114250742D01*
X231525914Y-114298361D01*
X231621152Y-114345980D01*
X232002104Y-114345980D01*
X232002104Y-113345980D01*
X231668771Y-113345980D01*
X231573533Y-113393600D01*
X231525914Y-113441219D01*
X231478295Y-113536457D01*
X231478295Y-113631695D01*
X231525914Y-113726933D01*
X231573533Y-113774552D01*
X231668771Y-113822171D01*
X232002104Y-113822171D01*
X217908142Y-120356333D02*
X217955761Y-120308714D01*
X218003380Y-120165857D01*
X218003380Y-120070619D01*
X217955761Y-119927761D01*
X217860523Y-119832523D01*
X217765285Y-119784904D01*
X217574809Y-119737285D01*
X217431952Y-119737285D01*
X217241476Y-119784904D01*
X217146238Y-119832523D01*
X217051000Y-119927761D01*
X217003380Y-120070619D01*
X217003380Y-120165857D01*
X217051000Y-120308714D01*
X217098619Y-120356333D01*
X217336714Y-121213476D02*
X218003380Y-121213476D01*
X216955761Y-120975380D02*
X217670047Y-120737285D01*
X217670047Y-121356333D01*
X216939880Y-107378595D02*
X217749404Y-107378595D01*
X217844642Y-107426214D01*
X217892261Y-107473833D01*
X217939880Y-107569071D01*
X217939880Y-107759547D01*
X217892261Y-107854785D01*
X217844642Y-107902404D01*
X217749404Y-107950023D01*
X216939880Y-107950023D01*
X217035119Y-108378595D02*
X216987500Y-108426214D01*
X216939880Y-108521452D01*
X216939880Y-108759547D01*
X216987500Y-108854785D01*
X217035119Y-108902404D01*
X217130357Y-108950023D01*
X217225595Y-108950023D01*
X217368452Y-108902404D01*
X217939880Y-108330976D01*
X217939880Y-108950023D01*
X213050380Y-120864333D02*
X212574190Y-120531000D01*
X213050380Y-120292904D02*
X212050380Y-120292904D01*
X212050380Y-120673857D01*
X212098000Y-120769095D01*
X212145619Y-120816714D01*
X212240857Y-120864333D01*
X212383714Y-120864333D01*
X212478952Y-120816714D01*
X212526571Y-120769095D01*
X212574190Y-120673857D01*
X212574190Y-120292904D01*
X212145619Y-121245285D02*
X212098000Y-121292904D01*
X212050380Y-121388142D01*
X212050380Y-121626238D01*
X212098000Y-121721476D01*
X212145619Y-121769095D01*
X212240857Y-121816714D01*
X212336095Y-121816714D01*
X212478952Y-121769095D01*
X213050380Y-121197666D01*
X213050380Y-121816714D01*
X230036666Y-112783880D02*
X230370000Y-112307690D01*
X230608095Y-112783880D02*
X230608095Y-111783880D01*
X230227142Y-111783880D01*
X230131904Y-111831500D01*
X230084285Y-111879119D01*
X230036666Y-111974357D01*
X230036666Y-112117214D01*
X230084285Y-112212452D01*
X230131904Y-112260071D01*
X230227142Y-112307690D01*
X230608095Y-112307690D01*
X229084285Y-112783880D02*
X229655714Y-112783880D01*
X229370000Y-112783880D02*
X229370000Y-111783880D01*
X229465238Y-111926738D01*
X229560476Y-112021976D01*
X229655714Y-112069595D01*
X225782166Y-117768642D02*
X225829785Y-117816261D01*
X225972642Y-117863880D01*
X226067880Y-117863880D01*
X226210738Y-117816261D01*
X226305976Y-117721023D01*
X226353595Y-117625785D01*
X226401214Y-117435309D01*
X226401214Y-117292452D01*
X226353595Y-117101976D01*
X226305976Y-117006738D01*
X226210738Y-116911500D01*
X226067880Y-116863880D01*
X225972642Y-116863880D01*
X225829785Y-116911500D01*
X225782166Y-116959119D01*
X224925023Y-116863880D02*
X225115500Y-116863880D01*
X225210738Y-116911500D01*
X225258357Y-116959119D01*
X225353595Y-117101976D01*
X225401214Y-117292452D01*
X225401214Y-117673404D01*
X225353595Y-117768642D01*
X225305976Y-117816261D01*
X225210738Y-117863880D01*
X225020261Y-117863880D01*
X224925023Y-117816261D01*
X224877404Y-117768642D01*
X224829785Y-117673404D01*
X224829785Y-117435309D01*
X224877404Y-117340071D01*
X224925023Y-117292452D01*
X225020261Y-117244833D01*
X225210738Y-117244833D01*
X225305976Y-117292452D01*
X225353595Y-117340071D01*
X225401214Y-117435309D01*
X249213666Y-121197642D02*
X249261285Y-121245261D01*
X249404142Y-121292880D01*
X249499380Y-121292880D01*
X249642238Y-121245261D01*
X249737476Y-121150023D01*
X249785095Y-121054785D01*
X249832714Y-120864309D01*
X249832714Y-120721452D01*
X249785095Y-120530976D01*
X249737476Y-120435738D01*
X249642238Y-120340500D01*
X249499380Y-120292880D01*
X249404142Y-120292880D01*
X249261285Y-120340500D01*
X249213666Y-120388119D01*
X248832714Y-120388119D02*
X248785095Y-120340500D01*
X248689857Y-120292880D01*
X248451761Y-120292880D01*
X248356523Y-120340500D01*
X248308904Y-120388119D01*
X248261285Y-120483357D01*
X248261285Y-120578595D01*
X248308904Y-120721452D01*
X248880333Y-121292880D01*
X248261285Y-121292880D01*
X249150166Y-119483142D02*
X249197785Y-119530761D01*
X249340642Y-119578380D01*
X249435880Y-119578380D01*
X249578738Y-119530761D01*
X249673976Y-119435523D01*
X249721595Y-119340285D01*
X249769214Y-119149809D01*
X249769214Y-119006952D01*
X249721595Y-118816476D01*
X249673976Y-118721238D01*
X249578738Y-118626000D01*
X249435880Y-118578380D01*
X249340642Y-118578380D01*
X249197785Y-118626000D01*
X249150166Y-118673619D01*
X248197785Y-119578380D02*
X248769214Y-119578380D01*
X248483500Y-119578380D02*
X248483500Y-118578380D01*
X248578738Y-118721238D01*
X248673976Y-118816476D01*
X248769214Y-118864095D01*
X221337166Y-119038642D02*
X221384785Y-119086261D01*
X221527642Y-119133880D01*
X221622880Y-119133880D01*
X221765738Y-119086261D01*
X221860976Y-118991023D01*
X221908595Y-118895785D01*
X221956214Y-118705309D01*
X221956214Y-118562452D01*
X221908595Y-118371976D01*
X221860976Y-118276738D01*
X221765738Y-118181500D01*
X221622880Y-118133880D01*
X221527642Y-118133880D01*
X221384785Y-118181500D01*
X221337166Y-118229119D01*
X221003833Y-118133880D02*
X220384785Y-118133880D01*
X220718119Y-118514833D01*
X220575261Y-118514833D01*
X220480023Y-118562452D01*
X220432404Y-118610071D01*
X220384785Y-118705309D01*
X220384785Y-118943404D01*
X220432404Y-119038642D01*
X220480023Y-119086261D01*
X220575261Y-119133880D01*
X220860976Y-119133880D01*
X220956214Y-119086261D01*
X221003833Y-119038642D01*
X217908142Y-111466333D02*
X217955761Y-111418714D01*
X218003380Y-111275857D01*
X218003380Y-111180619D01*
X217955761Y-111037761D01*
X217860523Y-110942523D01*
X217765285Y-110894904D01*
X217574809Y-110847285D01*
X217431952Y-110847285D01*
X217241476Y-110894904D01*
X217146238Y-110942523D01*
X217051000Y-111037761D01*
X217003380Y-111180619D01*
X217003380Y-111275857D01*
X217051000Y-111418714D01*
X217098619Y-111466333D01*
X217003380Y-112371095D02*
X217003380Y-111894904D01*
X217479571Y-111847285D01*
X217431952Y-111894904D01*
X217384333Y-111990142D01*
X217384333Y-112228238D01*
X217431952Y-112323476D01*
X217479571Y-112371095D01*
X217574809Y-112418714D01*
X217812904Y-112418714D01*
X217908142Y-112371095D01*
X217955761Y-112323476D01*
X218003380Y-112228238D01*
X218003380Y-111990142D01*
X217955761Y-111894904D01*
X217908142Y-111847285D01*
X214479095Y-117546380D02*
X214479095Y-116546380D01*
X214241000Y-116546380D01*
X214098142Y-116594000D01*
X214002904Y-116689238D01*
X213955285Y-116784476D01*
X213907666Y-116974952D01*
X213907666Y-117117809D01*
X213955285Y-117308285D01*
X214002904Y-117403523D01*
X214098142Y-117498761D01*
X214241000Y-117546380D01*
X214479095Y-117546380D01*
X212955285Y-117546380D02*
X213526714Y-117546380D01*
X213241000Y-117546380D02*
X213241000Y-116546380D01*
X213336238Y-116689238D01*
X213431476Y-116784476D01*
X213526714Y-116832095D01*
%LPC*%
D13*
G36*
X224406383Y-108713510D02*
G01*
X224432795Y-108717428D01*
X224458696Y-108723916D01*
X224483837Y-108732911D01*
X224507974Y-108744328D01*
X224530877Y-108758055D01*
X224552324Y-108773961D01*
X224572108Y-108791892D01*
X224590039Y-108811676D01*
X224605945Y-108833123D01*
X224619672Y-108856026D01*
X224631089Y-108880163D01*
X224640084Y-108905304D01*
X224646572Y-108931205D01*
X224650490Y-108957617D01*
X224651800Y-108984286D01*
X224651800Y-109691714D01*
X224650490Y-109718383D01*
X224646572Y-109744795D01*
X224640084Y-109770696D01*
X224631089Y-109795837D01*
X224619672Y-109819974D01*
X224605945Y-109842877D01*
X224590039Y-109864324D01*
X224572108Y-109884108D01*
X224552324Y-109902039D01*
X224530877Y-109917945D01*
X224507974Y-109931672D01*
X224483837Y-109943089D01*
X224458696Y-109952084D01*
X224432795Y-109958572D01*
X224406383Y-109962490D01*
X224379714Y-109963800D01*
X223422286Y-109963800D01*
X223395617Y-109962490D01*
X223369205Y-109958572D01*
X223343304Y-109952084D01*
X223318163Y-109943089D01*
X223294026Y-109931672D01*
X223271123Y-109917945D01*
X223249676Y-109902039D01*
X223229892Y-109884108D01*
X223211961Y-109864324D01*
X223196055Y-109842877D01*
X223182328Y-109819974D01*
X223170911Y-109795837D01*
X223161916Y-109770696D01*
X223155428Y-109744795D01*
X223151510Y-109718383D01*
X223150200Y-109691714D01*
X223150200Y-108984286D01*
X223151510Y-108957617D01*
X223155428Y-108931205D01*
X223161916Y-108905304D01*
X223170911Y-108880163D01*
X223182328Y-108856026D01*
X223196055Y-108833123D01*
X223211961Y-108811676D01*
X223229892Y-108791892D01*
X223249676Y-108773961D01*
X223271123Y-108758055D01*
X223294026Y-108744328D01*
X223318163Y-108732911D01*
X223343304Y-108723916D01*
X223369205Y-108717428D01*
X223395617Y-108713510D01*
X223422286Y-108712200D01*
X224379714Y-108712200D01*
X224406383Y-108713510D01*
G37*
G36*
X224406383Y-110763510D02*
G01*
X224432795Y-110767428D01*
X224458696Y-110773916D01*
X224483837Y-110782911D01*
X224507974Y-110794328D01*
X224530877Y-110808055D01*
X224552324Y-110823961D01*
X224572108Y-110841892D01*
X224590039Y-110861676D01*
X224605945Y-110883123D01*
X224619672Y-110906026D01*
X224631089Y-110930163D01*
X224640084Y-110955304D01*
X224646572Y-110981205D01*
X224650490Y-111007617D01*
X224651800Y-111034286D01*
X224651800Y-111741714D01*
X224650490Y-111768383D01*
X224646572Y-111794795D01*
X224640084Y-111820696D01*
X224631089Y-111845837D01*
X224619672Y-111869974D01*
X224605945Y-111892877D01*
X224590039Y-111914324D01*
X224572108Y-111934108D01*
X224552324Y-111952039D01*
X224530877Y-111967945D01*
X224507974Y-111981672D01*
X224483837Y-111993089D01*
X224458696Y-112002084D01*
X224432795Y-112008572D01*
X224406383Y-112012490D01*
X224379714Y-112013800D01*
X223422286Y-112013800D01*
X223395617Y-112012490D01*
X223369205Y-112008572D01*
X223343304Y-112002084D01*
X223318163Y-111993089D01*
X223294026Y-111981672D01*
X223271123Y-111967945D01*
X223249676Y-111952039D01*
X223229892Y-111934108D01*
X223211961Y-111914324D01*
X223196055Y-111892877D01*
X223182328Y-111869974D01*
X223170911Y-111845837D01*
X223161916Y-111820696D01*
X223155428Y-111794795D01*
X223151510Y-111768383D01*
X223150200Y-111741714D01*
X223150200Y-111034286D01*
X223151510Y-111007617D01*
X223155428Y-110981205D01*
X223161916Y-110955304D01*
X223170911Y-110930163D01*
X223182328Y-110906026D01*
X223196055Y-110883123D01*
X223211961Y-110861676D01*
X223229892Y-110841892D01*
X223249676Y-110823961D01*
X223271123Y-110808055D01*
X223294026Y-110794328D01*
X223318163Y-110782911D01*
X223343304Y-110773916D01*
X223369205Y-110767428D01*
X223395617Y-110763510D01*
X223422286Y-110762200D01*
X224379714Y-110762200D01*
X224406383Y-110763510D01*
G37*
G36*
X227193383Y-108153010D02*
G01*
X227219795Y-108156928D01*
X227245696Y-108163416D01*
X227270837Y-108172411D01*
X227294974Y-108183828D01*
X227317877Y-108197555D01*
X227339324Y-108213461D01*
X227359108Y-108231392D01*
X227377039Y-108251176D01*
X227392945Y-108272623D01*
X227406672Y-108295526D01*
X227418089Y-108319663D01*
X227427084Y-108344804D01*
X227433572Y-108370705D01*
X227437490Y-108397117D01*
X227438800Y-108423786D01*
X227438800Y-109381214D01*
X227437490Y-109407883D01*
X227433572Y-109434295D01*
X227427084Y-109460196D01*
X227418089Y-109485337D01*
X227406672Y-109509474D01*
X227392945Y-109532377D01*
X227377039Y-109553824D01*
X227359108Y-109573608D01*
X227339324Y-109591539D01*
X227317877Y-109607445D01*
X227294974Y-109621172D01*
X227270837Y-109632589D01*
X227245696Y-109641584D01*
X227219795Y-109648072D01*
X227193383Y-109651990D01*
X227166714Y-109653300D01*
X226459286Y-109653300D01*
X226432617Y-109651990D01*
X226406205Y-109648072D01*
X226380304Y-109641584D01*
X226355163Y-109632589D01*
X226331026Y-109621172D01*
X226308123Y-109607445D01*
X226286676Y-109591539D01*
X226266892Y-109573608D01*
X226248961Y-109553824D01*
X226233055Y-109532377D01*
X226219328Y-109509474D01*
X226207911Y-109485337D01*
X226198916Y-109460196D01*
X226192428Y-109434295D01*
X226188510Y-109407883D01*
X226187200Y-109381214D01*
X226187200Y-108423786D01*
X226188510Y-108397117D01*
X226192428Y-108370705D01*
X226198916Y-108344804D01*
X226207911Y-108319663D01*
X226219328Y-108295526D01*
X226233055Y-108272623D01*
X226248961Y-108251176D01*
X226266892Y-108231392D01*
X226286676Y-108213461D01*
X226308123Y-108197555D01*
X226331026Y-108183828D01*
X226355163Y-108172411D01*
X226380304Y-108163416D01*
X226406205Y-108156928D01*
X226432617Y-108153010D01*
X226459286Y-108151700D01*
X227166714Y-108151700D01*
X227193383Y-108153010D01*
G37*
G36*
X229243383Y-108153010D02*
G01*
X229269795Y-108156928D01*
X229295696Y-108163416D01*
X229320837Y-108172411D01*
X229344974Y-108183828D01*
X229367877Y-108197555D01*
X229389324Y-108213461D01*
X229409108Y-108231392D01*
X229427039Y-108251176D01*
X229442945Y-108272623D01*
X229456672Y-108295526D01*
X229468089Y-108319663D01*
X229477084Y-108344804D01*
X229483572Y-108370705D01*
X229487490Y-108397117D01*
X229488800Y-108423786D01*
X229488800Y-109381214D01*
X229487490Y-109407883D01*
X229483572Y-109434295D01*
X229477084Y-109460196D01*
X229468089Y-109485337D01*
X229456672Y-109509474D01*
X229442945Y-109532377D01*
X229427039Y-109553824D01*
X229409108Y-109573608D01*
X229389324Y-109591539D01*
X229367877Y-109607445D01*
X229344974Y-109621172D01*
X229320837Y-109632589D01*
X229295696Y-109641584D01*
X229269795Y-109648072D01*
X229243383Y-109651990D01*
X229216714Y-109653300D01*
X228509286Y-109653300D01*
X228482617Y-109651990D01*
X228456205Y-109648072D01*
X228430304Y-109641584D01*
X228405163Y-109632589D01*
X228381026Y-109621172D01*
X228358123Y-109607445D01*
X228336676Y-109591539D01*
X228316892Y-109573608D01*
X228298961Y-109553824D01*
X228283055Y-109532377D01*
X228269328Y-109509474D01*
X228257911Y-109485337D01*
X228248916Y-109460196D01*
X228242428Y-109434295D01*
X228238510Y-109407883D01*
X228237200Y-109381214D01*
X228237200Y-108423786D01*
X228238510Y-108397117D01*
X228242428Y-108370705D01*
X228248916Y-108344804D01*
X228257911Y-108319663D01*
X228269328Y-108295526D01*
X228283055Y-108272623D01*
X228298961Y-108251176D01*
X228316892Y-108231392D01*
X228336676Y-108213461D01*
X228358123Y-108197555D01*
X228381026Y-108183828D01*
X228405163Y-108172411D01*
X228430304Y-108163416D01*
X228456205Y-108156928D01*
X228482617Y-108153010D01*
X228509286Y-108151700D01*
X229216714Y-108151700D01*
X229243383Y-108153010D01*
G37*
D14*
X213992460Y-110397500D03*
X251269500Y-110397500D03*
X213992460Y-152942500D03*
X251269500Y-152942500D03*
D13*
G36*
X216595883Y-124225510D02*
G01*
X216622295Y-124229428D01*
X216648196Y-124235916D01*
X216673337Y-124244911D01*
X216697474Y-124256328D01*
X216720377Y-124270055D01*
X216741824Y-124285961D01*
X216761608Y-124303892D01*
X216779539Y-124323676D01*
X216795445Y-124345123D01*
X216809172Y-124368026D01*
X216820589Y-124392163D01*
X216829584Y-124417304D01*
X216836072Y-124443205D01*
X216839990Y-124469617D01*
X216841300Y-124496286D01*
X216841300Y-125203714D01*
X216839990Y-125230383D01*
X216836072Y-125256795D01*
X216829584Y-125282696D01*
X216820589Y-125307837D01*
X216809172Y-125331974D01*
X216795445Y-125354877D01*
X216779539Y-125376324D01*
X216761608Y-125396108D01*
X216741824Y-125414039D01*
X216720377Y-125429945D01*
X216697474Y-125443672D01*
X216673337Y-125455089D01*
X216648196Y-125464084D01*
X216622295Y-125470572D01*
X216595883Y-125474490D01*
X216569214Y-125475800D01*
X215611786Y-125475800D01*
X215585117Y-125474490D01*
X215558705Y-125470572D01*
X215532804Y-125464084D01*
X215507663Y-125455089D01*
X215483526Y-125443672D01*
X215460623Y-125429945D01*
X215439176Y-125414039D01*
X215419392Y-125396108D01*
X215401461Y-125376324D01*
X215385555Y-125354877D01*
X215371828Y-125331974D01*
X215360411Y-125307837D01*
X215351416Y-125282696D01*
X215344928Y-125256795D01*
X215341010Y-125230383D01*
X215339700Y-125203714D01*
X215339700Y-124496286D01*
X215341010Y-124469617D01*
X215344928Y-124443205D01*
X215351416Y-124417304D01*
X215360411Y-124392163D01*
X215371828Y-124368026D01*
X215385555Y-124345123D01*
X215401461Y-124323676D01*
X215419392Y-124303892D01*
X215439176Y-124285961D01*
X215460623Y-124270055D01*
X215483526Y-124256328D01*
X215507663Y-124244911D01*
X215532804Y-124235916D01*
X215558705Y-124229428D01*
X215585117Y-124225510D01*
X215611786Y-124224200D01*
X216569214Y-124224200D01*
X216595883Y-124225510D01*
G37*
G36*
X216595883Y-122175510D02*
G01*
X216622295Y-122179428D01*
X216648196Y-122185916D01*
X216673337Y-122194911D01*
X216697474Y-122206328D01*
X216720377Y-122220055D01*
X216741824Y-122235961D01*
X216761608Y-122253892D01*
X216779539Y-122273676D01*
X216795445Y-122295123D01*
X216809172Y-122318026D01*
X216820589Y-122342163D01*
X216829584Y-122367304D01*
X216836072Y-122393205D01*
X216839990Y-122419617D01*
X216841300Y-122446286D01*
X216841300Y-123153714D01*
X216839990Y-123180383D01*
X216836072Y-123206795D01*
X216829584Y-123232696D01*
X216820589Y-123257837D01*
X216809172Y-123281974D01*
X216795445Y-123304877D01*
X216779539Y-123326324D01*
X216761608Y-123346108D01*
X216741824Y-123364039D01*
X216720377Y-123379945D01*
X216697474Y-123393672D01*
X216673337Y-123405089D01*
X216648196Y-123414084D01*
X216622295Y-123420572D01*
X216595883Y-123424490D01*
X216569214Y-123425800D01*
X215611786Y-123425800D01*
X215585117Y-123424490D01*
X215558705Y-123420572D01*
X215532804Y-123414084D01*
X215507663Y-123405089D01*
X215483526Y-123393672D01*
X215460623Y-123379945D01*
X215439176Y-123364039D01*
X215419392Y-123346108D01*
X215401461Y-123326324D01*
X215385555Y-123304877D01*
X215371828Y-123281974D01*
X215360411Y-123257837D01*
X215351416Y-123232696D01*
X215344928Y-123206795D01*
X215341010Y-123180383D01*
X215339700Y-123153714D01*
X215339700Y-122446286D01*
X215341010Y-122419617D01*
X215344928Y-122393205D01*
X215351416Y-122367304D01*
X215360411Y-122342163D01*
X215371828Y-122318026D01*
X215385555Y-122295123D01*
X215401461Y-122273676D01*
X215419392Y-122253892D01*
X215439176Y-122235961D01*
X215460623Y-122220055D01*
X215483526Y-122206328D01*
X215507663Y-122194911D01*
X215532804Y-122185916D01*
X215558705Y-122179428D01*
X215585117Y-122175510D01*
X215611786Y-122174200D01*
X216569214Y-122174200D01*
X216595883Y-122175510D01*
G37*
D15*
X210883500Y-120586500D03*
D16*
X221310200Y-145643600D03*
X218770200Y-145643600D03*
X218770200Y-143103600D03*
X221310200Y-143103600D03*
X218770200Y-140563600D03*
X221310200Y-140563600D03*
X218770200Y-138023600D03*
X221310200Y-138023600D03*
X218770200Y-135483600D03*
X221310200Y-135483600D03*
X218770200Y-132943600D03*
X221310200Y-132943600D03*
X218770200Y-130403600D03*
X221310200Y-130403600D03*
X218770200Y-127863600D03*
X221310200Y-127863600D03*
X218770200Y-125323600D03*
X221310200Y-125323600D03*
X218770200Y-122783600D03*
X221310200Y-122783600D03*
X244170200Y-145643600D03*
X246710200Y-145643600D03*
X244170200Y-143103600D03*
X246710200Y-143103600D03*
X244170200Y-140563600D03*
X246710200Y-140563600D03*
X244170200Y-138023600D03*
X246710200Y-138023600D03*
X244170200Y-135483600D03*
X246710200Y-135483600D03*
X244170200Y-132943600D03*
X246710200Y-132943600D03*
X244170200Y-130403600D03*
X246710200Y-130403600D03*
X244170200Y-127863600D03*
X246710200Y-127863600D03*
X244170200Y-125323600D03*
X246710200Y-125323600D03*
X244170200Y-122783600D03*
X246710200Y-122783600D03*
D13*
G36*
X216416383Y-119265510D02*
G01*
X216442795Y-119269428D01*
X216468696Y-119275916D01*
X216493837Y-119284911D01*
X216517974Y-119296328D01*
X216540877Y-119310055D01*
X216562324Y-119325961D01*
X216582108Y-119343892D01*
X216600039Y-119363676D01*
X216615945Y-119385123D01*
X216629672Y-119408026D01*
X216641089Y-119432163D01*
X216650084Y-119457304D01*
X216656572Y-119483205D01*
X216660490Y-119509617D01*
X216661800Y-119536286D01*
X216661800Y-120493714D01*
X216660490Y-120520383D01*
X216656572Y-120546795D01*
X216650084Y-120572696D01*
X216641089Y-120597837D01*
X216629672Y-120621974D01*
X216615945Y-120644877D01*
X216600039Y-120666324D01*
X216582108Y-120686108D01*
X216562324Y-120704039D01*
X216540877Y-120719945D01*
X216517974Y-120733672D01*
X216493837Y-120745089D01*
X216468696Y-120754084D01*
X216442795Y-120760572D01*
X216416383Y-120764490D01*
X216389714Y-120765800D01*
X215682286Y-120765800D01*
X215655617Y-120764490D01*
X215629205Y-120760572D01*
X215603304Y-120754084D01*
X215578163Y-120745089D01*
X215554026Y-120733672D01*
X215531123Y-120719945D01*
X215509676Y-120704039D01*
X215489892Y-120686108D01*
X215471961Y-120666324D01*
X215456055Y-120644877D01*
X215442328Y-120621974D01*
X215430911Y-120597837D01*
X215421916Y-120572696D01*
X215415428Y-120546795D01*
X215411510Y-120520383D01*
X215410200Y-120493714D01*
X215410200Y-119536286D01*
X215411510Y-119509617D01*
X215415428Y-119483205D01*
X215421916Y-119457304D01*
X215430911Y-119432163D01*
X215442328Y-119408026D01*
X215456055Y-119385123D01*
X215471961Y-119363676D01*
X215489892Y-119343892D01*
X215509676Y-119325961D01*
X215531123Y-119310055D01*
X215554026Y-119296328D01*
X215578163Y-119284911D01*
X215603304Y-119275916D01*
X215629205Y-119269428D01*
X215655617Y-119265510D01*
X215682286Y-119264200D01*
X216389714Y-119264200D01*
X216416383Y-119265510D01*
G37*
G36*
X214366383Y-119265510D02*
G01*
X214392795Y-119269428D01*
X214418696Y-119275916D01*
X214443837Y-119284911D01*
X214467974Y-119296328D01*
X214490877Y-119310055D01*
X214512324Y-119325961D01*
X214532108Y-119343892D01*
X214550039Y-119363676D01*
X214565945Y-119385123D01*
X214579672Y-119408026D01*
X214591089Y-119432163D01*
X214600084Y-119457304D01*
X214606572Y-119483205D01*
X214610490Y-119509617D01*
X214611800Y-119536286D01*
X214611800Y-120493714D01*
X214610490Y-120520383D01*
X214606572Y-120546795D01*
X214600084Y-120572696D01*
X214591089Y-120597837D01*
X214579672Y-120621974D01*
X214565945Y-120644877D01*
X214550039Y-120666324D01*
X214532108Y-120686108D01*
X214512324Y-120704039D01*
X214490877Y-120719945D01*
X214467974Y-120733672D01*
X214443837Y-120745089D01*
X214418696Y-120754084D01*
X214392795Y-120760572D01*
X214366383Y-120764490D01*
X214339714Y-120765800D01*
X213632286Y-120765800D01*
X213605617Y-120764490D01*
X213579205Y-120760572D01*
X213553304Y-120754084D01*
X213528163Y-120745089D01*
X213504026Y-120733672D01*
X213481123Y-120719945D01*
X213459676Y-120704039D01*
X213439892Y-120686108D01*
X213421961Y-120666324D01*
X213406055Y-120644877D01*
X213392328Y-120621974D01*
X213380911Y-120597837D01*
X213371916Y-120572696D01*
X213365428Y-120546795D01*
X213361510Y-120520383D01*
X213360200Y-120493714D01*
X213360200Y-119536286D01*
X213361510Y-119509617D01*
X213365428Y-119483205D01*
X213371916Y-119457304D01*
X213380911Y-119432163D01*
X213392328Y-119408026D01*
X213406055Y-119385123D01*
X213421961Y-119363676D01*
X213439892Y-119343892D01*
X213459676Y-119325961D01*
X213481123Y-119310055D01*
X213504026Y-119296328D01*
X213528163Y-119284911D01*
X213553304Y-119275916D01*
X213579205Y-119269428D01*
X213605617Y-119265510D01*
X213632286Y-119264200D01*
X214339714Y-119264200D01*
X214366383Y-119265510D01*
G37*
D17*
X220789500Y-109156500D03*
D18*
X220789500Y-111696500D03*
X220789500Y-110426500D03*
D13*
G36*
X213039883Y-122175510D02*
G01*
X213066295Y-122179428D01*
X213092196Y-122185916D01*
X213117337Y-122194911D01*
X213141474Y-122206328D01*
X213164377Y-122220055D01*
X213185824Y-122235961D01*
X213205608Y-122253892D01*
X213223539Y-122273676D01*
X213239445Y-122295123D01*
X213253172Y-122318026D01*
X213264589Y-122342163D01*
X213273584Y-122367304D01*
X213280072Y-122393205D01*
X213283990Y-122419617D01*
X213285300Y-122446286D01*
X213285300Y-123153714D01*
X213283990Y-123180383D01*
X213280072Y-123206795D01*
X213273584Y-123232696D01*
X213264589Y-123257837D01*
X213253172Y-123281974D01*
X213239445Y-123304877D01*
X213223539Y-123326324D01*
X213205608Y-123346108D01*
X213185824Y-123364039D01*
X213164377Y-123379945D01*
X213141474Y-123393672D01*
X213117337Y-123405089D01*
X213092196Y-123414084D01*
X213066295Y-123420572D01*
X213039883Y-123424490D01*
X213013214Y-123425800D01*
X212055786Y-123425800D01*
X212029117Y-123424490D01*
X212002705Y-123420572D01*
X211976804Y-123414084D01*
X211951663Y-123405089D01*
X211927526Y-123393672D01*
X211904623Y-123379945D01*
X211883176Y-123364039D01*
X211863392Y-123346108D01*
X211845461Y-123326324D01*
X211829555Y-123304877D01*
X211815828Y-123281974D01*
X211804411Y-123257837D01*
X211795416Y-123232696D01*
X211788928Y-123206795D01*
X211785010Y-123180383D01*
X211783700Y-123153714D01*
X211783700Y-122446286D01*
X211785010Y-122419617D01*
X211788928Y-122393205D01*
X211795416Y-122367304D01*
X211804411Y-122342163D01*
X211815828Y-122318026D01*
X211829555Y-122295123D01*
X211845461Y-122273676D01*
X211863392Y-122253892D01*
X211883176Y-122235961D01*
X211904623Y-122220055D01*
X211927526Y-122206328D01*
X211951663Y-122194911D01*
X211976804Y-122185916D01*
X212002705Y-122179428D01*
X212029117Y-122175510D01*
X212055786Y-122174200D01*
X213013214Y-122174200D01*
X213039883Y-122175510D01*
G37*
G36*
X213039883Y-124225510D02*
G01*
X213066295Y-124229428D01*
X213092196Y-124235916D01*
X213117337Y-124244911D01*
X213141474Y-124256328D01*
X213164377Y-124270055D01*
X213185824Y-124285961D01*
X213205608Y-124303892D01*
X213223539Y-124323676D01*
X213239445Y-124345123D01*
X213253172Y-124368026D01*
X213264589Y-124392163D01*
X213273584Y-124417304D01*
X213280072Y-124443205D01*
X213283990Y-124469617D01*
X213285300Y-124496286D01*
X213285300Y-125203714D01*
X213283990Y-125230383D01*
X213280072Y-125256795D01*
X213273584Y-125282696D01*
X213264589Y-125307837D01*
X213253172Y-125331974D01*
X213239445Y-125354877D01*
X213223539Y-125376324D01*
X213205608Y-125396108D01*
X213185824Y-125414039D01*
X213164377Y-125429945D01*
X213141474Y-125443672D01*
X213117337Y-125455089D01*
X213092196Y-125464084D01*
X213066295Y-125470572D01*
X213039883Y-125474490D01*
X213013214Y-125475800D01*
X212055786Y-125475800D01*
X212029117Y-125474490D01*
X212002705Y-125470572D01*
X211976804Y-125464084D01*
X211951663Y-125455089D01*
X211927526Y-125443672D01*
X211904623Y-125429945D01*
X211883176Y-125414039D01*
X211863392Y-125396108D01*
X211845461Y-125376324D01*
X211829555Y-125354877D01*
X211815828Y-125331974D01*
X211804411Y-125307837D01*
X211795416Y-125282696D01*
X211788928Y-125256795D01*
X211785010Y-125230383D01*
X211783700Y-125203714D01*
X211783700Y-124496286D01*
X211785010Y-124469617D01*
X211788928Y-124443205D01*
X211795416Y-124417304D01*
X211804411Y-124392163D01*
X211815828Y-124368026D01*
X211829555Y-124345123D01*
X211845461Y-124323676D01*
X211863392Y-124303892D01*
X211883176Y-124285961D01*
X211904623Y-124270055D01*
X211927526Y-124256328D01*
X211951663Y-124244911D01*
X211976804Y-124235916D01*
X212002705Y-124229428D01*
X212029117Y-124225510D01*
X212055786Y-124224200D01*
X213013214Y-124224200D01*
X213039883Y-124225510D01*
G37*
G36*
X226438383Y-112732010D02*
G01*
X226464795Y-112735928D01*
X226490696Y-112742416D01*
X226515837Y-112751411D01*
X226539974Y-112762828D01*
X226562877Y-112776555D01*
X226584324Y-112792461D01*
X226604108Y-112810392D01*
X226622039Y-112830176D01*
X226637945Y-112851623D01*
X226651672Y-112874526D01*
X226663089Y-112898663D01*
X226672084Y-112923804D01*
X226678572Y-112949705D01*
X226682490Y-112976117D01*
X226683800Y-113002786D01*
X226683800Y-113710214D01*
X226682490Y-113736883D01*
X226678572Y-113763295D01*
X226672084Y-113789196D01*
X226663089Y-113814337D01*
X226651672Y-113838474D01*
X226637945Y-113861377D01*
X226622039Y-113882824D01*
X226604108Y-113902608D01*
X226584324Y-113920539D01*
X226562877Y-113936445D01*
X226539974Y-113950172D01*
X226515837Y-113961589D01*
X226490696Y-113970584D01*
X226464795Y-113977072D01*
X226438383Y-113980990D01*
X226411714Y-113982300D01*
X225454286Y-113982300D01*
X225427617Y-113980990D01*
X225401205Y-113977072D01*
X225375304Y-113970584D01*
X225350163Y-113961589D01*
X225326026Y-113950172D01*
X225303123Y-113936445D01*
X225281676Y-113920539D01*
X225261892Y-113902608D01*
X225243961Y-113882824D01*
X225228055Y-113861377D01*
X225214328Y-113838474D01*
X225202911Y-113814337D01*
X225193916Y-113789196D01*
X225187428Y-113763295D01*
X225183510Y-113736883D01*
X225182200Y-113710214D01*
X225182200Y-113002786D01*
X225183510Y-112976117D01*
X225187428Y-112949705D01*
X225193916Y-112923804D01*
X225202911Y-112898663D01*
X225214328Y-112874526D01*
X225228055Y-112851623D01*
X225243961Y-112830176D01*
X225261892Y-112810392D01*
X225281676Y-112792461D01*
X225303123Y-112776555D01*
X225326026Y-112762828D01*
X225350163Y-112751411D01*
X225375304Y-112742416D01*
X225401205Y-112735928D01*
X225427617Y-112732010D01*
X225454286Y-112730700D01*
X226411714Y-112730700D01*
X226438383Y-112732010D01*
G37*
G36*
X226438383Y-110682010D02*
G01*
X226464795Y-110685928D01*
X226490696Y-110692416D01*
X226515837Y-110701411D01*
X226539974Y-110712828D01*
X226562877Y-110726555D01*
X226584324Y-110742461D01*
X226604108Y-110760392D01*
X226622039Y-110780176D01*
X226637945Y-110801623D01*
X226651672Y-110824526D01*
X226663089Y-110848663D01*
X226672084Y-110873804D01*
X226678572Y-110899705D01*
X226682490Y-110926117D01*
X226683800Y-110952786D01*
X226683800Y-111660214D01*
X226682490Y-111686883D01*
X226678572Y-111713295D01*
X226672084Y-111739196D01*
X226663089Y-111764337D01*
X226651672Y-111788474D01*
X226637945Y-111811377D01*
X226622039Y-111832824D01*
X226604108Y-111852608D01*
X226584324Y-111870539D01*
X226562877Y-111886445D01*
X226539974Y-111900172D01*
X226515837Y-111911589D01*
X226490696Y-111920584D01*
X226464795Y-111927072D01*
X226438383Y-111930990D01*
X226411714Y-111932300D01*
X225454286Y-111932300D01*
X225427617Y-111930990D01*
X225401205Y-111927072D01*
X225375304Y-111920584D01*
X225350163Y-111911589D01*
X225326026Y-111900172D01*
X225303123Y-111886445D01*
X225281676Y-111870539D01*
X225261892Y-111852608D01*
X225243961Y-111832824D01*
X225228055Y-111811377D01*
X225214328Y-111788474D01*
X225202911Y-111764337D01*
X225193916Y-111739196D01*
X225187428Y-111713295D01*
X225183510Y-111686883D01*
X225182200Y-111660214D01*
X225182200Y-110952786D01*
X225183510Y-110926117D01*
X225187428Y-110899705D01*
X225193916Y-110873804D01*
X225202911Y-110848663D01*
X225214328Y-110824526D01*
X225228055Y-110801623D01*
X225243961Y-110780176D01*
X225261892Y-110760392D01*
X225281676Y-110742461D01*
X225303123Y-110726555D01*
X225326026Y-110712828D01*
X225350163Y-110701411D01*
X225375304Y-110692416D01*
X225401205Y-110685928D01*
X225427617Y-110682010D01*
X225454286Y-110680700D01*
X226411714Y-110680700D01*
X226438383Y-110682010D01*
G37*
G36*
X224326883Y-114503010D02*
G01*
X224353295Y-114506928D01*
X224379196Y-114513416D01*
X224404337Y-114522411D01*
X224428474Y-114533828D01*
X224451377Y-114547555D01*
X224472824Y-114563461D01*
X224492608Y-114581392D01*
X224510539Y-114601176D01*
X224526445Y-114622623D01*
X224540172Y-114645526D01*
X224551589Y-114669663D01*
X224560584Y-114694804D01*
X224567072Y-114720705D01*
X224570990Y-114747117D01*
X224572300Y-114773786D01*
X224572300Y-115731214D01*
X224570990Y-115757883D01*
X224567072Y-115784295D01*
X224560584Y-115810196D01*
X224551589Y-115835337D01*
X224540172Y-115859474D01*
X224526445Y-115882377D01*
X224510539Y-115903824D01*
X224492608Y-115923608D01*
X224472824Y-115941539D01*
X224451377Y-115957445D01*
X224428474Y-115971172D01*
X224404337Y-115982589D01*
X224379196Y-115991584D01*
X224353295Y-115998072D01*
X224326883Y-116001990D01*
X224300214Y-116003300D01*
X223592786Y-116003300D01*
X223566117Y-116001990D01*
X223539705Y-115998072D01*
X223513804Y-115991584D01*
X223488663Y-115982589D01*
X223464526Y-115971172D01*
X223441623Y-115957445D01*
X223420176Y-115941539D01*
X223400392Y-115923608D01*
X223382461Y-115903824D01*
X223366555Y-115882377D01*
X223352828Y-115859474D01*
X223341411Y-115835337D01*
X223332416Y-115810196D01*
X223325928Y-115784295D01*
X223322010Y-115757883D01*
X223320700Y-115731214D01*
X223320700Y-114773786D01*
X223322010Y-114747117D01*
X223325928Y-114720705D01*
X223332416Y-114694804D01*
X223341411Y-114669663D01*
X223352828Y-114645526D01*
X223366555Y-114622623D01*
X223382461Y-114601176D01*
X223400392Y-114581392D01*
X223420176Y-114563461D01*
X223441623Y-114547555D01*
X223464526Y-114533828D01*
X223488663Y-114522411D01*
X223513804Y-114513416D01*
X223539705Y-114506928D01*
X223566117Y-114503010D01*
X223592786Y-114501700D01*
X224300214Y-114501700D01*
X224326883Y-114503010D01*
G37*
G36*
X226376883Y-114503010D02*
G01*
X226403295Y-114506928D01*
X226429196Y-114513416D01*
X226454337Y-114522411D01*
X226478474Y-114533828D01*
X226501377Y-114547555D01*
X226522824Y-114563461D01*
X226542608Y-114581392D01*
X226560539Y-114601176D01*
X226576445Y-114622623D01*
X226590172Y-114645526D01*
X226601589Y-114669663D01*
X226610584Y-114694804D01*
X226617072Y-114720705D01*
X226620990Y-114747117D01*
X226622300Y-114773786D01*
X226622300Y-115731214D01*
X226620990Y-115757883D01*
X226617072Y-115784295D01*
X226610584Y-115810196D01*
X226601589Y-115835337D01*
X226590172Y-115859474D01*
X226576445Y-115882377D01*
X226560539Y-115903824D01*
X226542608Y-115923608D01*
X226522824Y-115941539D01*
X226501377Y-115957445D01*
X226478474Y-115971172D01*
X226454337Y-115982589D01*
X226429196Y-115991584D01*
X226403295Y-115998072D01*
X226376883Y-116001990D01*
X226350214Y-116003300D01*
X225642786Y-116003300D01*
X225616117Y-116001990D01*
X225589705Y-115998072D01*
X225563804Y-115991584D01*
X225538663Y-115982589D01*
X225514526Y-115971172D01*
X225491623Y-115957445D01*
X225470176Y-115941539D01*
X225450392Y-115923608D01*
X225432461Y-115903824D01*
X225416555Y-115882377D01*
X225402828Y-115859474D01*
X225391411Y-115835337D01*
X225382416Y-115810196D01*
X225375928Y-115784295D01*
X225372010Y-115757883D01*
X225370700Y-115731214D01*
X225370700Y-114773786D01*
X225372010Y-114747117D01*
X225375928Y-114720705D01*
X225382416Y-114694804D01*
X225391411Y-114669663D01*
X225402828Y-114645526D01*
X225416555Y-114622623D01*
X225432461Y-114601176D01*
X225450392Y-114581392D01*
X225470176Y-114563461D01*
X225491623Y-114547555D01*
X225514526Y-114533828D01*
X225538663Y-114522411D01*
X225563804Y-114513416D01*
X225589705Y-114506928D01*
X225616117Y-114503010D01*
X225642786Y-114501700D01*
X226350214Y-114501700D01*
X226376883Y-114503010D01*
G37*
G36*
X252674883Y-123989910D02*
G01*
X252701295Y-123993828D01*
X252727196Y-124000316D01*
X252752337Y-124009311D01*
X252776474Y-124020728D01*
X252799377Y-124034455D01*
X252820824Y-124050361D01*
X252840608Y-124068292D01*
X252858539Y-124088076D01*
X252874445Y-124109523D01*
X252888172Y-124132426D01*
X252899589Y-124156563D01*
X252908584Y-124181704D01*
X252915072Y-124207605D01*
X252918990Y-124234017D01*
X252920300Y-124260686D01*
X252920300Y-125218114D01*
X252918990Y-125244783D01*
X252915072Y-125271195D01*
X252908584Y-125297096D01*
X252899589Y-125322237D01*
X252888172Y-125346374D01*
X252874445Y-125369277D01*
X252858539Y-125390724D01*
X252840608Y-125410508D01*
X252820824Y-125428439D01*
X252799377Y-125444345D01*
X252776474Y-125458072D01*
X252752337Y-125469489D01*
X252727196Y-125478484D01*
X252701295Y-125484972D01*
X252674883Y-125488890D01*
X252648214Y-125490200D01*
X251940786Y-125490200D01*
X251914117Y-125488890D01*
X251887705Y-125484972D01*
X251861804Y-125478484D01*
X251836663Y-125469489D01*
X251812526Y-125458072D01*
X251789623Y-125444345D01*
X251768176Y-125428439D01*
X251748392Y-125410508D01*
X251730461Y-125390724D01*
X251714555Y-125369277D01*
X251700828Y-125346374D01*
X251689411Y-125322237D01*
X251680416Y-125297096D01*
X251673928Y-125271195D01*
X251670010Y-125244783D01*
X251668700Y-125218114D01*
X251668700Y-124260686D01*
X251670010Y-124234017D01*
X251673928Y-124207605D01*
X251680416Y-124181704D01*
X251689411Y-124156563D01*
X251700828Y-124132426D01*
X251714555Y-124109523D01*
X251730461Y-124088076D01*
X251748392Y-124068292D01*
X251768176Y-124050361D01*
X251789623Y-124034455D01*
X251812526Y-124020728D01*
X251836663Y-124009311D01*
X251861804Y-124000316D01*
X251887705Y-123993828D01*
X251914117Y-123989910D01*
X251940786Y-123988600D01*
X252648214Y-123988600D01*
X252674883Y-123989910D01*
G37*
G36*
X250624883Y-123989910D02*
G01*
X250651295Y-123993828D01*
X250677196Y-124000316D01*
X250702337Y-124009311D01*
X250726474Y-124020728D01*
X250749377Y-124034455D01*
X250770824Y-124050361D01*
X250790608Y-124068292D01*
X250808539Y-124088076D01*
X250824445Y-124109523D01*
X250838172Y-124132426D01*
X250849589Y-124156563D01*
X250858584Y-124181704D01*
X250865072Y-124207605D01*
X250868990Y-124234017D01*
X250870300Y-124260686D01*
X250870300Y-125218114D01*
X250868990Y-125244783D01*
X250865072Y-125271195D01*
X250858584Y-125297096D01*
X250849589Y-125322237D01*
X250838172Y-125346374D01*
X250824445Y-125369277D01*
X250808539Y-125390724D01*
X250790608Y-125410508D01*
X250770824Y-125428439D01*
X250749377Y-125444345D01*
X250726474Y-125458072D01*
X250702337Y-125469489D01*
X250677196Y-125478484D01*
X250651295Y-125484972D01*
X250624883Y-125488890D01*
X250598214Y-125490200D01*
X249890786Y-125490200D01*
X249864117Y-125488890D01*
X249837705Y-125484972D01*
X249811804Y-125478484D01*
X249786663Y-125469489D01*
X249762526Y-125458072D01*
X249739623Y-125444345D01*
X249718176Y-125428439D01*
X249698392Y-125410508D01*
X249680461Y-125390724D01*
X249664555Y-125369277D01*
X249650828Y-125346374D01*
X249639411Y-125322237D01*
X249630416Y-125297096D01*
X249623928Y-125271195D01*
X249620010Y-125244783D01*
X249618700Y-125218114D01*
X249618700Y-124260686D01*
X249620010Y-124234017D01*
X249623928Y-124207605D01*
X249630416Y-124181704D01*
X249639411Y-124156563D01*
X249650828Y-124132426D01*
X249664555Y-124109523D01*
X249680461Y-124088076D01*
X249698392Y-124068292D01*
X249718176Y-124050361D01*
X249739623Y-124034455D01*
X249762526Y-124020728D01*
X249786663Y-124009311D01*
X249811804Y-124000316D01*
X249837705Y-123993828D01*
X249864117Y-123989910D01*
X249890786Y-123988600D01*
X250598214Y-123988600D01*
X250624883Y-123989910D01*
G37*
G36*
X250625324Y-121869008D02*
G01*
X250651689Y-121872919D01*
X250677543Y-121879395D01*
X250702639Y-121888374D01*
X250726733Y-121899770D01*
X250749594Y-121913472D01*
X250771002Y-121929350D01*
X250790751Y-121947249D01*
X250808650Y-121966998D01*
X250824528Y-121988406D01*
X250838230Y-122011267D01*
X250849626Y-122035361D01*
X250858605Y-122060457D01*
X250865081Y-122086311D01*
X250868992Y-122112676D01*
X250870300Y-122139297D01*
X250870300Y-123097703D01*
X250868992Y-123124324D01*
X250865081Y-123150689D01*
X250858605Y-123176543D01*
X250849626Y-123201639D01*
X250838230Y-123225733D01*
X250824528Y-123248594D01*
X250808650Y-123270002D01*
X250790751Y-123289751D01*
X250771002Y-123307650D01*
X250749594Y-123323528D01*
X250726733Y-123337230D01*
X250702639Y-123348626D01*
X250677543Y-123357605D01*
X250651689Y-123364081D01*
X250625324Y-123367992D01*
X250598703Y-123369300D01*
X249890297Y-123369300D01*
X249863676Y-123367992D01*
X249837311Y-123364081D01*
X249811457Y-123357605D01*
X249786361Y-123348626D01*
X249762267Y-123337230D01*
X249739406Y-123323528D01*
X249717998Y-123307650D01*
X249698249Y-123289751D01*
X249680350Y-123270002D01*
X249664472Y-123248594D01*
X249650770Y-123225733D01*
X249639374Y-123201639D01*
X249630395Y-123176543D01*
X249623919Y-123150689D01*
X249620008Y-123124324D01*
X249618700Y-123097703D01*
X249618700Y-122139297D01*
X249620008Y-122112676D01*
X249623919Y-122086311D01*
X249630395Y-122060457D01*
X249639374Y-122035361D01*
X249650770Y-122011267D01*
X249664472Y-121988406D01*
X249680350Y-121966998D01*
X249698249Y-121947249D01*
X249717998Y-121929350D01*
X249739406Y-121913472D01*
X249762267Y-121899770D01*
X249786361Y-121888374D01*
X249811457Y-121879395D01*
X249837311Y-121872919D01*
X249863676Y-121869008D01*
X249890297Y-121867700D01*
X250598703Y-121867700D01*
X250625324Y-121869008D01*
G37*
G36*
X252674883Y-121869010D02*
G01*
X252701295Y-121872928D01*
X252727196Y-121879416D01*
X252752337Y-121888411D01*
X252776474Y-121899828D01*
X252799377Y-121913555D01*
X252820824Y-121929461D01*
X252840608Y-121947392D01*
X252858539Y-121967176D01*
X252874445Y-121988623D01*
X252888172Y-122011526D01*
X252899589Y-122035663D01*
X252908584Y-122060804D01*
X252915072Y-122086705D01*
X252918990Y-122113117D01*
X252920300Y-122139786D01*
X252920300Y-123097214D01*
X252918990Y-123123883D01*
X252915072Y-123150295D01*
X252908584Y-123176196D01*
X252899589Y-123201337D01*
X252888172Y-123225474D01*
X252874445Y-123248377D01*
X252858539Y-123269824D01*
X252840608Y-123289608D01*
X252820824Y-123307539D01*
X252799377Y-123323445D01*
X252776474Y-123337172D01*
X252752337Y-123348589D01*
X252727196Y-123357584D01*
X252701295Y-123364072D01*
X252674883Y-123367990D01*
X252648214Y-123369300D01*
X251940786Y-123369300D01*
X251914117Y-123367990D01*
X251887705Y-123364072D01*
X251861804Y-123357584D01*
X251836663Y-123348589D01*
X251812526Y-123337172D01*
X251789623Y-123323445D01*
X251768176Y-123307539D01*
X251748392Y-123289608D01*
X251730461Y-123269824D01*
X251714555Y-123248377D01*
X251700828Y-123225474D01*
X251689411Y-123201337D01*
X251680416Y-123176196D01*
X251673928Y-123150295D01*
X251670010Y-123123883D01*
X251668700Y-123097214D01*
X251668700Y-122139786D01*
X251670010Y-122113117D01*
X251673928Y-122086705D01*
X251680416Y-122060804D01*
X251689411Y-122035663D01*
X251700828Y-122011526D01*
X251714555Y-121988623D01*
X251730461Y-121967176D01*
X251748392Y-121947392D01*
X251768176Y-121929461D01*
X251789623Y-121913555D01*
X251812526Y-121899828D01*
X251836663Y-121888411D01*
X251861804Y-121879416D01*
X251887705Y-121872928D01*
X251914117Y-121869010D01*
X251940786Y-121867700D01*
X252648214Y-121867700D01*
X252674883Y-121869010D01*
G37*
D19*
X252171200Y-129286000D03*
X212915500Y-129232660D03*
X252171200Y-145796000D03*
X212928200Y-145806160D03*
D13*
G36*
X221686883Y-114376010D02*
G01*
X221713295Y-114379928D01*
X221739196Y-114386416D01*
X221764337Y-114395411D01*
X221788474Y-114406828D01*
X221811377Y-114420555D01*
X221832824Y-114436461D01*
X221852608Y-114454392D01*
X221870539Y-114474176D01*
X221886445Y-114495623D01*
X221900172Y-114518526D01*
X221911589Y-114542663D01*
X221920584Y-114567804D01*
X221927072Y-114593705D01*
X221930990Y-114620117D01*
X221932300Y-114646786D01*
X221932300Y-115604214D01*
X221930990Y-115630883D01*
X221927072Y-115657295D01*
X221920584Y-115683196D01*
X221911589Y-115708337D01*
X221900172Y-115732474D01*
X221886445Y-115755377D01*
X221870539Y-115776824D01*
X221852608Y-115796608D01*
X221832824Y-115814539D01*
X221811377Y-115830445D01*
X221788474Y-115844172D01*
X221764337Y-115855589D01*
X221739196Y-115864584D01*
X221713295Y-115871072D01*
X221686883Y-115874990D01*
X221660214Y-115876300D01*
X220952786Y-115876300D01*
X220926117Y-115874990D01*
X220899705Y-115871072D01*
X220873804Y-115864584D01*
X220848663Y-115855589D01*
X220824526Y-115844172D01*
X220801623Y-115830445D01*
X220780176Y-115814539D01*
X220760392Y-115796608D01*
X220742461Y-115776824D01*
X220726555Y-115755377D01*
X220712828Y-115732474D01*
X220701411Y-115708337D01*
X220692416Y-115683196D01*
X220685928Y-115657295D01*
X220682010Y-115630883D01*
X220680700Y-115604214D01*
X220680700Y-114646786D01*
X220682010Y-114620117D01*
X220685928Y-114593705D01*
X220692416Y-114567804D01*
X220701411Y-114542663D01*
X220712828Y-114518526D01*
X220726555Y-114495623D01*
X220742461Y-114474176D01*
X220760392Y-114454392D01*
X220780176Y-114436461D01*
X220801623Y-114420555D01*
X220824526Y-114406828D01*
X220848663Y-114395411D01*
X220873804Y-114386416D01*
X220899705Y-114379928D01*
X220926117Y-114376010D01*
X220952786Y-114374700D01*
X221660214Y-114374700D01*
X221686883Y-114376010D01*
G37*
G36*
X219636883Y-114376010D02*
G01*
X219663295Y-114379928D01*
X219689196Y-114386416D01*
X219714337Y-114395411D01*
X219738474Y-114406828D01*
X219761377Y-114420555D01*
X219782824Y-114436461D01*
X219802608Y-114454392D01*
X219820539Y-114474176D01*
X219836445Y-114495623D01*
X219850172Y-114518526D01*
X219861589Y-114542663D01*
X219870584Y-114567804D01*
X219877072Y-114593705D01*
X219880990Y-114620117D01*
X219882300Y-114646786D01*
X219882300Y-115604214D01*
X219880990Y-115630883D01*
X219877072Y-115657295D01*
X219870584Y-115683196D01*
X219861589Y-115708337D01*
X219850172Y-115732474D01*
X219836445Y-115755377D01*
X219820539Y-115776824D01*
X219802608Y-115796608D01*
X219782824Y-115814539D01*
X219761377Y-115830445D01*
X219738474Y-115844172D01*
X219714337Y-115855589D01*
X219689196Y-115864584D01*
X219663295Y-115871072D01*
X219636883Y-115874990D01*
X219610214Y-115876300D01*
X218902786Y-115876300D01*
X218876117Y-115874990D01*
X218849705Y-115871072D01*
X218823804Y-115864584D01*
X218798663Y-115855589D01*
X218774526Y-115844172D01*
X218751623Y-115830445D01*
X218730176Y-115814539D01*
X218710392Y-115796608D01*
X218692461Y-115776824D01*
X218676555Y-115755377D01*
X218662828Y-115732474D01*
X218651411Y-115708337D01*
X218642416Y-115683196D01*
X218635928Y-115657295D01*
X218632010Y-115630883D01*
X218630700Y-115604214D01*
X218630700Y-114646786D01*
X218632010Y-114620117D01*
X218635928Y-114593705D01*
X218642416Y-114567804D01*
X218651411Y-114542663D01*
X218662828Y-114518526D01*
X218676555Y-114495623D01*
X218692461Y-114474176D01*
X218710392Y-114454392D01*
X218730176Y-114436461D01*
X218751623Y-114420555D01*
X218774526Y-114406828D01*
X218798663Y-114395411D01*
X218823804Y-114386416D01*
X218849705Y-114379928D01*
X218876117Y-114376010D01*
X218902786Y-114374700D01*
X219610214Y-114374700D01*
X219636883Y-114376010D01*
G37*
G36*
X217813824Y-113614008D02*
G01*
X217840189Y-113617919D01*
X217866043Y-113624395D01*
X217891139Y-113633374D01*
X217915233Y-113644770D01*
X217938094Y-113658472D01*
X217959502Y-113674350D01*
X217979251Y-113692249D01*
X217997150Y-113711998D01*
X218013028Y-113733406D01*
X218026730Y-113756267D01*
X218038126Y-113780361D01*
X218047105Y-113805457D01*
X218053581Y-113831311D01*
X218057492Y-113857676D01*
X218058800Y-113884297D01*
X218058800Y-114842703D01*
X218057492Y-114869324D01*
X218053581Y-114895689D01*
X218047105Y-114921543D01*
X218038126Y-114946639D01*
X218026730Y-114970733D01*
X218013028Y-114993594D01*
X217997150Y-115015002D01*
X217979251Y-115034751D01*
X217959502Y-115052650D01*
X217938094Y-115068528D01*
X217915233Y-115082230D01*
X217891139Y-115093626D01*
X217866043Y-115102605D01*
X217840189Y-115109081D01*
X217813824Y-115112992D01*
X217787203Y-115114300D01*
X217078797Y-115114300D01*
X217052176Y-115112992D01*
X217025811Y-115109081D01*
X216999957Y-115102605D01*
X216974861Y-115093626D01*
X216950767Y-115082230D01*
X216927906Y-115068528D01*
X216906498Y-115052650D01*
X216886749Y-115034751D01*
X216868850Y-115015002D01*
X216852972Y-114993594D01*
X216839270Y-114970733D01*
X216827874Y-114946639D01*
X216818895Y-114921543D01*
X216812419Y-114895689D01*
X216808508Y-114869324D01*
X216807200Y-114842703D01*
X216807200Y-113884297D01*
X216808508Y-113857676D01*
X216812419Y-113831311D01*
X216818895Y-113805457D01*
X216827874Y-113780361D01*
X216839270Y-113756267D01*
X216852972Y-113733406D01*
X216868850Y-113711998D01*
X216886749Y-113692249D01*
X216906498Y-113674350D01*
X216927906Y-113658472D01*
X216950767Y-113644770D01*
X216974861Y-113633374D01*
X216999957Y-113624395D01*
X217025811Y-113617919D01*
X217052176Y-113614008D01*
X217078797Y-113612700D01*
X217787203Y-113612700D01*
X217813824Y-113614008D01*
G37*
G36*
X215763383Y-113614010D02*
G01*
X215789795Y-113617928D01*
X215815696Y-113624416D01*
X215840837Y-113633411D01*
X215864974Y-113644828D01*
X215887877Y-113658555D01*
X215909324Y-113674461D01*
X215929108Y-113692392D01*
X215947039Y-113712176D01*
X215962945Y-113733623D01*
X215976672Y-113756526D01*
X215988089Y-113780663D01*
X215997084Y-113805804D01*
X216003572Y-113831705D01*
X216007490Y-113858117D01*
X216008800Y-113884786D01*
X216008800Y-114842214D01*
X216007490Y-114868883D01*
X216003572Y-114895295D01*
X215997084Y-114921196D01*
X215988089Y-114946337D01*
X215976672Y-114970474D01*
X215962945Y-114993377D01*
X215947039Y-115014824D01*
X215929108Y-115034608D01*
X215909324Y-115052539D01*
X215887877Y-115068445D01*
X215864974Y-115082172D01*
X215840837Y-115093589D01*
X215815696Y-115102584D01*
X215789795Y-115109072D01*
X215763383Y-115112990D01*
X215736714Y-115114300D01*
X215029286Y-115114300D01*
X215002617Y-115112990D01*
X214976205Y-115109072D01*
X214950304Y-115102584D01*
X214925163Y-115093589D01*
X214901026Y-115082172D01*
X214878123Y-115068445D01*
X214856676Y-115052539D01*
X214836892Y-115034608D01*
X214818961Y-115014824D01*
X214803055Y-114993377D01*
X214789328Y-114970474D01*
X214777911Y-114946337D01*
X214768916Y-114921196D01*
X214762428Y-114895295D01*
X214758510Y-114868883D01*
X214757200Y-114842214D01*
X214757200Y-113884786D01*
X214758510Y-113858117D01*
X214762428Y-113831705D01*
X214768916Y-113805804D01*
X214777911Y-113780663D01*
X214789328Y-113756526D01*
X214803055Y-113733623D01*
X214818961Y-113712176D01*
X214836892Y-113692392D01*
X214856676Y-113674461D01*
X214878123Y-113658555D01*
X214901026Y-113644828D01*
X214925163Y-113633411D01*
X214950304Y-113624416D01*
X214976205Y-113617928D01*
X215002617Y-113614010D01*
X215029286Y-113612700D01*
X215736714Y-113612700D01*
X215763383Y-113614010D01*
G37*
D20*
X215440500Y-116157500D03*
X216740500Y-116157500D03*
X216090500Y-118157500D03*
M02*
