G04 #@! TF.GenerationSoftware,KiCad,Pcbnew,5.1.5+dfsg1-2build2*
G04 #@! TF.CreationDate,2021-05-18T17:36:40-03:00*
G04 #@! TF.ProjectId,jbox_kicad,6a626f78-5f6b-4696-9361-642e6b696361,0*
G04 #@! TF.SameCoordinates,Original*
G04 #@! TF.FileFunction,Copper,L2,Bot*
G04 #@! TF.FilePolarity,Positive*
%FSLAX46Y46*%
G04 Gerber Fmt 4.6, Leading zero omitted, Abs format (unit mm)*
G04 Created by KiCad (PCBNEW 5.1.5+dfsg1-2build2) date 2021-05-18 17:36:40*
%MOMM*%
%LPD*%
G04 APERTURE LIST*
%ADD10C,0.500000*%
%ADD11C,5.500000*%
%ADD12R,1.000000X1.000000*%
%ADD13C,1.400000*%
%ADD14R,1.500000X1.050000*%
%ADD15O,1.500000X1.050000*%
%ADD16C,4.000000*%
%ADD17R,0.450000X0.700000*%
%ADD18C,1.000000*%
%ADD19C,0.762000*%
%ADD20C,0.254000*%
%ADD21C,0.508000*%
%ADD22C,0.762000*%
G04 APERTURE END LIST*
G04 #@! TA.AperFunction,SMDPad,CuDef*
D10*
G36*
X224375505Y-108764204D02*
G01*
X224399773Y-108767804D01*
X224423572Y-108773765D01*
X224446671Y-108782030D01*
X224468850Y-108792520D01*
X224489893Y-108805132D01*
X224509599Y-108819747D01*
X224527777Y-108836223D01*
X224544253Y-108854401D01*
X224558868Y-108874107D01*
X224571480Y-108895150D01*
X224581970Y-108917329D01*
X224590235Y-108940428D01*
X224596196Y-108964227D01*
X224599796Y-108988495D01*
X224601000Y-109012999D01*
X224601000Y-109663001D01*
X224599796Y-109687505D01*
X224596196Y-109711773D01*
X224590235Y-109735572D01*
X224581970Y-109758671D01*
X224571480Y-109780850D01*
X224558868Y-109801893D01*
X224544253Y-109821599D01*
X224527777Y-109839777D01*
X224509599Y-109856253D01*
X224489893Y-109870868D01*
X224468850Y-109883480D01*
X224446671Y-109893970D01*
X224423572Y-109902235D01*
X224399773Y-109908196D01*
X224375505Y-109911796D01*
X224351001Y-109913000D01*
X223450999Y-109913000D01*
X223426495Y-109911796D01*
X223402227Y-109908196D01*
X223378428Y-109902235D01*
X223355329Y-109893970D01*
X223333150Y-109883480D01*
X223312107Y-109870868D01*
X223292401Y-109856253D01*
X223274223Y-109839777D01*
X223257747Y-109821599D01*
X223243132Y-109801893D01*
X223230520Y-109780850D01*
X223220030Y-109758671D01*
X223211765Y-109735572D01*
X223205804Y-109711773D01*
X223202204Y-109687505D01*
X223201000Y-109663001D01*
X223201000Y-109012999D01*
X223202204Y-108988495D01*
X223205804Y-108964227D01*
X223211765Y-108940428D01*
X223220030Y-108917329D01*
X223230520Y-108895150D01*
X223243132Y-108874107D01*
X223257747Y-108854401D01*
X223274223Y-108836223D01*
X223292401Y-108819747D01*
X223312107Y-108805132D01*
X223333150Y-108792520D01*
X223355329Y-108782030D01*
X223378428Y-108773765D01*
X223402227Y-108767804D01*
X223426495Y-108764204D01*
X223450999Y-108763000D01*
X224351001Y-108763000D01*
X224375505Y-108764204D01*
G37*
G04 #@! TD.AperFunction*
G04 #@! TA.AperFunction,SMDPad,CuDef*
G36*
X224375505Y-110814204D02*
G01*
X224399773Y-110817804D01*
X224423572Y-110823765D01*
X224446671Y-110832030D01*
X224468850Y-110842520D01*
X224489893Y-110855132D01*
X224509599Y-110869747D01*
X224527777Y-110886223D01*
X224544253Y-110904401D01*
X224558868Y-110924107D01*
X224571480Y-110945150D01*
X224581970Y-110967329D01*
X224590235Y-110990428D01*
X224596196Y-111014227D01*
X224599796Y-111038495D01*
X224601000Y-111062999D01*
X224601000Y-111713001D01*
X224599796Y-111737505D01*
X224596196Y-111761773D01*
X224590235Y-111785572D01*
X224581970Y-111808671D01*
X224571480Y-111830850D01*
X224558868Y-111851893D01*
X224544253Y-111871599D01*
X224527777Y-111889777D01*
X224509599Y-111906253D01*
X224489893Y-111920868D01*
X224468850Y-111933480D01*
X224446671Y-111943970D01*
X224423572Y-111952235D01*
X224399773Y-111958196D01*
X224375505Y-111961796D01*
X224351001Y-111963000D01*
X223450999Y-111963000D01*
X223426495Y-111961796D01*
X223402227Y-111958196D01*
X223378428Y-111952235D01*
X223355329Y-111943970D01*
X223333150Y-111933480D01*
X223312107Y-111920868D01*
X223292401Y-111906253D01*
X223274223Y-111889777D01*
X223257747Y-111871599D01*
X223243132Y-111851893D01*
X223230520Y-111830850D01*
X223220030Y-111808671D01*
X223211765Y-111785572D01*
X223205804Y-111761773D01*
X223202204Y-111737505D01*
X223201000Y-111713001D01*
X223201000Y-111062999D01*
X223202204Y-111038495D01*
X223205804Y-111014227D01*
X223211765Y-110990428D01*
X223220030Y-110967329D01*
X223230520Y-110945150D01*
X223243132Y-110924107D01*
X223257747Y-110904401D01*
X223274223Y-110886223D01*
X223292401Y-110869747D01*
X223312107Y-110855132D01*
X223333150Y-110842520D01*
X223355329Y-110832030D01*
X223378428Y-110823765D01*
X223402227Y-110817804D01*
X223426495Y-110814204D01*
X223450999Y-110813000D01*
X224351001Y-110813000D01*
X224375505Y-110814204D01*
G37*
G04 #@! TD.AperFunction*
G04 #@! TA.AperFunction,SMDPad,CuDef*
G36*
X227162505Y-108203704D02*
G01*
X227186773Y-108207304D01*
X227210572Y-108213265D01*
X227233671Y-108221530D01*
X227255850Y-108232020D01*
X227276893Y-108244632D01*
X227296599Y-108259247D01*
X227314777Y-108275723D01*
X227331253Y-108293901D01*
X227345868Y-108313607D01*
X227358480Y-108334650D01*
X227368970Y-108356829D01*
X227377235Y-108379928D01*
X227383196Y-108403727D01*
X227386796Y-108427995D01*
X227388000Y-108452499D01*
X227388000Y-109352501D01*
X227386796Y-109377005D01*
X227383196Y-109401273D01*
X227377235Y-109425072D01*
X227368970Y-109448171D01*
X227358480Y-109470350D01*
X227345868Y-109491393D01*
X227331253Y-109511099D01*
X227314777Y-109529277D01*
X227296599Y-109545753D01*
X227276893Y-109560368D01*
X227255850Y-109572980D01*
X227233671Y-109583470D01*
X227210572Y-109591735D01*
X227186773Y-109597696D01*
X227162505Y-109601296D01*
X227138001Y-109602500D01*
X226487999Y-109602500D01*
X226463495Y-109601296D01*
X226439227Y-109597696D01*
X226415428Y-109591735D01*
X226392329Y-109583470D01*
X226370150Y-109572980D01*
X226349107Y-109560368D01*
X226329401Y-109545753D01*
X226311223Y-109529277D01*
X226294747Y-109511099D01*
X226280132Y-109491393D01*
X226267520Y-109470350D01*
X226257030Y-109448171D01*
X226248765Y-109425072D01*
X226242804Y-109401273D01*
X226239204Y-109377005D01*
X226238000Y-109352501D01*
X226238000Y-108452499D01*
X226239204Y-108427995D01*
X226242804Y-108403727D01*
X226248765Y-108379928D01*
X226257030Y-108356829D01*
X226267520Y-108334650D01*
X226280132Y-108313607D01*
X226294747Y-108293901D01*
X226311223Y-108275723D01*
X226329401Y-108259247D01*
X226349107Y-108244632D01*
X226370150Y-108232020D01*
X226392329Y-108221530D01*
X226415428Y-108213265D01*
X226439227Y-108207304D01*
X226463495Y-108203704D01*
X226487999Y-108202500D01*
X227138001Y-108202500D01*
X227162505Y-108203704D01*
G37*
G04 #@! TD.AperFunction*
G04 #@! TA.AperFunction,SMDPad,CuDef*
G36*
X229212505Y-108203704D02*
G01*
X229236773Y-108207304D01*
X229260572Y-108213265D01*
X229283671Y-108221530D01*
X229305850Y-108232020D01*
X229326893Y-108244632D01*
X229346599Y-108259247D01*
X229364777Y-108275723D01*
X229381253Y-108293901D01*
X229395868Y-108313607D01*
X229408480Y-108334650D01*
X229418970Y-108356829D01*
X229427235Y-108379928D01*
X229433196Y-108403727D01*
X229436796Y-108427995D01*
X229438000Y-108452499D01*
X229438000Y-109352501D01*
X229436796Y-109377005D01*
X229433196Y-109401273D01*
X229427235Y-109425072D01*
X229418970Y-109448171D01*
X229408480Y-109470350D01*
X229395868Y-109491393D01*
X229381253Y-109511099D01*
X229364777Y-109529277D01*
X229346599Y-109545753D01*
X229326893Y-109560368D01*
X229305850Y-109572980D01*
X229283671Y-109583470D01*
X229260572Y-109591735D01*
X229236773Y-109597696D01*
X229212505Y-109601296D01*
X229188001Y-109602500D01*
X228537999Y-109602500D01*
X228513495Y-109601296D01*
X228489227Y-109597696D01*
X228465428Y-109591735D01*
X228442329Y-109583470D01*
X228420150Y-109572980D01*
X228399107Y-109560368D01*
X228379401Y-109545753D01*
X228361223Y-109529277D01*
X228344747Y-109511099D01*
X228330132Y-109491393D01*
X228317520Y-109470350D01*
X228307030Y-109448171D01*
X228298765Y-109425072D01*
X228292804Y-109401273D01*
X228289204Y-109377005D01*
X228288000Y-109352501D01*
X228288000Y-108452499D01*
X228289204Y-108427995D01*
X228292804Y-108403727D01*
X228298765Y-108379928D01*
X228307030Y-108356829D01*
X228317520Y-108334650D01*
X228330132Y-108313607D01*
X228344747Y-108293901D01*
X228361223Y-108275723D01*
X228379401Y-108259247D01*
X228399107Y-108244632D01*
X228420150Y-108232020D01*
X228442329Y-108221530D01*
X228465428Y-108213265D01*
X228489227Y-108207304D01*
X228513495Y-108203704D01*
X228537999Y-108202500D01*
X229188001Y-108202500D01*
X229212505Y-108203704D01*
G37*
G04 #@! TD.AperFunction*
D11*
X213992460Y-110397500D03*
X251269500Y-110397500D03*
X213992460Y-152942500D03*
X251269500Y-152942500D03*
G04 #@! TA.AperFunction,SMDPad,CuDef*
D10*
G36*
X216565005Y-124276204D02*
G01*
X216589273Y-124279804D01*
X216613072Y-124285765D01*
X216636171Y-124294030D01*
X216658350Y-124304520D01*
X216679393Y-124317132D01*
X216699099Y-124331747D01*
X216717277Y-124348223D01*
X216733753Y-124366401D01*
X216748368Y-124386107D01*
X216760980Y-124407150D01*
X216771470Y-124429329D01*
X216779735Y-124452428D01*
X216785696Y-124476227D01*
X216789296Y-124500495D01*
X216790500Y-124524999D01*
X216790500Y-125175001D01*
X216789296Y-125199505D01*
X216785696Y-125223773D01*
X216779735Y-125247572D01*
X216771470Y-125270671D01*
X216760980Y-125292850D01*
X216748368Y-125313893D01*
X216733753Y-125333599D01*
X216717277Y-125351777D01*
X216699099Y-125368253D01*
X216679393Y-125382868D01*
X216658350Y-125395480D01*
X216636171Y-125405970D01*
X216613072Y-125414235D01*
X216589273Y-125420196D01*
X216565005Y-125423796D01*
X216540501Y-125425000D01*
X215640499Y-125425000D01*
X215615995Y-125423796D01*
X215591727Y-125420196D01*
X215567928Y-125414235D01*
X215544829Y-125405970D01*
X215522650Y-125395480D01*
X215501607Y-125382868D01*
X215481901Y-125368253D01*
X215463723Y-125351777D01*
X215447247Y-125333599D01*
X215432632Y-125313893D01*
X215420020Y-125292850D01*
X215409530Y-125270671D01*
X215401265Y-125247572D01*
X215395304Y-125223773D01*
X215391704Y-125199505D01*
X215390500Y-125175001D01*
X215390500Y-124524999D01*
X215391704Y-124500495D01*
X215395304Y-124476227D01*
X215401265Y-124452428D01*
X215409530Y-124429329D01*
X215420020Y-124407150D01*
X215432632Y-124386107D01*
X215447247Y-124366401D01*
X215463723Y-124348223D01*
X215481901Y-124331747D01*
X215501607Y-124317132D01*
X215522650Y-124304520D01*
X215544829Y-124294030D01*
X215567928Y-124285765D01*
X215591727Y-124279804D01*
X215615995Y-124276204D01*
X215640499Y-124275000D01*
X216540501Y-124275000D01*
X216565005Y-124276204D01*
G37*
G04 #@! TD.AperFunction*
G04 #@! TA.AperFunction,SMDPad,CuDef*
G36*
X216565005Y-122226204D02*
G01*
X216589273Y-122229804D01*
X216613072Y-122235765D01*
X216636171Y-122244030D01*
X216658350Y-122254520D01*
X216679393Y-122267132D01*
X216699099Y-122281747D01*
X216717277Y-122298223D01*
X216733753Y-122316401D01*
X216748368Y-122336107D01*
X216760980Y-122357150D01*
X216771470Y-122379329D01*
X216779735Y-122402428D01*
X216785696Y-122426227D01*
X216789296Y-122450495D01*
X216790500Y-122474999D01*
X216790500Y-123125001D01*
X216789296Y-123149505D01*
X216785696Y-123173773D01*
X216779735Y-123197572D01*
X216771470Y-123220671D01*
X216760980Y-123242850D01*
X216748368Y-123263893D01*
X216733753Y-123283599D01*
X216717277Y-123301777D01*
X216699099Y-123318253D01*
X216679393Y-123332868D01*
X216658350Y-123345480D01*
X216636171Y-123355970D01*
X216613072Y-123364235D01*
X216589273Y-123370196D01*
X216565005Y-123373796D01*
X216540501Y-123375000D01*
X215640499Y-123375000D01*
X215615995Y-123373796D01*
X215591727Y-123370196D01*
X215567928Y-123364235D01*
X215544829Y-123355970D01*
X215522650Y-123345480D01*
X215501607Y-123332868D01*
X215481901Y-123318253D01*
X215463723Y-123301777D01*
X215447247Y-123283599D01*
X215432632Y-123263893D01*
X215420020Y-123242850D01*
X215409530Y-123220671D01*
X215401265Y-123197572D01*
X215395304Y-123173773D01*
X215391704Y-123149505D01*
X215390500Y-123125001D01*
X215390500Y-122474999D01*
X215391704Y-122450495D01*
X215395304Y-122426227D01*
X215401265Y-122402428D01*
X215409530Y-122379329D01*
X215420020Y-122357150D01*
X215432632Y-122336107D01*
X215447247Y-122316401D01*
X215463723Y-122298223D01*
X215481901Y-122281747D01*
X215501607Y-122267132D01*
X215522650Y-122254520D01*
X215544829Y-122244030D01*
X215567928Y-122235765D01*
X215591727Y-122229804D01*
X215615995Y-122226204D01*
X215640499Y-122225000D01*
X216540501Y-122225000D01*
X216565005Y-122226204D01*
G37*
G04 #@! TD.AperFunction*
D12*
X212407500Y-114998500D03*
X254190500Y-119697500D03*
X210883500Y-120586500D03*
D13*
X221310200Y-145643600D03*
X218770200Y-145643600D03*
X218770200Y-143103600D03*
X221310200Y-143103600D03*
X218770200Y-140563600D03*
X221310200Y-140563600D03*
X218770200Y-138023600D03*
X221310200Y-138023600D03*
X218770200Y-135483600D03*
X221310200Y-135483600D03*
X218770200Y-132943600D03*
X221310200Y-132943600D03*
X218770200Y-130403600D03*
X221310200Y-130403600D03*
X218770200Y-127863600D03*
X221310200Y-127863600D03*
X218770200Y-125323600D03*
X221310200Y-125323600D03*
X218770200Y-122783600D03*
X221310200Y-122783600D03*
X244170200Y-145643600D03*
X246710200Y-145643600D03*
X244170200Y-143103600D03*
X246710200Y-143103600D03*
X244170200Y-140563600D03*
X246710200Y-140563600D03*
X244170200Y-138023600D03*
X246710200Y-138023600D03*
X244170200Y-135483600D03*
X246710200Y-135483600D03*
X244170200Y-132943600D03*
X246710200Y-132943600D03*
X244170200Y-130403600D03*
X246710200Y-130403600D03*
X244170200Y-127863600D03*
X246710200Y-127863600D03*
X244170200Y-125323600D03*
X246710200Y-125323600D03*
X244170200Y-122783600D03*
X246710200Y-122783600D03*
G04 #@! TA.AperFunction,SMDPad,CuDef*
D10*
G36*
X216385505Y-119316204D02*
G01*
X216409773Y-119319804D01*
X216433572Y-119325765D01*
X216456671Y-119334030D01*
X216478850Y-119344520D01*
X216499893Y-119357132D01*
X216519599Y-119371747D01*
X216537777Y-119388223D01*
X216554253Y-119406401D01*
X216568868Y-119426107D01*
X216581480Y-119447150D01*
X216591970Y-119469329D01*
X216600235Y-119492428D01*
X216606196Y-119516227D01*
X216609796Y-119540495D01*
X216611000Y-119564999D01*
X216611000Y-120465001D01*
X216609796Y-120489505D01*
X216606196Y-120513773D01*
X216600235Y-120537572D01*
X216591970Y-120560671D01*
X216581480Y-120582850D01*
X216568868Y-120603893D01*
X216554253Y-120623599D01*
X216537777Y-120641777D01*
X216519599Y-120658253D01*
X216499893Y-120672868D01*
X216478850Y-120685480D01*
X216456671Y-120695970D01*
X216433572Y-120704235D01*
X216409773Y-120710196D01*
X216385505Y-120713796D01*
X216361001Y-120715000D01*
X215710999Y-120715000D01*
X215686495Y-120713796D01*
X215662227Y-120710196D01*
X215638428Y-120704235D01*
X215615329Y-120695970D01*
X215593150Y-120685480D01*
X215572107Y-120672868D01*
X215552401Y-120658253D01*
X215534223Y-120641777D01*
X215517747Y-120623599D01*
X215503132Y-120603893D01*
X215490520Y-120582850D01*
X215480030Y-120560671D01*
X215471765Y-120537572D01*
X215465804Y-120513773D01*
X215462204Y-120489505D01*
X215461000Y-120465001D01*
X215461000Y-119564999D01*
X215462204Y-119540495D01*
X215465804Y-119516227D01*
X215471765Y-119492428D01*
X215480030Y-119469329D01*
X215490520Y-119447150D01*
X215503132Y-119426107D01*
X215517747Y-119406401D01*
X215534223Y-119388223D01*
X215552401Y-119371747D01*
X215572107Y-119357132D01*
X215593150Y-119344520D01*
X215615329Y-119334030D01*
X215638428Y-119325765D01*
X215662227Y-119319804D01*
X215686495Y-119316204D01*
X215710999Y-119315000D01*
X216361001Y-119315000D01*
X216385505Y-119316204D01*
G37*
G04 #@! TD.AperFunction*
G04 #@! TA.AperFunction,SMDPad,CuDef*
G36*
X214335505Y-119316204D02*
G01*
X214359773Y-119319804D01*
X214383572Y-119325765D01*
X214406671Y-119334030D01*
X214428850Y-119344520D01*
X214449893Y-119357132D01*
X214469599Y-119371747D01*
X214487777Y-119388223D01*
X214504253Y-119406401D01*
X214518868Y-119426107D01*
X214531480Y-119447150D01*
X214541970Y-119469329D01*
X214550235Y-119492428D01*
X214556196Y-119516227D01*
X214559796Y-119540495D01*
X214561000Y-119564999D01*
X214561000Y-120465001D01*
X214559796Y-120489505D01*
X214556196Y-120513773D01*
X214550235Y-120537572D01*
X214541970Y-120560671D01*
X214531480Y-120582850D01*
X214518868Y-120603893D01*
X214504253Y-120623599D01*
X214487777Y-120641777D01*
X214469599Y-120658253D01*
X214449893Y-120672868D01*
X214428850Y-120685480D01*
X214406671Y-120695970D01*
X214383572Y-120704235D01*
X214359773Y-120710196D01*
X214335505Y-120713796D01*
X214311001Y-120715000D01*
X213660999Y-120715000D01*
X213636495Y-120713796D01*
X213612227Y-120710196D01*
X213588428Y-120704235D01*
X213565329Y-120695970D01*
X213543150Y-120685480D01*
X213522107Y-120672868D01*
X213502401Y-120658253D01*
X213484223Y-120641777D01*
X213467747Y-120623599D01*
X213453132Y-120603893D01*
X213440520Y-120582850D01*
X213430030Y-120560671D01*
X213421765Y-120537572D01*
X213415804Y-120513773D01*
X213412204Y-120489505D01*
X213411000Y-120465001D01*
X213411000Y-119564999D01*
X213412204Y-119540495D01*
X213415804Y-119516227D01*
X213421765Y-119492428D01*
X213430030Y-119469329D01*
X213440520Y-119447150D01*
X213453132Y-119426107D01*
X213467747Y-119406401D01*
X213484223Y-119388223D01*
X213502401Y-119371747D01*
X213522107Y-119357132D01*
X213543150Y-119344520D01*
X213565329Y-119334030D01*
X213588428Y-119325765D01*
X213612227Y-119319804D01*
X213636495Y-119316204D01*
X213660999Y-119315000D01*
X214311001Y-119315000D01*
X214335505Y-119316204D01*
G37*
G04 #@! TD.AperFunction*
D14*
X220789500Y-109156500D03*
D15*
X220789500Y-111696500D03*
X220789500Y-110426500D03*
G04 #@! TA.AperFunction,SMDPad,CuDef*
D10*
G36*
X213009005Y-122226204D02*
G01*
X213033273Y-122229804D01*
X213057072Y-122235765D01*
X213080171Y-122244030D01*
X213102350Y-122254520D01*
X213123393Y-122267132D01*
X213143099Y-122281747D01*
X213161277Y-122298223D01*
X213177753Y-122316401D01*
X213192368Y-122336107D01*
X213204980Y-122357150D01*
X213215470Y-122379329D01*
X213223735Y-122402428D01*
X213229696Y-122426227D01*
X213233296Y-122450495D01*
X213234500Y-122474999D01*
X213234500Y-123125001D01*
X213233296Y-123149505D01*
X213229696Y-123173773D01*
X213223735Y-123197572D01*
X213215470Y-123220671D01*
X213204980Y-123242850D01*
X213192368Y-123263893D01*
X213177753Y-123283599D01*
X213161277Y-123301777D01*
X213143099Y-123318253D01*
X213123393Y-123332868D01*
X213102350Y-123345480D01*
X213080171Y-123355970D01*
X213057072Y-123364235D01*
X213033273Y-123370196D01*
X213009005Y-123373796D01*
X212984501Y-123375000D01*
X212084499Y-123375000D01*
X212059995Y-123373796D01*
X212035727Y-123370196D01*
X212011928Y-123364235D01*
X211988829Y-123355970D01*
X211966650Y-123345480D01*
X211945607Y-123332868D01*
X211925901Y-123318253D01*
X211907723Y-123301777D01*
X211891247Y-123283599D01*
X211876632Y-123263893D01*
X211864020Y-123242850D01*
X211853530Y-123220671D01*
X211845265Y-123197572D01*
X211839304Y-123173773D01*
X211835704Y-123149505D01*
X211834500Y-123125001D01*
X211834500Y-122474999D01*
X211835704Y-122450495D01*
X211839304Y-122426227D01*
X211845265Y-122402428D01*
X211853530Y-122379329D01*
X211864020Y-122357150D01*
X211876632Y-122336107D01*
X211891247Y-122316401D01*
X211907723Y-122298223D01*
X211925901Y-122281747D01*
X211945607Y-122267132D01*
X211966650Y-122254520D01*
X211988829Y-122244030D01*
X212011928Y-122235765D01*
X212035727Y-122229804D01*
X212059995Y-122226204D01*
X212084499Y-122225000D01*
X212984501Y-122225000D01*
X213009005Y-122226204D01*
G37*
G04 #@! TD.AperFunction*
G04 #@! TA.AperFunction,SMDPad,CuDef*
G36*
X213009005Y-124276204D02*
G01*
X213033273Y-124279804D01*
X213057072Y-124285765D01*
X213080171Y-124294030D01*
X213102350Y-124304520D01*
X213123393Y-124317132D01*
X213143099Y-124331747D01*
X213161277Y-124348223D01*
X213177753Y-124366401D01*
X213192368Y-124386107D01*
X213204980Y-124407150D01*
X213215470Y-124429329D01*
X213223735Y-124452428D01*
X213229696Y-124476227D01*
X213233296Y-124500495D01*
X213234500Y-124524999D01*
X213234500Y-125175001D01*
X213233296Y-125199505D01*
X213229696Y-125223773D01*
X213223735Y-125247572D01*
X213215470Y-125270671D01*
X213204980Y-125292850D01*
X213192368Y-125313893D01*
X213177753Y-125333599D01*
X213161277Y-125351777D01*
X213143099Y-125368253D01*
X213123393Y-125382868D01*
X213102350Y-125395480D01*
X213080171Y-125405970D01*
X213057072Y-125414235D01*
X213033273Y-125420196D01*
X213009005Y-125423796D01*
X212984501Y-125425000D01*
X212084499Y-125425000D01*
X212059995Y-125423796D01*
X212035727Y-125420196D01*
X212011928Y-125414235D01*
X211988829Y-125405970D01*
X211966650Y-125395480D01*
X211945607Y-125382868D01*
X211925901Y-125368253D01*
X211907723Y-125351777D01*
X211891247Y-125333599D01*
X211876632Y-125313893D01*
X211864020Y-125292850D01*
X211853530Y-125270671D01*
X211845265Y-125247572D01*
X211839304Y-125223773D01*
X211835704Y-125199505D01*
X211834500Y-125175001D01*
X211834500Y-124524999D01*
X211835704Y-124500495D01*
X211839304Y-124476227D01*
X211845265Y-124452428D01*
X211853530Y-124429329D01*
X211864020Y-124407150D01*
X211876632Y-124386107D01*
X211891247Y-124366401D01*
X211907723Y-124348223D01*
X211925901Y-124331747D01*
X211945607Y-124317132D01*
X211966650Y-124304520D01*
X211988829Y-124294030D01*
X212011928Y-124285765D01*
X212035727Y-124279804D01*
X212059995Y-124276204D01*
X212084499Y-124275000D01*
X212984501Y-124275000D01*
X213009005Y-124276204D01*
G37*
G04 #@! TD.AperFunction*
G04 #@! TA.AperFunction,SMDPad,CuDef*
G36*
X226407505Y-112782704D02*
G01*
X226431773Y-112786304D01*
X226455572Y-112792265D01*
X226478671Y-112800530D01*
X226500850Y-112811020D01*
X226521893Y-112823632D01*
X226541599Y-112838247D01*
X226559777Y-112854723D01*
X226576253Y-112872901D01*
X226590868Y-112892607D01*
X226603480Y-112913650D01*
X226613970Y-112935829D01*
X226622235Y-112958928D01*
X226628196Y-112982727D01*
X226631796Y-113006995D01*
X226633000Y-113031499D01*
X226633000Y-113681501D01*
X226631796Y-113706005D01*
X226628196Y-113730273D01*
X226622235Y-113754072D01*
X226613970Y-113777171D01*
X226603480Y-113799350D01*
X226590868Y-113820393D01*
X226576253Y-113840099D01*
X226559777Y-113858277D01*
X226541599Y-113874753D01*
X226521893Y-113889368D01*
X226500850Y-113901980D01*
X226478671Y-113912470D01*
X226455572Y-113920735D01*
X226431773Y-113926696D01*
X226407505Y-113930296D01*
X226383001Y-113931500D01*
X225482999Y-113931500D01*
X225458495Y-113930296D01*
X225434227Y-113926696D01*
X225410428Y-113920735D01*
X225387329Y-113912470D01*
X225365150Y-113901980D01*
X225344107Y-113889368D01*
X225324401Y-113874753D01*
X225306223Y-113858277D01*
X225289747Y-113840099D01*
X225275132Y-113820393D01*
X225262520Y-113799350D01*
X225252030Y-113777171D01*
X225243765Y-113754072D01*
X225237804Y-113730273D01*
X225234204Y-113706005D01*
X225233000Y-113681501D01*
X225233000Y-113031499D01*
X225234204Y-113006995D01*
X225237804Y-112982727D01*
X225243765Y-112958928D01*
X225252030Y-112935829D01*
X225262520Y-112913650D01*
X225275132Y-112892607D01*
X225289747Y-112872901D01*
X225306223Y-112854723D01*
X225324401Y-112838247D01*
X225344107Y-112823632D01*
X225365150Y-112811020D01*
X225387329Y-112800530D01*
X225410428Y-112792265D01*
X225434227Y-112786304D01*
X225458495Y-112782704D01*
X225482999Y-112781500D01*
X226383001Y-112781500D01*
X226407505Y-112782704D01*
G37*
G04 #@! TD.AperFunction*
G04 #@! TA.AperFunction,SMDPad,CuDef*
G36*
X226407505Y-110732704D02*
G01*
X226431773Y-110736304D01*
X226455572Y-110742265D01*
X226478671Y-110750530D01*
X226500850Y-110761020D01*
X226521893Y-110773632D01*
X226541599Y-110788247D01*
X226559777Y-110804723D01*
X226576253Y-110822901D01*
X226590868Y-110842607D01*
X226603480Y-110863650D01*
X226613970Y-110885829D01*
X226622235Y-110908928D01*
X226628196Y-110932727D01*
X226631796Y-110956995D01*
X226633000Y-110981499D01*
X226633000Y-111631501D01*
X226631796Y-111656005D01*
X226628196Y-111680273D01*
X226622235Y-111704072D01*
X226613970Y-111727171D01*
X226603480Y-111749350D01*
X226590868Y-111770393D01*
X226576253Y-111790099D01*
X226559777Y-111808277D01*
X226541599Y-111824753D01*
X226521893Y-111839368D01*
X226500850Y-111851980D01*
X226478671Y-111862470D01*
X226455572Y-111870735D01*
X226431773Y-111876696D01*
X226407505Y-111880296D01*
X226383001Y-111881500D01*
X225482999Y-111881500D01*
X225458495Y-111880296D01*
X225434227Y-111876696D01*
X225410428Y-111870735D01*
X225387329Y-111862470D01*
X225365150Y-111851980D01*
X225344107Y-111839368D01*
X225324401Y-111824753D01*
X225306223Y-111808277D01*
X225289747Y-111790099D01*
X225275132Y-111770393D01*
X225262520Y-111749350D01*
X225252030Y-111727171D01*
X225243765Y-111704072D01*
X225237804Y-111680273D01*
X225234204Y-111656005D01*
X225233000Y-111631501D01*
X225233000Y-110981499D01*
X225234204Y-110956995D01*
X225237804Y-110932727D01*
X225243765Y-110908928D01*
X225252030Y-110885829D01*
X225262520Y-110863650D01*
X225275132Y-110842607D01*
X225289747Y-110822901D01*
X225306223Y-110804723D01*
X225324401Y-110788247D01*
X225344107Y-110773632D01*
X225365150Y-110761020D01*
X225387329Y-110750530D01*
X225410428Y-110742265D01*
X225434227Y-110736304D01*
X225458495Y-110732704D01*
X225482999Y-110731500D01*
X226383001Y-110731500D01*
X226407505Y-110732704D01*
G37*
G04 #@! TD.AperFunction*
G04 #@! TA.AperFunction,SMDPad,CuDef*
G36*
X224296005Y-114553704D02*
G01*
X224320273Y-114557304D01*
X224344072Y-114563265D01*
X224367171Y-114571530D01*
X224389350Y-114582020D01*
X224410393Y-114594632D01*
X224430099Y-114609247D01*
X224448277Y-114625723D01*
X224464753Y-114643901D01*
X224479368Y-114663607D01*
X224491980Y-114684650D01*
X224502470Y-114706829D01*
X224510735Y-114729928D01*
X224516696Y-114753727D01*
X224520296Y-114777995D01*
X224521500Y-114802499D01*
X224521500Y-115702501D01*
X224520296Y-115727005D01*
X224516696Y-115751273D01*
X224510735Y-115775072D01*
X224502470Y-115798171D01*
X224491980Y-115820350D01*
X224479368Y-115841393D01*
X224464753Y-115861099D01*
X224448277Y-115879277D01*
X224430099Y-115895753D01*
X224410393Y-115910368D01*
X224389350Y-115922980D01*
X224367171Y-115933470D01*
X224344072Y-115941735D01*
X224320273Y-115947696D01*
X224296005Y-115951296D01*
X224271501Y-115952500D01*
X223621499Y-115952500D01*
X223596995Y-115951296D01*
X223572727Y-115947696D01*
X223548928Y-115941735D01*
X223525829Y-115933470D01*
X223503650Y-115922980D01*
X223482607Y-115910368D01*
X223462901Y-115895753D01*
X223444723Y-115879277D01*
X223428247Y-115861099D01*
X223413632Y-115841393D01*
X223401020Y-115820350D01*
X223390530Y-115798171D01*
X223382265Y-115775072D01*
X223376304Y-115751273D01*
X223372704Y-115727005D01*
X223371500Y-115702501D01*
X223371500Y-114802499D01*
X223372704Y-114777995D01*
X223376304Y-114753727D01*
X223382265Y-114729928D01*
X223390530Y-114706829D01*
X223401020Y-114684650D01*
X223413632Y-114663607D01*
X223428247Y-114643901D01*
X223444723Y-114625723D01*
X223462901Y-114609247D01*
X223482607Y-114594632D01*
X223503650Y-114582020D01*
X223525829Y-114571530D01*
X223548928Y-114563265D01*
X223572727Y-114557304D01*
X223596995Y-114553704D01*
X223621499Y-114552500D01*
X224271501Y-114552500D01*
X224296005Y-114553704D01*
G37*
G04 #@! TD.AperFunction*
G04 #@! TA.AperFunction,SMDPad,CuDef*
G36*
X226346005Y-114553704D02*
G01*
X226370273Y-114557304D01*
X226394072Y-114563265D01*
X226417171Y-114571530D01*
X226439350Y-114582020D01*
X226460393Y-114594632D01*
X226480099Y-114609247D01*
X226498277Y-114625723D01*
X226514753Y-114643901D01*
X226529368Y-114663607D01*
X226541980Y-114684650D01*
X226552470Y-114706829D01*
X226560735Y-114729928D01*
X226566696Y-114753727D01*
X226570296Y-114777995D01*
X226571500Y-114802499D01*
X226571500Y-115702501D01*
X226570296Y-115727005D01*
X226566696Y-115751273D01*
X226560735Y-115775072D01*
X226552470Y-115798171D01*
X226541980Y-115820350D01*
X226529368Y-115841393D01*
X226514753Y-115861099D01*
X226498277Y-115879277D01*
X226480099Y-115895753D01*
X226460393Y-115910368D01*
X226439350Y-115922980D01*
X226417171Y-115933470D01*
X226394072Y-115941735D01*
X226370273Y-115947696D01*
X226346005Y-115951296D01*
X226321501Y-115952500D01*
X225671499Y-115952500D01*
X225646995Y-115951296D01*
X225622727Y-115947696D01*
X225598928Y-115941735D01*
X225575829Y-115933470D01*
X225553650Y-115922980D01*
X225532607Y-115910368D01*
X225512901Y-115895753D01*
X225494723Y-115879277D01*
X225478247Y-115861099D01*
X225463632Y-115841393D01*
X225451020Y-115820350D01*
X225440530Y-115798171D01*
X225432265Y-115775072D01*
X225426304Y-115751273D01*
X225422704Y-115727005D01*
X225421500Y-115702501D01*
X225421500Y-114802499D01*
X225422704Y-114777995D01*
X225426304Y-114753727D01*
X225432265Y-114729928D01*
X225440530Y-114706829D01*
X225451020Y-114684650D01*
X225463632Y-114663607D01*
X225478247Y-114643901D01*
X225494723Y-114625723D01*
X225512901Y-114609247D01*
X225532607Y-114594632D01*
X225553650Y-114582020D01*
X225575829Y-114571530D01*
X225598928Y-114563265D01*
X225622727Y-114557304D01*
X225646995Y-114553704D01*
X225671499Y-114552500D01*
X226321501Y-114552500D01*
X226346005Y-114553704D01*
G37*
G04 #@! TD.AperFunction*
G04 #@! TA.AperFunction,SMDPad,CuDef*
G36*
X252644005Y-124040604D02*
G01*
X252668273Y-124044204D01*
X252692072Y-124050165D01*
X252715171Y-124058430D01*
X252737350Y-124068920D01*
X252758393Y-124081532D01*
X252778099Y-124096147D01*
X252796277Y-124112623D01*
X252812753Y-124130801D01*
X252827368Y-124150507D01*
X252839980Y-124171550D01*
X252850470Y-124193729D01*
X252858735Y-124216828D01*
X252864696Y-124240627D01*
X252868296Y-124264895D01*
X252869500Y-124289399D01*
X252869500Y-125189401D01*
X252868296Y-125213905D01*
X252864696Y-125238173D01*
X252858735Y-125261972D01*
X252850470Y-125285071D01*
X252839980Y-125307250D01*
X252827368Y-125328293D01*
X252812753Y-125347999D01*
X252796277Y-125366177D01*
X252778099Y-125382653D01*
X252758393Y-125397268D01*
X252737350Y-125409880D01*
X252715171Y-125420370D01*
X252692072Y-125428635D01*
X252668273Y-125434596D01*
X252644005Y-125438196D01*
X252619501Y-125439400D01*
X251969499Y-125439400D01*
X251944995Y-125438196D01*
X251920727Y-125434596D01*
X251896928Y-125428635D01*
X251873829Y-125420370D01*
X251851650Y-125409880D01*
X251830607Y-125397268D01*
X251810901Y-125382653D01*
X251792723Y-125366177D01*
X251776247Y-125347999D01*
X251761632Y-125328293D01*
X251749020Y-125307250D01*
X251738530Y-125285071D01*
X251730265Y-125261972D01*
X251724304Y-125238173D01*
X251720704Y-125213905D01*
X251719500Y-125189401D01*
X251719500Y-124289399D01*
X251720704Y-124264895D01*
X251724304Y-124240627D01*
X251730265Y-124216828D01*
X251738530Y-124193729D01*
X251749020Y-124171550D01*
X251761632Y-124150507D01*
X251776247Y-124130801D01*
X251792723Y-124112623D01*
X251810901Y-124096147D01*
X251830607Y-124081532D01*
X251851650Y-124068920D01*
X251873829Y-124058430D01*
X251896928Y-124050165D01*
X251920727Y-124044204D01*
X251944995Y-124040604D01*
X251969499Y-124039400D01*
X252619501Y-124039400D01*
X252644005Y-124040604D01*
G37*
G04 #@! TD.AperFunction*
G04 #@! TA.AperFunction,SMDPad,CuDef*
G36*
X250594005Y-124040604D02*
G01*
X250618273Y-124044204D01*
X250642072Y-124050165D01*
X250665171Y-124058430D01*
X250687350Y-124068920D01*
X250708393Y-124081532D01*
X250728099Y-124096147D01*
X250746277Y-124112623D01*
X250762753Y-124130801D01*
X250777368Y-124150507D01*
X250789980Y-124171550D01*
X250800470Y-124193729D01*
X250808735Y-124216828D01*
X250814696Y-124240627D01*
X250818296Y-124264895D01*
X250819500Y-124289399D01*
X250819500Y-125189401D01*
X250818296Y-125213905D01*
X250814696Y-125238173D01*
X250808735Y-125261972D01*
X250800470Y-125285071D01*
X250789980Y-125307250D01*
X250777368Y-125328293D01*
X250762753Y-125347999D01*
X250746277Y-125366177D01*
X250728099Y-125382653D01*
X250708393Y-125397268D01*
X250687350Y-125409880D01*
X250665171Y-125420370D01*
X250642072Y-125428635D01*
X250618273Y-125434596D01*
X250594005Y-125438196D01*
X250569501Y-125439400D01*
X249919499Y-125439400D01*
X249894995Y-125438196D01*
X249870727Y-125434596D01*
X249846928Y-125428635D01*
X249823829Y-125420370D01*
X249801650Y-125409880D01*
X249780607Y-125397268D01*
X249760901Y-125382653D01*
X249742723Y-125366177D01*
X249726247Y-125347999D01*
X249711632Y-125328293D01*
X249699020Y-125307250D01*
X249688530Y-125285071D01*
X249680265Y-125261972D01*
X249674304Y-125238173D01*
X249670704Y-125213905D01*
X249669500Y-125189401D01*
X249669500Y-124289399D01*
X249670704Y-124264895D01*
X249674304Y-124240627D01*
X249680265Y-124216828D01*
X249688530Y-124193729D01*
X249699020Y-124171550D01*
X249711632Y-124150507D01*
X249726247Y-124130801D01*
X249742723Y-124112623D01*
X249760901Y-124096147D01*
X249780607Y-124081532D01*
X249801650Y-124068920D01*
X249823829Y-124058430D01*
X249846928Y-124050165D01*
X249870727Y-124044204D01*
X249894995Y-124040604D01*
X249919499Y-124039400D01*
X250569501Y-124039400D01*
X250594005Y-124040604D01*
G37*
G04 #@! TD.AperFunction*
G04 #@! TA.AperFunction,SMDPad,CuDef*
G36*
X250594410Y-121919702D02*
G01*
X250618635Y-121923295D01*
X250642391Y-121929246D01*
X250665449Y-121937496D01*
X250687587Y-121947967D01*
X250708593Y-121960557D01*
X250728263Y-121975145D01*
X250746408Y-121991592D01*
X250762855Y-122009737D01*
X250777443Y-122029407D01*
X250790033Y-122050413D01*
X250800504Y-122072551D01*
X250808754Y-122095609D01*
X250814705Y-122119365D01*
X250818298Y-122143590D01*
X250819500Y-122168050D01*
X250819500Y-123068950D01*
X250818298Y-123093410D01*
X250814705Y-123117635D01*
X250808754Y-123141391D01*
X250800504Y-123164449D01*
X250790033Y-123186587D01*
X250777443Y-123207593D01*
X250762855Y-123227263D01*
X250746408Y-123245408D01*
X250728263Y-123261855D01*
X250708593Y-123276443D01*
X250687587Y-123289033D01*
X250665449Y-123299504D01*
X250642391Y-123307754D01*
X250618635Y-123313705D01*
X250594410Y-123317298D01*
X250569950Y-123318500D01*
X249919050Y-123318500D01*
X249894590Y-123317298D01*
X249870365Y-123313705D01*
X249846609Y-123307754D01*
X249823551Y-123299504D01*
X249801413Y-123289033D01*
X249780407Y-123276443D01*
X249760737Y-123261855D01*
X249742592Y-123245408D01*
X249726145Y-123227263D01*
X249711557Y-123207593D01*
X249698967Y-123186587D01*
X249688496Y-123164449D01*
X249680246Y-123141391D01*
X249674295Y-123117635D01*
X249670702Y-123093410D01*
X249669500Y-123068950D01*
X249669500Y-122168050D01*
X249670702Y-122143590D01*
X249674295Y-122119365D01*
X249680246Y-122095609D01*
X249688496Y-122072551D01*
X249698967Y-122050413D01*
X249711557Y-122029407D01*
X249726145Y-122009737D01*
X249742592Y-121991592D01*
X249760737Y-121975145D01*
X249780407Y-121960557D01*
X249801413Y-121947967D01*
X249823551Y-121937496D01*
X249846609Y-121929246D01*
X249870365Y-121923295D01*
X249894590Y-121919702D01*
X249919050Y-121918500D01*
X250569950Y-121918500D01*
X250594410Y-121919702D01*
G37*
G04 #@! TD.AperFunction*
G04 #@! TA.AperFunction,SMDPad,CuDef*
G36*
X252644005Y-121919704D02*
G01*
X252668273Y-121923304D01*
X252692072Y-121929265D01*
X252715171Y-121937530D01*
X252737350Y-121948020D01*
X252758393Y-121960632D01*
X252778099Y-121975247D01*
X252796277Y-121991723D01*
X252812753Y-122009901D01*
X252827368Y-122029607D01*
X252839980Y-122050650D01*
X252850470Y-122072829D01*
X252858735Y-122095928D01*
X252864696Y-122119727D01*
X252868296Y-122143995D01*
X252869500Y-122168499D01*
X252869500Y-123068501D01*
X252868296Y-123093005D01*
X252864696Y-123117273D01*
X252858735Y-123141072D01*
X252850470Y-123164171D01*
X252839980Y-123186350D01*
X252827368Y-123207393D01*
X252812753Y-123227099D01*
X252796277Y-123245277D01*
X252778099Y-123261753D01*
X252758393Y-123276368D01*
X252737350Y-123288980D01*
X252715171Y-123299470D01*
X252692072Y-123307735D01*
X252668273Y-123313696D01*
X252644005Y-123317296D01*
X252619501Y-123318500D01*
X251969499Y-123318500D01*
X251944995Y-123317296D01*
X251920727Y-123313696D01*
X251896928Y-123307735D01*
X251873829Y-123299470D01*
X251851650Y-123288980D01*
X251830607Y-123276368D01*
X251810901Y-123261753D01*
X251792723Y-123245277D01*
X251776247Y-123227099D01*
X251761632Y-123207393D01*
X251749020Y-123186350D01*
X251738530Y-123164171D01*
X251730265Y-123141072D01*
X251724304Y-123117273D01*
X251720704Y-123093005D01*
X251719500Y-123068501D01*
X251719500Y-122168499D01*
X251720704Y-122143995D01*
X251724304Y-122119727D01*
X251730265Y-122095928D01*
X251738530Y-122072829D01*
X251749020Y-122050650D01*
X251761632Y-122029607D01*
X251776247Y-122009901D01*
X251792723Y-121991723D01*
X251810901Y-121975247D01*
X251830607Y-121960632D01*
X251851650Y-121948020D01*
X251873829Y-121937530D01*
X251896928Y-121929265D01*
X251920727Y-121923304D01*
X251944995Y-121919704D01*
X251969499Y-121918500D01*
X252619501Y-121918500D01*
X252644005Y-121919704D01*
G37*
G04 #@! TD.AperFunction*
D16*
X252171200Y-129286000D03*
X212915500Y-129232660D03*
X252171200Y-145796000D03*
X212928200Y-145806160D03*
G04 #@! TA.AperFunction,SMDPad,CuDef*
D10*
G36*
X221656005Y-114426704D02*
G01*
X221680273Y-114430304D01*
X221704072Y-114436265D01*
X221727171Y-114444530D01*
X221749350Y-114455020D01*
X221770393Y-114467632D01*
X221790099Y-114482247D01*
X221808277Y-114498723D01*
X221824753Y-114516901D01*
X221839368Y-114536607D01*
X221851980Y-114557650D01*
X221862470Y-114579829D01*
X221870735Y-114602928D01*
X221876696Y-114626727D01*
X221880296Y-114650995D01*
X221881500Y-114675499D01*
X221881500Y-115575501D01*
X221880296Y-115600005D01*
X221876696Y-115624273D01*
X221870735Y-115648072D01*
X221862470Y-115671171D01*
X221851980Y-115693350D01*
X221839368Y-115714393D01*
X221824753Y-115734099D01*
X221808277Y-115752277D01*
X221790099Y-115768753D01*
X221770393Y-115783368D01*
X221749350Y-115795980D01*
X221727171Y-115806470D01*
X221704072Y-115814735D01*
X221680273Y-115820696D01*
X221656005Y-115824296D01*
X221631501Y-115825500D01*
X220981499Y-115825500D01*
X220956995Y-115824296D01*
X220932727Y-115820696D01*
X220908928Y-115814735D01*
X220885829Y-115806470D01*
X220863650Y-115795980D01*
X220842607Y-115783368D01*
X220822901Y-115768753D01*
X220804723Y-115752277D01*
X220788247Y-115734099D01*
X220773632Y-115714393D01*
X220761020Y-115693350D01*
X220750530Y-115671171D01*
X220742265Y-115648072D01*
X220736304Y-115624273D01*
X220732704Y-115600005D01*
X220731500Y-115575501D01*
X220731500Y-114675499D01*
X220732704Y-114650995D01*
X220736304Y-114626727D01*
X220742265Y-114602928D01*
X220750530Y-114579829D01*
X220761020Y-114557650D01*
X220773632Y-114536607D01*
X220788247Y-114516901D01*
X220804723Y-114498723D01*
X220822901Y-114482247D01*
X220842607Y-114467632D01*
X220863650Y-114455020D01*
X220885829Y-114444530D01*
X220908928Y-114436265D01*
X220932727Y-114430304D01*
X220956995Y-114426704D01*
X220981499Y-114425500D01*
X221631501Y-114425500D01*
X221656005Y-114426704D01*
G37*
G04 #@! TD.AperFunction*
G04 #@! TA.AperFunction,SMDPad,CuDef*
G36*
X219606005Y-114426704D02*
G01*
X219630273Y-114430304D01*
X219654072Y-114436265D01*
X219677171Y-114444530D01*
X219699350Y-114455020D01*
X219720393Y-114467632D01*
X219740099Y-114482247D01*
X219758277Y-114498723D01*
X219774753Y-114516901D01*
X219789368Y-114536607D01*
X219801980Y-114557650D01*
X219812470Y-114579829D01*
X219820735Y-114602928D01*
X219826696Y-114626727D01*
X219830296Y-114650995D01*
X219831500Y-114675499D01*
X219831500Y-115575501D01*
X219830296Y-115600005D01*
X219826696Y-115624273D01*
X219820735Y-115648072D01*
X219812470Y-115671171D01*
X219801980Y-115693350D01*
X219789368Y-115714393D01*
X219774753Y-115734099D01*
X219758277Y-115752277D01*
X219740099Y-115768753D01*
X219720393Y-115783368D01*
X219699350Y-115795980D01*
X219677171Y-115806470D01*
X219654072Y-115814735D01*
X219630273Y-115820696D01*
X219606005Y-115824296D01*
X219581501Y-115825500D01*
X218931499Y-115825500D01*
X218906995Y-115824296D01*
X218882727Y-115820696D01*
X218858928Y-115814735D01*
X218835829Y-115806470D01*
X218813650Y-115795980D01*
X218792607Y-115783368D01*
X218772901Y-115768753D01*
X218754723Y-115752277D01*
X218738247Y-115734099D01*
X218723632Y-115714393D01*
X218711020Y-115693350D01*
X218700530Y-115671171D01*
X218692265Y-115648072D01*
X218686304Y-115624273D01*
X218682704Y-115600005D01*
X218681500Y-115575501D01*
X218681500Y-114675499D01*
X218682704Y-114650995D01*
X218686304Y-114626727D01*
X218692265Y-114602928D01*
X218700530Y-114579829D01*
X218711020Y-114557650D01*
X218723632Y-114536607D01*
X218738247Y-114516901D01*
X218754723Y-114498723D01*
X218772901Y-114482247D01*
X218792607Y-114467632D01*
X218813650Y-114455020D01*
X218835829Y-114444530D01*
X218858928Y-114436265D01*
X218882727Y-114430304D01*
X218906995Y-114426704D01*
X218931499Y-114425500D01*
X219581501Y-114425500D01*
X219606005Y-114426704D01*
G37*
G04 #@! TD.AperFunction*
G04 #@! TA.AperFunction,SMDPad,CuDef*
G36*
X217782910Y-113664702D02*
G01*
X217807135Y-113668295D01*
X217830891Y-113674246D01*
X217853949Y-113682496D01*
X217876087Y-113692967D01*
X217897093Y-113705557D01*
X217916763Y-113720145D01*
X217934908Y-113736592D01*
X217951355Y-113754737D01*
X217965943Y-113774407D01*
X217978533Y-113795413D01*
X217989004Y-113817551D01*
X217997254Y-113840609D01*
X218003205Y-113864365D01*
X218006798Y-113888590D01*
X218008000Y-113913050D01*
X218008000Y-114813950D01*
X218006798Y-114838410D01*
X218003205Y-114862635D01*
X217997254Y-114886391D01*
X217989004Y-114909449D01*
X217978533Y-114931587D01*
X217965943Y-114952593D01*
X217951355Y-114972263D01*
X217934908Y-114990408D01*
X217916763Y-115006855D01*
X217897093Y-115021443D01*
X217876087Y-115034033D01*
X217853949Y-115044504D01*
X217830891Y-115052754D01*
X217807135Y-115058705D01*
X217782910Y-115062298D01*
X217758450Y-115063500D01*
X217107550Y-115063500D01*
X217083090Y-115062298D01*
X217058865Y-115058705D01*
X217035109Y-115052754D01*
X217012051Y-115044504D01*
X216989913Y-115034033D01*
X216968907Y-115021443D01*
X216949237Y-115006855D01*
X216931092Y-114990408D01*
X216914645Y-114972263D01*
X216900057Y-114952593D01*
X216887467Y-114931587D01*
X216876996Y-114909449D01*
X216868746Y-114886391D01*
X216862795Y-114862635D01*
X216859202Y-114838410D01*
X216858000Y-114813950D01*
X216858000Y-113913050D01*
X216859202Y-113888590D01*
X216862795Y-113864365D01*
X216868746Y-113840609D01*
X216876996Y-113817551D01*
X216887467Y-113795413D01*
X216900057Y-113774407D01*
X216914645Y-113754737D01*
X216931092Y-113736592D01*
X216949237Y-113720145D01*
X216968907Y-113705557D01*
X216989913Y-113692967D01*
X217012051Y-113682496D01*
X217035109Y-113674246D01*
X217058865Y-113668295D01*
X217083090Y-113664702D01*
X217107550Y-113663500D01*
X217758450Y-113663500D01*
X217782910Y-113664702D01*
G37*
G04 #@! TD.AperFunction*
G04 #@! TA.AperFunction,SMDPad,CuDef*
G36*
X215732505Y-113664704D02*
G01*
X215756773Y-113668304D01*
X215780572Y-113674265D01*
X215803671Y-113682530D01*
X215825850Y-113693020D01*
X215846893Y-113705632D01*
X215866599Y-113720247D01*
X215884777Y-113736723D01*
X215901253Y-113754901D01*
X215915868Y-113774607D01*
X215928480Y-113795650D01*
X215938970Y-113817829D01*
X215947235Y-113840928D01*
X215953196Y-113864727D01*
X215956796Y-113888995D01*
X215958000Y-113913499D01*
X215958000Y-114813501D01*
X215956796Y-114838005D01*
X215953196Y-114862273D01*
X215947235Y-114886072D01*
X215938970Y-114909171D01*
X215928480Y-114931350D01*
X215915868Y-114952393D01*
X215901253Y-114972099D01*
X215884777Y-114990277D01*
X215866599Y-115006753D01*
X215846893Y-115021368D01*
X215825850Y-115033980D01*
X215803671Y-115044470D01*
X215780572Y-115052735D01*
X215756773Y-115058696D01*
X215732505Y-115062296D01*
X215708001Y-115063500D01*
X215057999Y-115063500D01*
X215033495Y-115062296D01*
X215009227Y-115058696D01*
X214985428Y-115052735D01*
X214962329Y-115044470D01*
X214940150Y-115033980D01*
X214919107Y-115021368D01*
X214899401Y-115006753D01*
X214881223Y-114990277D01*
X214864747Y-114972099D01*
X214850132Y-114952393D01*
X214837520Y-114931350D01*
X214827030Y-114909171D01*
X214818765Y-114886072D01*
X214812804Y-114862273D01*
X214809204Y-114838005D01*
X214808000Y-114813501D01*
X214808000Y-113913499D01*
X214809204Y-113888995D01*
X214812804Y-113864727D01*
X214818765Y-113840928D01*
X214827030Y-113817829D01*
X214837520Y-113795650D01*
X214850132Y-113774607D01*
X214864747Y-113754901D01*
X214881223Y-113736723D01*
X214899401Y-113720247D01*
X214919107Y-113705632D01*
X214940150Y-113693020D01*
X214962329Y-113682530D01*
X214985428Y-113674265D01*
X215009227Y-113668304D01*
X215033495Y-113664704D01*
X215057999Y-113663500D01*
X215708001Y-113663500D01*
X215732505Y-113664704D01*
G37*
G04 #@! TD.AperFunction*
D17*
X215440500Y-116157500D03*
X216740500Y-116157500D03*
X216090500Y-118157500D03*
D18*
X249237500Y-117030500D03*
D19*
X214058500Y-118173500D03*
X222567500Y-114744500D03*
X222567500Y-115633500D03*
X252285500Y-148844000D03*
X214058500Y-116014500D03*
X214058500Y-121539000D03*
X213106000Y-148844000D03*
X253809500Y-122618500D03*
X253809500Y-124714000D03*
X216090500Y-126174500D03*
X213995000Y-114363500D03*
D20*
X225996500Y-113420000D02*
X225933000Y-113356500D01*
X221488000Y-112204500D02*
X221329491Y-112204500D01*
X216740500Y-117426500D02*
X216740500Y-116157500D01*
X221477500Y-112204500D02*
X221488000Y-112204500D01*
X216740500Y-115553500D02*
X216740500Y-116157500D01*
X222010199Y-127163601D02*
X221310200Y-127863600D01*
X222336201Y-126837599D02*
X222010199Y-127163601D01*
X222336201Y-122291119D02*
X222336201Y-126837599D01*
X221015281Y-120970199D02*
X222336201Y-122291119D01*
X220284199Y-120970199D02*
X221015281Y-120970199D01*
X220154500Y-120840500D02*
X216740500Y-117426500D01*
X220284199Y-120970199D02*
X220154500Y-120840500D01*
X220484000Y-112204500D02*
X219256500Y-113432000D01*
X221488000Y-112204500D02*
X220484000Y-112204500D01*
X219256500Y-114425500D02*
X219256500Y-115125500D01*
X216861500Y-116036500D02*
X216740500Y-116157500D01*
X216740500Y-115056000D02*
X217433000Y-114363500D01*
X216740500Y-116157500D02*
X216740500Y-115056000D01*
X217433000Y-113663500D02*
X217876000Y-113220500D01*
X217433000Y-114363500D02*
X217433000Y-113663500D01*
X218630500Y-113220500D02*
X219265500Y-113855500D01*
X217876000Y-113220500D02*
X218630500Y-113220500D01*
X219265500Y-113855500D02*
X219256500Y-114425500D01*
X219256500Y-113432000D02*
X219265500Y-113855500D01*
X225608499Y-116340501D02*
X225996500Y-115952500D01*
X219771501Y-116340501D02*
X225608499Y-116340501D01*
X225996500Y-115952500D02*
X225996500Y-115252500D01*
X219256500Y-115825500D02*
X219771501Y-116340501D01*
X219256500Y-115125500D02*
X219256500Y-115825500D01*
X214731999Y-115481499D02*
X216319499Y-115481499D01*
X214321001Y-115070501D02*
X214731999Y-115481499D01*
X213233501Y-115070501D02*
X214321001Y-115070501D01*
X213161500Y-114998500D02*
X213233501Y-115070501D01*
X212407500Y-114998500D02*
X213161500Y-114998500D01*
X216319499Y-115481499D02*
X216535000Y-115697000D01*
X216535000Y-115952000D02*
X216740500Y-116157500D01*
X216535000Y-115697000D02*
X216535000Y-115952000D01*
X221670500Y-113356500D02*
X225233000Y-113356500D01*
X220789500Y-112475500D02*
X221670500Y-113356500D01*
X220789500Y-111696500D02*
X220789500Y-112475500D01*
X225233000Y-113356500D02*
X225933000Y-113356500D01*
X223901000Y-112024500D02*
X225233000Y-113356500D01*
X223901000Y-111388000D02*
X223901000Y-112024500D01*
X213986000Y-121466500D02*
X213995000Y-121475500D01*
X223883000Y-115189000D02*
X223946500Y-115252500D01*
X221370000Y-115189000D02*
X221306500Y-115125500D01*
X252285500Y-147764500D02*
X252285500Y-148844000D01*
X213106000Y-147764500D02*
X213106000Y-148844000D01*
X219470199Y-146343599D02*
X218770200Y-145643600D01*
X216090500Y-124850000D02*
X216090500Y-124389604D01*
X254038100Y-124739400D02*
X254063500Y-124714000D01*
X252294500Y-122618500D02*
X252294500Y-124739400D01*
X252319900Y-124714000D02*
X252294500Y-124739400D01*
X253809500Y-124714000D02*
X252319900Y-124714000D01*
X223438500Y-114744500D02*
X223946500Y-115252500D01*
X222567500Y-114744500D02*
X223438500Y-114744500D01*
X221814500Y-115633500D02*
X221306500Y-115125500D01*
X222567500Y-115633500D02*
X221814500Y-115633500D01*
X252294500Y-121918500D02*
X252294500Y-122618500D01*
X213986000Y-118246000D02*
X214058500Y-118173500D01*
X213986000Y-120015000D02*
X213986000Y-118246000D01*
X252294500Y-122618500D02*
X252294500Y-120087500D01*
X252294500Y-120087500D02*
X249237500Y-117030500D01*
X216090500Y-124850000D02*
X216090500Y-126174500D01*
X215297500Y-116014500D02*
X215440500Y-116157500D01*
X214058500Y-116014500D02*
X215297500Y-116014500D01*
X213986000Y-121466500D02*
X214058500Y-121539000D01*
X213986000Y-120015000D02*
X213986000Y-121466500D01*
X253809500Y-122618500D02*
X252294500Y-122618500D01*
X213995000Y-114363500D02*
X215383000Y-114363500D01*
X225561000Y-110934500D02*
X225933000Y-111306500D01*
X226959010Y-111632510D02*
X226959010Y-134914790D01*
X222010199Y-139863601D02*
X221310200Y-140563600D01*
X226959010Y-134914790D02*
X222010199Y-139863601D01*
X226633000Y-111306500D02*
X226959010Y-111632510D01*
X225933000Y-111306500D02*
X226633000Y-111306500D01*
X225933000Y-111306500D02*
X225733500Y-111306500D01*
X225733500Y-111306500D02*
X225361500Y-110934500D01*
X225933000Y-110731500D02*
X225933000Y-111306500D01*
X225628000Y-110426500D02*
X225933000Y-110731500D01*
X220789500Y-110426500D02*
X225628000Y-110426500D01*
X252196600Y-126807300D02*
X252196600Y-126959999D01*
D21*
X250380500Y-124777500D02*
X250380500Y-122669300D01*
D20*
X247410199Y-127163601D02*
X247422899Y-127163601D01*
D21*
X246710200Y-127863600D02*
X247410199Y-127163601D01*
X247422899Y-127163601D02*
X248920000Y-125666500D01*
X248920000Y-125666500D02*
X248920000Y-123825000D01*
X248920000Y-123825000D02*
X250126500Y-122618500D01*
D20*
X252196600Y-129260600D02*
X252171200Y-129286000D01*
D21*
X252196600Y-126807300D02*
X252196600Y-129260600D01*
X254698500Y-121158501D02*
X254698500Y-125053361D01*
X254190500Y-119697500D02*
X254190500Y-120451500D01*
X254698500Y-120959500D02*
X254190500Y-120451500D01*
X254698500Y-121158501D02*
X254698500Y-120959500D01*
X253016562Y-126807300D02*
X254734501Y-125089361D01*
X252196600Y-126807300D02*
X253016562Y-126807300D01*
X250244500Y-125439400D02*
X250244500Y-124739400D01*
X251612400Y-126807300D02*
X250244500Y-125439400D01*
X252196600Y-126807300D02*
X251612400Y-126807300D01*
D20*
X212534500Y-128851660D02*
X212915500Y-129232660D01*
D22*
X212534500Y-124850000D02*
X212534500Y-128851660D01*
X210883500Y-121340500D02*
X210883500Y-120586500D01*
X210883500Y-123899000D02*
X210883500Y-121340500D01*
X211834500Y-124850000D02*
X210883500Y-123899000D01*
X212534500Y-124850000D02*
X211834500Y-124850000D01*
X212534500Y-124850000D02*
X212534500Y-125425000D01*
D20*
X216090500Y-122800000D02*
X216090500Y-120078500D01*
X212534500Y-122800000D02*
X216090500Y-122800000D01*
X213716862Y-122800000D02*
X212534500Y-122800000D01*
X216090500Y-118157500D02*
X216090500Y-120426362D01*
X216569500Y-118157500D02*
X216090500Y-118157500D01*
X219796201Y-121384201D02*
X216569500Y-118157500D01*
X219796201Y-134457599D02*
X219796201Y-121384201D01*
X218770200Y-135483600D02*
X219796201Y-134457599D01*
X226377500Y-109338000D02*
X226813000Y-108902500D01*
X223901000Y-109338000D02*
X226377500Y-109338000D01*
X228863000Y-120176400D02*
X244170200Y-135483600D01*
X228863000Y-108902500D02*
X228863000Y-120176400D01*
G36*
X211303963Y-123920506D02*
G01*
X211244998Y-124030820D01*
X211208688Y-124150518D01*
X211196428Y-124275000D01*
X211199500Y-124564250D01*
X211358250Y-124723000D01*
X212407500Y-124723000D01*
X212407500Y-124703000D01*
X212661500Y-124703000D01*
X212661500Y-124723000D01*
X213710750Y-124723000D01*
X213869500Y-124564250D01*
X213872572Y-124275000D01*
X213860312Y-124150518D01*
X213824002Y-124030820D01*
X213765037Y-123920506D01*
X213738770Y-123888500D01*
X213986593Y-123888500D01*
X214503000Y-124749178D01*
X214503000Y-126047500D01*
X214505440Y-126072276D01*
X214512667Y-126096101D01*
X214530320Y-126126195D01*
X215455500Y-127298090D01*
X215455500Y-128526434D01*
X215352779Y-128198134D01*
X215129758Y-127780888D01*
X214762999Y-127564766D01*
X213095105Y-129232660D01*
X214762999Y-130900554D01*
X215129758Y-130684432D01*
X215370438Y-130224555D01*
X215455500Y-129935084D01*
X215455500Y-131143624D01*
X214699008Y-132016500D01*
X211135039Y-132016500D01*
X210524205Y-131252958D01*
X210523993Y-131080159D01*
X211247606Y-131080159D01*
X211463728Y-131446918D01*
X211923605Y-131687598D01*
X212421598Y-131833935D01*
X212938571Y-131880308D01*
X213454659Y-131824933D01*
X213950026Y-131669939D01*
X214367272Y-131446918D01*
X214583394Y-131080159D01*
X212915500Y-129412265D01*
X211247606Y-131080159D01*
X210523993Y-131080159D01*
X210523097Y-130351144D01*
X210701242Y-130684432D01*
X211068001Y-130900554D01*
X212735895Y-129232660D01*
X211068001Y-127564766D01*
X210701242Y-127780888D01*
X210520364Y-128126499D01*
X210519454Y-127385161D01*
X211247606Y-127385161D01*
X212915500Y-129053055D01*
X214583394Y-127385161D01*
X214367272Y-127018402D01*
X213907395Y-126777722D01*
X213409402Y-126631385D01*
X212892429Y-126585012D01*
X212376341Y-126640387D01*
X211880974Y-126795381D01*
X211463728Y-127018402D01*
X211247606Y-127385161D01*
X210519454Y-127385161D01*
X210517045Y-125425000D01*
X211196428Y-125425000D01*
X211208688Y-125549482D01*
X211244998Y-125669180D01*
X211303963Y-125779494D01*
X211383315Y-125876185D01*
X211480006Y-125955537D01*
X211590320Y-126014502D01*
X211710018Y-126050812D01*
X211834500Y-126063072D01*
X212248750Y-126060000D01*
X212407500Y-125901250D01*
X212407500Y-124977000D01*
X212661500Y-124977000D01*
X212661500Y-125901250D01*
X212820250Y-126060000D01*
X213234500Y-126063072D01*
X213358982Y-126050812D01*
X213478680Y-126014502D01*
X213588994Y-125955537D01*
X213685685Y-125876185D01*
X213765037Y-125779494D01*
X213824002Y-125669180D01*
X213860312Y-125549482D01*
X213872572Y-125425000D01*
X213869500Y-125135750D01*
X213710750Y-124977000D01*
X212661500Y-124977000D01*
X212407500Y-124977000D01*
X211358250Y-124977000D01*
X211199500Y-125135750D01*
X211196428Y-125425000D01*
X210517045Y-125425000D01*
X210516065Y-124627917D01*
X210839560Y-123888500D01*
X211330230Y-123888500D01*
X211303963Y-123920506D01*
G37*
X211303963Y-123920506D02*
X211244998Y-124030820D01*
X211208688Y-124150518D01*
X211196428Y-124275000D01*
X211199500Y-124564250D01*
X211358250Y-124723000D01*
X212407500Y-124723000D01*
X212407500Y-124703000D01*
X212661500Y-124703000D01*
X212661500Y-124723000D01*
X213710750Y-124723000D01*
X213869500Y-124564250D01*
X213872572Y-124275000D01*
X213860312Y-124150518D01*
X213824002Y-124030820D01*
X213765037Y-123920506D01*
X213738770Y-123888500D01*
X213986593Y-123888500D01*
X214503000Y-124749178D01*
X214503000Y-126047500D01*
X214505440Y-126072276D01*
X214512667Y-126096101D01*
X214530320Y-126126195D01*
X215455500Y-127298090D01*
X215455500Y-128526434D01*
X215352779Y-128198134D01*
X215129758Y-127780888D01*
X214762999Y-127564766D01*
X213095105Y-129232660D01*
X214762999Y-130900554D01*
X215129758Y-130684432D01*
X215370438Y-130224555D01*
X215455500Y-129935084D01*
X215455500Y-131143624D01*
X214699008Y-132016500D01*
X211135039Y-132016500D01*
X210524205Y-131252958D01*
X210523993Y-131080159D01*
X211247606Y-131080159D01*
X211463728Y-131446918D01*
X211923605Y-131687598D01*
X212421598Y-131833935D01*
X212938571Y-131880308D01*
X213454659Y-131824933D01*
X213950026Y-131669939D01*
X214367272Y-131446918D01*
X214583394Y-131080159D01*
X212915500Y-129412265D01*
X211247606Y-131080159D01*
X210523993Y-131080159D01*
X210523097Y-130351144D01*
X210701242Y-130684432D01*
X211068001Y-130900554D01*
X212735895Y-129232660D01*
X211068001Y-127564766D01*
X210701242Y-127780888D01*
X210520364Y-128126499D01*
X210519454Y-127385161D01*
X211247606Y-127385161D01*
X212915500Y-129053055D01*
X214583394Y-127385161D01*
X214367272Y-127018402D01*
X213907395Y-126777722D01*
X213409402Y-126631385D01*
X212892429Y-126585012D01*
X212376341Y-126640387D01*
X211880974Y-126795381D01*
X211463728Y-127018402D01*
X211247606Y-127385161D01*
X210519454Y-127385161D01*
X210517045Y-125425000D01*
X211196428Y-125425000D01*
X211208688Y-125549482D01*
X211244998Y-125669180D01*
X211303963Y-125779494D01*
X211383315Y-125876185D01*
X211480006Y-125955537D01*
X211590320Y-126014502D01*
X211710018Y-126050812D01*
X211834500Y-126063072D01*
X212248750Y-126060000D01*
X212407500Y-125901250D01*
X212407500Y-124977000D01*
X212661500Y-124977000D01*
X212661500Y-125901250D01*
X212820250Y-126060000D01*
X213234500Y-126063072D01*
X213358982Y-126050812D01*
X213478680Y-126014502D01*
X213588994Y-125955537D01*
X213685685Y-125876185D01*
X213765037Y-125779494D01*
X213824002Y-125669180D01*
X213860312Y-125549482D01*
X213872572Y-125425000D01*
X213869500Y-125135750D01*
X213710750Y-124977000D01*
X212661500Y-124977000D01*
X212407500Y-124977000D01*
X211358250Y-124977000D01*
X211199500Y-125135750D01*
X211196428Y-125425000D01*
X210517045Y-125425000D01*
X210516065Y-124627917D01*
X210839560Y-123888500D01*
X211330230Y-123888500D01*
X211303963Y-123920506D01*
G36*
X249031428Y-121918500D02*
G01*
X249034500Y-122332750D01*
X249193250Y-122491500D01*
X250117500Y-122491500D01*
X250117500Y-122471500D01*
X250371500Y-122471500D01*
X250371500Y-122491500D01*
X250391500Y-122491500D01*
X250391500Y-122745500D01*
X250371500Y-122745500D01*
X250371500Y-124612400D01*
X250391500Y-124612400D01*
X250391500Y-124866400D01*
X250371500Y-124866400D01*
X250371500Y-125915650D01*
X250530250Y-126074400D01*
X250819500Y-126077472D01*
X250943982Y-126065212D01*
X251063680Y-126028902D01*
X251173994Y-125969937D01*
X251270685Y-125890585D01*
X251336158Y-125810806D01*
X251341538Y-125817362D01*
X251476113Y-125927805D01*
X251629649Y-126009872D01*
X251796245Y-126060408D01*
X251969499Y-126077472D01*
X252450834Y-126077472D01*
X254152364Y-126613139D01*
X254157084Y-126614525D01*
X254685980Y-126758769D01*
X254683571Y-128491470D01*
X254608479Y-128251474D01*
X254385458Y-127834228D01*
X254018699Y-127618106D01*
X252350805Y-129286000D01*
X254018699Y-130953894D01*
X254385458Y-130737772D01*
X254626138Y-130277895D01*
X254681347Y-130090014D01*
X254679442Y-131459610D01*
X254079282Y-131984750D01*
X250167464Y-131984750D01*
X249459750Y-131475196D01*
X249459750Y-131133499D01*
X250503306Y-131133499D01*
X250719428Y-131500258D01*
X251179305Y-131740938D01*
X251677298Y-131887275D01*
X252194271Y-131933648D01*
X252710359Y-131878273D01*
X253205726Y-131723279D01*
X253622972Y-131500258D01*
X253839094Y-131133499D01*
X252171200Y-129465605D01*
X250503306Y-131133499D01*
X249459750Y-131133499D01*
X249459750Y-129309071D01*
X249523552Y-129309071D01*
X249578927Y-129825159D01*
X249733921Y-130320526D01*
X249956942Y-130737772D01*
X250323701Y-130953894D01*
X251991595Y-129286000D01*
X250323701Y-127618106D01*
X249956942Y-127834228D01*
X249716262Y-128294105D01*
X249569925Y-128792098D01*
X249523552Y-129309071D01*
X249459750Y-129309071D01*
X249459750Y-128809750D01*
X249457310Y-128784974D01*
X249450083Y-128761149D01*
X249438347Y-128739193D01*
X249427671Y-128725376D01*
X248919671Y-128153876D01*
X248901387Y-128136979D01*
X248880157Y-128123974D01*
X248856798Y-128115360D01*
X248824750Y-128111250D01*
X248023913Y-128111250D01*
X248038383Y-128051860D01*
X248049590Y-127789127D01*
X248009325Y-127529256D01*
X247976190Y-127438501D01*
X250503306Y-127438501D01*
X252171200Y-129106395D01*
X253839094Y-127438501D01*
X253622972Y-127071742D01*
X253163095Y-126831062D01*
X252665102Y-126684725D01*
X252148129Y-126638352D01*
X251632041Y-126693727D01*
X251136674Y-126848721D01*
X250719428Y-127071742D01*
X250503306Y-127438501D01*
X247976190Y-127438501D01*
X247919135Y-127282234D01*
X247865237Y-127181397D01*
X247631469Y-127121936D01*
X246889805Y-127863600D01*
X246903948Y-127877743D01*
X246724343Y-128057348D01*
X246710200Y-128043205D01*
X246696058Y-128057348D01*
X246516453Y-127877743D01*
X246530595Y-127863600D01*
X246516453Y-127849458D01*
X246696058Y-127669853D01*
X246710200Y-127683995D01*
X247451864Y-126942331D01*
X247392403Y-126708563D01*
X247153958Y-126597666D01*
X247134373Y-126592894D01*
X247214564Y-126559678D01*
X247246785Y-126548602D01*
X247269423Y-126538240D01*
X247273911Y-126535096D01*
X247342559Y-126506661D01*
X247561213Y-126360562D01*
X247747162Y-126174613D01*
X247795681Y-126101999D01*
X248048803Y-125891064D01*
X248066275Y-125873328D01*
X248079951Y-125852524D01*
X248089305Y-125829452D01*
X248094500Y-125793500D01*
X248094500Y-125439400D01*
X249031428Y-125439400D01*
X249043688Y-125563882D01*
X249079998Y-125683580D01*
X249138963Y-125793894D01*
X249218315Y-125890585D01*
X249315006Y-125969937D01*
X249425320Y-126028902D01*
X249545018Y-126065212D01*
X249669500Y-126077472D01*
X249958750Y-126074400D01*
X250117500Y-125915650D01*
X250117500Y-124866400D01*
X249193250Y-124866400D01*
X249034500Y-125025150D01*
X249031428Y-125439400D01*
X248094500Y-125439400D01*
X248094500Y-123318500D01*
X249031428Y-123318500D01*
X249043688Y-123442982D01*
X249079998Y-123562680D01*
X249138963Y-123672994D01*
X249143851Y-123678950D01*
X249138963Y-123684906D01*
X249079998Y-123795220D01*
X249043688Y-123914918D01*
X249031428Y-124039400D01*
X249034500Y-124453650D01*
X249193250Y-124612400D01*
X250117500Y-124612400D01*
X250117500Y-122745500D01*
X249193250Y-122745500D01*
X249034500Y-122904250D01*
X249031428Y-123318500D01*
X248094500Y-123318500D01*
X248094500Y-122279833D01*
X248412000Y-121856500D01*
X249037534Y-121856500D01*
X249031428Y-121918500D01*
G37*
X249031428Y-121918500D02*
X249034500Y-122332750D01*
X249193250Y-122491500D01*
X250117500Y-122491500D01*
X250117500Y-122471500D01*
X250371500Y-122471500D01*
X250371500Y-122491500D01*
X250391500Y-122491500D01*
X250391500Y-122745500D01*
X250371500Y-122745500D01*
X250371500Y-124612400D01*
X250391500Y-124612400D01*
X250391500Y-124866400D01*
X250371500Y-124866400D01*
X250371500Y-125915650D01*
X250530250Y-126074400D01*
X250819500Y-126077472D01*
X250943982Y-126065212D01*
X251063680Y-126028902D01*
X251173994Y-125969937D01*
X251270685Y-125890585D01*
X251336158Y-125810806D01*
X251341538Y-125817362D01*
X251476113Y-125927805D01*
X251629649Y-126009872D01*
X251796245Y-126060408D01*
X251969499Y-126077472D01*
X252450834Y-126077472D01*
X254152364Y-126613139D01*
X254157084Y-126614525D01*
X254685980Y-126758769D01*
X254683571Y-128491470D01*
X254608479Y-128251474D01*
X254385458Y-127834228D01*
X254018699Y-127618106D01*
X252350805Y-129286000D01*
X254018699Y-130953894D01*
X254385458Y-130737772D01*
X254626138Y-130277895D01*
X254681347Y-130090014D01*
X254679442Y-131459610D01*
X254079282Y-131984750D01*
X250167464Y-131984750D01*
X249459750Y-131475196D01*
X249459750Y-131133499D01*
X250503306Y-131133499D01*
X250719428Y-131500258D01*
X251179305Y-131740938D01*
X251677298Y-131887275D01*
X252194271Y-131933648D01*
X252710359Y-131878273D01*
X253205726Y-131723279D01*
X253622972Y-131500258D01*
X253839094Y-131133499D01*
X252171200Y-129465605D01*
X250503306Y-131133499D01*
X249459750Y-131133499D01*
X249459750Y-129309071D01*
X249523552Y-129309071D01*
X249578927Y-129825159D01*
X249733921Y-130320526D01*
X249956942Y-130737772D01*
X250323701Y-130953894D01*
X251991595Y-129286000D01*
X250323701Y-127618106D01*
X249956942Y-127834228D01*
X249716262Y-128294105D01*
X249569925Y-128792098D01*
X249523552Y-129309071D01*
X249459750Y-129309071D01*
X249459750Y-128809750D01*
X249457310Y-128784974D01*
X249450083Y-128761149D01*
X249438347Y-128739193D01*
X249427671Y-128725376D01*
X248919671Y-128153876D01*
X248901387Y-128136979D01*
X248880157Y-128123974D01*
X248856798Y-128115360D01*
X248824750Y-128111250D01*
X248023913Y-128111250D01*
X248038383Y-128051860D01*
X248049590Y-127789127D01*
X248009325Y-127529256D01*
X247976190Y-127438501D01*
X250503306Y-127438501D01*
X252171200Y-129106395D01*
X253839094Y-127438501D01*
X253622972Y-127071742D01*
X253163095Y-126831062D01*
X252665102Y-126684725D01*
X252148129Y-126638352D01*
X251632041Y-126693727D01*
X251136674Y-126848721D01*
X250719428Y-127071742D01*
X250503306Y-127438501D01*
X247976190Y-127438501D01*
X247919135Y-127282234D01*
X247865237Y-127181397D01*
X247631469Y-127121936D01*
X246889805Y-127863600D01*
X246903948Y-127877743D01*
X246724343Y-128057348D01*
X246710200Y-128043205D01*
X246696058Y-128057348D01*
X246516453Y-127877743D01*
X246530595Y-127863600D01*
X246516453Y-127849458D01*
X246696058Y-127669853D01*
X246710200Y-127683995D01*
X247451864Y-126942331D01*
X247392403Y-126708563D01*
X247153958Y-126597666D01*
X247134373Y-126592894D01*
X247214564Y-126559678D01*
X247246785Y-126548602D01*
X247269423Y-126538240D01*
X247273911Y-126535096D01*
X247342559Y-126506661D01*
X247561213Y-126360562D01*
X247747162Y-126174613D01*
X247795681Y-126101999D01*
X248048803Y-125891064D01*
X248066275Y-125873328D01*
X248079951Y-125852524D01*
X248089305Y-125829452D01*
X248094500Y-125793500D01*
X248094500Y-125439400D01*
X249031428Y-125439400D01*
X249043688Y-125563882D01*
X249079998Y-125683580D01*
X249138963Y-125793894D01*
X249218315Y-125890585D01*
X249315006Y-125969937D01*
X249425320Y-126028902D01*
X249545018Y-126065212D01*
X249669500Y-126077472D01*
X249958750Y-126074400D01*
X250117500Y-125915650D01*
X250117500Y-124866400D01*
X249193250Y-124866400D01*
X249034500Y-125025150D01*
X249031428Y-125439400D01*
X248094500Y-125439400D01*
X248094500Y-123318500D01*
X249031428Y-123318500D01*
X249043688Y-123442982D01*
X249079998Y-123562680D01*
X249138963Y-123672994D01*
X249143851Y-123678950D01*
X249138963Y-123684906D01*
X249079998Y-123795220D01*
X249043688Y-123914918D01*
X249031428Y-124039400D01*
X249034500Y-124453650D01*
X249193250Y-124612400D01*
X250117500Y-124612400D01*
X250117500Y-122745500D01*
X249193250Y-122745500D01*
X249034500Y-122904250D01*
X249031428Y-123318500D01*
X248094500Y-123318500D01*
X248094500Y-122279833D01*
X248412000Y-121856500D01*
X249037534Y-121856500D01*
X249031428Y-121918500D01*
G36*
X224040000Y-111515000D02*
G01*
X224028000Y-111515000D01*
X224028000Y-112439250D01*
X224186750Y-112598000D01*
X224601000Y-112601072D01*
X224624872Y-112598721D01*
X224607188Y-112657018D01*
X224594928Y-112781500D01*
X224598000Y-113070750D01*
X224756750Y-113229500D01*
X225806000Y-113229500D01*
X225806000Y-113209500D01*
X226060000Y-113209500D01*
X226060000Y-113229500D01*
X226080000Y-113229500D01*
X226080000Y-113483500D01*
X226060000Y-113483500D01*
X226060000Y-114407750D01*
X226123500Y-114471250D01*
X226123500Y-115125500D01*
X226143500Y-115125500D01*
X226143500Y-115379500D01*
X226123500Y-115379500D01*
X226123500Y-115399500D01*
X225869500Y-115399500D01*
X225869500Y-115379500D01*
X225849500Y-115379500D01*
X225849500Y-115125500D01*
X225869500Y-115125500D01*
X225869500Y-114076250D01*
X225806000Y-114012750D01*
X225806000Y-113483500D01*
X224756750Y-113483500D01*
X224598000Y-113642250D01*
X224594928Y-113931500D01*
X224599552Y-113978449D01*
X224444755Y-113931492D01*
X224271501Y-113914428D01*
X223621499Y-113914428D01*
X223448245Y-113931492D01*
X223281649Y-113982028D01*
X223280766Y-113982500D01*
X223242341Y-113982500D01*
X223215162Y-113955321D01*
X223048756Y-113844132D01*
X222863856Y-113767544D01*
X222667567Y-113728500D01*
X222467433Y-113728500D01*
X222271144Y-113767544D01*
X222086244Y-113844132D01*
X222026122Y-113884304D01*
X221971351Y-113855028D01*
X221804755Y-113804492D01*
X221631501Y-113787428D01*
X220981499Y-113787428D01*
X220808245Y-113804492D01*
X220641649Y-113855028D01*
X220488113Y-113937095D01*
X220353538Y-114047538D01*
X220348158Y-114054094D01*
X220282685Y-113974315D01*
X220185994Y-113894963D01*
X220075680Y-113835998D01*
X219955982Y-113799688D01*
X219831500Y-113787428D01*
X219542250Y-113790500D01*
X219383500Y-113949250D01*
X219383500Y-114998500D01*
X219403500Y-114998500D01*
X219403500Y-115252500D01*
X219383500Y-115252500D01*
X219383500Y-116301750D01*
X219542250Y-116460500D01*
X219831500Y-116463572D01*
X219955982Y-116451312D01*
X220075680Y-116415002D01*
X220185994Y-116356037D01*
X220282685Y-116276685D01*
X220348158Y-116196906D01*
X220353538Y-116203462D01*
X220488113Y-116313905D01*
X220641649Y-116395972D01*
X220808245Y-116446508D01*
X220981499Y-116463572D01*
X221631501Y-116463572D01*
X221804755Y-116446508D01*
X221911336Y-116414177D01*
X221919838Y-116422679D01*
X222086244Y-116533868D01*
X222271144Y-116610456D01*
X222467433Y-116649500D01*
X222667567Y-116649500D01*
X222863856Y-116610456D01*
X223048756Y-116533868D01*
X223161320Y-116458655D01*
X223281649Y-116522972D01*
X223448245Y-116573508D01*
X223621499Y-116590572D01*
X224271501Y-116590572D01*
X224444755Y-116573508D01*
X224611351Y-116522972D01*
X224764887Y-116440905D01*
X224899462Y-116330462D01*
X224904842Y-116323906D01*
X224970315Y-116403685D01*
X225067006Y-116483037D01*
X225177320Y-116542002D01*
X225297018Y-116578312D01*
X225375078Y-116586000D01*
X224599500Y-116586000D01*
X224574724Y-116588440D01*
X224550899Y-116595667D01*
X224527551Y-116608347D01*
X223511551Y-117306847D01*
X223492516Y-117322894D01*
X223476979Y-117342347D01*
X223465534Y-117364457D01*
X223458623Y-117388375D01*
X223456500Y-117411500D01*
X223456500Y-127880135D01*
X222515478Y-128437778D01*
X222576134Y-128307358D01*
X222638383Y-128051860D01*
X222649590Y-127789127D01*
X222609325Y-127529256D01*
X222519135Y-127282234D01*
X222465237Y-127181397D01*
X222231469Y-127121936D01*
X221489805Y-127863600D01*
X221503948Y-127877743D01*
X221324343Y-128057348D01*
X221310200Y-128043205D01*
X221296058Y-128057348D01*
X221116453Y-127877743D01*
X221130595Y-127863600D01*
X221116453Y-127849458D01*
X221296058Y-127669853D01*
X221310200Y-127683995D01*
X222051864Y-126942331D01*
X221992403Y-126708563D01*
X221753958Y-126597666D01*
X221734373Y-126592894D01*
X221942559Y-126506661D01*
X222161213Y-126360562D01*
X222347162Y-126174613D01*
X222493261Y-125955959D01*
X222593896Y-125713005D01*
X222645200Y-125455086D01*
X222645200Y-125192114D01*
X222593896Y-124934195D01*
X222493261Y-124691241D01*
X222347162Y-124472587D01*
X222161213Y-124286638D01*
X221942559Y-124140539D01*
X221732670Y-124053600D01*
X221942559Y-123966661D01*
X222161213Y-123820562D01*
X222347162Y-123634613D01*
X222493261Y-123415959D01*
X222593896Y-123173005D01*
X222645200Y-122915086D01*
X222645200Y-122652114D01*
X222593896Y-122394195D01*
X222493261Y-122151241D01*
X222347162Y-121932587D01*
X222161213Y-121746638D01*
X221942559Y-121600539D01*
X221699605Y-121499904D01*
X221441686Y-121448600D01*
X221178714Y-121448600D01*
X220920795Y-121499904D01*
X220677841Y-121600539D01*
X220558201Y-121680479D01*
X220558201Y-121421623D01*
X220561887Y-121384200D01*
X220558201Y-121346775D01*
X220547175Y-121234823D01*
X220503603Y-121091186D01*
X220432846Y-120958809D01*
X220337623Y-120842779D01*
X220308553Y-120818922D01*
X217134784Y-117645154D01*
X217110922Y-117616078D01*
X216994892Y-117520855D01*
X216862515Y-117450098D01*
X216837397Y-117442479D01*
X216766685Y-117356315D01*
X216669994Y-117276963D01*
X216559680Y-117217998D01*
X216439982Y-117181688D01*
X216315500Y-117169428D01*
X216217500Y-117169428D01*
X216217500Y-117068482D01*
X216257373Y-117091029D01*
X216376174Y-117130175D01*
X216483750Y-117142500D01*
X216642500Y-116983750D01*
X216642500Y-116284500D01*
X216838500Y-116284500D01*
X216838500Y-116983750D01*
X216997250Y-117142500D01*
X217104826Y-117130175D01*
X217223627Y-117091029D01*
X217332508Y-117029459D01*
X217427285Y-116947830D01*
X217504316Y-116849280D01*
X217560641Y-116737595D01*
X217594094Y-116617067D01*
X217603392Y-116492329D01*
X217600500Y-116443250D01*
X217441750Y-116284500D01*
X216838500Y-116284500D01*
X216642500Y-116284500D01*
X216593500Y-116284500D01*
X216593500Y-116030500D01*
X216642500Y-116030500D01*
X216642500Y-116010500D01*
X216838500Y-116010500D01*
X216838500Y-116030500D01*
X217441750Y-116030500D01*
X217600500Y-115871750D01*
X217603392Y-115822671D01*
X217594094Y-115697933D01*
X217560641Y-115577405D01*
X217560002Y-115576138D01*
X217560002Y-115539752D01*
X217718750Y-115698500D01*
X218008000Y-115701572D01*
X218044374Y-115697990D01*
X218043428Y-115825500D01*
X218055688Y-115949982D01*
X218091998Y-116069680D01*
X218150963Y-116179994D01*
X218230315Y-116276685D01*
X218327006Y-116356037D01*
X218437320Y-116415002D01*
X218557018Y-116451312D01*
X218681500Y-116463572D01*
X218970750Y-116460500D01*
X219129500Y-116301750D01*
X219129500Y-115252500D01*
X219109500Y-115252500D01*
X219109500Y-114998500D01*
X219129500Y-114998500D01*
X219129500Y-113949250D01*
X218970750Y-113790500D01*
X218681500Y-113787428D01*
X218645126Y-113791010D01*
X218646072Y-113663500D01*
X218633812Y-113539018D01*
X218597502Y-113419320D01*
X218538537Y-113309006D01*
X218459185Y-113212315D01*
X218362494Y-113132963D01*
X218252180Y-113073998D01*
X218132482Y-113037688D01*
X218008000Y-113025428D01*
X217718750Y-113028500D01*
X217560000Y-113187250D01*
X217560000Y-114236500D01*
X217580000Y-114236500D01*
X217580000Y-114490500D01*
X217560000Y-114490500D01*
X217560000Y-114510500D01*
X217306000Y-114510500D01*
X217306000Y-114490500D01*
X217286000Y-114490500D01*
X217286000Y-114236500D01*
X217306000Y-114236500D01*
X217306000Y-113187250D01*
X217147250Y-113028500D01*
X216858000Y-113025428D01*
X216733518Y-113037688D01*
X216613820Y-113073998D01*
X216607007Y-113077640D01*
X216974413Y-112649000D01*
X217487500Y-112649000D01*
X217512276Y-112646560D01*
X217536101Y-112639333D01*
X217549177Y-112633018D01*
X218684451Y-112002310D01*
X219445536Y-112002310D01*
X219454228Y-112063837D01*
X219547225Y-112273382D01*
X219679316Y-112460758D01*
X219845424Y-112618764D01*
X220039166Y-112741328D01*
X220253096Y-112823739D01*
X220478993Y-112862831D01*
X220662500Y-112703098D01*
X220662500Y-111823500D01*
X220916500Y-111823500D01*
X220916500Y-112703098D01*
X221100007Y-112862831D01*
X221325904Y-112823739D01*
X221539834Y-112741328D01*
X221733576Y-112618764D01*
X221899684Y-112460758D01*
X222031775Y-112273382D01*
X222124772Y-112063837D01*
X222133464Y-112002310D01*
X222105808Y-111963000D01*
X222562928Y-111963000D01*
X222575188Y-112087482D01*
X222611498Y-112207180D01*
X222670463Y-112317494D01*
X222749815Y-112414185D01*
X222846506Y-112493537D01*
X222956820Y-112552502D01*
X223076518Y-112588812D01*
X223201000Y-112601072D01*
X223615250Y-112598000D01*
X223774000Y-112439250D01*
X223774000Y-111515000D01*
X222724750Y-111515000D01*
X222566000Y-111673750D01*
X222562928Y-111963000D01*
X222105808Y-111963000D01*
X222007663Y-111823500D01*
X220916500Y-111823500D01*
X220662500Y-111823500D01*
X219571337Y-111823500D01*
X219445536Y-112002310D01*
X218684451Y-112002310D01*
X219541035Y-111526430D01*
X219571337Y-111569500D01*
X220336391Y-111569500D01*
X220337100Y-111569715D01*
X220507521Y-111586500D01*
X221071479Y-111586500D01*
X221241900Y-111569715D01*
X221242609Y-111569500D01*
X222007663Y-111569500D01*
X222133464Y-111390690D01*
X222131813Y-111379000D01*
X223858667Y-111379000D01*
X224040000Y-111515000D01*
G37*
X224040000Y-111515000D02*
X224028000Y-111515000D01*
X224028000Y-112439250D01*
X224186750Y-112598000D01*
X224601000Y-112601072D01*
X224624872Y-112598721D01*
X224607188Y-112657018D01*
X224594928Y-112781500D01*
X224598000Y-113070750D01*
X224756750Y-113229500D01*
X225806000Y-113229500D01*
X225806000Y-113209500D01*
X226060000Y-113209500D01*
X226060000Y-113229500D01*
X226080000Y-113229500D01*
X226080000Y-113483500D01*
X226060000Y-113483500D01*
X226060000Y-114407750D01*
X226123500Y-114471250D01*
X226123500Y-115125500D01*
X226143500Y-115125500D01*
X226143500Y-115379500D01*
X226123500Y-115379500D01*
X226123500Y-115399500D01*
X225869500Y-115399500D01*
X225869500Y-115379500D01*
X225849500Y-115379500D01*
X225849500Y-115125500D01*
X225869500Y-115125500D01*
X225869500Y-114076250D01*
X225806000Y-114012750D01*
X225806000Y-113483500D01*
X224756750Y-113483500D01*
X224598000Y-113642250D01*
X224594928Y-113931500D01*
X224599552Y-113978449D01*
X224444755Y-113931492D01*
X224271501Y-113914428D01*
X223621499Y-113914428D01*
X223448245Y-113931492D01*
X223281649Y-113982028D01*
X223280766Y-113982500D01*
X223242341Y-113982500D01*
X223215162Y-113955321D01*
X223048756Y-113844132D01*
X222863856Y-113767544D01*
X222667567Y-113728500D01*
X222467433Y-113728500D01*
X222271144Y-113767544D01*
X222086244Y-113844132D01*
X222026122Y-113884304D01*
X221971351Y-113855028D01*
X221804755Y-113804492D01*
X221631501Y-113787428D01*
X220981499Y-113787428D01*
X220808245Y-113804492D01*
X220641649Y-113855028D01*
X220488113Y-113937095D01*
X220353538Y-114047538D01*
X220348158Y-114054094D01*
X220282685Y-113974315D01*
X220185994Y-113894963D01*
X220075680Y-113835998D01*
X219955982Y-113799688D01*
X219831500Y-113787428D01*
X219542250Y-113790500D01*
X219383500Y-113949250D01*
X219383500Y-114998500D01*
X219403500Y-114998500D01*
X219403500Y-115252500D01*
X219383500Y-115252500D01*
X219383500Y-116301750D01*
X219542250Y-116460500D01*
X219831500Y-116463572D01*
X219955982Y-116451312D01*
X220075680Y-116415002D01*
X220185994Y-116356037D01*
X220282685Y-116276685D01*
X220348158Y-116196906D01*
X220353538Y-116203462D01*
X220488113Y-116313905D01*
X220641649Y-116395972D01*
X220808245Y-116446508D01*
X220981499Y-116463572D01*
X221631501Y-116463572D01*
X221804755Y-116446508D01*
X221911336Y-116414177D01*
X221919838Y-116422679D01*
X222086244Y-116533868D01*
X222271144Y-116610456D01*
X222467433Y-116649500D01*
X222667567Y-116649500D01*
X222863856Y-116610456D01*
X223048756Y-116533868D01*
X223161320Y-116458655D01*
X223281649Y-116522972D01*
X223448245Y-116573508D01*
X223621499Y-116590572D01*
X224271501Y-116590572D01*
X224444755Y-116573508D01*
X224611351Y-116522972D01*
X224764887Y-116440905D01*
X224899462Y-116330462D01*
X224904842Y-116323906D01*
X224970315Y-116403685D01*
X225067006Y-116483037D01*
X225177320Y-116542002D01*
X225297018Y-116578312D01*
X225375078Y-116586000D01*
X224599500Y-116586000D01*
X224574724Y-116588440D01*
X224550899Y-116595667D01*
X224527551Y-116608347D01*
X223511551Y-117306847D01*
X223492516Y-117322894D01*
X223476979Y-117342347D01*
X223465534Y-117364457D01*
X223458623Y-117388375D01*
X223456500Y-117411500D01*
X223456500Y-127880135D01*
X222515478Y-128437778D01*
X222576134Y-128307358D01*
X222638383Y-128051860D01*
X222649590Y-127789127D01*
X222609325Y-127529256D01*
X222519135Y-127282234D01*
X222465237Y-127181397D01*
X222231469Y-127121936D01*
X221489805Y-127863600D01*
X221503948Y-127877743D01*
X221324343Y-128057348D01*
X221310200Y-128043205D01*
X221296058Y-128057348D01*
X221116453Y-127877743D01*
X221130595Y-127863600D01*
X221116453Y-127849458D01*
X221296058Y-127669853D01*
X221310200Y-127683995D01*
X222051864Y-126942331D01*
X221992403Y-126708563D01*
X221753958Y-126597666D01*
X221734373Y-126592894D01*
X221942559Y-126506661D01*
X222161213Y-126360562D01*
X222347162Y-126174613D01*
X222493261Y-125955959D01*
X222593896Y-125713005D01*
X222645200Y-125455086D01*
X222645200Y-125192114D01*
X222593896Y-124934195D01*
X222493261Y-124691241D01*
X222347162Y-124472587D01*
X222161213Y-124286638D01*
X221942559Y-124140539D01*
X221732670Y-124053600D01*
X221942559Y-123966661D01*
X222161213Y-123820562D01*
X222347162Y-123634613D01*
X222493261Y-123415959D01*
X222593896Y-123173005D01*
X222645200Y-122915086D01*
X222645200Y-122652114D01*
X222593896Y-122394195D01*
X222493261Y-122151241D01*
X222347162Y-121932587D01*
X222161213Y-121746638D01*
X221942559Y-121600539D01*
X221699605Y-121499904D01*
X221441686Y-121448600D01*
X221178714Y-121448600D01*
X220920795Y-121499904D01*
X220677841Y-121600539D01*
X220558201Y-121680479D01*
X220558201Y-121421623D01*
X220561887Y-121384200D01*
X220558201Y-121346775D01*
X220547175Y-121234823D01*
X220503603Y-121091186D01*
X220432846Y-120958809D01*
X220337623Y-120842779D01*
X220308553Y-120818922D01*
X217134784Y-117645154D01*
X217110922Y-117616078D01*
X216994892Y-117520855D01*
X216862515Y-117450098D01*
X216837397Y-117442479D01*
X216766685Y-117356315D01*
X216669994Y-117276963D01*
X216559680Y-117217998D01*
X216439982Y-117181688D01*
X216315500Y-117169428D01*
X216217500Y-117169428D01*
X216217500Y-117068482D01*
X216257373Y-117091029D01*
X216376174Y-117130175D01*
X216483750Y-117142500D01*
X216642500Y-116983750D01*
X216642500Y-116284500D01*
X216838500Y-116284500D01*
X216838500Y-116983750D01*
X216997250Y-117142500D01*
X217104826Y-117130175D01*
X217223627Y-117091029D01*
X217332508Y-117029459D01*
X217427285Y-116947830D01*
X217504316Y-116849280D01*
X217560641Y-116737595D01*
X217594094Y-116617067D01*
X217603392Y-116492329D01*
X217600500Y-116443250D01*
X217441750Y-116284500D01*
X216838500Y-116284500D01*
X216642500Y-116284500D01*
X216593500Y-116284500D01*
X216593500Y-116030500D01*
X216642500Y-116030500D01*
X216642500Y-116010500D01*
X216838500Y-116010500D01*
X216838500Y-116030500D01*
X217441750Y-116030500D01*
X217600500Y-115871750D01*
X217603392Y-115822671D01*
X217594094Y-115697933D01*
X217560641Y-115577405D01*
X217560002Y-115576138D01*
X217560002Y-115539752D01*
X217718750Y-115698500D01*
X218008000Y-115701572D01*
X218044374Y-115697990D01*
X218043428Y-115825500D01*
X218055688Y-115949982D01*
X218091998Y-116069680D01*
X218150963Y-116179994D01*
X218230315Y-116276685D01*
X218327006Y-116356037D01*
X218437320Y-116415002D01*
X218557018Y-116451312D01*
X218681500Y-116463572D01*
X218970750Y-116460500D01*
X219129500Y-116301750D01*
X219129500Y-115252500D01*
X219109500Y-115252500D01*
X219109500Y-114998500D01*
X219129500Y-114998500D01*
X219129500Y-113949250D01*
X218970750Y-113790500D01*
X218681500Y-113787428D01*
X218645126Y-113791010D01*
X218646072Y-113663500D01*
X218633812Y-113539018D01*
X218597502Y-113419320D01*
X218538537Y-113309006D01*
X218459185Y-113212315D01*
X218362494Y-113132963D01*
X218252180Y-113073998D01*
X218132482Y-113037688D01*
X218008000Y-113025428D01*
X217718750Y-113028500D01*
X217560000Y-113187250D01*
X217560000Y-114236500D01*
X217580000Y-114236500D01*
X217580000Y-114490500D01*
X217560000Y-114490500D01*
X217560000Y-114510500D01*
X217306000Y-114510500D01*
X217306000Y-114490500D01*
X217286000Y-114490500D01*
X217286000Y-114236500D01*
X217306000Y-114236500D01*
X217306000Y-113187250D01*
X217147250Y-113028500D01*
X216858000Y-113025428D01*
X216733518Y-113037688D01*
X216613820Y-113073998D01*
X216607007Y-113077640D01*
X216974413Y-112649000D01*
X217487500Y-112649000D01*
X217512276Y-112646560D01*
X217536101Y-112639333D01*
X217549177Y-112633018D01*
X218684451Y-112002310D01*
X219445536Y-112002310D01*
X219454228Y-112063837D01*
X219547225Y-112273382D01*
X219679316Y-112460758D01*
X219845424Y-112618764D01*
X220039166Y-112741328D01*
X220253096Y-112823739D01*
X220478993Y-112862831D01*
X220662500Y-112703098D01*
X220662500Y-111823500D01*
X220916500Y-111823500D01*
X220916500Y-112703098D01*
X221100007Y-112862831D01*
X221325904Y-112823739D01*
X221539834Y-112741328D01*
X221733576Y-112618764D01*
X221899684Y-112460758D01*
X222031775Y-112273382D01*
X222124772Y-112063837D01*
X222133464Y-112002310D01*
X222105808Y-111963000D01*
X222562928Y-111963000D01*
X222575188Y-112087482D01*
X222611498Y-112207180D01*
X222670463Y-112317494D01*
X222749815Y-112414185D01*
X222846506Y-112493537D01*
X222956820Y-112552502D01*
X223076518Y-112588812D01*
X223201000Y-112601072D01*
X223615250Y-112598000D01*
X223774000Y-112439250D01*
X223774000Y-111515000D01*
X222724750Y-111515000D01*
X222566000Y-111673750D01*
X222562928Y-111963000D01*
X222105808Y-111963000D01*
X222007663Y-111823500D01*
X220916500Y-111823500D01*
X220662500Y-111823500D01*
X219571337Y-111823500D01*
X219445536Y-112002310D01*
X218684451Y-112002310D01*
X219541035Y-111526430D01*
X219571337Y-111569500D01*
X220336391Y-111569500D01*
X220337100Y-111569715D01*
X220507521Y-111586500D01*
X221071479Y-111586500D01*
X221241900Y-111569715D01*
X221242609Y-111569500D01*
X222007663Y-111569500D01*
X222133464Y-111390690D01*
X222131813Y-111379000D01*
X223858667Y-111379000D01*
X224040000Y-111515000D01*
M02*
