M48
; DRILL file {KiCad 5.1.5+dfsg1-2build2} date Tue 18 May 2021 05:37:27 PM -03
; FORMAT={-:-/ absolute / metric / decimal}
; #@! TF.CreationDate,2021-05-18T17:37:27-03:00
; #@! TF.GenerationSoftware,Kicad,Pcbnew,5.1.5+dfsg1-2build2
; #@! TF.FileFunction,Plated,1,2,PTH
FMAT,2
METRIC
T1C0.381
T2C0.750
T3C0.800
T4C3.000
T5C3.200
%
G90
G05
T1
X213.106Y-148.844
X213.995Y-114.363
X214.058Y-116.014
X214.058Y-118.173
X214.058Y-121.539
X216.09Y-126.174
X222.567Y-114.744
X222.567Y-115.633
X252.285Y-148.844
X253.809Y-122.618
X253.809Y-124.714
T2
X220.79Y-109.156
X220.79Y-110.426
X220.79Y-111.697
T3
X218.77Y-122.784
X218.77Y-125.324
X218.77Y-127.864
X218.77Y-130.404
X218.77Y-132.944
X218.77Y-135.484
X218.77Y-138.024
X218.77Y-140.564
X218.77Y-143.104
X218.77Y-145.644
X221.31Y-122.784
X221.31Y-125.324
X221.31Y-127.864
X221.31Y-130.404
X221.31Y-132.944
X221.31Y-135.484
X221.31Y-138.024
X221.31Y-140.564
X221.31Y-143.104
X221.31Y-145.644
X244.17Y-122.784
X244.17Y-125.324
X244.17Y-127.864
X244.17Y-130.404
X244.17Y-132.944
X244.17Y-135.484
X244.17Y-138.024
X244.17Y-140.564
X244.17Y-143.104
X244.17Y-145.644
X246.71Y-122.784
X246.71Y-125.324
X246.71Y-127.864
X246.71Y-130.404
X246.71Y-132.944
X246.71Y-135.484
X246.71Y-138.024
X246.71Y-140.564
X246.71Y-143.104
X246.71Y-145.644
T4
X212.915Y-129.233
X212.928Y-145.806
X252.171Y-129.286
X252.171Y-145.796
T5
X213.992Y-152.942
X213.992Y-110.397
X251.269Y-152.942
X251.269Y-110.397
T0
M30
