G04 #@! TF.GenerationSoftware,KiCad,Pcbnew,5.1.5+dfsg1-2build2*
G04 #@! TF.CreationDate,2021-05-18T17:36:40-03:00*
G04 #@! TF.ProjectId,jbox_kicad,6a626f78-5f6b-4696-9361-642e6b696361,0*
G04 #@! TF.SameCoordinates,Original*
G04 #@! TF.FileFunction,Paste,Bot*
G04 #@! TF.FilePolarity,Positive*
%FSLAX46Y46*%
G04 Gerber Fmt 4.6, Leading zero omitted, Abs format (unit mm)*
G04 Created by KiCad (PCBNEW 5.1.5+dfsg1-2build2) date 2021-05-18 17:36:40*
%MOMM*%
%LPD*%
G04 APERTURE LIST*
%ADD10C,0.500000*%
%ADD11R,0.450000X0.700000*%
G04 APERTURE END LIST*
D10*
G36*
X224375505Y-108764204D02*
G01*
X224399773Y-108767804D01*
X224423572Y-108773765D01*
X224446671Y-108782030D01*
X224468850Y-108792520D01*
X224489893Y-108805132D01*
X224509599Y-108819747D01*
X224527777Y-108836223D01*
X224544253Y-108854401D01*
X224558868Y-108874107D01*
X224571480Y-108895150D01*
X224581970Y-108917329D01*
X224590235Y-108940428D01*
X224596196Y-108964227D01*
X224599796Y-108988495D01*
X224601000Y-109012999D01*
X224601000Y-109663001D01*
X224599796Y-109687505D01*
X224596196Y-109711773D01*
X224590235Y-109735572D01*
X224581970Y-109758671D01*
X224571480Y-109780850D01*
X224558868Y-109801893D01*
X224544253Y-109821599D01*
X224527777Y-109839777D01*
X224509599Y-109856253D01*
X224489893Y-109870868D01*
X224468850Y-109883480D01*
X224446671Y-109893970D01*
X224423572Y-109902235D01*
X224399773Y-109908196D01*
X224375505Y-109911796D01*
X224351001Y-109913000D01*
X223450999Y-109913000D01*
X223426495Y-109911796D01*
X223402227Y-109908196D01*
X223378428Y-109902235D01*
X223355329Y-109893970D01*
X223333150Y-109883480D01*
X223312107Y-109870868D01*
X223292401Y-109856253D01*
X223274223Y-109839777D01*
X223257747Y-109821599D01*
X223243132Y-109801893D01*
X223230520Y-109780850D01*
X223220030Y-109758671D01*
X223211765Y-109735572D01*
X223205804Y-109711773D01*
X223202204Y-109687505D01*
X223201000Y-109663001D01*
X223201000Y-109012999D01*
X223202204Y-108988495D01*
X223205804Y-108964227D01*
X223211765Y-108940428D01*
X223220030Y-108917329D01*
X223230520Y-108895150D01*
X223243132Y-108874107D01*
X223257747Y-108854401D01*
X223274223Y-108836223D01*
X223292401Y-108819747D01*
X223312107Y-108805132D01*
X223333150Y-108792520D01*
X223355329Y-108782030D01*
X223378428Y-108773765D01*
X223402227Y-108767804D01*
X223426495Y-108764204D01*
X223450999Y-108763000D01*
X224351001Y-108763000D01*
X224375505Y-108764204D01*
G37*
G36*
X224375505Y-110814204D02*
G01*
X224399773Y-110817804D01*
X224423572Y-110823765D01*
X224446671Y-110832030D01*
X224468850Y-110842520D01*
X224489893Y-110855132D01*
X224509599Y-110869747D01*
X224527777Y-110886223D01*
X224544253Y-110904401D01*
X224558868Y-110924107D01*
X224571480Y-110945150D01*
X224581970Y-110967329D01*
X224590235Y-110990428D01*
X224596196Y-111014227D01*
X224599796Y-111038495D01*
X224601000Y-111062999D01*
X224601000Y-111713001D01*
X224599796Y-111737505D01*
X224596196Y-111761773D01*
X224590235Y-111785572D01*
X224581970Y-111808671D01*
X224571480Y-111830850D01*
X224558868Y-111851893D01*
X224544253Y-111871599D01*
X224527777Y-111889777D01*
X224509599Y-111906253D01*
X224489893Y-111920868D01*
X224468850Y-111933480D01*
X224446671Y-111943970D01*
X224423572Y-111952235D01*
X224399773Y-111958196D01*
X224375505Y-111961796D01*
X224351001Y-111963000D01*
X223450999Y-111963000D01*
X223426495Y-111961796D01*
X223402227Y-111958196D01*
X223378428Y-111952235D01*
X223355329Y-111943970D01*
X223333150Y-111933480D01*
X223312107Y-111920868D01*
X223292401Y-111906253D01*
X223274223Y-111889777D01*
X223257747Y-111871599D01*
X223243132Y-111851893D01*
X223230520Y-111830850D01*
X223220030Y-111808671D01*
X223211765Y-111785572D01*
X223205804Y-111761773D01*
X223202204Y-111737505D01*
X223201000Y-111713001D01*
X223201000Y-111062999D01*
X223202204Y-111038495D01*
X223205804Y-111014227D01*
X223211765Y-110990428D01*
X223220030Y-110967329D01*
X223230520Y-110945150D01*
X223243132Y-110924107D01*
X223257747Y-110904401D01*
X223274223Y-110886223D01*
X223292401Y-110869747D01*
X223312107Y-110855132D01*
X223333150Y-110842520D01*
X223355329Y-110832030D01*
X223378428Y-110823765D01*
X223402227Y-110817804D01*
X223426495Y-110814204D01*
X223450999Y-110813000D01*
X224351001Y-110813000D01*
X224375505Y-110814204D01*
G37*
G36*
X227162505Y-108203704D02*
G01*
X227186773Y-108207304D01*
X227210572Y-108213265D01*
X227233671Y-108221530D01*
X227255850Y-108232020D01*
X227276893Y-108244632D01*
X227296599Y-108259247D01*
X227314777Y-108275723D01*
X227331253Y-108293901D01*
X227345868Y-108313607D01*
X227358480Y-108334650D01*
X227368970Y-108356829D01*
X227377235Y-108379928D01*
X227383196Y-108403727D01*
X227386796Y-108427995D01*
X227388000Y-108452499D01*
X227388000Y-109352501D01*
X227386796Y-109377005D01*
X227383196Y-109401273D01*
X227377235Y-109425072D01*
X227368970Y-109448171D01*
X227358480Y-109470350D01*
X227345868Y-109491393D01*
X227331253Y-109511099D01*
X227314777Y-109529277D01*
X227296599Y-109545753D01*
X227276893Y-109560368D01*
X227255850Y-109572980D01*
X227233671Y-109583470D01*
X227210572Y-109591735D01*
X227186773Y-109597696D01*
X227162505Y-109601296D01*
X227138001Y-109602500D01*
X226487999Y-109602500D01*
X226463495Y-109601296D01*
X226439227Y-109597696D01*
X226415428Y-109591735D01*
X226392329Y-109583470D01*
X226370150Y-109572980D01*
X226349107Y-109560368D01*
X226329401Y-109545753D01*
X226311223Y-109529277D01*
X226294747Y-109511099D01*
X226280132Y-109491393D01*
X226267520Y-109470350D01*
X226257030Y-109448171D01*
X226248765Y-109425072D01*
X226242804Y-109401273D01*
X226239204Y-109377005D01*
X226238000Y-109352501D01*
X226238000Y-108452499D01*
X226239204Y-108427995D01*
X226242804Y-108403727D01*
X226248765Y-108379928D01*
X226257030Y-108356829D01*
X226267520Y-108334650D01*
X226280132Y-108313607D01*
X226294747Y-108293901D01*
X226311223Y-108275723D01*
X226329401Y-108259247D01*
X226349107Y-108244632D01*
X226370150Y-108232020D01*
X226392329Y-108221530D01*
X226415428Y-108213265D01*
X226439227Y-108207304D01*
X226463495Y-108203704D01*
X226487999Y-108202500D01*
X227138001Y-108202500D01*
X227162505Y-108203704D01*
G37*
G36*
X229212505Y-108203704D02*
G01*
X229236773Y-108207304D01*
X229260572Y-108213265D01*
X229283671Y-108221530D01*
X229305850Y-108232020D01*
X229326893Y-108244632D01*
X229346599Y-108259247D01*
X229364777Y-108275723D01*
X229381253Y-108293901D01*
X229395868Y-108313607D01*
X229408480Y-108334650D01*
X229418970Y-108356829D01*
X229427235Y-108379928D01*
X229433196Y-108403727D01*
X229436796Y-108427995D01*
X229438000Y-108452499D01*
X229438000Y-109352501D01*
X229436796Y-109377005D01*
X229433196Y-109401273D01*
X229427235Y-109425072D01*
X229418970Y-109448171D01*
X229408480Y-109470350D01*
X229395868Y-109491393D01*
X229381253Y-109511099D01*
X229364777Y-109529277D01*
X229346599Y-109545753D01*
X229326893Y-109560368D01*
X229305850Y-109572980D01*
X229283671Y-109583470D01*
X229260572Y-109591735D01*
X229236773Y-109597696D01*
X229212505Y-109601296D01*
X229188001Y-109602500D01*
X228537999Y-109602500D01*
X228513495Y-109601296D01*
X228489227Y-109597696D01*
X228465428Y-109591735D01*
X228442329Y-109583470D01*
X228420150Y-109572980D01*
X228399107Y-109560368D01*
X228379401Y-109545753D01*
X228361223Y-109529277D01*
X228344747Y-109511099D01*
X228330132Y-109491393D01*
X228317520Y-109470350D01*
X228307030Y-109448171D01*
X228298765Y-109425072D01*
X228292804Y-109401273D01*
X228289204Y-109377005D01*
X228288000Y-109352501D01*
X228288000Y-108452499D01*
X228289204Y-108427995D01*
X228292804Y-108403727D01*
X228298765Y-108379928D01*
X228307030Y-108356829D01*
X228317520Y-108334650D01*
X228330132Y-108313607D01*
X228344747Y-108293901D01*
X228361223Y-108275723D01*
X228379401Y-108259247D01*
X228399107Y-108244632D01*
X228420150Y-108232020D01*
X228442329Y-108221530D01*
X228465428Y-108213265D01*
X228489227Y-108207304D01*
X228513495Y-108203704D01*
X228537999Y-108202500D01*
X229188001Y-108202500D01*
X229212505Y-108203704D01*
G37*
G36*
X216565005Y-124276204D02*
G01*
X216589273Y-124279804D01*
X216613072Y-124285765D01*
X216636171Y-124294030D01*
X216658350Y-124304520D01*
X216679393Y-124317132D01*
X216699099Y-124331747D01*
X216717277Y-124348223D01*
X216733753Y-124366401D01*
X216748368Y-124386107D01*
X216760980Y-124407150D01*
X216771470Y-124429329D01*
X216779735Y-124452428D01*
X216785696Y-124476227D01*
X216789296Y-124500495D01*
X216790500Y-124524999D01*
X216790500Y-125175001D01*
X216789296Y-125199505D01*
X216785696Y-125223773D01*
X216779735Y-125247572D01*
X216771470Y-125270671D01*
X216760980Y-125292850D01*
X216748368Y-125313893D01*
X216733753Y-125333599D01*
X216717277Y-125351777D01*
X216699099Y-125368253D01*
X216679393Y-125382868D01*
X216658350Y-125395480D01*
X216636171Y-125405970D01*
X216613072Y-125414235D01*
X216589273Y-125420196D01*
X216565005Y-125423796D01*
X216540501Y-125425000D01*
X215640499Y-125425000D01*
X215615995Y-125423796D01*
X215591727Y-125420196D01*
X215567928Y-125414235D01*
X215544829Y-125405970D01*
X215522650Y-125395480D01*
X215501607Y-125382868D01*
X215481901Y-125368253D01*
X215463723Y-125351777D01*
X215447247Y-125333599D01*
X215432632Y-125313893D01*
X215420020Y-125292850D01*
X215409530Y-125270671D01*
X215401265Y-125247572D01*
X215395304Y-125223773D01*
X215391704Y-125199505D01*
X215390500Y-125175001D01*
X215390500Y-124524999D01*
X215391704Y-124500495D01*
X215395304Y-124476227D01*
X215401265Y-124452428D01*
X215409530Y-124429329D01*
X215420020Y-124407150D01*
X215432632Y-124386107D01*
X215447247Y-124366401D01*
X215463723Y-124348223D01*
X215481901Y-124331747D01*
X215501607Y-124317132D01*
X215522650Y-124304520D01*
X215544829Y-124294030D01*
X215567928Y-124285765D01*
X215591727Y-124279804D01*
X215615995Y-124276204D01*
X215640499Y-124275000D01*
X216540501Y-124275000D01*
X216565005Y-124276204D01*
G37*
G36*
X216565005Y-122226204D02*
G01*
X216589273Y-122229804D01*
X216613072Y-122235765D01*
X216636171Y-122244030D01*
X216658350Y-122254520D01*
X216679393Y-122267132D01*
X216699099Y-122281747D01*
X216717277Y-122298223D01*
X216733753Y-122316401D01*
X216748368Y-122336107D01*
X216760980Y-122357150D01*
X216771470Y-122379329D01*
X216779735Y-122402428D01*
X216785696Y-122426227D01*
X216789296Y-122450495D01*
X216790500Y-122474999D01*
X216790500Y-123125001D01*
X216789296Y-123149505D01*
X216785696Y-123173773D01*
X216779735Y-123197572D01*
X216771470Y-123220671D01*
X216760980Y-123242850D01*
X216748368Y-123263893D01*
X216733753Y-123283599D01*
X216717277Y-123301777D01*
X216699099Y-123318253D01*
X216679393Y-123332868D01*
X216658350Y-123345480D01*
X216636171Y-123355970D01*
X216613072Y-123364235D01*
X216589273Y-123370196D01*
X216565005Y-123373796D01*
X216540501Y-123375000D01*
X215640499Y-123375000D01*
X215615995Y-123373796D01*
X215591727Y-123370196D01*
X215567928Y-123364235D01*
X215544829Y-123355970D01*
X215522650Y-123345480D01*
X215501607Y-123332868D01*
X215481901Y-123318253D01*
X215463723Y-123301777D01*
X215447247Y-123283599D01*
X215432632Y-123263893D01*
X215420020Y-123242850D01*
X215409530Y-123220671D01*
X215401265Y-123197572D01*
X215395304Y-123173773D01*
X215391704Y-123149505D01*
X215390500Y-123125001D01*
X215390500Y-122474999D01*
X215391704Y-122450495D01*
X215395304Y-122426227D01*
X215401265Y-122402428D01*
X215409530Y-122379329D01*
X215420020Y-122357150D01*
X215432632Y-122336107D01*
X215447247Y-122316401D01*
X215463723Y-122298223D01*
X215481901Y-122281747D01*
X215501607Y-122267132D01*
X215522650Y-122254520D01*
X215544829Y-122244030D01*
X215567928Y-122235765D01*
X215591727Y-122229804D01*
X215615995Y-122226204D01*
X215640499Y-122225000D01*
X216540501Y-122225000D01*
X216565005Y-122226204D01*
G37*
G36*
X216385505Y-119316204D02*
G01*
X216409773Y-119319804D01*
X216433572Y-119325765D01*
X216456671Y-119334030D01*
X216478850Y-119344520D01*
X216499893Y-119357132D01*
X216519599Y-119371747D01*
X216537777Y-119388223D01*
X216554253Y-119406401D01*
X216568868Y-119426107D01*
X216581480Y-119447150D01*
X216591970Y-119469329D01*
X216600235Y-119492428D01*
X216606196Y-119516227D01*
X216609796Y-119540495D01*
X216611000Y-119564999D01*
X216611000Y-120465001D01*
X216609796Y-120489505D01*
X216606196Y-120513773D01*
X216600235Y-120537572D01*
X216591970Y-120560671D01*
X216581480Y-120582850D01*
X216568868Y-120603893D01*
X216554253Y-120623599D01*
X216537777Y-120641777D01*
X216519599Y-120658253D01*
X216499893Y-120672868D01*
X216478850Y-120685480D01*
X216456671Y-120695970D01*
X216433572Y-120704235D01*
X216409773Y-120710196D01*
X216385505Y-120713796D01*
X216361001Y-120715000D01*
X215710999Y-120715000D01*
X215686495Y-120713796D01*
X215662227Y-120710196D01*
X215638428Y-120704235D01*
X215615329Y-120695970D01*
X215593150Y-120685480D01*
X215572107Y-120672868D01*
X215552401Y-120658253D01*
X215534223Y-120641777D01*
X215517747Y-120623599D01*
X215503132Y-120603893D01*
X215490520Y-120582850D01*
X215480030Y-120560671D01*
X215471765Y-120537572D01*
X215465804Y-120513773D01*
X215462204Y-120489505D01*
X215461000Y-120465001D01*
X215461000Y-119564999D01*
X215462204Y-119540495D01*
X215465804Y-119516227D01*
X215471765Y-119492428D01*
X215480030Y-119469329D01*
X215490520Y-119447150D01*
X215503132Y-119426107D01*
X215517747Y-119406401D01*
X215534223Y-119388223D01*
X215552401Y-119371747D01*
X215572107Y-119357132D01*
X215593150Y-119344520D01*
X215615329Y-119334030D01*
X215638428Y-119325765D01*
X215662227Y-119319804D01*
X215686495Y-119316204D01*
X215710999Y-119315000D01*
X216361001Y-119315000D01*
X216385505Y-119316204D01*
G37*
G36*
X214335505Y-119316204D02*
G01*
X214359773Y-119319804D01*
X214383572Y-119325765D01*
X214406671Y-119334030D01*
X214428850Y-119344520D01*
X214449893Y-119357132D01*
X214469599Y-119371747D01*
X214487777Y-119388223D01*
X214504253Y-119406401D01*
X214518868Y-119426107D01*
X214531480Y-119447150D01*
X214541970Y-119469329D01*
X214550235Y-119492428D01*
X214556196Y-119516227D01*
X214559796Y-119540495D01*
X214561000Y-119564999D01*
X214561000Y-120465001D01*
X214559796Y-120489505D01*
X214556196Y-120513773D01*
X214550235Y-120537572D01*
X214541970Y-120560671D01*
X214531480Y-120582850D01*
X214518868Y-120603893D01*
X214504253Y-120623599D01*
X214487777Y-120641777D01*
X214469599Y-120658253D01*
X214449893Y-120672868D01*
X214428850Y-120685480D01*
X214406671Y-120695970D01*
X214383572Y-120704235D01*
X214359773Y-120710196D01*
X214335505Y-120713796D01*
X214311001Y-120715000D01*
X213660999Y-120715000D01*
X213636495Y-120713796D01*
X213612227Y-120710196D01*
X213588428Y-120704235D01*
X213565329Y-120695970D01*
X213543150Y-120685480D01*
X213522107Y-120672868D01*
X213502401Y-120658253D01*
X213484223Y-120641777D01*
X213467747Y-120623599D01*
X213453132Y-120603893D01*
X213440520Y-120582850D01*
X213430030Y-120560671D01*
X213421765Y-120537572D01*
X213415804Y-120513773D01*
X213412204Y-120489505D01*
X213411000Y-120465001D01*
X213411000Y-119564999D01*
X213412204Y-119540495D01*
X213415804Y-119516227D01*
X213421765Y-119492428D01*
X213430030Y-119469329D01*
X213440520Y-119447150D01*
X213453132Y-119426107D01*
X213467747Y-119406401D01*
X213484223Y-119388223D01*
X213502401Y-119371747D01*
X213522107Y-119357132D01*
X213543150Y-119344520D01*
X213565329Y-119334030D01*
X213588428Y-119325765D01*
X213612227Y-119319804D01*
X213636495Y-119316204D01*
X213660999Y-119315000D01*
X214311001Y-119315000D01*
X214335505Y-119316204D01*
G37*
G36*
X213009005Y-122226204D02*
G01*
X213033273Y-122229804D01*
X213057072Y-122235765D01*
X213080171Y-122244030D01*
X213102350Y-122254520D01*
X213123393Y-122267132D01*
X213143099Y-122281747D01*
X213161277Y-122298223D01*
X213177753Y-122316401D01*
X213192368Y-122336107D01*
X213204980Y-122357150D01*
X213215470Y-122379329D01*
X213223735Y-122402428D01*
X213229696Y-122426227D01*
X213233296Y-122450495D01*
X213234500Y-122474999D01*
X213234500Y-123125001D01*
X213233296Y-123149505D01*
X213229696Y-123173773D01*
X213223735Y-123197572D01*
X213215470Y-123220671D01*
X213204980Y-123242850D01*
X213192368Y-123263893D01*
X213177753Y-123283599D01*
X213161277Y-123301777D01*
X213143099Y-123318253D01*
X213123393Y-123332868D01*
X213102350Y-123345480D01*
X213080171Y-123355970D01*
X213057072Y-123364235D01*
X213033273Y-123370196D01*
X213009005Y-123373796D01*
X212984501Y-123375000D01*
X212084499Y-123375000D01*
X212059995Y-123373796D01*
X212035727Y-123370196D01*
X212011928Y-123364235D01*
X211988829Y-123355970D01*
X211966650Y-123345480D01*
X211945607Y-123332868D01*
X211925901Y-123318253D01*
X211907723Y-123301777D01*
X211891247Y-123283599D01*
X211876632Y-123263893D01*
X211864020Y-123242850D01*
X211853530Y-123220671D01*
X211845265Y-123197572D01*
X211839304Y-123173773D01*
X211835704Y-123149505D01*
X211834500Y-123125001D01*
X211834500Y-122474999D01*
X211835704Y-122450495D01*
X211839304Y-122426227D01*
X211845265Y-122402428D01*
X211853530Y-122379329D01*
X211864020Y-122357150D01*
X211876632Y-122336107D01*
X211891247Y-122316401D01*
X211907723Y-122298223D01*
X211925901Y-122281747D01*
X211945607Y-122267132D01*
X211966650Y-122254520D01*
X211988829Y-122244030D01*
X212011928Y-122235765D01*
X212035727Y-122229804D01*
X212059995Y-122226204D01*
X212084499Y-122225000D01*
X212984501Y-122225000D01*
X213009005Y-122226204D01*
G37*
G36*
X213009005Y-124276204D02*
G01*
X213033273Y-124279804D01*
X213057072Y-124285765D01*
X213080171Y-124294030D01*
X213102350Y-124304520D01*
X213123393Y-124317132D01*
X213143099Y-124331747D01*
X213161277Y-124348223D01*
X213177753Y-124366401D01*
X213192368Y-124386107D01*
X213204980Y-124407150D01*
X213215470Y-124429329D01*
X213223735Y-124452428D01*
X213229696Y-124476227D01*
X213233296Y-124500495D01*
X213234500Y-124524999D01*
X213234500Y-125175001D01*
X213233296Y-125199505D01*
X213229696Y-125223773D01*
X213223735Y-125247572D01*
X213215470Y-125270671D01*
X213204980Y-125292850D01*
X213192368Y-125313893D01*
X213177753Y-125333599D01*
X213161277Y-125351777D01*
X213143099Y-125368253D01*
X213123393Y-125382868D01*
X213102350Y-125395480D01*
X213080171Y-125405970D01*
X213057072Y-125414235D01*
X213033273Y-125420196D01*
X213009005Y-125423796D01*
X212984501Y-125425000D01*
X212084499Y-125425000D01*
X212059995Y-125423796D01*
X212035727Y-125420196D01*
X212011928Y-125414235D01*
X211988829Y-125405970D01*
X211966650Y-125395480D01*
X211945607Y-125382868D01*
X211925901Y-125368253D01*
X211907723Y-125351777D01*
X211891247Y-125333599D01*
X211876632Y-125313893D01*
X211864020Y-125292850D01*
X211853530Y-125270671D01*
X211845265Y-125247572D01*
X211839304Y-125223773D01*
X211835704Y-125199505D01*
X211834500Y-125175001D01*
X211834500Y-124524999D01*
X211835704Y-124500495D01*
X211839304Y-124476227D01*
X211845265Y-124452428D01*
X211853530Y-124429329D01*
X211864020Y-124407150D01*
X211876632Y-124386107D01*
X211891247Y-124366401D01*
X211907723Y-124348223D01*
X211925901Y-124331747D01*
X211945607Y-124317132D01*
X211966650Y-124304520D01*
X211988829Y-124294030D01*
X212011928Y-124285765D01*
X212035727Y-124279804D01*
X212059995Y-124276204D01*
X212084499Y-124275000D01*
X212984501Y-124275000D01*
X213009005Y-124276204D01*
G37*
G36*
X226407505Y-112782704D02*
G01*
X226431773Y-112786304D01*
X226455572Y-112792265D01*
X226478671Y-112800530D01*
X226500850Y-112811020D01*
X226521893Y-112823632D01*
X226541599Y-112838247D01*
X226559777Y-112854723D01*
X226576253Y-112872901D01*
X226590868Y-112892607D01*
X226603480Y-112913650D01*
X226613970Y-112935829D01*
X226622235Y-112958928D01*
X226628196Y-112982727D01*
X226631796Y-113006995D01*
X226633000Y-113031499D01*
X226633000Y-113681501D01*
X226631796Y-113706005D01*
X226628196Y-113730273D01*
X226622235Y-113754072D01*
X226613970Y-113777171D01*
X226603480Y-113799350D01*
X226590868Y-113820393D01*
X226576253Y-113840099D01*
X226559777Y-113858277D01*
X226541599Y-113874753D01*
X226521893Y-113889368D01*
X226500850Y-113901980D01*
X226478671Y-113912470D01*
X226455572Y-113920735D01*
X226431773Y-113926696D01*
X226407505Y-113930296D01*
X226383001Y-113931500D01*
X225482999Y-113931500D01*
X225458495Y-113930296D01*
X225434227Y-113926696D01*
X225410428Y-113920735D01*
X225387329Y-113912470D01*
X225365150Y-113901980D01*
X225344107Y-113889368D01*
X225324401Y-113874753D01*
X225306223Y-113858277D01*
X225289747Y-113840099D01*
X225275132Y-113820393D01*
X225262520Y-113799350D01*
X225252030Y-113777171D01*
X225243765Y-113754072D01*
X225237804Y-113730273D01*
X225234204Y-113706005D01*
X225233000Y-113681501D01*
X225233000Y-113031499D01*
X225234204Y-113006995D01*
X225237804Y-112982727D01*
X225243765Y-112958928D01*
X225252030Y-112935829D01*
X225262520Y-112913650D01*
X225275132Y-112892607D01*
X225289747Y-112872901D01*
X225306223Y-112854723D01*
X225324401Y-112838247D01*
X225344107Y-112823632D01*
X225365150Y-112811020D01*
X225387329Y-112800530D01*
X225410428Y-112792265D01*
X225434227Y-112786304D01*
X225458495Y-112782704D01*
X225482999Y-112781500D01*
X226383001Y-112781500D01*
X226407505Y-112782704D01*
G37*
G36*
X226407505Y-110732704D02*
G01*
X226431773Y-110736304D01*
X226455572Y-110742265D01*
X226478671Y-110750530D01*
X226500850Y-110761020D01*
X226521893Y-110773632D01*
X226541599Y-110788247D01*
X226559777Y-110804723D01*
X226576253Y-110822901D01*
X226590868Y-110842607D01*
X226603480Y-110863650D01*
X226613970Y-110885829D01*
X226622235Y-110908928D01*
X226628196Y-110932727D01*
X226631796Y-110956995D01*
X226633000Y-110981499D01*
X226633000Y-111631501D01*
X226631796Y-111656005D01*
X226628196Y-111680273D01*
X226622235Y-111704072D01*
X226613970Y-111727171D01*
X226603480Y-111749350D01*
X226590868Y-111770393D01*
X226576253Y-111790099D01*
X226559777Y-111808277D01*
X226541599Y-111824753D01*
X226521893Y-111839368D01*
X226500850Y-111851980D01*
X226478671Y-111862470D01*
X226455572Y-111870735D01*
X226431773Y-111876696D01*
X226407505Y-111880296D01*
X226383001Y-111881500D01*
X225482999Y-111881500D01*
X225458495Y-111880296D01*
X225434227Y-111876696D01*
X225410428Y-111870735D01*
X225387329Y-111862470D01*
X225365150Y-111851980D01*
X225344107Y-111839368D01*
X225324401Y-111824753D01*
X225306223Y-111808277D01*
X225289747Y-111790099D01*
X225275132Y-111770393D01*
X225262520Y-111749350D01*
X225252030Y-111727171D01*
X225243765Y-111704072D01*
X225237804Y-111680273D01*
X225234204Y-111656005D01*
X225233000Y-111631501D01*
X225233000Y-110981499D01*
X225234204Y-110956995D01*
X225237804Y-110932727D01*
X225243765Y-110908928D01*
X225252030Y-110885829D01*
X225262520Y-110863650D01*
X225275132Y-110842607D01*
X225289747Y-110822901D01*
X225306223Y-110804723D01*
X225324401Y-110788247D01*
X225344107Y-110773632D01*
X225365150Y-110761020D01*
X225387329Y-110750530D01*
X225410428Y-110742265D01*
X225434227Y-110736304D01*
X225458495Y-110732704D01*
X225482999Y-110731500D01*
X226383001Y-110731500D01*
X226407505Y-110732704D01*
G37*
G36*
X224296005Y-114553704D02*
G01*
X224320273Y-114557304D01*
X224344072Y-114563265D01*
X224367171Y-114571530D01*
X224389350Y-114582020D01*
X224410393Y-114594632D01*
X224430099Y-114609247D01*
X224448277Y-114625723D01*
X224464753Y-114643901D01*
X224479368Y-114663607D01*
X224491980Y-114684650D01*
X224502470Y-114706829D01*
X224510735Y-114729928D01*
X224516696Y-114753727D01*
X224520296Y-114777995D01*
X224521500Y-114802499D01*
X224521500Y-115702501D01*
X224520296Y-115727005D01*
X224516696Y-115751273D01*
X224510735Y-115775072D01*
X224502470Y-115798171D01*
X224491980Y-115820350D01*
X224479368Y-115841393D01*
X224464753Y-115861099D01*
X224448277Y-115879277D01*
X224430099Y-115895753D01*
X224410393Y-115910368D01*
X224389350Y-115922980D01*
X224367171Y-115933470D01*
X224344072Y-115941735D01*
X224320273Y-115947696D01*
X224296005Y-115951296D01*
X224271501Y-115952500D01*
X223621499Y-115952500D01*
X223596995Y-115951296D01*
X223572727Y-115947696D01*
X223548928Y-115941735D01*
X223525829Y-115933470D01*
X223503650Y-115922980D01*
X223482607Y-115910368D01*
X223462901Y-115895753D01*
X223444723Y-115879277D01*
X223428247Y-115861099D01*
X223413632Y-115841393D01*
X223401020Y-115820350D01*
X223390530Y-115798171D01*
X223382265Y-115775072D01*
X223376304Y-115751273D01*
X223372704Y-115727005D01*
X223371500Y-115702501D01*
X223371500Y-114802499D01*
X223372704Y-114777995D01*
X223376304Y-114753727D01*
X223382265Y-114729928D01*
X223390530Y-114706829D01*
X223401020Y-114684650D01*
X223413632Y-114663607D01*
X223428247Y-114643901D01*
X223444723Y-114625723D01*
X223462901Y-114609247D01*
X223482607Y-114594632D01*
X223503650Y-114582020D01*
X223525829Y-114571530D01*
X223548928Y-114563265D01*
X223572727Y-114557304D01*
X223596995Y-114553704D01*
X223621499Y-114552500D01*
X224271501Y-114552500D01*
X224296005Y-114553704D01*
G37*
G36*
X226346005Y-114553704D02*
G01*
X226370273Y-114557304D01*
X226394072Y-114563265D01*
X226417171Y-114571530D01*
X226439350Y-114582020D01*
X226460393Y-114594632D01*
X226480099Y-114609247D01*
X226498277Y-114625723D01*
X226514753Y-114643901D01*
X226529368Y-114663607D01*
X226541980Y-114684650D01*
X226552470Y-114706829D01*
X226560735Y-114729928D01*
X226566696Y-114753727D01*
X226570296Y-114777995D01*
X226571500Y-114802499D01*
X226571500Y-115702501D01*
X226570296Y-115727005D01*
X226566696Y-115751273D01*
X226560735Y-115775072D01*
X226552470Y-115798171D01*
X226541980Y-115820350D01*
X226529368Y-115841393D01*
X226514753Y-115861099D01*
X226498277Y-115879277D01*
X226480099Y-115895753D01*
X226460393Y-115910368D01*
X226439350Y-115922980D01*
X226417171Y-115933470D01*
X226394072Y-115941735D01*
X226370273Y-115947696D01*
X226346005Y-115951296D01*
X226321501Y-115952500D01*
X225671499Y-115952500D01*
X225646995Y-115951296D01*
X225622727Y-115947696D01*
X225598928Y-115941735D01*
X225575829Y-115933470D01*
X225553650Y-115922980D01*
X225532607Y-115910368D01*
X225512901Y-115895753D01*
X225494723Y-115879277D01*
X225478247Y-115861099D01*
X225463632Y-115841393D01*
X225451020Y-115820350D01*
X225440530Y-115798171D01*
X225432265Y-115775072D01*
X225426304Y-115751273D01*
X225422704Y-115727005D01*
X225421500Y-115702501D01*
X225421500Y-114802499D01*
X225422704Y-114777995D01*
X225426304Y-114753727D01*
X225432265Y-114729928D01*
X225440530Y-114706829D01*
X225451020Y-114684650D01*
X225463632Y-114663607D01*
X225478247Y-114643901D01*
X225494723Y-114625723D01*
X225512901Y-114609247D01*
X225532607Y-114594632D01*
X225553650Y-114582020D01*
X225575829Y-114571530D01*
X225598928Y-114563265D01*
X225622727Y-114557304D01*
X225646995Y-114553704D01*
X225671499Y-114552500D01*
X226321501Y-114552500D01*
X226346005Y-114553704D01*
G37*
G36*
X252644005Y-124040604D02*
G01*
X252668273Y-124044204D01*
X252692072Y-124050165D01*
X252715171Y-124058430D01*
X252737350Y-124068920D01*
X252758393Y-124081532D01*
X252778099Y-124096147D01*
X252796277Y-124112623D01*
X252812753Y-124130801D01*
X252827368Y-124150507D01*
X252839980Y-124171550D01*
X252850470Y-124193729D01*
X252858735Y-124216828D01*
X252864696Y-124240627D01*
X252868296Y-124264895D01*
X252869500Y-124289399D01*
X252869500Y-125189401D01*
X252868296Y-125213905D01*
X252864696Y-125238173D01*
X252858735Y-125261972D01*
X252850470Y-125285071D01*
X252839980Y-125307250D01*
X252827368Y-125328293D01*
X252812753Y-125347999D01*
X252796277Y-125366177D01*
X252778099Y-125382653D01*
X252758393Y-125397268D01*
X252737350Y-125409880D01*
X252715171Y-125420370D01*
X252692072Y-125428635D01*
X252668273Y-125434596D01*
X252644005Y-125438196D01*
X252619501Y-125439400D01*
X251969499Y-125439400D01*
X251944995Y-125438196D01*
X251920727Y-125434596D01*
X251896928Y-125428635D01*
X251873829Y-125420370D01*
X251851650Y-125409880D01*
X251830607Y-125397268D01*
X251810901Y-125382653D01*
X251792723Y-125366177D01*
X251776247Y-125347999D01*
X251761632Y-125328293D01*
X251749020Y-125307250D01*
X251738530Y-125285071D01*
X251730265Y-125261972D01*
X251724304Y-125238173D01*
X251720704Y-125213905D01*
X251719500Y-125189401D01*
X251719500Y-124289399D01*
X251720704Y-124264895D01*
X251724304Y-124240627D01*
X251730265Y-124216828D01*
X251738530Y-124193729D01*
X251749020Y-124171550D01*
X251761632Y-124150507D01*
X251776247Y-124130801D01*
X251792723Y-124112623D01*
X251810901Y-124096147D01*
X251830607Y-124081532D01*
X251851650Y-124068920D01*
X251873829Y-124058430D01*
X251896928Y-124050165D01*
X251920727Y-124044204D01*
X251944995Y-124040604D01*
X251969499Y-124039400D01*
X252619501Y-124039400D01*
X252644005Y-124040604D01*
G37*
G36*
X250594005Y-124040604D02*
G01*
X250618273Y-124044204D01*
X250642072Y-124050165D01*
X250665171Y-124058430D01*
X250687350Y-124068920D01*
X250708393Y-124081532D01*
X250728099Y-124096147D01*
X250746277Y-124112623D01*
X250762753Y-124130801D01*
X250777368Y-124150507D01*
X250789980Y-124171550D01*
X250800470Y-124193729D01*
X250808735Y-124216828D01*
X250814696Y-124240627D01*
X250818296Y-124264895D01*
X250819500Y-124289399D01*
X250819500Y-125189401D01*
X250818296Y-125213905D01*
X250814696Y-125238173D01*
X250808735Y-125261972D01*
X250800470Y-125285071D01*
X250789980Y-125307250D01*
X250777368Y-125328293D01*
X250762753Y-125347999D01*
X250746277Y-125366177D01*
X250728099Y-125382653D01*
X250708393Y-125397268D01*
X250687350Y-125409880D01*
X250665171Y-125420370D01*
X250642072Y-125428635D01*
X250618273Y-125434596D01*
X250594005Y-125438196D01*
X250569501Y-125439400D01*
X249919499Y-125439400D01*
X249894995Y-125438196D01*
X249870727Y-125434596D01*
X249846928Y-125428635D01*
X249823829Y-125420370D01*
X249801650Y-125409880D01*
X249780607Y-125397268D01*
X249760901Y-125382653D01*
X249742723Y-125366177D01*
X249726247Y-125347999D01*
X249711632Y-125328293D01*
X249699020Y-125307250D01*
X249688530Y-125285071D01*
X249680265Y-125261972D01*
X249674304Y-125238173D01*
X249670704Y-125213905D01*
X249669500Y-125189401D01*
X249669500Y-124289399D01*
X249670704Y-124264895D01*
X249674304Y-124240627D01*
X249680265Y-124216828D01*
X249688530Y-124193729D01*
X249699020Y-124171550D01*
X249711632Y-124150507D01*
X249726247Y-124130801D01*
X249742723Y-124112623D01*
X249760901Y-124096147D01*
X249780607Y-124081532D01*
X249801650Y-124068920D01*
X249823829Y-124058430D01*
X249846928Y-124050165D01*
X249870727Y-124044204D01*
X249894995Y-124040604D01*
X249919499Y-124039400D01*
X250569501Y-124039400D01*
X250594005Y-124040604D01*
G37*
G36*
X250594410Y-121919702D02*
G01*
X250618635Y-121923295D01*
X250642391Y-121929246D01*
X250665449Y-121937496D01*
X250687587Y-121947967D01*
X250708593Y-121960557D01*
X250728263Y-121975145D01*
X250746408Y-121991592D01*
X250762855Y-122009737D01*
X250777443Y-122029407D01*
X250790033Y-122050413D01*
X250800504Y-122072551D01*
X250808754Y-122095609D01*
X250814705Y-122119365D01*
X250818298Y-122143590D01*
X250819500Y-122168050D01*
X250819500Y-123068950D01*
X250818298Y-123093410D01*
X250814705Y-123117635D01*
X250808754Y-123141391D01*
X250800504Y-123164449D01*
X250790033Y-123186587D01*
X250777443Y-123207593D01*
X250762855Y-123227263D01*
X250746408Y-123245408D01*
X250728263Y-123261855D01*
X250708593Y-123276443D01*
X250687587Y-123289033D01*
X250665449Y-123299504D01*
X250642391Y-123307754D01*
X250618635Y-123313705D01*
X250594410Y-123317298D01*
X250569950Y-123318500D01*
X249919050Y-123318500D01*
X249894590Y-123317298D01*
X249870365Y-123313705D01*
X249846609Y-123307754D01*
X249823551Y-123299504D01*
X249801413Y-123289033D01*
X249780407Y-123276443D01*
X249760737Y-123261855D01*
X249742592Y-123245408D01*
X249726145Y-123227263D01*
X249711557Y-123207593D01*
X249698967Y-123186587D01*
X249688496Y-123164449D01*
X249680246Y-123141391D01*
X249674295Y-123117635D01*
X249670702Y-123093410D01*
X249669500Y-123068950D01*
X249669500Y-122168050D01*
X249670702Y-122143590D01*
X249674295Y-122119365D01*
X249680246Y-122095609D01*
X249688496Y-122072551D01*
X249698967Y-122050413D01*
X249711557Y-122029407D01*
X249726145Y-122009737D01*
X249742592Y-121991592D01*
X249760737Y-121975145D01*
X249780407Y-121960557D01*
X249801413Y-121947967D01*
X249823551Y-121937496D01*
X249846609Y-121929246D01*
X249870365Y-121923295D01*
X249894590Y-121919702D01*
X249919050Y-121918500D01*
X250569950Y-121918500D01*
X250594410Y-121919702D01*
G37*
G36*
X252644005Y-121919704D02*
G01*
X252668273Y-121923304D01*
X252692072Y-121929265D01*
X252715171Y-121937530D01*
X252737350Y-121948020D01*
X252758393Y-121960632D01*
X252778099Y-121975247D01*
X252796277Y-121991723D01*
X252812753Y-122009901D01*
X252827368Y-122029607D01*
X252839980Y-122050650D01*
X252850470Y-122072829D01*
X252858735Y-122095928D01*
X252864696Y-122119727D01*
X252868296Y-122143995D01*
X252869500Y-122168499D01*
X252869500Y-123068501D01*
X252868296Y-123093005D01*
X252864696Y-123117273D01*
X252858735Y-123141072D01*
X252850470Y-123164171D01*
X252839980Y-123186350D01*
X252827368Y-123207393D01*
X252812753Y-123227099D01*
X252796277Y-123245277D01*
X252778099Y-123261753D01*
X252758393Y-123276368D01*
X252737350Y-123288980D01*
X252715171Y-123299470D01*
X252692072Y-123307735D01*
X252668273Y-123313696D01*
X252644005Y-123317296D01*
X252619501Y-123318500D01*
X251969499Y-123318500D01*
X251944995Y-123317296D01*
X251920727Y-123313696D01*
X251896928Y-123307735D01*
X251873829Y-123299470D01*
X251851650Y-123288980D01*
X251830607Y-123276368D01*
X251810901Y-123261753D01*
X251792723Y-123245277D01*
X251776247Y-123227099D01*
X251761632Y-123207393D01*
X251749020Y-123186350D01*
X251738530Y-123164171D01*
X251730265Y-123141072D01*
X251724304Y-123117273D01*
X251720704Y-123093005D01*
X251719500Y-123068501D01*
X251719500Y-122168499D01*
X251720704Y-122143995D01*
X251724304Y-122119727D01*
X251730265Y-122095928D01*
X251738530Y-122072829D01*
X251749020Y-122050650D01*
X251761632Y-122029607D01*
X251776247Y-122009901D01*
X251792723Y-121991723D01*
X251810901Y-121975247D01*
X251830607Y-121960632D01*
X251851650Y-121948020D01*
X251873829Y-121937530D01*
X251896928Y-121929265D01*
X251920727Y-121923304D01*
X251944995Y-121919704D01*
X251969499Y-121918500D01*
X252619501Y-121918500D01*
X252644005Y-121919704D01*
G37*
G36*
X221656005Y-114426704D02*
G01*
X221680273Y-114430304D01*
X221704072Y-114436265D01*
X221727171Y-114444530D01*
X221749350Y-114455020D01*
X221770393Y-114467632D01*
X221790099Y-114482247D01*
X221808277Y-114498723D01*
X221824753Y-114516901D01*
X221839368Y-114536607D01*
X221851980Y-114557650D01*
X221862470Y-114579829D01*
X221870735Y-114602928D01*
X221876696Y-114626727D01*
X221880296Y-114650995D01*
X221881500Y-114675499D01*
X221881500Y-115575501D01*
X221880296Y-115600005D01*
X221876696Y-115624273D01*
X221870735Y-115648072D01*
X221862470Y-115671171D01*
X221851980Y-115693350D01*
X221839368Y-115714393D01*
X221824753Y-115734099D01*
X221808277Y-115752277D01*
X221790099Y-115768753D01*
X221770393Y-115783368D01*
X221749350Y-115795980D01*
X221727171Y-115806470D01*
X221704072Y-115814735D01*
X221680273Y-115820696D01*
X221656005Y-115824296D01*
X221631501Y-115825500D01*
X220981499Y-115825500D01*
X220956995Y-115824296D01*
X220932727Y-115820696D01*
X220908928Y-115814735D01*
X220885829Y-115806470D01*
X220863650Y-115795980D01*
X220842607Y-115783368D01*
X220822901Y-115768753D01*
X220804723Y-115752277D01*
X220788247Y-115734099D01*
X220773632Y-115714393D01*
X220761020Y-115693350D01*
X220750530Y-115671171D01*
X220742265Y-115648072D01*
X220736304Y-115624273D01*
X220732704Y-115600005D01*
X220731500Y-115575501D01*
X220731500Y-114675499D01*
X220732704Y-114650995D01*
X220736304Y-114626727D01*
X220742265Y-114602928D01*
X220750530Y-114579829D01*
X220761020Y-114557650D01*
X220773632Y-114536607D01*
X220788247Y-114516901D01*
X220804723Y-114498723D01*
X220822901Y-114482247D01*
X220842607Y-114467632D01*
X220863650Y-114455020D01*
X220885829Y-114444530D01*
X220908928Y-114436265D01*
X220932727Y-114430304D01*
X220956995Y-114426704D01*
X220981499Y-114425500D01*
X221631501Y-114425500D01*
X221656005Y-114426704D01*
G37*
G36*
X219606005Y-114426704D02*
G01*
X219630273Y-114430304D01*
X219654072Y-114436265D01*
X219677171Y-114444530D01*
X219699350Y-114455020D01*
X219720393Y-114467632D01*
X219740099Y-114482247D01*
X219758277Y-114498723D01*
X219774753Y-114516901D01*
X219789368Y-114536607D01*
X219801980Y-114557650D01*
X219812470Y-114579829D01*
X219820735Y-114602928D01*
X219826696Y-114626727D01*
X219830296Y-114650995D01*
X219831500Y-114675499D01*
X219831500Y-115575501D01*
X219830296Y-115600005D01*
X219826696Y-115624273D01*
X219820735Y-115648072D01*
X219812470Y-115671171D01*
X219801980Y-115693350D01*
X219789368Y-115714393D01*
X219774753Y-115734099D01*
X219758277Y-115752277D01*
X219740099Y-115768753D01*
X219720393Y-115783368D01*
X219699350Y-115795980D01*
X219677171Y-115806470D01*
X219654072Y-115814735D01*
X219630273Y-115820696D01*
X219606005Y-115824296D01*
X219581501Y-115825500D01*
X218931499Y-115825500D01*
X218906995Y-115824296D01*
X218882727Y-115820696D01*
X218858928Y-115814735D01*
X218835829Y-115806470D01*
X218813650Y-115795980D01*
X218792607Y-115783368D01*
X218772901Y-115768753D01*
X218754723Y-115752277D01*
X218738247Y-115734099D01*
X218723632Y-115714393D01*
X218711020Y-115693350D01*
X218700530Y-115671171D01*
X218692265Y-115648072D01*
X218686304Y-115624273D01*
X218682704Y-115600005D01*
X218681500Y-115575501D01*
X218681500Y-114675499D01*
X218682704Y-114650995D01*
X218686304Y-114626727D01*
X218692265Y-114602928D01*
X218700530Y-114579829D01*
X218711020Y-114557650D01*
X218723632Y-114536607D01*
X218738247Y-114516901D01*
X218754723Y-114498723D01*
X218772901Y-114482247D01*
X218792607Y-114467632D01*
X218813650Y-114455020D01*
X218835829Y-114444530D01*
X218858928Y-114436265D01*
X218882727Y-114430304D01*
X218906995Y-114426704D01*
X218931499Y-114425500D01*
X219581501Y-114425500D01*
X219606005Y-114426704D01*
G37*
G36*
X217782910Y-113664702D02*
G01*
X217807135Y-113668295D01*
X217830891Y-113674246D01*
X217853949Y-113682496D01*
X217876087Y-113692967D01*
X217897093Y-113705557D01*
X217916763Y-113720145D01*
X217934908Y-113736592D01*
X217951355Y-113754737D01*
X217965943Y-113774407D01*
X217978533Y-113795413D01*
X217989004Y-113817551D01*
X217997254Y-113840609D01*
X218003205Y-113864365D01*
X218006798Y-113888590D01*
X218008000Y-113913050D01*
X218008000Y-114813950D01*
X218006798Y-114838410D01*
X218003205Y-114862635D01*
X217997254Y-114886391D01*
X217989004Y-114909449D01*
X217978533Y-114931587D01*
X217965943Y-114952593D01*
X217951355Y-114972263D01*
X217934908Y-114990408D01*
X217916763Y-115006855D01*
X217897093Y-115021443D01*
X217876087Y-115034033D01*
X217853949Y-115044504D01*
X217830891Y-115052754D01*
X217807135Y-115058705D01*
X217782910Y-115062298D01*
X217758450Y-115063500D01*
X217107550Y-115063500D01*
X217083090Y-115062298D01*
X217058865Y-115058705D01*
X217035109Y-115052754D01*
X217012051Y-115044504D01*
X216989913Y-115034033D01*
X216968907Y-115021443D01*
X216949237Y-115006855D01*
X216931092Y-114990408D01*
X216914645Y-114972263D01*
X216900057Y-114952593D01*
X216887467Y-114931587D01*
X216876996Y-114909449D01*
X216868746Y-114886391D01*
X216862795Y-114862635D01*
X216859202Y-114838410D01*
X216858000Y-114813950D01*
X216858000Y-113913050D01*
X216859202Y-113888590D01*
X216862795Y-113864365D01*
X216868746Y-113840609D01*
X216876996Y-113817551D01*
X216887467Y-113795413D01*
X216900057Y-113774407D01*
X216914645Y-113754737D01*
X216931092Y-113736592D01*
X216949237Y-113720145D01*
X216968907Y-113705557D01*
X216989913Y-113692967D01*
X217012051Y-113682496D01*
X217035109Y-113674246D01*
X217058865Y-113668295D01*
X217083090Y-113664702D01*
X217107550Y-113663500D01*
X217758450Y-113663500D01*
X217782910Y-113664702D01*
G37*
G36*
X215732505Y-113664704D02*
G01*
X215756773Y-113668304D01*
X215780572Y-113674265D01*
X215803671Y-113682530D01*
X215825850Y-113693020D01*
X215846893Y-113705632D01*
X215866599Y-113720247D01*
X215884777Y-113736723D01*
X215901253Y-113754901D01*
X215915868Y-113774607D01*
X215928480Y-113795650D01*
X215938970Y-113817829D01*
X215947235Y-113840928D01*
X215953196Y-113864727D01*
X215956796Y-113888995D01*
X215958000Y-113913499D01*
X215958000Y-114813501D01*
X215956796Y-114838005D01*
X215953196Y-114862273D01*
X215947235Y-114886072D01*
X215938970Y-114909171D01*
X215928480Y-114931350D01*
X215915868Y-114952393D01*
X215901253Y-114972099D01*
X215884777Y-114990277D01*
X215866599Y-115006753D01*
X215846893Y-115021368D01*
X215825850Y-115033980D01*
X215803671Y-115044470D01*
X215780572Y-115052735D01*
X215756773Y-115058696D01*
X215732505Y-115062296D01*
X215708001Y-115063500D01*
X215057999Y-115063500D01*
X215033495Y-115062296D01*
X215009227Y-115058696D01*
X214985428Y-115052735D01*
X214962329Y-115044470D01*
X214940150Y-115033980D01*
X214919107Y-115021368D01*
X214899401Y-115006753D01*
X214881223Y-114990277D01*
X214864747Y-114972099D01*
X214850132Y-114952393D01*
X214837520Y-114931350D01*
X214827030Y-114909171D01*
X214818765Y-114886072D01*
X214812804Y-114862273D01*
X214809204Y-114838005D01*
X214808000Y-114813501D01*
X214808000Y-113913499D01*
X214809204Y-113888995D01*
X214812804Y-113864727D01*
X214818765Y-113840928D01*
X214827030Y-113817829D01*
X214837520Y-113795650D01*
X214850132Y-113774607D01*
X214864747Y-113754901D01*
X214881223Y-113736723D01*
X214899401Y-113720247D01*
X214919107Y-113705632D01*
X214940150Y-113693020D01*
X214962329Y-113682530D01*
X214985428Y-113674265D01*
X215009227Y-113668304D01*
X215033495Y-113664704D01*
X215057999Y-113663500D01*
X215708001Y-113663500D01*
X215732505Y-113664704D01*
G37*
D11*
X215440500Y-116157500D03*
X216740500Y-116157500D03*
X216090500Y-118157500D03*
M02*
