G04 #@! TF.GenerationSoftware,KiCad,Pcbnew,5.1.5+dfsg1-2build2*
G04 #@! TF.CreationDate,2021-05-18T17:36:40-03:00*
G04 #@! TF.ProjectId,jbox_kicad,6a626f78-5f6b-4696-9361-642e6b696361,0*
G04 #@! TF.SameCoordinates,Original*
G04 #@! TF.FileFunction,Copper,L1,Top*
G04 #@! TF.FilePolarity,Positive*
%FSLAX46Y46*%
G04 Gerber Fmt 4.6, Leading zero omitted, Abs format (unit mm)*
G04 Created by KiCad (PCBNEW 5.1.5+dfsg1-2build2) date 2021-05-18 17:36:40*
%MOMM*%
%LPD*%
G04 APERTURE LIST*
%ADD10C,0.300000*%
%ADD11C,5.500000*%
%ADD12C,1.400000*%
%ADD13R,1.500000X1.050000*%
%ADD14O,1.500000X1.050000*%
%ADD15C,4.000000*%
%ADD16C,0.762000*%
%ADD17C,0.254000*%
G04 APERTURE END LIST*
D10*
X218297500Y-150435571D02*
X218583214Y-150435571D01*
X218726071Y-150507000D01*
X218868928Y-150649857D01*
X218940357Y-150935571D01*
X218940357Y-151435571D01*
X218868928Y-151721285D01*
X218726071Y-151864142D01*
X218583214Y-151935571D01*
X218297500Y-151935571D01*
X218154642Y-151864142D01*
X218011785Y-151721285D01*
X217940357Y-151435571D01*
X217940357Y-150935571D01*
X218011785Y-150649857D01*
X218154642Y-150507000D01*
X218297500Y-150435571D01*
X219583214Y-150435571D02*
X219583214Y-151649857D01*
X219654642Y-151792714D01*
X219726071Y-151864142D01*
X219868928Y-151935571D01*
X220154642Y-151935571D01*
X220297500Y-151864142D01*
X220368928Y-151792714D01*
X220440357Y-151649857D01*
X220440357Y-150435571D01*
X220940357Y-150435571D02*
X221797500Y-150435571D01*
X221368928Y-151935571D02*
X221368928Y-150435571D01*
X223440357Y-151364142D02*
X224583214Y-151364142D01*
D11*
X213992460Y-110397500D03*
X251269500Y-110397500D03*
X213992460Y-152942500D03*
X251269500Y-152942500D03*
D12*
X221310200Y-145643600D03*
X218770200Y-145643600D03*
X218770200Y-143103600D03*
X221310200Y-143103600D03*
X218770200Y-140563600D03*
X221310200Y-140563600D03*
X218770200Y-138023600D03*
X221310200Y-138023600D03*
X218770200Y-135483600D03*
X221310200Y-135483600D03*
X218770200Y-132943600D03*
X221310200Y-132943600D03*
X218770200Y-130403600D03*
X221310200Y-130403600D03*
X218770200Y-127863600D03*
X221310200Y-127863600D03*
X218770200Y-125323600D03*
X221310200Y-125323600D03*
X218770200Y-122783600D03*
X221310200Y-122783600D03*
X244170200Y-145643600D03*
X246710200Y-145643600D03*
X244170200Y-143103600D03*
X246710200Y-143103600D03*
X244170200Y-140563600D03*
X246710200Y-140563600D03*
X244170200Y-138023600D03*
X246710200Y-138023600D03*
X244170200Y-135483600D03*
X246710200Y-135483600D03*
X244170200Y-132943600D03*
X246710200Y-132943600D03*
X244170200Y-130403600D03*
X246710200Y-130403600D03*
X244170200Y-127863600D03*
X246710200Y-127863600D03*
X244170200Y-125323600D03*
X246710200Y-125323600D03*
X244170200Y-122783600D03*
X246710200Y-122783600D03*
D13*
X220789500Y-109156500D03*
D14*
X220789500Y-111696500D03*
X220789500Y-110426500D03*
D15*
X252171200Y-129286000D03*
X212915500Y-129232660D03*
X252171200Y-145796000D03*
X212928200Y-145806160D03*
D16*
X214058500Y-118173500D03*
X222567500Y-114744500D03*
X222567500Y-115633500D03*
X252285500Y-148844000D03*
X214058500Y-116014500D03*
X214058500Y-121539000D03*
X213106000Y-148844000D03*
X253809500Y-122618500D03*
X253809500Y-124714000D03*
X216090500Y-126174500D03*
X213995000Y-114363500D03*
D17*
G36*
X249666101Y-107397752D02*
G01*
X249111688Y-107768198D01*
X248640198Y-108239688D01*
X248269752Y-108794101D01*
X248014583Y-109410132D01*
X247884500Y-110064107D01*
X247884500Y-110730893D01*
X248014583Y-111384868D01*
X248269752Y-112000899D01*
X248640198Y-112555312D01*
X249111688Y-113026802D01*
X249666101Y-113397248D01*
X250282132Y-113652417D01*
X250936107Y-113782500D01*
X251602893Y-113782500D01*
X252256868Y-113652417D01*
X252872899Y-113397248D01*
X253427312Y-113026802D01*
X253898802Y-112555312D01*
X254269248Y-112000899D01*
X254524417Y-111384868D01*
X254654500Y-110730893D01*
X254654500Y-110064107D01*
X254524417Y-109410132D01*
X254269248Y-108794101D01*
X253898802Y-108239688D01*
X253427312Y-107768198D01*
X252872899Y-107397752D01*
X252841400Y-107384705D01*
X253063891Y-107401461D01*
X253470527Y-107514283D01*
X253847504Y-107703939D01*
X254180465Y-107963206D01*
X254456725Y-108282206D01*
X254673732Y-108662766D01*
X254711015Y-108758299D01*
X254683606Y-128465897D01*
X254506307Y-128037859D01*
X254217938Y-127606285D01*
X253850915Y-127239262D01*
X253419341Y-126950893D01*
X252939801Y-126752261D01*
X252430725Y-126651000D01*
X251911675Y-126651000D01*
X251402599Y-126752261D01*
X250923059Y-126950893D01*
X250491485Y-127239262D01*
X250124462Y-127606285D01*
X249836093Y-128037859D01*
X249637461Y-128517399D01*
X249536200Y-129026475D01*
X249536200Y-129545525D01*
X249637461Y-130054601D01*
X249836093Y-130534141D01*
X250124462Y-130965715D01*
X250491485Y-131332738D01*
X250923059Y-131621107D01*
X251402599Y-131819739D01*
X251911675Y-131921000D01*
X252430725Y-131921000D01*
X252939801Y-131819739D01*
X253419341Y-131621107D01*
X253850915Y-131332738D01*
X254217938Y-130965715D01*
X254506307Y-130534141D01*
X254681317Y-130111629D01*
X254660711Y-144928409D01*
X254608479Y-144761474D01*
X254385458Y-144344228D01*
X254018699Y-144128106D01*
X252350805Y-145796000D01*
X254018699Y-147463894D01*
X254385458Y-147247772D01*
X254626138Y-146787895D01*
X254658277Y-146678525D01*
X254650060Y-152586785D01*
X254524417Y-151955132D01*
X254269248Y-151339101D01*
X253898802Y-150784688D01*
X253427312Y-150313198D01*
X252872899Y-149942752D01*
X252256868Y-149687583D01*
X251602893Y-149557500D01*
X250936107Y-149557500D01*
X250282132Y-149687583D01*
X249666101Y-149942752D01*
X249111688Y-150313198D01*
X248640198Y-150784688D01*
X248269752Y-151339101D01*
X248014583Y-151955132D01*
X247884500Y-152609107D01*
X247884500Y-153275893D01*
X248014583Y-153929868D01*
X248269752Y-154545899D01*
X248640198Y-155100312D01*
X249111688Y-155571802D01*
X249666101Y-155942248D01*
X250281850Y-156197300D01*
X214980110Y-156197300D01*
X215595859Y-155942248D01*
X216150272Y-155571802D01*
X216621762Y-155100312D01*
X216992208Y-154545899D01*
X217247377Y-153929868D01*
X217375251Y-153287000D01*
X225725357Y-153287000D01*
X225725357Y-149467000D01*
X216869643Y-149467000D01*
X216869643Y-151155669D01*
X216621762Y-150784688D01*
X216150272Y-150313198D01*
X215595859Y-149942752D01*
X214979828Y-149687583D01*
X214325853Y-149557500D01*
X213659067Y-149557500D01*
X213005092Y-149687583D01*
X212389061Y-149942752D01*
X211834648Y-150313198D01*
X211363158Y-150784688D01*
X210992712Y-151339101D01*
X210737543Y-151955132D01*
X210607460Y-152609107D01*
X210607460Y-153275893D01*
X210737543Y-153929868D01*
X210992712Y-154545899D01*
X211363158Y-155100312D01*
X211834648Y-155571802D01*
X212389061Y-155942248D01*
X213004810Y-156197300D01*
X212658216Y-156197300D01*
X212198221Y-156162231D01*
X211791229Y-156048905D01*
X211414002Y-155858687D01*
X211080903Y-155598818D01*
X210804625Y-155279202D01*
X210587452Y-154897533D01*
X210553150Y-154809850D01*
X210544358Y-147653659D01*
X211260306Y-147653659D01*
X211476428Y-148020418D01*
X211936305Y-148261098D01*
X212434298Y-148407435D01*
X212951271Y-148453808D01*
X213467359Y-148398433D01*
X213962726Y-148243439D01*
X214379972Y-148020418D01*
X214596094Y-147653659D01*
X214585934Y-147643499D01*
X250503306Y-147643499D01*
X250719428Y-148010258D01*
X251179305Y-148250938D01*
X251677298Y-148397275D01*
X252194271Y-148443648D01*
X252710359Y-148388273D01*
X253205726Y-148233279D01*
X253622972Y-148010258D01*
X253839094Y-147643499D01*
X252171200Y-145975605D01*
X250503306Y-147643499D01*
X214585934Y-147643499D01*
X212928200Y-145985765D01*
X211260306Y-147653659D01*
X210544358Y-147653659D01*
X210543479Y-146939016D01*
X210713942Y-147257932D01*
X211080701Y-147474054D01*
X212748595Y-145806160D01*
X213107805Y-145806160D01*
X214775699Y-147474054D01*
X215142458Y-147257932D01*
X215383138Y-146798055D01*
X215451660Y-146564869D01*
X218028536Y-146564869D01*
X218087997Y-146798637D01*
X218326442Y-146909534D01*
X218581940Y-146971783D01*
X218844673Y-146982990D01*
X219104544Y-146942725D01*
X219351566Y-146852535D01*
X219452403Y-146798637D01*
X219511864Y-146564869D01*
X218770200Y-145823205D01*
X218028536Y-146564869D01*
X215451660Y-146564869D01*
X215529475Y-146300062D01*
X215575848Y-145783089D01*
X215568872Y-145718073D01*
X217430810Y-145718073D01*
X217471075Y-145977944D01*
X217561265Y-146224966D01*
X217615163Y-146325803D01*
X217848931Y-146385264D01*
X218590595Y-145643600D01*
X217848931Y-144901936D01*
X217615163Y-144961397D01*
X217504266Y-145199842D01*
X217442017Y-145455340D01*
X217430810Y-145718073D01*
X215568872Y-145718073D01*
X215520473Y-145267001D01*
X215365479Y-144771634D01*
X215142458Y-144354388D01*
X214775699Y-144138266D01*
X213107805Y-145806160D01*
X212748595Y-145806160D01*
X211080701Y-144138266D01*
X210713942Y-144354388D01*
X210540710Y-144685389D01*
X210539818Y-143958661D01*
X211260306Y-143958661D01*
X212928200Y-145626555D01*
X214596094Y-143958661D01*
X214379972Y-143591902D01*
X213920095Y-143351222D01*
X213422102Y-143204885D01*
X212905129Y-143158512D01*
X212389041Y-143213887D01*
X211893674Y-143368881D01*
X211476428Y-143591902D01*
X211260306Y-143958661D01*
X210539818Y-143958661D01*
X210523087Y-130342451D01*
X210580393Y-130480801D01*
X210868762Y-130912375D01*
X211235785Y-131279398D01*
X211667359Y-131567767D01*
X212146899Y-131766399D01*
X212655975Y-131867660D01*
X213175025Y-131867660D01*
X213684101Y-131766399D01*
X214163641Y-131567767D01*
X214595215Y-131279398D01*
X214962238Y-130912375D01*
X215250607Y-130480801D01*
X215449239Y-130001261D01*
X215550500Y-129492185D01*
X215550500Y-128973135D01*
X215449239Y-128464059D01*
X215250607Y-127984519D01*
X214962238Y-127552945D01*
X214595215Y-127185922D01*
X214163641Y-126897553D01*
X213684101Y-126698921D01*
X213175025Y-126597660D01*
X212655975Y-126597660D01*
X212146899Y-126698921D01*
X211667359Y-126897553D01*
X211235785Y-127185922D01*
X210868762Y-127552945D01*
X210580393Y-127984519D01*
X210520367Y-128129434D01*
X210513637Y-122652114D01*
X217435200Y-122652114D01*
X217435200Y-122915086D01*
X217486504Y-123173005D01*
X217587139Y-123415959D01*
X217733238Y-123634613D01*
X217919187Y-123820562D01*
X218137841Y-123966661D01*
X218347730Y-124053600D01*
X218137841Y-124140539D01*
X217919187Y-124286638D01*
X217733238Y-124472587D01*
X217587139Y-124691241D01*
X217486504Y-124934195D01*
X217435200Y-125192114D01*
X217435200Y-125455086D01*
X217486504Y-125713005D01*
X217587139Y-125955959D01*
X217733238Y-126174613D01*
X217919187Y-126360562D01*
X218137841Y-126506661D01*
X218347730Y-126593600D01*
X218137841Y-126680539D01*
X217919187Y-126826638D01*
X217733238Y-127012587D01*
X217587139Y-127231241D01*
X217486504Y-127474195D01*
X217435200Y-127732114D01*
X217435200Y-127995086D01*
X217486504Y-128253005D01*
X217587139Y-128495959D01*
X217733238Y-128714613D01*
X217919187Y-128900562D01*
X218137841Y-129046661D01*
X218347730Y-129133600D01*
X218137841Y-129220539D01*
X217919187Y-129366638D01*
X217733238Y-129552587D01*
X217587139Y-129771241D01*
X217486504Y-130014195D01*
X217435200Y-130272114D01*
X217435200Y-130535086D01*
X217486504Y-130793005D01*
X217587139Y-131035959D01*
X217733238Y-131254613D01*
X217919187Y-131440562D01*
X218137841Y-131586661D01*
X218347730Y-131673600D01*
X218137841Y-131760539D01*
X217919187Y-131906638D01*
X217733238Y-132092587D01*
X217587139Y-132311241D01*
X217486504Y-132554195D01*
X217435200Y-132812114D01*
X217435200Y-133075086D01*
X217486504Y-133333005D01*
X217587139Y-133575959D01*
X217733238Y-133794613D01*
X217919187Y-133980562D01*
X218137841Y-134126661D01*
X218347730Y-134213600D01*
X218137841Y-134300539D01*
X217919187Y-134446638D01*
X217733238Y-134632587D01*
X217587139Y-134851241D01*
X217486504Y-135094195D01*
X217435200Y-135352114D01*
X217435200Y-135615086D01*
X217486504Y-135873005D01*
X217587139Y-136115959D01*
X217733238Y-136334613D01*
X217919187Y-136520562D01*
X218137841Y-136666661D01*
X218347730Y-136753600D01*
X218137841Y-136840539D01*
X217919187Y-136986638D01*
X217733238Y-137172587D01*
X217587139Y-137391241D01*
X217486504Y-137634195D01*
X217435200Y-137892114D01*
X217435200Y-138155086D01*
X217486504Y-138413005D01*
X217587139Y-138655959D01*
X217733238Y-138874613D01*
X217919187Y-139060562D01*
X218137841Y-139206661D01*
X218347730Y-139293600D01*
X218137841Y-139380539D01*
X217919187Y-139526638D01*
X217733238Y-139712587D01*
X217587139Y-139931241D01*
X217486504Y-140174195D01*
X217435200Y-140432114D01*
X217435200Y-140695086D01*
X217486504Y-140953005D01*
X217587139Y-141195959D01*
X217733238Y-141414613D01*
X217919187Y-141600562D01*
X218137841Y-141746661D01*
X218347730Y-141833600D01*
X218137841Y-141920539D01*
X217919187Y-142066638D01*
X217733238Y-142252587D01*
X217587139Y-142471241D01*
X217486504Y-142714195D01*
X217435200Y-142972114D01*
X217435200Y-143235086D01*
X217486504Y-143493005D01*
X217587139Y-143735959D01*
X217733238Y-143954613D01*
X217919187Y-144140562D01*
X218137841Y-144286661D01*
X218351644Y-144375221D01*
X218188834Y-144434665D01*
X218087997Y-144488563D01*
X218028536Y-144722331D01*
X218770200Y-145463995D01*
X219511864Y-144722331D01*
X219452403Y-144488563D01*
X219213958Y-144377666D01*
X219194373Y-144372894D01*
X219402559Y-144286661D01*
X219621213Y-144140562D01*
X219807162Y-143954613D01*
X219953261Y-143735959D01*
X220040200Y-143526070D01*
X220127139Y-143735959D01*
X220273238Y-143954613D01*
X220459187Y-144140562D01*
X220677841Y-144286661D01*
X220887730Y-144373600D01*
X220677841Y-144460539D01*
X220459187Y-144606638D01*
X220273238Y-144792587D01*
X220127139Y-145011241D01*
X220038579Y-145225044D01*
X219979135Y-145062234D01*
X219925237Y-144961397D01*
X219691469Y-144901936D01*
X218949805Y-145643600D01*
X219691469Y-146385264D01*
X219925237Y-146325803D01*
X220036134Y-146087358D01*
X220040906Y-146067773D01*
X220127139Y-146275959D01*
X220273238Y-146494613D01*
X220459187Y-146680562D01*
X220677841Y-146826661D01*
X220920795Y-146927296D01*
X221178714Y-146978600D01*
X221441686Y-146978600D01*
X221699605Y-146927296D01*
X221942559Y-146826661D01*
X222161213Y-146680562D01*
X222347162Y-146494613D01*
X222493261Y-146275959D01*
X222593896Y-146033005D01*
X222645200Y-145775086D01*
X222645200Y-145512114D01*
X222593896Y-145254195D01*
X222493261Y-145011241D01*
X222347162Y-144792587D01*
X222161213Y-144606638D01*
X221942559Y-144460539D01*
X221732670Y-144373600D01*
X221942559Y-144286661D01*
X222161213Y-144140562D01*
X222347162Y-143954613D01*
X222493261Y-143735959D01*
X222593896Y-143493005D01*
X222645200Y-143235086D01*
X222645200Y-142972114D01*
X222593896Y-142714195D01*
X222493261Y-142471241D01*
X222347162Y-142252587D01*
X222161213Y-142066638D01*
X221942559Y-141920539D01*
X221732670Y-141833600D01*
X221942559Y-141746661D01*
X222161213Y-141600562D01*
X222347162Y-141414613D01*
X222493261Y-141195959D01*
X222593896Y-140953005D01*
X222645200Y-140695086D01*
X222645200Y-140432114D01*
X222593896Y-140174195D01*
X222493261Y-139931241D01*
X222347162Y-139712587D01*
X222161213Y-139526638D01*
X221942559Y-139380539D01*
X221732670Y-139293600D01*
X221942559Y-139206661D01*
X222161213Y-139060562D01*
X222347162Y-138874613D01*
X222493261Y-138655959D01*
X222593896Y-138413005D01*
X222645200Y-138155086D01*
X222645200Y-137892114D01*
X222593896Y-137634195D01*
X222493261Y-137391241D01*
X222347162Y-137172587D01*
X222161213Y-136986638D01*
X221942559Y-136840539D01*
X221732670Y-136753600D01*
X221942559Y-136666661D01*
X222161213Y-136520562D01*
X222347162Y-136334613D01*
X222493261Y-136115959D01*
X222593896Y-135873005D01*
X222645200Y-135615086D01*
X222645200Y-135352114D01*
X222593896Y-135094195D01*
X222493261Y-134851241D01*
X222347162Y-134632587D01*
X222161213Y-134446638D01*
X221942559Y-134300539D01*
X221732670Y-134213600D01*
X221942559Y-134126661D01*
X222161213Y-133980562D01*
X222347162Y-133794613D01*
X222493261Y-133575959D01*
X222593896Y-133333005D01*
X222645200Y-133075086D01*
X222645200Y-132812114D01*
X222593896Y-132554195D01*
X222493261Y-132311241D01*
X222347162Y-132092587D01*
X222161213Y-131906638D01*
X221942559Y-131760539D01*
X221732670Y-131673600D01*
X221942559Y-131586661D01*
X222161213Y-131440562D01*
X222347162Y-131254613D01*
X222493261Y-131035959D01*
X222593896Y-130793005D01*
X222645200Y-130535086D01*
X222645200Y-130478073D01*
X242830810Y-130478073D01*
X242871075Y-130737944D01*
X242961265Y-130984966D01*
X243015163Y-131085803D01*
X243248931Y-131145264D01*
X243990595Y-130403600D01*
X243248931Y-129661936D01*
X243015163Y-129721397D01*
X242904266Y-129959842D01*
X242842017Y-130215340D01*
X242830810Y-130478073D01*
X222645200Y-130478073D01*
X222645200Y-130272114D01*
X222593896Y-130014195D01*
X222493261Y-129771241D01*
X222347162Y-129552587D01*
X222161213Y-129366638D01*
X221942559Y-129220539D01*
X221732670Y-129133600D01*
X221942559Y-129046661D01*
X222161213Y-128900562D01*
X222347162Y-128714613D01*
X222493261Y-128495959D01*
X222593896Y-128253005D01*
X222645200Y-127995086D01*
X222645200Y-127732114D01*
X222593896Y-127474195D01*
X222493261Y-127231241D01*
X222347162Y-127012587D01*
X222161213Y-126826638D01*
X221942559Y-126680539D01*
X221732670Y-126593600D01*
X221942559Y-126506661D01*
X222161213Y-126360562D01*
X222347162Y-126174613D01*
X222493261Y-125955959D01*
X222593896Y-125713005D01*
X222645200Y-125455086D01*
X222645200Y-125192114D01*
X222593896Y-124934195D01*
X222493261Y-124691241D01*
X222347162Y-124472587D01*
X222161213Y-124286638D01*
X221942559Y-124140539D01*
X221732670Y-124053600D01*
X221942559Y-123966661D01*
X222161213Y-123820562D01*
X222347162Y-123634613D01*
X222493261Y-123415959D01*
X222593896Y-123173005D01*
X222645200Y-122915086D01*
X222645200Y-122652114D01*
X242835200Y-122652114D01*
X242835200Y-122915086D01*
X242886504Y-123173005D01*
X242987139Y-123415959D01*
X243133238Y-123634613D01*
X243319187Y-123820562D01*
X243537841Y-123966661D01*
X243747730Y-124053600D01*
X243537841Y-124140539D01*
X243319187Y-124286638D01*
X243133238Y-124472587D01*
X242987139Y-124691241D01*
X242886504Y-124934195D01*
X242835200Y-125192114D01*
X242835200Y-125455086D01*
X242886504Y-125713005D01*
X242987139Y-125955959D01*
X243133238Y-126174613D01*
X243319187Y-126360562D01*
X243537841Y-126506661D01*
X243747730Y-126593600D01*
X243537841Y-126680539D01*
X243319187Y-126826638D01*
X243133238Y-127012587D01*
X242987139Y-127231241D01*
X242886504Y-127474195D01*
X242835200Y-127732114D01*
X242835200Y-127995086D01*
X242886504Y-128253005D01*
X242987139Y-128495959D01*
X243133238Y-128714613D01*
X243319187Y-128900562D01*
X243537841Y-129046661D01*
X243751644Y-129135221D01*
X243588834Y-129194665D01*
X243487997Y-129248563D01*
X243428536Y-129482331D01*
X244170200Y-130223995D01*
X244911864Y-129482331D01*
X244852403Y-129248563D01*
X244613958Y-129137666D01*
X244594373Y-129132894D01*
X244802559Y-129046661D01*
X245021213Y-128900562D01*
X245207162Y-128714613D01*
X245353261Y-128495959D01*
X245440200Y-128286070D01*
X245527139Y-128495959D01*
X245673238Y-128714613D01*
X245859187Y-128900562D01*
X246077841Y-129046661D01*
X246287730Y-129133600D01*
X246077841Y-129220539D01*
X245859187Y-129366638D01*
X245673238Y-129552587D01*
X245527139Y-129771241D01*
X245438579Y-129985044D01*
X245379135Y-129822234D01*
X245325237Y-129721397D01*
X245091469Y-129661936D01*
X244349805Y-130403600D01*
X245091469Y-131145264D01*
X245325237Y-131085803D01*
X245436134Y-130847358D01*
X245440906Y-130827773D01*
X245527139Y-131035959D01*
X245673238Y-131254613D01*
X245859187Y-131440562D01*
X246077841Y-131586661D01*
X246287730Y-131673600D01*
X246077841Y-131760539D01*
X245859187Y-131906638D01*
X245673238Y-132092587D01*
X245527139Y-132311241D01*
X245440200Y-132521130D01*
X245353261Y-132311241D01*
X245207162Y-132092587D01*
X245021213Y-131906638D01*
X244802559Y-131760539D01*
X244588756Y-131671979D01*
X244751566Y-131612535D01*
X244852403Y-131558637D01*
X244911864Y-131324869D01*
X244170200Y-130583205D01*
X243428536Y-131324869D01*
X243487997Y-131558637D01*
X243726442Y-131669534D01*
X243746027Y-131674306D01*
X243537841Y-131760539D01*
X243319187Y-131906638D01*
X243133238Y-132092587D01*
X242987139Y-132311241D01*
X242886504Y-132554195D01*
X242835200Y-132812114D01*
X242835200Y-133075086D01*
X242886504Y-133333005D01*
X242987139Y-133575959D01*
X243133238Y-133794613D01*
X243319187Y-133980562D01*
X243537841Y-134126661D01*
X243747730Y-134213600D01*
X243537841Y-134300539D01*
X243319187Y-134446638D01*
X243133238Y-134632587D01*
X242987139Y-134851241D01*
X242886504Y-135094195D01*
X242835200Y-135352114D01*
X242835200Y-135615086D01*
X242886504Y-135873005D01*
X242987139Y-136115959D01*
X243133238Y-136334613D01*
X243319187Y-136520562D01*
X243537841Y-136666661D01*
X243747730Y-136753600D01*
X243537841Y-136840539D01*
X243319187Y-136986638D01*
X243133238Y-137172587D01*
X242987139Y-137391241D01*
X242886504Y-137634195D01*
X242835200Y-137892114D01*
X242835200Y-138155086D01*
X242886504Y-138413005D01*
X242987139Y-138655959D01*
X243133238Y-138874613D01*
X243319187Y-139060562D01*
X243537841Y-139206661D01*
X243747730Y-139293600D01*
X243537841Y-139380539D01*
X243319187Y-139526638D01*
X243133238Y-139712587D01*
X242987139Y-139931241D01*
X242886504Y-140174195D01*
X242835200Y-140432114D01*
X242835200Y-140695086D01*
X242886504Y-140953005D01*
X242987139Y-141195959D01*
X243133238Y-141414613D01*
X243319187Y-141600562D01*
X243537841Y-141746661D01*
X243747730Y-141833600D01*
X243537841Y-141920539D01*
X243319187Y-142066638D01*
X243133238Y-142252587D01*
X242987139Y-142471241D01*
X242886504Y-142714195D01*
X242835200Y-142972114D01*
X242835200Y-143235086D01*
X242886504Y-143493005D01*
X242987139Y-143735959D01*
X243133238Y-143954613D01*
X243319187Y-144140562D01*
X243537841Y-144286661D01*
X243747730Y-144373600D01*
X243537841Y-144460539D01*
X243319187Y-144606638D01*
X243133238Y-144792587D01*
X242987139Y-145011241D01*
X242886504Y-145254195D01*
X242835200Y-145512114D01*
X242835200Y-145775086D01*
X242886504Y-146033005D01*
X242987139Y-146275959D01*
X243133238Y-146494613D01*
X243319187Y-146680562D01*
X243537841Y-146826661D01*
X243780795Y-146927296D01*
X244038714Y-146978600D01*
X244301686Y-146978600D01*
X244559605Y-146927296D01*
X244802559Y-146826661D01*
X245021213Y-146680562D01*
X245136906Y-146564869D01*
X245968536Y-146564869D01*
X246027997Y-146798637D01*
X246266442Y-146909534D01*
X246521940Y-146971783D01*
X246784673Y-146982990D01*
X247044544Y-146942725D01*
X247291566Y-146852535D01*
X247392403Y-146798637D01*
X247451864Y-146564869D01*
X246710200Y-145823205D01*
X245968536Y-146564869D01*
X245136906Y-146564869D01*
X245207162Y-146494613D01*
X245353261Y-146275959D01*
X245441821Y-146062156D01*
X245501265Y-146224966D01*
X245555163Y-146325803D01*
X245788931Y-146385264D01*
X246530595Y-145643600D01*
X246889805Y-145643600D01*
X247631469Y-146385264D01*
X247865237Y-146325803D01*
X247976134Y-146087358D01*
X248038383Y-145831860D01*
X248038928Y-145819071D01*
X249523552Y-145819071D01*
X249578927Y-146335159D01*
X249733921Y-146830526D01*
X249956942Y-147247772D01*
X250323701Y-147463894D01*
X251991595Y-145796000D01*
X250323701Y-144128106D01*
X249956942Y-144344228D01*
X249716262Y-144804105D01*
X249569925Y-145302098D01*
X249523552Y-145819071D01*
X248038928Y-145819071D01*
X248049590Y-145569127D01*
X248009325Y-145309256D01*
X247919135Y-145062234D01*
X247865237Y-144961397D01*
X247631469Y-144901936D01*
X246889805Y-145643600D01*
X246530595Y-145643600D01*
X245788931Y-144901936D01*
X245555163Y-144961397D01*
X245444266Y-145199842D01*
X245439494Y-145219427D01*
X245353261Y-145011241D01*
X245207162Y-144792587D01*
X245021213Y-144606638D01*
X244802559Y-144460539D01*
X244592670Y-144373600D01*
X244802559Y-144286661D01*
X245021213Y-144140562D01*
X245207162Y-143954613D01*
X245353261Y-143735959D01*
X245440200Y-143526070D01*
X245527139Y-143735959D01*
X245673238Y-143954613D01*
X245859187Y-144140562D01*
X246077841Y-144286661D01*
X246291644Y-144375221D01*
X246128834Y-144434665D01*
X246027997Y-144488563D01*
X245968536Y-144722331D01*
X246710200Y-145463995D01*
X247451864Y-144722331D01*
X247392403Y-144488563D01*
X247153958Y-144377666D01*
X247134373Y-144372894D01*
X247342559Y-144286661D01*
X247561213Y-144140562D01*
X247747162Y-143954613D01*
X247751245Y-143948501D01*
X250503306Y-143948501D01*
X252171200Y-145616395D01*
X253839094Y-143948501D01*
X253622972Y-143581742D01*
X253163095Y-143341062D01*
X252665102Y-143194725D01*
X252148129Y-143148352D01*
X251632041Y-143203727D01*
X251136674Y-143358721D01*
X250719428Y-143581742D01*
X250503306Y-143948501D01*
X247751245Y-143948501D01*
X247893261Y-143735959D01*
X247993896Y-143493005D01*
X248045200Y-143235086D01*
X248045200Y-142972114D01*
X247993896Y-142714195D01*
X247893261Y-142471241D01*
X247747162Y-142252587D01*
X247561213Y-142066638D01*
X247342559Y-141920539D01*
X247132670Y-141833600D01*
X247342559Y-141746661D01*
X247561213Y-141600562D01*
X247747162Y-141414613D01*
X247893261Y-141195959D01*
X247993896Y-140953005D01*
X248045200Y-140695086D01*
X248045200Y-140432114D01*
X247993896Y-140174195D01*
X247893261Y-139931241D01*
X247747162Y-139712587D01*
X247561213Y-139526638D01*
X247342559Y-139380539D01*
X247132670Y-139293600D01*
X247342559Y-139206661D01*
X247561213Y-139060562D01*
X247747162Y-138874613D01*
X247893261Y-138655959D01*
X247993896Y-138413005D01*
X248045200Y-138155086D01*
X248045200Y-137892114D01*
X247993896Y-137634195D01*
X247893261Y-137391241D01*
X247747162Y-137172587D01*
X247561213Y-136986638D01*
X247342559Y-136840539D01*
X247132670Y-136753600D01*
X247342559Y-136666661D01*
X247561213Y-136520562D01*
X247747162Y-136334613D01*
X247893261Y-136115959D01*
X247993896Y-135873005D01*
X248045200Y-135615086D01*
X248045200Y-135352114D01*
X247993896Y-135094195D01*
X247893261Y-134851241D01*
X247747162Y-134632587D01*
X247561213Y-134446638D01*
X247342559Y-134300539D01*
X247132670Y-134213600D01*
X247342559Y-134126661D01*
X247561213Y-133980562D01*
X247747162Y-133794613D01*
X247893261Y-133575959D01*
X247993896Y-133333005D01*
X248045200Y-133075086D01*
X248045200Y-132812114D01*
X247993896Y-132554195D01*
X247893261Y-132311241D01*
X247747162Y-132092587D01*
X247561213Y-131906638D01*
X247342559Y-131760539D01*
X247132670Y-131673600D01*
X247342559Y-131586661D01*
X247561213Y-131440562D01*
X247747162Y-131254613D01*
X247893261Y-131035959D01*
X247993896Y-130793005D01*
X248045200Y-130535086D01*
X248045200Y-130272114D01*
X247993896Y-130014195D01*
X247893261Y-129771241D01*
X247747162Y-129552587D01*
X247561213Y-129366638D01*
X247342559Y-129220539D01*
X247132670Y-129133600D01*
X247342559Y-129046661D01*
X247561213Y-128900562D01*
X247747162Y-128714613D01*
X247893261Y-128495959D01*
X247993896Y-128253005D01*
X248045200Y-127995086D01*
X248045200Y-127732114D01*
X247993896Y-127474195D01*
X247893261Y-127231241D01*
X247747162Y-127012587D01*
X247561213Y-126826638D01*
X247342559Y-126680539D01*
X247132670Y-126593600D01*
X247342559Y-126506661D01*
X247561213Y-126360562D01*
X247747162Y-126174613D01*
X247893261Y-125955959D01*
X247993896Y-125713005D01*
X248045200Y-125455086D01*
X248045200Y-125192114D01*
X247993896Y-124934195D01*
X247893261Y-124691241D01*
X247747162Y-124472587D01*
X247561213Y-124286638D01*
X247342559Y-124140539D01*
X247132670Y-124053600D01*
X247342559Y-123966661D01*
X247561213Y-123820562D01*
X247747162Y-123634613D01*
X247893261Y-123415959D01*
X247993896Y-123173005D01*
X248045200Y-122915086D01*
X248045200Y-122652114D01*
X247993896Y-122394195D01*
X247893261Y-122151241D01*
X247747162Y-121932587D01*
X247561213Y-121746638D01*
X247342559Y-121600539D01*
X247099605Y-121499904D01*
X246841686Y-121448600D01*
X246578714Y-121448600D01*
X246320795Y-121499904D01*
X246077841Y-121600539D01*
X245859187Y-121746638D01*
X245673238Y-121932587D01*
X245527139Y-122151241D01*
X245440200Y-122361130D01*
X245353261Y-122151241D01*
X245207162Y-121932587D01*
X245021213Y-121746638D01*
X244802559Y-121600539D01*
X244559605Y-121499904D01*
X244301686Y-121448600D01*
X244038714Y-121448600D01*
X243780795Y-121499904D01*
X243537841Y-121600539D01*
X243319187Y-121746638D01*
X243133238Y-121932587D01*
X242987139Y-122151241D01*
X242886504Y-122394195D01*
X242835200Y-122652114D01*
X222645200Y-122652114D01*
X222593896Y-122394195D01*
X222493261Y-122151241D01*
X222347162Y-121932587D01*
X222161213Y-121746638D01*
X221942559Y-121600539D01*
X221699605Y-121499904D01*
X221441686Y-121448600D01*
X221178714Y-121448600D01*
X220920795Y-121499904D01*
X220677841Y-121600539D01*
X220459187Y-121746638D01*
X220273238Y-121932587D01*
X220127139Y-122151241D01*
X220040200Y-122361130D01*
X219953261Y-122151241D01*
X219807162Y-121932587D01*
X219621213Y-121746638D01*
X219402559Y-121600539D01*
X219159605Y-121499904D01*
X218901686Y-121448600D01*
X218638714Y-121448600D01*
X218380795Y-121499904D01*
X218137841Y-121600539D01*
X217919187Y-121746638D01*
X217733238Y-121932587D01*
X217587139Y-122151241D01*
X217486504Y-122394195D01*
X217435200Y-122652114D01*
X210513637Y-122652114D01*
X210497466Y-109491245D01*
X210536264Y-109026481D01*
X210652327Y-108620967D01*
X210844944Y-108245721D01*
X211106781Y-107915033D01*
X211427860Y-107641501D01*
X211808070Y-107428765D01*
X211942849Y-107378466D01*
X212435961Y-107378325D01*
X212389061Y-107397752D01*
X211834648Y-107768198D01*
X211363158Y-108239688D01*
X210992712Y-108794101D01*
X210737543Y-109410132D01*
X210607460Y-110064107D01*
X210607460Y-110730893D01*
X210737543Y-111384868D01*
X210992712Y-112000899D01*
X211363158Y-112555312D01*
X211834648Y-113026802D01*
X212389061Y-113397248D01*
X213005092Y-113652417D01*
X213659067Y-113782500D01*
X214325853Y-113782500D01*
X214979828Y-113652417D01*
X215595859Y-113397248D01*
X216150272Y-113026802D01*
X216621762Y-112555312D01*
X216992208Y-112000899D01*
X217247377Y-111384868D01*
X217377460Y-110730893D01*
X217377460Y-110426500D01*
X219398888Y-110426500D01*
X219421285Y-110653900D01*
X219487615Y-110872560D01*
X219588605Y-111061500D01*
X219487615Y-111250440D01*
X219421285Y-111469100D01*
X219398888Y-111696500D01*
X219421285Y-111923900D01*
X219487615Y-112142560D01*
X219595329Y-112344079D01*
X219740288Y-112520712D01*
X219916921Y-112665671D01*
X220118440Y-112773385D01*
X220337100Y-112839715D01*
X220507521Y-112856500D01*
X221071479Y-112856500D01*
X221241900Y-112839715D01*
X221460560Y-112773385D01*
X221662079Y-112665671D01*
X221838712Y-112520712D01*
X221983671Y-112344079D01*
X222091385Y-112142560D01*
X222157715Y-111923900D01*
X222180112Y-111696500D01*
X222157715Y-111469100D01*
X222091385Y-111250440D01*
X221990395Y-111061500D01*
X222091385Y-110872560D01*
X222157715Y-110653900D01*
X222180112Y-110426500D01*
X222157715Y-110199100D01*
X222094407Y-109990402D01*
X222129002Y-109925680D01*
X222165312Y-109805982D01*
X222177572Y-109681500D01*
X222174500Y-109442250D01*
X222015750Y-109283500D01*
X221242609Y-109283500D01*
X221241900Y-109283285D01*
X221071479Y-109266500D01*
X220507521Y-109266500D01*
X220337100Y-109283285D01*
X220336391Y-109283500D01*
X219563250Y-109283500D01*
X219404500Y-109442250D01*
X219401428Y-109681500D01*
X219413688Y-109805982D01*
X219449998Y-109925680D01*
X219484593Y-109990402D01*
X219421285Y-110199100D01*
X219398888Y-110426500D01*
X217377460Y-110426500D01*
X217377460Y-110064107D01*
X217247377Y-109410132D01*
X216992208Y-108794101D01*
X216883562Y-108631500D01*
X219401428Y-108631500D01*
X219404500Y-108870750D01*
X219563250Y-109029500D01*
X220662500Y-109029500D01*
X220662500Y-108155250D01*
X220916500Y-108155250D01*
X220916500Y-109029500D01*
X222015750Y-109029500D01*
X222174500Y-108870750D01*
X222177572Y-108631500D01*
X222165312Y-108507018D01*
X222129002Y-108387320D01*
X222070037Y-108277006D01*
X221990685Y-108180315D01*
X221893994Y-108100963D01*
X221783680Y-108041998D01*
X221663982Y-108005688D01*
X221539500Y-107993428D01*
X221075250Y-107996500D01*
X220916500Y-108155250D01*
X220662500Y-108155250D01*
X220503750Y-107996500D01*
X220039500Y-107993428D01*
X219915018Y-108005688D01*
X219795320Y-108041998D01*
X219685006Y-108100963D01*
X219588315Y-108180315D01*
X219508963Y-108277006D01*
X219449998Y-108387320D01*
X219413688Y-108507018D01*
X219401428Y-108631500D01*
X216883562Y-108631500D01*
X216621762Y-108239688D01*
X216150272Y-107768198D01*
X215595859Y-107397752D01*
X215546811Y-107377436D01*
X249738762Y-107367655D01*
X249666101Y-107397752D01*
G37*
X249666101Y-107397752D02*
X249111688Y-107768198D01*
X248640198Y-108239688D01*
X248269752Y-108794101D01*
X248014583Y-109410132D01*
X247884500Y-110064107D01*
X247884500Y-110730893D01*
X248014583Y-111384868D01*
X248269752Y-112000899D01*
X248640198Y-112555312D01*
X249111688Y-113026802D01*
X249666101Y-113397248D01*
X250282132Y-113652417D01*
X250936107Y-113782500D01*
X251602893Y-113782500D01*
X252256868Y-113652417D01*
X252872899Y-113397248D01*
X253427312Y-113026802D01*
X253898802Y-112555312D01*
X254269248Y-112000899D01*
X254524417Y-111384868D01*
X254654500Y-110730893D01*
X254654500Y-110064107D01*
X254524417Y-109410132D01*
X254269248Y-108794101D01*
X253898802Y-108239688D01*
X253427312Y-107768198D01*
X252872899Y-107397752D01*
X252841400Y-107384705D01*
X253063891Y-107401461D01*
X253470527Y-107514283D01*
X253847504Y-107703939D01*
X254180465Y-107963206D01*
X254456725Y-108282206D01*
X254673732Y-108662766D01*
X254711015Y-108758299D01*
X254683606Y-128465897D01*
X254506307Y-128037859D01*
X254217938Y-127606285D01*
X253850915Y-127239262D01*
X253419341Y-126950893D01*
X252939801Y-126752261D01*
X252430725Y-126651000D01*
X251911675Y-126651000D01*
X251402599Y-126752261D01*
X250923059Y-126950893D01*
X250491485Y-127239262D01*
X250124462Y-127606285D01*
X249836093Y-128037859D01*
X249637461Y-128517399D01*
X249536200Y-129026475D01*
X249536200Y-129545525D01*
X249637461Y-130054601D01*
X249836093Y-130534141D01*
X250124462Y-130965715D01*
X250491485Y-131332738D01*
X250923059Y-131621107D01*
X251402599Y-131819739D01*
X251911675Y-131921000D01*
X252430725Y-131921000D01*
X252939801Y-131819739D01*
X253419341Y-131621107D01*
X253850915Y-131332738D01*
X254217938Y-130965715D01*
X254506307Y-130534141D01*
X254681317Y-130111629D01*
X254660711Y-144928409D01*
X254608479Y-144761474D01*
X254385458Y-144344228D01*
X254018699Y-144128106D01*
X252350805Y-145796000D01*
X254018699Y-147463894D01*
X254385458Y-147247772D01*
X254626138Y-146787895D01*
X254658277Y-146678525D01*
X254650060Y-152586785D01*
X254524417Y-151955132D01*
X254269248Y-151339101D01*
X253898802Y-150784688D01*
X253427312Y-150313198D01*
X252872899Y-149942752D01*
X252256868Y-149687583D01*
X251602893Y-149557500D01*
X250936107Y-149557500D01*
X250282132Y-149687583D01*
X249666101Y-149942752D01*
X249111688Y-150313198D01*
X248640198Y-150784688D01*
X248269752Y-151339101D01*
X248014583Y-151955132D01*
X247884500Y-152609107D01*
X247884500Y-153275893D01*
X248014583Y-153929868D01*
X248269752Y-154545899D01*
X248640198Y-155100312D01*
X249111688Y-155571802D01*
X249666101Y-155942248D01*
X250281850Y-156197300D01*
X214980110Y-156197300D01*
X215595859Y-155942248D01*
X216150272Y-155571802D01*
X216621762Y-155100312D01*
X216992208Y-154545899D01*
X217247377Y-153929868D01*
X217375251Y-153287000D01*
X225725357Y-153287000D01*
X225725357Y-149467000D01*
X216869643Y-149467000D01*
X216869643Y-151155669D01*
X216621762Y-150784688D01*
X216150272Y-150313198D01*
X215595859Y-149942752D01*
X214979828Y-149687583D01*
X214325853Y-149557500D01*
X213659067Y-149557500D01*
X213005092Y-149687583D01*
X212389061Y-149942752D01*
X211834648Y-150313198D01*
X211363158Y-150784688D01*
X210992712Y-151339101D01*
X210737543Y-151955132D01*
X210607460Y-152609107D01*
X210607460Y-153275893D01*
X210737543Y-153929868D01*
X210992712Y-154545899D01*
X211363158Y-155100312D01*
X211834648Y-155571802D01*
X212389061Y-155942248D01*
X213004810Y-156197300D01*
X212658216Y-156197300D01*
X212198221Y-156162231D01*
X211791229Y-156048905D01*
X211414002Y-155858687D01*
X211080903Y-155598818D01*
X210804625Y-155279202D01*
X210587452Y-154897533D01*
X210553150Y-154809850D01*
X210544358Y-147653659D01*
X211260306Y-147653659D01*
X211476428Y-148020418D01*
X211936305Y-148261098D01*
X212434298Y-148407435D01*
X212951271Y-148453808D01*
X213467359Y-148398433D01*
X213962726Y-148243439D01*
X214379972Y-148020418D01*
X214596094Y-147653659D01*
X214585934Y-147643499D01*
X250503306Y-147643499D01*
X250719428Y-148010258D01*
X251179305Y-148250938D01*
X251677298Y-148397275D01*
X252194271Y-148443648D01*
X252710359Y-148388273D01*
X253205726Y-148233279D01*
X253622972Y-148010258D01*
X253839094Y-147643499D01*
X252171200Y-145975605D01*
X250503306Y-147643499D01*
X214585934Y-147643499D01*
X212928200Y-145985765D01*
X211260306Y-147653659D01*
X210544358Y-147653659D01*
X210543479Y-146939016D01*
X210713942Y-147257932D01*
X211080701Y-147474054D01*
X212748595Y-145806160D01*
X213107805Y-145806160D01*
X214775699Y-147474054D01*
X215142458Y-147257932D01*
X215383138Y-146798055D01*
X215451660Y-146564869D01*
X218028536Y-146564869D01*
X218087997Y-146798637D01*
X218326442Y-146909534D01*
X218581940Y-146971783D01*
X218844673Y-146982990D01*
X219104544Y-146942725D01*
X219351566Y-146852535D01*
X219452403Y-146798637D01*
X219511864Y-146564869D01*
X218770200Y-145823205D01*
X218028536Y-146564869D01*
X215451660Y-146564869D01*
X215529475Y-146300062D01*
X215575848Y-145783089D01*
X215568872Y-145718073D01*
X217430810Y-145718073D01*
X217471075Y-145977944D01*
X217561265Y-146224966D01*
X217615163Y-146325803D01*
X217848931Y-146385264D01*
X218590595Y-145643600D01*
X217848931Y-144901936D01*
X217615163Y-144961397D01*
X217504266Y-145199842D01*
X217442017Y-145455340D01*
X217430810Y-145718073D01*
X215568872Y-145718073D01*
X215520473Y-145267001D01*
X215365479Y-144771634D01*
X215142458Y-144354388D01*
X214775699Y-144138266D01*
X213107805Y-145806160D01*
X212748595Y-145806160D01*
X211080701Y-144138266D01*
X210713942Y-144354388D01*
X210540710Y-144685389D01*
X210539818Y-143958661D01*
X211260306Y-143958661D01*
X212928200Y-145626555D01*
X214596094Y-143958661D01*
X214379972Y-143591902D01*
X213920095Y-143351222D01*
X213422102Y-143204885D01*
X212905129Y-143158512D01*
X212389041Y-143213887D01*
X211893674Y-143368881D01*
X211476428Y-143591902D01*
X211260306Y-143958661D01*
X210539818Y-143958661D01*
X210523087Y-130342451D01*
X210580393Y-130480801D01*
X210868762Y-130912375D01*
X211235785Y-131279398D01*
X211667359Y-131567767D01*
X212146899Y-131766399D01*
X212655975Y-131867660D01*
X213175025Y-131867660D01*
X213684101Y-131766399D01*
X214163641Y-131567767D01*
X214595215Y-131279398D01*
X214962238Y-130912375D01*
X215250607Y-130480801D01*
X215449239Y-130001261D01*
X215550500Y-129492185D01*
X215550500Y-128973135D01*
X215449239Y-128464059D01*
X215250607Y-127984519D01*
X214962238Y-127552945D01*
X214595215Y-127185922D01*
X214163641Y-126897553D01*
X213684101Y-126698921D01*
X213175025Y-126597660D01*
X212655975Y-126597660D01*
X212146899Y-126698921D01*
X211667359Y-126897553D01*
X211235785Y-127185922D01*
X210868762Y-127552945D01*
X210580393Y-127984519D01*
X210520367Y-128129434D01*
X210513637Y-122652114D01*
X217435200Y-122652114D01*
X217435200Y-122915086D01*
X217486504Y-123173005D01*
X217587139Y-123415959D01*
X217733238Y-123634613D01*
X217919187Y-123820562D01*
X218137841Y-123966661D01*
X218347730Y-124053600D01*
X218137841Y-124140539D01*
X217919187Y-124286638D01*
X217733238Y-124472587D01*
X217587139Y-124691241D01*
X217486504Y-124934195D01*
X217435200Y-125192114D01*
X217435200Y-125455086D01*
X217486504Y-125713005D01*
X217587139Y-125955959D01*
X217733238Y-126174613D01*
X217919187Y-126360562D01*
X218137841Y-126506661D01*
X218347730Y-126593600D01*
X218137841Y-126680539D01*
X217919187Y-126826638D01*
X217733238Y-127012587D01*
X217587139Y-127231241D01*
X217486504Y-127474195D01*
X217435200Y-127732114D01*
X217435200Y-127995086D01*
X217486504Y-128253005D01*
X217587139Y-128495959D01*
X217733238Y-128714613D01*
X217919187Y-128900562D01*
X218137841Y-129046661D01*
X218347730Y-129133600D01*
X218137841Y-129220539D01*
X217919187Y-129366638D01*
X217733238Y-129552587D01*
X217587139Y-129771241D01*
X217486504Y-130014195D01*
X217435200Y-130272114D01*
X217435200Y-130535086D01*
X217486504Y-130793005D01*
X217587139Y-131035959D01*
X217733238Y-131254613D01*
X217919187Y-131440562D01*
X218137841Y-131586661D01*
X218347730Y-131673600D01*
X218137841Y-131760539D01*
X217919187Y-131906638D01*
X217733238Y-132092587D01*
X217587139Y-132311241D01*
X217486504Y-132554195D01*
X217435200Y-132812114D01*
X217435200Y-133075086D01*
X217486504Y-133333005D01*
X217587139Y-133575959D01*
X217733238Y-133794613D01*
X217919187Y-133980562D01*
X218137841Y-134126661D01*
X218347730Y-134213600D01*
X218137841Y-134300539D01*
X217919187Y-134446638D01*
X217733238Y-134632587D01*
X217587139Y-134851241D01*
X217486504Y-135094195D01*
X217435200Y-135352114D01*
X217435200Y-135615086D01*
X217486504Y-135873005D01*
X217587139Y-136115959D01*
X217733238Y-136334613D01*
X217919187Y-136520562D01*
X218137841Y-136666661D01*
X218347730Y-136753600D01*
X218137841Y-136840539D01*
X217919187Y-136986638D01*
X217733238Y-137172587D01*
X217587139Y-137391241D01*
X217486504Y-137634195D01*
X217435200Y-137892114D01*
X217435200Y-138155086D01*
X217486504Y-138413005D01*
X217587139Y-138655959D01*
X217733238Y-138874613D01*
X217919187Y-139060562D01*
X218137841Y-139206661D01*
X218347730Y-139293600D01*
X218137841Y-139380539D01*
X217919187Y-139526638D01*
X217733238Y-139712587D01*
X217587139Y-139931241D01*
X217486504Y-140174195D01*
X217435200Y-140432114D01*
X217435200Y-140695086D01*
X217486504Y-140953005D01*
X217587139Y-141195959D01*
X217733238Y-141414613D01*
X217919187Y-141600562D01*
X218137841Y-141746661D01*
X218347730Y-141833600D01*
X218137841Y-141920539D01*
X217919187Y-142066638D01*
X217733238Y-142252587D01*
X217587139Y-142471241D01*
X217486504Y-142714195D01*
X217435200Y-142972114D01*
X217435200Y-143235086D01*
X217486504Y-143493005D01*
X217587139Y-143735959D01*
X217733238Y-143954613D01*
X217919187Y-144140562D01*
X218137841Y-144286661D01*
X218351644Y-144375221D01*
X218188834Y-144434665D01*
X218087997Y-144488563D01*
X218028536Y-144722331D01*
X218770200Y-145463995D01*
X219511864Y-144722331D01*
X219452403Y-144488563D01*
X219213958Y-144377666D01*
X219194373Y-144372894D01*
X219402559Y-144286661D01*
X219621213Y-144140562D01*
X219807162Y-143954613D01*
X219953261Y-143735959D01*
X220040200Y-143526070D01*
X220127139Y-143735959D01*
X220273238Y-143954613D01*
X220459187Y-144140562D01*
X220677841Y-144286661D01*
X220887730Y-144373600D01*
X220677841Y-144460539D01*
X220459187Y-144606638D01*
X220273238Y-144792587D01*
X220127139Y-145011241D01*
X220038579Y-145225044D01*
X219979135Y-145062234D01*
X219925237Y-144961397D01*
X219691469Y-144901936D01*
X218949805Y-145643600D01*
X219691469Y-146385264D01*
X219925237Y-146325803D01*
X220036134Y-146087358D01*
X220040906Y-146067773D01*
X220127139Y-146275959D01*
X220273238Y-146494613D01*
X220459187Y-146680562D01*
X220677841Y-146826661D01*
X220920795Y-146927296D01*
X221178714Y-146978600D01*
X221441686Y-146978600D01*
X221699605Y-146927296D01*
X221942559Y-146826661D01*
X222161213Y-146680562D01*
X222347162Y-146494613D01*
X222493261Y-146275959D01*
X222593896Y-146033005D01*
X222645200Y-145775086D01*
X222645200Y-145512114D01*
X222593896Y-145254195D01*
X222493261Y-145011241D01*
X222347162Y-144792587D01*
X222161213Y-144606638D01*
X221942559Y-144460539D01*
X221732670Y-144373600D01*
X221942559Y-144286661D01*
X222161213Y-144140562D01*
X222347162Y-143954613D01*
X222493261Y-143735959D01*
X222593896Y-143493005D01*
X222645200Y-143235086D01*
X222645200Y-142972114D01*
X222593896Y-142714195D01*
X222493261Y-142471241D01*
X222347162Y-142252587D01*
X222161213Y-142066638D01*
X221942559Y-141920539D01*
X221732670Y-141833600D01*
X221942559Y-141746661D01*
X222161213Y-141600562D01*
X222347162Y-141414613D01*
X222493261Y-141195959D01*
X222593896Y-140953005D01*
X222645200Y-140695086D01*
X222645200Y-140432114D01*
X222593896Y-140174195D01*
X222493261Y-139931241D01*
X222347162Y-139712587D01*
X222161213Y-139526638D01*
X221942559Y-139380539D01*
X221732670Y-139293600D01*
X221942559Y-139206661D01*
X222161213Y-139060562D01*
X222347162Y-138874613D01*
X222493261Y-138655959D01*
X222593896Y-138413005D01*
X222645200Y-138155086D01*
X222645200Y-137892114D01*
X222593896Y-137634195D01*
X222493261Y-137391241D01*
X222347162Y-137172587D01*
X222161213Y-136986638D01*
X221942559Y-136840539D01*
X221732670Y-136753600D01*
X221942559Y-136666661D01*
X222161213Y-136520562D01*
X222347162Y-136334613D01*
X222493261Y-136115959D01*
X222593896Y-135873005D01*
X222645200Y-135615086D01*
X222645200Y-135352114D01*
X222593896Y-135094195D01*
X222493261Y-134851241D01*
X222347162Y-134632587D01*
X222161213Y-134446638D01*
X221942559Y-134300539D01*
X221732670Y-134213600D01*
X221942559Y-134126661D01*
X222161213Y-133980562D01*
X222347162Y-133794613D01*
X222493261Y-133575959D01*
X222593896Y-133333005D01*
X222645200Y-133075086D01*
X222645200Y-132812114D01*
X222593896Y-132554195D01*
X222493261Y-132311241D01*
X222347162Y-132092587D01*
X222161213Y-131906638D01*
X221942559Y-131760539D01*
X221732670Y-131673600D01*
X221942559Y-131586661D01*
X222161213Y-131440562D01*
X222347162Y-131254613D01*
X222493261Y-131035959D01*
X222593896Y-130793005D01*
X222645200Y-130535086D01*
X222645200Y-130478073D01*
X242830810Y-130478073D01*
X242871075Y-130737944D01*
X242961265Y-130984966D01*
X243015163Y-131085803D01*
X243248931Y-131145264D01*
X243990595Y-130403600D01*
X243248931Y-129661936D01*
X243015163Y-129721397D01*
X242904266Y-129959842D01*
X242842017Y-130215340D01*
X242830810Y-130478073D01*
X222645200Y-130478073D01*
X222645200Y-130272114D01*
X222593896Y-130014195D01*
X222493261Y-129771241D01*
X222347162Y-129552587D01*
X222161213Y-129366638D01*
X221942559Y-129220539D01*
X221732670Y-129133600D01*
X221942559Y-129046661D01*
X222161213Y-128900562D01*
X222347162Y-128714613D01*
X222493261Y-128495959D01*
X222593896Y-128253005D01*
X222645200Y-127995086D01*
X222645200Y-127732114D01*
X222593896Y-127474195D01*
X222493261Y-127231241D01*
X222347162Y-127012587D01*
X222161213Y-126826638D01*
X221942559Y-126680539D01*
X221732670Y-126593600D01*
X221942559Y-126506661D01*
X222161213Y-126360562D01*
X222347162Y-126174613D01*
X222493261Y-125955959D01*
X222593896Y-125713005D01*
X222645200Y-125455086D01*
X222645200Y-125192114D01*
X222593896Y-124934195D01*
X222493261Y-124691241D01*
X222347162Y-124472587D01*
X222161213Y-124286638D01*
X221942559Y-124140539D01*
X221732670Y-124053600D01*
X221942559Y-123966661D01*
X222161213Y-123820562D01*
X222347162Y-123634613D01*
X222493261Y-123415959D01*
X222593896Y-123173005D01*
X222645200Y-122915086D01*
X222645200Y-122652114D01*
X242835200Y-122652114D01*
X242835200Y-122915086D01*
X242886504Y-123173005D01*
X242987139Y-123415959D01*
X243133238Y-123634613D01*
X243319187Y-123820562D01*
X243537841Y-123966661D01*
X243747730Y-124053600D01*
X243537841Y-124140539D01*
X243319187Y-124286638D01*
X243133238Y-124472587D01*
X242987139Y-124691241D01*
X242886504Y-124934195D01*
X242835200Y-125192114D01*
X242835200Y-125455086D01*
X242886504Y-125713005D01*
X242987139Y-125955959D01*
X243133238Y-126174613D01*
X243319187Y-126360562D01*
X243537841Y-126506661D01*
X243747730Y-126593600D01*
X243537841Y-126680539D01*
X243319187Y-126826638D01*
X243133238Y-127012587D01*
X242987139Y-127231241D01*
X242886504Y-127474195D01*
X242835200Y-127732114D01*
X242835200Y-127995086D01*
X242886504Y-128253005D01*
X242987139Y-128495959D01*
X243133238Y-128714613D01*
X243319187Y-128900562D01*
X243537841Y-129046661D01*
X243751644Y-129135221D01*
X243588834Y-129194665D01*
X243487997Y-129248563D01*
X243428536Y-129482331D01*
X244170200Y-130223995D01*
X244911864Y-129482331D01*
X244852403Y-129248563D01*
X244613958Y-129137666D01*
X244594373Y-129132894D01*
X244802559Y-129046661D01*
X245021213Y-128900562D01*
X245207162Y-128714613D01*
X245353261Y-128495959D01*
X245440200Y-128286070D01*
X245527139Y-128495959D01*
X245673238Y-128714613D01*
X245859187Y-128900562D01*
X246077841Y-129046661D01*
X246287730Y-129133600D01*
X246077841Y-129220539D01*
X245859187Y-129366638D01*
X245673238Y-129552587D01*
X245527139Y-129771241D01*
X245438579Y-129985044D01*
X245379135Y-129822234D01*
X245325237Y-129721397D01*
X245091469Y-129661936D01*
X244349805Y-130403600D01*
X245091469Y-131145264D01*
X245325237Y-131085803D01*
X245436134Y-130847358D01*
X245440906Y-130827773D01*
X245527139Y-131035959D01*
X245673238Y-131254613D01*
X245859187Y-131440562D01*
X246077841Y-131586661D01*
X246287730Y-131673600D01*
X246077841Y-131760539D01*
X245859187Y-131906638D01*
X245673238Y-132092587D01*
X245527139Y-132311241D01*
X245440200Y-132521130D01*
X245353261Y-132311241D01*
X245207162Y-132092587D01*
X245021213Y-131906638D01*
X244802559Y-131760539D01*
X244588756Y-131671979D01*
X244751566Y-131612535D01*
X244852403Y-131558637D01*
X244911864Y-131324869D01*
X244170200Y-130583205D01*
X243428536Y-131324869D01*
X243487997Y-131558637D01*
X243726442Y-131669534D01*
X243746027Y-131674306D01*
X243537841Y-131760539D01*
X243319187Y-131906638D01*
X243133238Y-132092587D01*
X242987139Y-132311241D01*
X242886504Y-132554195D01*
X242835200Y-132812114D01*
X242835200Y-133075086D01*
X242886504Y-133333005D01*
X242987139Y-133575959D01*
X243133238Y-133794613D01*
X243319187Y-133980562D01*
X243537841Y-134126661D01*
X243747730Y-134213600D01*
X243537841Y-134300539D01*
X243319187Y-134446638D01*
X243133238Y-134632587D01*
X242987139Y-134851241D01*
X242886504Y-135094195D01*
X242835200Y-135352114D01*
X242835200Y-135615086D01*
X242886504Y-135873005D01*
X242987139Y-136115959D01*
X243133238Y-136334613D01*
X243319187Y-136520562D01*
X243537841Y-136666661D01*
X243747730Y-136753600D01*
X243537841Y-136840539D01*
X243319187Y-136986638D01*
X243133238Y-137172587D01*
X242987139Y-137391241D01*
X242886504Y-137634195D01*
X242835200Y-137892114D01*
X242835200Y-138155086D01*
X242886504Y-138413005D01*
X242987139Y-138655959D01*
X243133238Y-138874613D01*
X243319187Y-139060562D01*
X243537841Y-139206661D01*
X243747730Y-139293600D01*
X243537841Y-139380539D01*
X243319187Y-139526638D01*
X243133238Y-139712587D01*
X242987139Y-139931241D01*
X242886504Y-140174195D01*
X242835200Y-140432114D01*
X242835200Y-140695086D01*
X242886504Y-140953005D01*
X242987139Y-141195959D01*
X243133238Y-141414613D01*
X243319187Y-141600562D01*
X243537841Y-141746661D01*
X243747730Y-141833600D01*
X243537841Y-141920539D01*
X243319187Y-142066638D01*
X243133238Y-142252587D01*
X242987139Y-142471241D01*
X242886504Y-142714195D01*
X242835200Y-142972114D01*
X242835200Y-143235086D01*
X242886504Y-143493005D01*
X242987139Y-143735959D01*
X243133238Y-143954613D01*
X243319187Y-144140562D01*
X243537841Y-144286661D01*
X243747730Y-144373600D01*
X243537841Y-144460539D01*
X243319187Y-144606638D01*
X243133238Y-144792587D01*
X242987139Y-145011241D01*
X242886504Y-145254195D01*
X242835200Y-145512114D01*
X242835200Y-145775086D01*
X242886504Y-146033005D01*
X242987139Y-146275959D01*
X243133238Y-146494613D01*
X243319187Y-146680562D01*
X243537841Y-146826661D01*
X243780795Y-146927296D01*
X244038714Y-146978600D01*
X244301686Y-146978600D01*
X244559605Y-146927296D01*
X244802559Y-146826661D01*
X245021213Y-146680562D01*
X245136906Y-146564869D01*
X245968536Y-146564869D01*
X246027997Y-146798637D01*
X246266442Y-146909534D01*
X246521940Y-146971783D01*
X246784673Y-146982990D01*
X247044544Y-146942725D01*
X247291566Y-146852535D01*
X247392403Y-146798637D01*
X247451864Y-146564869D01*
X246710200Y-145823205D01*
X245968536Y-146564869D01*
X245136906Y-146564869D01*
X245207162Y-146494613D01*
X245353261Y-146275959D01*
X245441821Y-146062156D01*
X245501265Y-146224966D01*
X245555163Y-146325803D01*
X245788931Y-146385264D01*
X246530595Y-145643600D01*
X246889805Y-145643600D01*
X247631469Y-146385264D01*
X247865237Y-146325803D01*
X247976134Y-146087358D01*
X248038383Y-145831860D01*
X248038928Y-145819071D01*
X249523552Y-145819071D01*
X249578927Y-146335159D01*
X249733921Y-146830526D01*
X249956942Y-147247772D01*
X250323701Y-147463894D01*
X251991595Y-145796000D01*
X250323701Y-144128106D01*
X249956942Y-144344228D01*
X249716262Y-144804105D01*
X249569925Y-145302098D01*
X249523552Y-145819071D01*
X248038928Y-145819071D01*
X248049590Y-145569127D01*
X248009325Y-145309256D01*
X247919135Y-145062234D01*
X247865237Y-144961397D01*
X247631469Y-144901936D01*
X246889805Y-145643600D01*
X246530595Y-145643600D01*
X245788931Y-144901936D01*
X245555163Y-144961397D01*
X245444266Y-145199842D01*
X245439494Y-145219427D01*
X245353261Y-145011241D01*
X245207162Y-144792587D01*
X245021213Y-144606638D01*
X244802559Y-144460539D01*
X244592670Y-144373600D01*
X244802559Y-144286661D01*
X245021213Y-144140562D01*
X245207162Y-143954613D01*
X245353261Y-143735959D01*
X245440200Y-143526070D01*
X245527139Y-143735959D01*
X245673238Y-143954613D01*
X245859187Y-144140562D01*
X246077841Y-144286661D01*
X246291644Y-144375221D01*
X246128834Y-144434665D01*
X246027997Y-144488563D01*
X245968536Y-144722331D01*
X246710200Y-145463995D01*
X247451864Y-144722331D01*
X247392403Y-144488563D01*
X247153958Y-144377666D01*
X247134373Y-144372894D01*
X247342559Y-144286661D01*
X247561213Y-144140562D01*
X247747162Y-143954613D01*
X247751245Y-143948501D01*
X250503306Y-143948501D01*
X252171200Y-145616395D01*
X253839094Y-143948501D01*
X253622972Y-143581742D01*
X253163095Y-143341062D01*
X252665102Y-143194725D01*
X252148129Y-143148352D01*
X251632041Y-143203727D01*
X251136674Y-143358721D01*
X250719428Y-143581742D01*
X250503306Y-143948501D01*
X247751245Y-143948501D01*
X247893261Y-143735959D01*
X247993896Y-143493005D01*
X248045200Y-143235086D01*
X248045200Y-142972114D01*
X247993896Y-142714195D01*
X247893261Y-142471241D01*
X247747162Y-142252587D01*
X247561213Y-142066638D01*
X247342559Y-141920539D01*
X247132670Y-141833600D01*
X247342559Y-141746661D01*
X247561213Y-141600562D01*
X247747162Y-141414613D01*
X247893261Y-141195959D01*
X247993896Y-140953005D01*
X248045200Y-140695086D01*
X248045200Y-140432114D01*
X247993896Y-140174195D01*
X247893261Y-139931241D01*
X247747162Y-139712587D01*
X247561213Y-139526638D01*
X247342559Y-139380539D01*
X247132670Y-139293600D01*
X247342559Y-139206661D01*
X247561213Y-139060562D01*
X247747162Y-138874613D01*
X247893261Y-138655959D01*
X247993896Y-138413005D01*
X248045200Y-138155086D01*
X248045200Y-137892114D01*
X247993896Y-137634195D01*
X247893261Y-137391241D01*
X247747162Y-137172587D01*
X247561213Y-136986638D01*
X247342559Y-136840539D01*
X247132670Y-136753600D01*
X247342559Y-136666661D01*
X247561213Y-136520562D01*
X247747162Y-136334613D01*
X247893261Y-136115959D01*
X247993896Y-135873005D01*
X248045200Y-135615086D01*
X248045200Y-135352114D01*
X247993896Y-135094195D01*
X247893261Y-134851241D01*
X247747162Y-134632587D01*
X247561213Y-134446638D01*
X247342559Y-134300539D01*
X247132670Y-134213600D01*
X247342559Y-134126661D01*
X247561213Y-133980562D01*
X247747162Y-133794613D01*
X247893261Y-133575959D01*
X247993896Y-133333005D01*
X248045200Y-133075086D01*
X248045200Y-132812114D01*
X247993896Y-132554195D01*
X247893261Y-132311241D01*
X247747162Y-132092587D01*
X247561213Y-131906638D01*
X247342559Y-131760539D01*
X247132670Y-131673600D01*
X247342559Y-131586661D01*
X247561213Y-131440562D01*
X247747162Y-131254613D01*
X247893261Y-131035959D01*
X247993896Y-130793005D01*
X248045200Y-130535086D01*
X248045200Y-130272114D01*
X247993896Y-130014195D01*
X247893261Y-129771241D01*
X247747162Y-129552587D01*
X247561213Y-129366638D01*
X247342559Y-129220539D01*
X247132670Y-129133600D01*
X247342559Y-129046661D01*
X247561213Y-128900562D01*
X247747162Y-128714613D01*
X247893261Y-128495959D01*
X247993896Y-128253005D01*
X248045200Y-127995086D01*
X248045200Y-127732114D01*
X247993896Y-127474195D01*
X247893261Y-127231241D01*
X247747162Y-127012587D01*
X247561213Y-126826638D01*
X247342559Y-126680539D01*
X247132670Y-126593600D01*
X247342559Y-126506661D01*
X247561213Y-126360562D01*
X247747162Y-126174613D01*
X247893261Y-125955959D01*
X247993896Y-125713005D01*
X248045200Y-125455086D01*
X248045200Y-125192114D01*
X247993896Y-124934195D01*
X247893261Y-124691241D01*
X247747162Y-124472587D01*
X247561213Y-124286638D01*
X247342559Y-124140539D01*
X247132670Y-124053600D01*
X247342559Y-123966661D01*
X247561213Y-123820562D01*
X247747162Y-123634613D01*
X247893261Y-123415959D01*
X247993896Y-123173005D01*
X248045200Y-122915086D01*
X248045200Y-122652114D01*
X247993896Y-122394195D01*
X247893261Y-122151241D01*
X247747162Y-121932587D01*
X247561213Y-121746638D01*
X247342559Y-121600539D01*
X247099605Y-121499904D01*
X246841686Y-121448600D01*
X246578714Y-121448600D01*
X246320795Y-121499904D01*
X246077841Y-121600539D01*
X245859187Y-121746638D01*
X245673238Y-121932587D01*
X245527139Y-122151241D01*
X245440200Y-122361130D01*
X245353261Y-122151241D01*
X245207162Y-121932587D01*
X245021213Y-121746638D01*
X244802559Y-121600539D01*
X244559605Y-121499904D01*
X244301686Y-121448600D01*
X244038714Y-121448600D01*
X243780795Y-121499904D01*
X243537841Y-121600539D01*
X243319187Y-121746638D01*
X243133238Y-121932587D01*
X242987139Y-122151241D01*
X242886504Y-122394195D01*
X242835200Y-122652114D01*
X222645200Y-122652114D01*
X222593896Y-122394195D01*
X222493261Y-122151241D01*
X222347162Y-121932587D01*
X222161213Y-121746638D01*
X221942559Y-121600539D01*
X221699605Y-121499904D01*
X221441686Y-121448600D01*
X221178714Y-121448600D01*
X220920795Y-121499904D01*
X220677841Y-121600539D01*
X220459187Y-121746638D01*
X220273238Y-121932587D01*
X220127139Y-122151241D01*
X220040200Y-122361130D01*
X219953261Y-122151241D01*
X219807162Y-121932587D01*
X219621213Y-121746638D01*
X219402559Y-121600539D01*
X219159605Y-121499904D01*
X218901686Y-121448600D01*
X218638714Y-121448600D01*
X218380795Y-121499904D01*
X218137841Y-121600539D01*
X217919187Y-121746638D01*
X217733238Y-121932587D01*
X217587139Y-122151241D01*
X217486504Y-122394195D01*
X217435200Y-122652114D01*
X210513637Y-122652114D01*
X210497466Y-109491245D01*
X210536264Y-109026481D01*
X210652327Y-108620967D01*
X210844944Y-108245721D01*
X211106781Y-107915033D01*
X211427860Y-107641501D01*
X211808070Y-107428765D01*
X211942849Y-107378466D01*
X212435961Y-107378325D01*
X212389061Y-107397752D01*
X211834648Y-107768198D01*
X211363158Y-108239688D01*
X210992712Y-108794101D01*
X210737543Y-109410132D01*
X210607460Y-110064107D01*
X210607460Y-110730893D01*
X210737543Y-111384868D01*
X210992712Y-112000899D01*
X211363158Y-112555312D01*
X211834648Y-113026802D01*
X212389061Y-113397248D01*
X213005092Y-113652417D01*
X213659067Y-113782500D01*
X214325853Y-113782500D01*
X214979828Y-113652417D01*
X215595859Y-113397248D01*
X216150272Y-113026802D01*
X216621762Y-112555312D01*
X216992208Y-112000899D01*
X217247377Y-111384868D01*
X217377460Y-110730893D01*
X217377460Y-110426500D01*
X219398888Y-110426500D01*
X219421285Y-110653900D01*
X219487615Y-110872560D01*
X219588605Y-111061500D01*
X219487615Y-111250440D01*
X219421285Y-111469100D01*
X219398888Y-111696500D01*
X219421285Y-111923900D01*
X219487615Y-112142560D01*
X219595329Y-112344079D01*
X219740288Y-112520712D01*
X219916921Y-112665671D01*
X220118440Y-112773385D01*
X220337100Y-112839715D01*
X220507521Y-112856500D01*
X221071479Y-112856500D01*
X221241900Y-112839715D01*
X221460560Y-112773385D01*
X221662079Y-112665671D01*
X221838712Y-112520712D01*
X221983671Y-112344079D01*
X222091385Y-112142560D01*
X222157715Y-111923900D01*
X222180112Y-111696500D01*
X222157715Y-111469100D01*
X222091385Y-111250440D01*
X221990395Y-111061500D01*
X222091385Y-110872560D01*
X222157715Y-110653900D01*
X222180112Y-110426500D01*
X222157715Y-110199100D01*
X222094407Y-109990402D01*
X222129002Y-109925680D01*
X222165312Y-109805982D01*
X222177572Y-109681500D01*
X222174500Y-109442250D01*
X222015750Y-109283500D01*
X221242609Y-109283500D01*
X221241900Y-109283285D01*
X221071479Y-109266500D01*
X220507521Y-109266500D01*
X220337100Y-109283285D01*
X220336391Y-109283500D01*
X219563250Y-109283500D01*
X219404500Y-109442250D01*
X219401428Y-109681500D01*
X219413688Y-109805982D01*
X219449998Y-109925680D01*
X219484593Y-109990402D01*
X219421285Y-110199100D01*
X219398888Y-110426500D01*
X217377460Y-110426500D01*
X217377460Y-110064107D01*
X217247377Y-109410132D01*
X216992208Y-108794101D01*
X216883562Y-108631500D01*
X219401428Y-108631500D01*
X219404500Y-108870750D01*
X219563250Y-109029500D01*
X220662500Y-109029500D01*
X220662500Y-108155250D01*
X220916500Y-108155250D01*
X220916500Y-109029500D01*
X222015750Y-109029500D01*
X222174500Y-108870750D01*
X222177572Y-108631500D01*
X222165312Y-108507018D01*
X222129002Y-108387320D01*
X222070037Y-108277006D01*
X221990685Y-108180315D01*
X221893994Y-108100963D01*
X221783680Y-108041998D01*
X221663982Y-108005688D01*
X221539500Y-107993428D01*
X221075250Y-107996500D01*
X220916500Y-108155250D01*
X220662500Y-108155250D01*
X220503750Y-107996500D01*
X220039500Y-107993428D01*
X219915018Y-108005688D01*
X219795320Y-108041998D01*
X219685006Y-108100963D01*
X219588315Y-108180315D01*
X219508963Y-108277006D01*
X219449998Y-108387320D01*
X219413688Y-108507018D01*
X219401428Y-108631500D01*
X216883562Y-108631500D01*
X216621762Y-108239688D01*
X216150272Y-107768198D01*
X215595859Y-107397752D01*
X215546811Y-107377436D01*
X249738762Y-107367655D01*
X249666101Y-107397752D01*
M02*
