%FSLAX45Y45*%
G04 Gerber Fmt 4.5, Leading zero omitted, Abs format (unit mm)*
G04 Created by KiCad (PCBNEW 5.1.5+dfsg1-2build2) date 2021-05-18 17:37:48*
%MOMM*%
%LPD*%
G04 APERTURE LIST*
%TA.AperFunction,Profile*%
%ADD10C,0.025400*%
%TD*%
%ADD11C,0.200000*%
%ADD12C,0.300000*%
G04 APERTURE END LIST*
D10*
X21263356Y-15684500D02*
G75*
G02X20990560Y-15493242I-6094J281484D01*
G01*
X20985044Y-10945622D02*
G75*
G02X21182584Y-10673080I281173J4064D01*
G01*
X25529564Y-15411322D02*
G75*
G02X25337008Y-15684500I-281388J-6110D01*
G01*
X25535888Y-10863683D02*
X25529564Y-15411322D01*
X21182584Y-10673080D02*
X25262840Y-10671913D01*
X20990560Y-15493242D02*
X20984972Y-10945368D01*
X25337008Y-15684500D02*
X21263356Y-15684500D01*
X25262840Y-10671913D02*
G75*
G02X25535888Y-10863683I6348J-281234D01*
G01*
D11*
D12*
X21270130Y-16151550D02*
X21270130Y-15851550D01*
X21341559Y-15851550D01*
X21384416Y-15865836D01*
X21412988Y-15894407D01*
X21427273Y-15922979D01*
X21441559Y-15980122D01*
X21441559Y-16022979D01*
X21427273Y-16080122D01*
X21412988Y-16108693D01*
X21384416Y-16137264D01*
X21341559Y-16151550D01*
X21270130Y-16151550D01*
X21570130Y-16151550D02*
X21570130Y-15951550D01*
X21570130Y-16008693D02*
X21584416Y-15980122D01*
X21598702Y-15965836D01*
X21627273Y-15951550D01*
X21655845Y-15951550D01*
X21755845Y-16151550D02*
X21755845Y-15951550D01*
X21755845Y-15851550D02*
X21741559Y-15865836D01*
X21755845Y-15880122D01*
X21770130Y-15865836D01*
X21755845Y-15851550D01*
X21755845Y-15880122D01*
X21941559Y-16151550D02*
X21912988Y-16137264D01*
X21898702Y-16108693D01*
X21898702Y-15851550D01*
X22098702Y-16151550D02*
X22070130Y-16137264D01*
X22055845Y-16108693D01*
X22055845Y-15851550D01*
X22441559Y-16151550D02*
X22441559Y-15851550D01*
X22541559Y-16065836D01*
X22641559Y-15851550D01*
X22641559Y-16151550D01*
X22912988Y-16151550D02*
X22912988Y-15994407D01*
X22898702Y-15965836D01*
X22870130Y-15951550D01*
X22812988Y-15951550D01*
X22784416Y-15965836D01*
X22912988Y-16137264D02*
X22884416Y-16151550D01*
X22812988Y-16151550D01*
X22784416Y-16137264D01*
X22770130Y-16108693D01*
X22770130Y-16080122D01*
X22784416Y-16051550D01*
X22812988Y-16037264D01*
X22884416Y-16037264D01*
X22912988Y-16022979D01*
X23055845Y-15951550D02*
X23055845Y-16251550D01*
X23055845Y-15965836D02*
X23084416Y-15951550D01*
X23141559Y-15951550D01*
X23170130Y-15965836D01*
X23184416Y-15980122D01*
X23198702Y-16008693D01*
X23198702Y-16094407D01*
X23184416Y-16122979D01*
X23170130Y-16137264D01*
X23141559Y-16151550D01*
X23084416Y-16151550D01*
X23055845Y-16137264D01*
X23327273Y-16122979D02*
X23341559Y-16137264D01*
X23327273Y-16151550D01*
X23312988Y-16137264D01*
X23327273Y-16122979D01*
X23327273Y-16151550D01*
X23327273Y-15965836D02*
X23341559Y-15980122D01*
X23327273Y-15994407D01*
X23312988Y-15980122D01*
X23327273Y-15965836D01*
X23327273Y-15994407D01*
M02*
